G04 #@! TF.GenerationSoftware,KiCad,Pcbnew,(5.1.2-1)-1*
G04 #@! TF.CreationDate,2019-08-23T12:39:33+12:00*
G04 #@! TF.ProjectId,ccb,6363622e-6b69-4636-9164-5f7063625858,rev?*
G04 #@! TF.SameCoordinates,Original*
G04 #@! TF.FileFunction,Legend,Bot*
G04 #@! TF.FilePolarity,Positive*
%FSLAX46Y46*%
G04 Gerber Fmt 4.6, Leading zero omitted, Abs format (unit mm)*
G04 Created by KiCad (PCBNEW (5.1.2-1)-1) date 2019-08-23 12:39:33*
%MOMM*%
%LPD*%
G04 APERTURE LIST*
%ADD10C,0.150000*%
%ADD11C,0.120000*%
%ADD12C,0.400000*%
G04 APERTURE END LIST*
D10*
X114435391Y-56181904D02*
X115435391Y-56515238D01*
X114435391Y-56848571D01*
X115435391Y-57705714D02*
X115435391Y-57134285D01*
X115435391Y-57420000D02*
X114435391Y-57420000D01*
X114578249Y-57324761D01*
X114673487Y-57229523D01*
X114721106Y-57134285D01*
X115340153Y-58134285D02*
X115387772Y-58181904D01*
X115435391Y-58134285D01*
X115387772Y-58086666D01*
X115340153Y-58134285D01*
X115435391Y-58134285D01*
X114435391Y-58800952D02*
X114435391Y-58896190D01*
X114483011Y-58991428D01*
X114530630Y-59039047D01*
X114625868Y-59086666D01*
X114816344Y-59134285D01*
X115054439Y-59134285D01*
X115244915Y-59086666D01*
X115340153Y-59039047D01*
X115387772Y-58991428D01*
X115435391Y-58896190D01*
X115435391Y-58800952D01*
X115387772Y-58705714D01*
X115340153Y-58658095D01*
X115244915Y-58610476D01*
X115054439Y-58562857D01*
X114816344Y-58562857D01*
X114625868Y-58610476D01*
X114530630Y-58658095D01*
X114483011Y-58705714D01*
X114435391Y-58800952D01*
X115340153Y-59562857D02*
X115387772Y-59610476D01*
X115435391Y-59562857D01*
X115387772Y-59515238D01*
X115340153Y-59562857D01*
X115435391Y-59562857D01*
X114435391Y-60229523D02*
X114435391Y-60324761D01*
X114483011Y-60420000D01*
X114530630Y-60467619D01*
X114625868Y-60515238D01*
X114816344Y-60562857D01*
X115054439Y-60562857D01*
X115244915Y-60515238D01*
X115340153Y-60467619D01*
X115387772Y-60420000D01*
X115435391Y-60324761D01*
X115435391Y-60229523D01*
X115387772Y-60134285D01*
X115340153Y-60086666D01*
X115244915Y-60039047D01*
X115054439Y-59991428D01*
X114816344Y-59991428D01*
X114625868Y-60039047D01*
X114530630Y-60086666D01*
X114483011Y-60134285D01*
X114435391Y-60229523D01*
D11*
X155956000Y-59436000D02*
X155956000Y-50038000D01*
D10*
X157503761Y-50148023D02*
X157551380Y-50290880D01*
X157551380Y-50528976D01*
X157503761Y-50624214D01*
X157456142Y-50671833D01*
X157360904Y-50719452D01*
X157265666Y-50719452D01*
X157170428Y-50671833D01*
X157122809Y-50624214D01*
X157075190Y-50528976D01*
X157027571Y-50338500D01*
X156979952Y-50243261D01*
X156932333Y-50195642D01*
X156837095Y-50148023D01*
X156741857Y-50148023D01*
X156646619Y-50195642D01*
X156599000Y-50243261D01*
X156551380Y-50338500D01*
X156551380Y-50576595D01*
X156599000Y-50719452D01*
X157027571Y-51148023D02*
X157027571Y-51481357D01*
X157551380Y-51624214D02*
X157551380Y-51148023D01*
X156551380Y-51148023D01*
X156551380Y-51624214D01*
X157551380Y-52624214D02*
X157075190Y-52290880D01*
X157551380Y-52052785D02*
X156551380Y-52052785D01*
X156551380Y-52433738D01*
X156599000Y-52528976D01*
X156646619Y-52576595D01*
X156741857Y-52624214D01*
X156884714Y-52624214D01*
X156979952Y-52576595D01*
X157027571Y-52528976D01*
X157075190Y-52433738D01*
X157075190Y-52052785D01*
X156551380Y-52909928D02*
X157551380Y-53243261D01*
X156551380Y-53576595D01*
X156551380Y-54100404D02*
X156551380Y-54290880D01*
X156599000Y-54386119D01*
X156694238Y-54481357D01*
X156884714Y-54528976D01*
X157218047Y-54528976D01*
X157408523Y-54481357D01*
X157503761Y-54386119D01*
X157551380Y-54290880D01*
X157551380Y-54100404D01*
X157503761Y-54005166D01*
X157408523Y-53909928D01*
X157218047Y-53862309D01*
X156884714Y-53862309D01*
X156694238Y-53909928D01*
X156599000Y-54005166D01*
X156551380Y-54100404D01*
X157884714Y-55195642D02*
X156456142Y-55195642D01*
X157551380Y-56386119D02*
X157551380Y-55909928D01*
X156551380Y-55909928D01*
X157027571Y-56719452D02*
X157027571Y-57052785D01*
X157551380Y-57195642D02*
X157551380Y-56719452D01*
X156551380Y-56719452D01*
X156551380Y-57195642D01*
X157551380Y-57624214D02*
X156551380Y-57624214D01*
X156551380Y-57862309D01*
X156599000Y-58005166D01*
X156694238Y-58100404D01*
X156789476Y-58148023D01*
X156979952Y-58195642D01*
X157122809Y-58195642D01*
X157313285Y-58148023D01*
X157408523Y-58100404D01*
X157503761Y-58005166D01*
X157551380Y-57862309D01*
X157551380Y-57624214D01*
X157503761Y-58576595D02*
X157551380Y-58719452D01*
X157551380Y-58957547D01*
X157503761Y-59052785D01*
X157456142Y-59100404D01*
X157360904Y-59148023D01*
X157265666Y-59148023D01*
X157170428Y-59100404D01*
X157122809Y-59052785D01*
X157075190Y-58957547D01*
X157027571Y-58767071D01*
X156979952Y-58671833D01*
X156932333Y-58624214D01*
X156837095Y-58576595D01*
X156741857Y-58576595D01*
X156646619Y-58624214D01*
X156599000Y-58671833D01*
X156551380Y-58767071D01*
X156551380Y-59005166D01*
X156599000Y-59148023D01*
X124975000Y-75789404D02*
X124927380Y-75694166D01*
X124927380Y-75551309D01*
X124975000Y-75408452D01*
X125070238Y-75313214D01*
X125165476Y-75265595D01*
X125355952Y-75217976D01*
X125498809Y-75217976D01*
X125689285Y-75265595D01*
X125784523Y-75313214D01*
X125879761Y-75408452D01*
X125927380Y-75551309D01*
X125927380Y-75646547D01*
X125879761Y-75789404D01*
X125832142Y-75837023D01*
X125498809Y-75837023D01*
X125498809Y-75646547D01*
X125927380Y-76837023D02*
X125451190Y-76503690D01*
X125927380Y-76265595D02*
X124927380Y-76265595D01*
X124927380Y-76646547D01*
X124975000Y-76741785D01*
X125022619Y-76789404D01*
X125117857Y-76837023D01*
X125260714Y-76837023D01*
X125355952Y-76789404D01*
X125403571Y-76741785D01*
X125451190Y-76646547D01*
X125451190Y-76265595D01*
X124927380Y-77456071D02*
X124927380Y-77646547D01*
X124975000Y-77741785D01*
X125070238Y-77837023D01*
X125260714Y-77884642D01*
X125594047Y-77884642D01*
X125784523Y-77837023D01*
X125879761Y-77741785D01*
X125927380Y-77646547D01*
X125927380Y-77456071D01*
X125879761Y-77360833D01*
X125784523Y-77265595D01*
X125594047Y-77217976D01*
X125260714Y-77217976D01*
X125070238Y-77265595D01*
X124975000Y-77360833D01*
X124927380Y-77456071D01*
X124927380Y-78170357D02*
X125927380Y-78503690D01*
X124927380Y-78837023D01*
X125403571Y-79170357D02*
X125403571Y-79503690D01*
X125927380Y-79646547D02*
X125927380Y-79170357D01*
X124927380Y-79170357D01*
X124927380Y-79646547D01*
X125927380Y-80598928D02*
X125927380Y-80027500D01*
X125927380Y-80313214D02*
X124927380Y-80313214D01*
X125070238Y-80217976D01*
X125165476Y-80122738D01*
X125213095Y-80027500D01*
X124975000Y-68169404D02*
X124927380Y-68074166D01*
X124927380Y-67931309D01*
X124975000Y-67788452D01*
X125070238Y-67693214D01*
X125165476Y-67645595D01*
X125355952Y-67597976D01*
X125498809Y-67597976D01*
X125689285Y-67645595D01*
X125784523Y-67693214D01*
X125879761Y-67788452D01*
X125927380Y-67931309D01*
X125927380Y-68026547D01*
X125879761Y-68169404D01*
X125832142Y-68217023D01*
X125498809Y-68217023D01*
X125498809Y-68026547D01*
X125927380Y-69217023D02*
X125451190Y-68883690D01*
X125927380Y-68645595D02*
X124927380Y-68645595D01*
X124927380Y-69026547D01*
X124975000Y-69121785D01*
X125022619Y-69169404D01*
X125117857Y-69217023D01*
X125260714Y-69217023D01*
X125355952Y-69169404D01*
X125403571Y-69121785D01*
X125451190Y-69026547D01*
X125451190Y-68645595D01*
X124927380Y-69836071D02*
X124927380Y-70026547D01*
X124975000Y-70121785D01*
X125070238Y-70217023D01*
X125260714Y-70264642D01*
X125594047Y-70264642D01*
X125784523Y-70217023D01*
X125879761Y-70121785D01*
X125927380Y-70026547D01*
X125927380Y-69836071D01*
X125879761Y-69740833D01*
X125784523Y-69645595D01*
X125594047Y-69597976D01*
X125260714Y-69597976D01*
X125070238Y-69645595D01*
X124975000Y-69740833D01*
X124927380Y-69836071D01*
X124927380Y-70550357D02*
X125927380Y-70883690D01*
X124927380Y-71217023D01*
X125403571Y-71550357D02*
X125403571Y-71883690D01*
X125927380Y-72026547D02*
X125927380Y-71550357D01*
X124927380Y-71550357D01*
X124927380Y-72026547D01*
X125022619Y-72407500D02*
X124975000Y-72455119D01*
X124927380Y-72550357D01*
X124927380Y-72788452D01*
X124975000Y-72883690D01*
X125022619Y-72931309D01*
X125117857Y-72978928D01*
X125213095Y-72978928D01*
X125355952Y-72931309D01*
X125927380Y-72359880D01*
X125927380Y-72978928D01*
X124927380Y-52405595D02*
X125736904Y-52405595D01*
X125832142Y-52453214D01*
X125879761Y-52500833D01*
X125927380Y-52596071D01*
X125927380Y-52786547D01*
X125879761Y-52881785D01*
X125832142Y-52929404D01*
X125736904Y-52977023D01*
X124927380Y-52977023D01*
X125641666Y-53405595D02*
X125641666Y-53881785D01*
X125927380Y-53310357D02*
X124927380Y-53643690D01*
X125927380Y-53977023D01*
X125927380Y-54881785D02*
X125451190Y-54548452D01*
X125927380Y-54310357D02*
X124927380Y-54310357D01*
X124927380Y-54691309D01*
X124975000Y-54786547D01*
X125022619Y-54834166D01*
X125117857Y-54881785D01*
X125260714Y-54881785D01*
X125355952Y-54834166D01*
X125403571Y-54786547D01*
X125451190Y-54691309D01*
X125451190Y-54310357D01*
X124927380Y-55167500D02*
X124927380Y-55738928D01*
X125927380Y-55453214D02*
X124927380Y-55453214D01*
X125927380Y-44585595D02*
X124927380Y-44585595D01*
X125022619Y-45014166D02*
X124975000Y-45061785D01*
X124927380Y-45157023D01*
X124927380Y-45395119D01*
X124975000Y-45490357D01*
X125022619Y-45537976D01*
X125117857Y-45585595D01*
X125213095Y-45585595D01*
X125355952Y-45537976D01*
X125927380Y-44966547D01*
X125927380Y-45585595D01*
X125832142Y-46585595D02*
X125879761Y-46537976D01*
X125927380Y-46395119D01*
X125927380Y-46299880D01*
X125879761Y-46157023D01*
X125784523Y-46061785D01*
X125689285Y-46014166D01*
X125498809Y-45966547D01*
X125355952Y-45966547D01*
X125165476Y-46014166D01*
X125070238Y-46061785D01*
X124975000Y-46157023D01*
X124927380Y-46299880D01*
X124927380Y-46395119D01*
X124975000Y-46537976D01*
X125022619Y-46585595D01*
D12*
X105797714Y-53234285D02*
X105902476Y-53129523D01*
X106007238Y-52815238D01*
X106007238Y-52605714D01*
X105902476Y-52291428D01*
X105692952Y-52081904D01*
X105483428Y-51977142D01*
X105064380Y-51872380D01*
X104750095Y-51872380D01*
X104331047Y-51977142D01*
X104121523Y-52081904D01*
X103912000Y-52291428D01*
X103807238Y-52605714D01*
X103807238Y-52815238D01*
X103912000Y-53129523D01*
X104016761Y-53234285D01*
X106007238Y-54177142D02*
X104540571Y-54177142D01*
X104959619Y-54177142D02*
X104750095Y-54281904D01*
X104645333Y-54386666D01*
X104540571Y-54596190D01*
X104540571Y-54805714D01*
X105902476Y-56377142D02*
X106007238Y-56167619D01*
X106007238Y-55748571D01*
X105902476Y-55539047D01*
X105692952Y-55434285D01*
X104854857Y-55434285D01*
X104645333Y-55539047D01*
X104540571Y-55748571D01*
X104540571Y-56167619D01*
X104645333Y-56377142D01*
X104854857Y-56481904D01*
X105064380Y-56481904D01*
X105273904Y-55434285D01*
X106007238Y-58367619D02*
X104854857Y-58367619D01*
X104645333Y-58262857D01*
X104540571Y-58053333D01*
X104540571Y-57634285D01*
X104645333Y-57424761D01*
X105902476Y-58367619D02*
X106007238Y-58158095D01*
X106007238Y-57634285D01*
X105902476Y-57424761D01*
X105692952Y-57320000D01*
X105483428Y-57320000D01*
X105273904Y-57424761D01*
X105169142Y-57634285D01*
X105169142Y-58158095D01*
X105064380Y-58367619D01*
X104540571Y-59100952D02*
X104540571Y-59939047D01*
X103807238Y-59415238D02*
X105692952Y-59415238D01*
X105902476Y-59520000D01*
X106007238Y-59729523D01*
X106007238Y-59939047D01*
X104540571Y-61615238D02*
X106007238Y-61615238D01*
X104540571Y-60672380D02*
X105692952Y-60672380D01*
X105902476Y-60777142D01*
X106007238Y-60986666D01*
X106007238Y-61300952D01*
X105902476Y-61510476D01*
X105797714Y-61615238D01*
X106007238Y-62662857D02*
X104540571Y-62662857D01*
X104959619Y-62662857D02*
X104750095Y-62767619D01*
X104645333Y-62872380D01*
X104540571Y-63081904D01*
X104540571Y-63291428D01*
X105902476Y-64862857D02*
X106007238Y-64653333D01*
X106007238Y-64234285D01*
X105902476Y-64024761D01*
X105692952Y-63920000D01*
X104854857Y-63920000D01*
X104645333Y-64024761D01*
X104540571Y-64234285D01*
X104540571Y-64653333D01*
X104645333Y-64862857D01*
X104854857Y-64967619D01*
X105064380Y-64967619D01*
X105273904Y-63920000D01*
X109497714Y-54229523D02*
X109602476Y-54124761D01*
X109707238Y-53810476D01*
X109707238Y-53600952D01*
X109602476Y-53286666D01*
X109392952Y-53077142D01*
X109183428Y-52972380D01*
X108764380Y-52867619D01*
X108450095Y-52867619D01*
X108031047Y-52972380D01*
X107821523Y-53077142D01*
X107612000Y-53286666D01*
X107507238Y-53600952D01*
X107507238Y-53810476D01*
X107612000Y-54124761D01*
X107716761Y-54229523D01*
X109707238Y-55486666D02*
X109602476Y-55277142D01*
X109497714Y-55172380D01*
X109288190Y-55067619D01*
X108659619Y-55067619D01*
X108450095Y-55172380D01*
X108345333Y-55277142D01*
X108240571Y-55486666D01*
X108240571Y-55800952D01*
X108345333Y-56010476D01*
X108450095Y-56115238D01*
X108659619Y-56220000D01*
X109288190Y-56220000D01*
X109497714Y-56115238D01*
X109602476Y-56010476D01*
X109707238Y-55800952D01*
X109707238Y-55486666D01*
X108240571Y-57162857D02*
X109707238Y-57162857D01*
X108450095Y-57162857D02*
X108345333Y-57267619D01*
X108240571Y-57477142D01*
X108240571Y-57791428D01*
X108345333Y-58000952D01*
X108554857Y-58105714D01*
X109707238Y-58105714D01*
X108240571Y-58839047D02*
X108240571Y-59677142D01*
X107507238Y-59153333D02*
X109392952Y-59153333D01*
X109602476Y-59258095D01*
X109707238Y-59467619D01*
X109707238Y-59677142D01*
X109707238Y-60410476D02*
X108240571Y-60410476D01*
X108659619Y-60410476D02*
X108450095Y-60515238D01*
X108345333Y-60620000D01*
X108240571Y-60829523D01*
X108240571Y-61039047D01*
X109707238Y-62086666D02*
X109602476Y-61877142D01*
X109497714Y-61772380D01*
X109288190Y-61667619D01*
X108659619Y-61667619D01*
X108450095Y-61772380D01*
X108345333Y-61877142D01*
X108240571Y-62086666D01*
X108240571Y-62400952D01*
X108345333Y-62610476D01*
X108450095Y-62715238D01*
X108659619Y-62820000D01*
X109288190Y-62820000D01*
X109497714Y-62715238D01*
X109602476Y-62610476D01*
X109707238Y-62400952D01*
X109707238Y-62086666D01*
X109707238Y-64077142D02*
X109602476Y-63867619D01*
X109392952Y-63762857D01*
X107507238Y-63762857D01*
X112254857Y-54910476D02*
X112359619Y-55224761D01*
X112464380Y-55329523D01*
X112673904Y-55434285D01*
X112988190Y-55434285D01*
X113197714Y-55329523D01*
X113302476Y-55224761D01*
X113407238Y-55015238D01*
X113407238Y-54177142D01*
X111207238Y-54177142D01*
X111207238Y-54910476D01*
X111312000Y-55120000D01*
X111416761Y-55224761D01*
X111626285Y-55329523D01*
X111835809Y-55329523D01*
X112045333Y-55224761D01*
X112150095Y-55120000D01*
X112254857Y-54910476D01*
X112254857Y-54177142D01*
X113407238Y-56691428D02*
X113302476Y-56481904D01*
X113197714Y-56377142D01*
X112988190Y-56272380D01*
X112359619Y-56272380D01*
X112150095Y-56377142D01*
X112045333Y-56481904D01*
X111940571Y-56691428D01*
X111940571Y-57005714D01*
X112045333Y-57215238D01*
X112150095Y-57320000D01*
X112359619Y-57424761D01*
X112988190Y-57424761D01*
X113197714Y-57320000D01*
X113302476Y-57215238D01*
X113407238Y-57005714D01*
X113407238Y-56691428D01*
X113407238Y-59310476D02*
X112254857Y-59310476D01*
X112045333Y-59205714D01*
X111940571Y-58996190D01*
X111940571Y-58577142D01*
X112045333Y-58367619D01*
X113302476Y-59310476D02*
X113407238Y-59100952D01*
X113407238Y-58577142D01*
X113302476Y-58367619D01*
X113092952Y-58262857D01*
X112883428Y-58262857D01*
X112673904Y-58367619D01*
X112569142Y-58577142D01*
X112569142Y-59100952D01*
X112464380Y-59310476D01*
X113407238Y-60358095D02*
X111940571Y-60358095D01*
X112359619Y-60358095D02*
X112150095Y-60462857D01*
X112045333Y-60567619D01*
X111940571Y-60777142D01*
X111940571Y-60986666D01*
X113407238Y-62662857D02*
X111207238Y-62662857D01*
X113302476Y-62662857D02*
X113407238Y-62453333D01*
X113407238Y-62034285D01*
X113302476Y-61824761D01*
X113197714Y-61720000D01*
X112988190Y-61615238D01*
X112359619Y-61615238D01*
X112150095Y-61720000D01*
X112045333Y-61824761D01*
X111940571Y-62034285D01*
X111940571Y-62453333D01*
X112045333Y-62662857D01*
D10*
X140334952Y-84145428D02*
X139573047Y-84145428D01*
X142366952Y-84145428D02*
X141605047Y-84145428D01*
X141986000Y-84526380D02*
X141986000Y-83764476D01*
X138072761Y-80700952D02*
X138120380Y-80843809D01*
X138120380Y-81081904D01*
X138072761Y-81177142D01*
X138025142Y-81224761D01*
X137929904Y-81272380D01*
X137834666Y-81272380D01*
X137739428Y-81224761D01*
X137691809Y-81177142D01*
X137644190Y-81081904D01*
X137596571Y-80891428D01*
X137548952Y-80796190D01*
X137501333Y-80748571D01*
X137406095Y-80700952D01*
X137310857Y-80700952D01*
X137215619Y-80748571D01*
X137168000Y-80796190D01*
X137120380Y-80891428D01*
X137120380Y-81129523D01*
X137168000Y-81272380D01*
X138120380Y-81700952D02*
X137120380Y-81700952D01*
X137120380Y-82081904D01*
X137168000Y-82177142D01*
X137215619Y-82224761D01*
X137310857Y-82272380D01*
X137453714Y-82272380D01*
X137548952Y-82224761D01*
X137596571Y-82177142D01*
X137644190Y-82081904D01*
X137644190Y-81700952D01*
X137596571Y-82700952D02*
X137596571Y-83034285D01*
X138120380Y-83177142D02*
X138120380Y-82700952D01*
X137120380Y-82700952D01*
X137120380Y-83177142D01*
X137834666Y-83558095D02*
X137834666Y-84034285D01*
X138120380Y-83462857D02*
X137120380Y-83796190D01*
X138120380Y-84129523D01*
X138120380Y-84462857D02*
X137120380Y-84462857D01*
X138120380Y-85034285D02*
X137548952Y-84605714D01*
X137120380Y-85034285D02*
X137691809Y-84462857D01*
X137596571Y-85462857D02*
X137596571Y-85796190D01*
X138120380Y-85939047D02*
X138120380Y-85462857D01*
X137120380Y-85462857D01*
X137120380Y-85939047D01*
X138120380Y-86939047D02*
X137644190Y-86605714D01*
X138120380Y-86367619D02*
X137120380Y-86367619D01*
X137120380Y-86748571D01*
X137168000Y-86843809D01*
X137215619Y-86891428D01*
X137310857Y-86939047D01*
X137453714Y-86939047D01*
X137548952Y-86891428D01*
X137596571Y-86843809D01*
X137644190Y-86748571D01*
X137644190Y-86367619D01*
X109140312Y-70333451D02*
X109117279Y-70270168D01*
X109007931Y-70166637D01*
X108921616Y-70126387D01*
X108772019Y-70109171D01*
X108645454Y-70155237D01*
X108562048Y-70221427D01*
X108438391Y-70373932D01*
X108378017Y-70503405D01*
X108340676Y-70696160D01*
X108343584Y-70802599D01*
X108389650Y-70929164D01*
X108498998Y-71032695D01*
X108585313Y-71072945D01*
X108734910Y-71090161D01*
X108798192Y-71067128D01*
X109405073Y-70667078D02*
X109836648Y-70868325D01*
X109439506Y-70367884D02*
X109318991Y-71415064D01*
X110043711Y-70649629D01*
X110345814Y-70790502D02*
X109923196Y-71696810D01*
X110268456Y-71857807D01*
X110374896Y-71854899D01*
X110438178Y-71831866D01*
X110521585Y-71765676D01*
X110581959Y-71636203D01*
X110579051Y-71529763D01*
X110556018Y-71466481D01*
X110489827Y-71383074D01*
X110144567Y-71222077D01*
X111726854Y-71434492D02*
X111208964Y-71192995D01*
X111467909Y-71313743D02*
X111045291Y-72220051D01*
X111019350Y-72050329D01*
X110973284Y-71923765D01*
X110907094Y-71840358D01*
X100228565Y-64300407D02*
X100222696Y-64233319D01*
X100143870Y-64105014D01*
X100070913Y-64043797D01*
X99930870Y-63988448D01*
X99796695Y-64000187D01*
X99698999Y-64042534D01*
X99540085Y-64157839D01*
X99448258Y-64267274D01*
X99362301Y-64443796D01*
X99337561Y-64547361D01*
X99349300Y-64681536D01*
X99428126Y-64809841D01*
X99501082Y-64871059D01*
X99641126Y-64926407D01*
X99708214Y-64920538D01*
X100397956Y-64691191D02*
X100762739Y-64997281D01*
X100508653Y-64411104D02*
X100121214Y-65391411D01*
X101019349Y-64839629D01*
X101274698Y-65053891D02*
X100631910Y-65819936D01*
X100923736Y-66064807D01*
X101027302Y-66089547D01*
X101094389Y-66083677D01*
X101192085Y-66041330D01*
X101283912Y-65931895D01*
X101308652Y-65828329D01*
X101302782Y-65761242D01*
X101260435Y-65663546D01*
X100968608Y-65418674D01*
X101422694Y-66359158D02*
X101428563Y-66426245D01*
X101470911Y-66523941D01*
X101653303Y-66676986D01*
X101756868Y-66701725D01*
X101823955Y-66695856D01*
X101921652Y-66653508D01*
X101982869Y-66580552D01*
X102038218Y-66440508D01*
X101967785Y-65635461D01*
X102442003Y-66033377D01*
X101398568Y-51639581D02*
X101465655Y-51645451D01*
X101605699Y-51590102D01*
X101678655Y-51528884D01*
X101757481Y-51400579D01*
X101769220Y-51266405D01*
X101744480Y-51162839D01*
X101658523Y-50986317D01*
X101566696Y-50876882D01*
X101407782Y-50761578D01*
X101310086Y-50719230D01*
X101175912Y-50707491D01*
X101035868Y-50762840D01*
X100962911Y-50824058D01*
X100884085Y-50952363D01*
X100878216Y-51019450D01*
X100984305Y-51738540D02*
X100619522Y-52044629D01*
X101240916Y-51896192D02*
X100342780Y-51344410D01*
X100730219Y-52324717D01*
X100474871Y-52538979D02*
X99832084Y-51772935D01*
X99540257Y-52017806D01*
X99497909Y-52115502D01*
X99492040Y-52182590D01*
X99516780Y-52286155D01*
X99608606Y-52395590D01*
X99706303Y-52437938D01*
X99773390Y-52443807D01*
X99876955Y-52419068D01*
X100168782Y-52174196D01*
X99138996Y-52354504D02*
X98664778Y-52752421D01*
X99164997Y-52829985D01*
X99055562Y-52921811D01*
X99013215Y-53019507D01*
X99007345Y-53086595D01*
X99032085Y-53190160D01*
X99185130Y-53372552D01*
X99282826Y-53414899D01*
X99349913Y-53420769D01*
X99453479Y-53396029D01*
X99672348Y-53212376D01*
X99714696Y-53114680D01*
X99720565Y-53047592D01*
X111140102Y-76631409D02*
X111203384Y-76608377D01*
X111306916Y-76499029D01*
X111347165Y-76412714D01*
X111364382Y-76263116D01*
X111318316Y-76136552D01*
X111252126Y-76053145D01*
X111099620Y-75929489D01*
X110970148Y-75869115D01*
X110777393Y-75831774D01*
X110670953Y-75834682D01*
X110544389Y-75880747D01*
X110440857Y-75990095D01*
X110400608Y-76076410D01*
X110383391Y-76226008D01*
X110406424Y-76289290D01*
X110058488Y-76810088D02*
X110018239Y-76896403D01*
X110021147Y-77002843D01*
X110044180Y-77066125D01*
X110110370Y-77149532D01*
X110262876Y-77273188D01*
X110478663Y-77373812D01*
X110671418Y-77411153D01*
X110777858Y-77408245D01*
X110841140Y-77385212D01*
X110924547Y-77319021D01*
X110964796Y-77232706D01*
X110961888Y-77126267D01*
X110938855Y-77062984D01*
X110872665Y-76979578D01*
X110720160Y-76855921D01*
X110504372Y-76755298D01*
X110311617Y-76717957D01*
X110205178Y-76720865D01*
X110141895Y-76743898D01*
X110058488Y-76810088D01*
X109327487Y-75786173D02*
X109390769Y-75763141D01*
X109494301Y-75653793D01*
X109534550Y-75567478D01*
X109551767Y-75417880D01*
X109505701Y-75291316D01*
X109439511Y-75207909D01*
X109287005Y-75084253D01*
X109157533Y-75023879D01*
X108964778Y-74986538D01*
X108858338Y-74989446D01*
X108731774Y-75035511D01*
X108628242Y-75144859D01*
X108587993Y-75231174D01*
X108570776Y-75380772D01*
X108593809Y-75444054D01*
X109011308Y-76689573D02*
X109252805Y-76171683D01*
X109132057Y-76430628D02*
X108225749Y-76008010D01*
X108395471Y-75982069D01*
X108522035Y-75936003D01*
X108605442Y-75869813D01*
X107514871Y-74940936D02*
X107578153Y-74917904D01*
X107681685Y-74808556D01*
X107721934Y-74722241D01*
X107739151Y-74572643D01*
X107693085Y-74446079D01*
X107626895Y-74362672D01*
X107474389Y-74239016D01*
X107344917Y-74178642D01*
X107152162Y-74141301D01*
X107045722Y-74144209D01*
X106919158Y-74190274D01*
X106815626Y-74299622D01*
X106775377Y-74385937D01*
X106758160Y-74535535D01*
X106781193Y-74598817D01*
X106620196Y-74944077D02*
X106556914Y-74967110D01*
X106473507Y-75033300D01*
X106372883Y-75249088D01*
X106375792Y-75355527D01*
X106398824Y-75418810D01*
X106465015Y-75502216D01*
X106551330Y-75542466D01*
X106700927Y-75559682D01*
X107460313Y-75283288D01*
X107198692Y-75844336D01*
X105702256Y-74095700D02*
X105765538Y-74072668D01*
X105869070Y-73963320D01*
X105909319Y-73877005D01*
X105926536Y-73727407D01*
X105880470Y-73600843D01*
X105814280Y-73517436D01*
X105661774Y-73393780D01*
X105532302Y-73333406D01*
X105339547Y-73296065D01*
X105233107Y-73298973D01*
X105106543Y-73345038D01*
X105003011Y-73454386D01*
X104962762Y-73540701D01*
X104945545Y-73690299D01*
X104968578Y-73753581D01*
X104741391Y-74015434D02*
X104479770Y-74576482D01*
X104965903Y-74435377D01*
X104905529Y-74564849D01*
X104908437Y-74671289D01*
X104931470Y-74734571D01*
X104997660Y-74817978D01*
X105213447Y-74918601D01*
X105319887Y-74915693D01*
X105383169Y-74892660D01*
X105466576Y-74826470D01*
X105587324Y-74567525D01*
X105584416Y-74461085D01*
X105561383Y-74397803D01*
X98869181Y-69807126D02*
X98936268Y-69801257D01*
X99064573Y-69722431D01*
X99125791Y-69649474D01*
X99181140Y-69509430D01*
X99169401Y-69375256D01*
X99127053Y-69277560D01*
X99011749Y-69118646D01*
X98902314Y-69026819D01*
X98725792Y-68940861D01*
X98622226Y-68916122D01*
X98488052Y-68927860D01*
X98359747Y-69006686D01*
X98298529Y-69079643D01*
X98243181Y-69219687D01*
X98249050Y-69286774D01*
X97594524Y-69918644D02*
X97900613Y-69553861D01*
X98296005Y-69823472D01*
X98228918Y-69829341D01*
X98131221Y-69871689D01*
X97978177Y-70054081D01*
X97953437Y-70157646D01*
X97959307Y-70224733D01*
X98001654Y-70322430D01*
X98184046Y-70475474D01*
X98287611Y-70500214D01*
X98354699Y-70494345D01*
X98452395Y-70451997D01*
X98605439Y-70269605D01*
X98630179Y-70166040D01*
X98624310Y-70098953D01*
X100401269Y-71092701D02*
X100468356Y-71086832D01*
X100596661Y-71008006D01*
X100657879Y-70935049D01*
X100713228Y-70795005D01*
X100701489Y-70660831D01*
X100659141Y-70563135D01*
X100543837Y-70404221D01*
X100434402Y-70312394D01*
X100257880Y-70226436D01*
X100154314Y-70201697D01*
X100020140Y-70213435D01*
X99891835Y-70292261D01*
X99830617Y-70365218D01*
X99775269Y-70505262D01*
X99781138Y-70572349D01*
X99412569Y-71382003D02*
X99923265Y-71810528D01*
X99273787Y-70954740D02*
X99974006Y-71231483D01*
X99576090Y-71705701D01*
X97337092Y-68521551D02*
X97404179Y-68515682D01*
X97532484Y-68436856D01*
X97593702Y-68363899D01*
X97649051Y-68223855D01*
X97637312Y-68089681D01*
X97594964Y-67991985D01*
X97479660Y-67833071D01*
X97370225Y-67741244D01*
X97193703Y-67655286D01*
X97090137Y-67630547D01*
X96955963Y-67642285D01*
X96827658Y-67721111D01*
X96766440Y-67794068D01*
X96711092Y-67934112D01*
X96716961Y-68001199D01*
X96093043Y-68596591D02*
X96215479Y-68450678D01*
X96313175Y-68408330D01*
X96380263Y-68402461D01*
X96550915Y-68421331D01*
X96727438Y-68507288D01*
X97019264Y-68752160D01*
X97061612Y-68849856D01*
X97067481Y-68916943D01*
X97042742Y-69020509D01*
X96920306Y-69166422D01*
X96822610Y-69208770D01*
X96755522Y-69214639D01*
X96651957Y-69189899D01*
X96469565Y-69036855D01*
X96427218Y-68939158D01*
X96421348Y-68872071D01*
X96446088Y-68768506D01*
X96568524Y-68622592D01*
X96666220Y-68580245D01*
X96733307Y-68574375D01*
X96836873Y-68599115D01*
X95805003Y-67235976D02*
X95872090Y-67230107D01*
X96000395Y-67151281D01*
X96061613Y-67078324D01*
X96116962Y-66938280D01*
X96105223Y-66804106D01*
X96062875Y-66706410D01*
X95947571Y-66547496D01*
X95838136Y-66455669D01*
X95661614Y-66369711D01*
X95558048Y-66344972D01*
X95423874Y-66356710D01*
X95295569Y-66435536D01*
X95234351Y-66508493D01*
X95179003Y-66648537D01*
X95184872Y-66715624D01*
X94897653Y-66909754D02*
X94469128Y-67420451D01*
X95510653Y-67734934D01*
X96972244Y-48961087D02*
X96978113Y-48894000D01*
X96922764Y-48753956D01*
X96861547Y-48680999D01*
X96733242Y-48602173D01*
X96599067Y-48590434D01*
X96495501Y-48615174D01*
X96318979Y-48701131D01*
X96209544Y-48792958D01*
X96094240Y-48951872D01*
X96051892Y-49049568D01*
X96040154Y-49183743D01*
X96095502Y-49323787D01*
X96156720Y-49396743D01*
X96285025Y-49475569D01*
X96352112Y-49481439D01*
X97351290Y-49264652D02*
X97473725Y-49410565D01*
X97498465Y-49514131D01*
X97492595Y-49581218D01*
X97444378Y-49746001D01*
X97329074Y-49904915D01*
X97037248Y-50149787D01*
X96933682Y-50174527D01*
X96866595Y-50168657D01*
X96768899Y-50126309D01*
X96646463Y-49980396D01*
X96621723Y-49876831D01*
X96627593Y-49809743D01*
X96669940Y-49712047D01*
X96852332Y-49559003D01*
X96955898Y-49534263D01*
X97022985Y-49540132D01*
X97120681Y-49582480D01*
X97243117Y-49728393D01*
X97267856Y-49831959D01*
X97261987Y-49899046D01*
X97219639Y-49996742D01*
X99424243Y-45660370D02*
X99430112Y-45593282D01*
X99374764Y-45453239D01*
X99313546Y-45380282D01*
X99185241Y-45301456D01*
X99051066Y-45289717D01*
X98947501Y-45314457D01*
X98770979Y-45400414D01*
X98661544Y-45492241D01*
X98546239Y-45651155D01*
X98503892Y-45748851D01*
X98492153Y-45883026D01*
X98547501Y-46023070D01*
X98608719Y-46096026D01*
X98737024Y-46174852D01*
X98804112Y-46180722D01*
X100109378Y-46328718D02*
X99742071Y-45890978D01*
X99925725Y-46109848D02*
X99159680Y-46752636D01*
X99207897Y-46587852D01*
X99219636Y-46453678D01*
X99194896Y-46350112D01*
X100721557Y-47058284D02*
X100354250Y-46620544D01*
X100537903Y-46839414D02*
X99771859Y-47482202D01*
X99820076Y-47317418D01*
X99831815Y-47183244D01*
X99807075Y-47079678D01*
X95440156Y-50246661D02*
X95446025Y-50179574D01*
X95390676Y-50039530D01*
X95329459Y-49966573D01*
X95201154Y-49887747D01*
X95066979Y-49876008D01*
X94963413Y-49900748D01*
X94786891Y-49986705D01*
X94677456Y-50078532D01*
X94562152Y-50237446D01*
X94519804Y-50335142D01*
X94508066Y-50469317D01*
X94563414Y-50609361D01*
X94624632Y-50682317D01*
X94752937Y-50761143D01*
X94820024Y-50767013D01*
X95442680Y-50990490D02*
X95344984Y-50948142D01*
X95277896Y-50942273D01*
X95174331Y-50967012D01*
X95137852Y-50997621D01*
X95095505Y-51095317D01*
X95089635Y-51162405D01*
X95114375Y-51265970D01*
X95236811Y-51411883D01*
X95334507Y-51454231D01*
X95401594Y-51460101D01*
X95505160Y-51435361D01*
X95541638Y-51404752D01*
X95583986Y-51307056D01*
X95589855Y-51239969D01*
X95565115Y-51136403D01*
X95442680Y-50990490D01*
X95417940Y-50886924D01*
X95423810Y-50819837D01*
X95466157Y-50722141D01*
X95612070Y-50599705D01*
X95715636Y-50574966D01*
X95782723Y-50580835D01*
X95880419Y-50623183D01*
X96002855Y-50769096D01*
X96027595Y-50872661D01*
X96021725Y-50939749D01*
X95979378Y-51037445D01*
X95833464Y-51159881D01*
X95729899Y-51184620D01*
X95662812Y-51178751D01*
X95565115Y-51136403D01*
X97892154Y-46945946D02*
X97898023Y-46878858D01*
X97842675Y-46738815D01*
X97781457Y-46665858D01*
X97653152Y-46587032D01*
X97518977Y-46575293D01*
X97415412Y-46600033D01*
X97238890Y-46685990D01*
X97129455Y-46777817D01*
X97014150Y-46936731D01*
X96971803Y-47034427D01*
X96960064Y-47168602D01*
X97015412Y-47308646D01*
X97076630Y-47381602D01*
X97204935Y-47460428D01*
X97272023Y-47466298D01*
X98577289Y-47614294D02*
X98209982Y-47176554D01*
X98393636Y-47395424D02*
X97627591Y-48038212D01*
X97675808Y-47873428D01*
X97687547Y-47739254D01*
X97662807Y-47635688D01*
X98209161Y-48731300D02*
X98270379Y-48804256D01*
X98368075Y-48846604D01*
X98435162Y-48852473D01*
X98538728Y-48827734D01*
X98715250Y-48741776D01*
X98897641Y-48588732D01*
X99012946Y-48429817D01*
X99055293Y-48332121D01*
X99061163Y-48265034D01*
X99036423Y-48161469D01*
X98975205Y-48088512D01*
X98877509Y-48046164D01*
X98810422Y-48040295D01*
X98706856Y-48065034D01*
X98530334Y-48150992D01*
X98347943Y-48304037D01*
X98232638Y-48462951D01*
X98190291Y-48560647D01*
X98184421Y-48627734D01*
X98209161Y-48731300D01*
X105023361Y-42341874D02*
X105046394Y-42278592D01*
X105029177Y-42128994D01*
X104988928Y-42042679D01*
X104885396Y-41933331D01*
X104758832Y-41887266D01*
X104652392Y-41884358D01*
X104459637Y-41921699D01*
X104330165Y-41982073D01*
X104177659Y-42105729D01*
X104111469Y-42189136D01*
X104065403Y-42315700D01*
X104082620Y-42465298D01*
X104122869Y-42551613D01*
X104226401Y-42660961D01*
X104289683Y-42683993D01*
X105512169Y-43164775D02*
X105270673Y-42646885D01*
X105391421Y-42905830D02*
X104485113Y-43328448D01*
X104574337Y-43181759D01*
X104620402Y-43055194D01*
X104623310Y-42948755D01*
X104853174Y-43892404D02*
X104830141Y-43955686D01*
X104827233Y-44062126D01*
X104927856Y-44277913D01*
X105011263Y-44344104D01*
X105074545Y-44367136D01*
X105180985Y-44370045D01*
X105267300Y-44329795D01*
X105376648Y-44226264D01*
X105653042Y-43466877D01*
X105914663Y-44027925D01*
X106835976Y-41496638D02*
X106859009Y-41433356D01*
X106841792Y-41283758D01*
X106801543Y-41197443D01*
X106698011Y-41088095D01*
X106571447Y-41042030D01*
X106465007Y-41039122D01*
X106272252Y-41076463D01*
X106142780Y-41136837D01*
X105990274Y-41260493D01*
X105924084Y-41343900D01*
X105878018Y-41470464D01*
X105895235Y-41620062D01*
X105935484Y-41706377D01*
X106039016Y-41815725D01*
X106102298Y-41838757D01*
X107324784Y-42319539D02*
X107083288Y-41801649D01*
X107204036Y-42060594D02*
X106297728Y-42483212D01*
X106386952Y-42336523D01*
X106433017Y-42209958D01*
X106435925Y-42103519D01*
X106559349Y-43044260D02*
X106820970Y-43605307D01*
X107025357Y-43142207D01*
X107085731Y-43271680D01*
X107169138Y-43337870D01*
X107232421Y-43360903D01*
X107338860Y-43363811D01*
X107554648Y-43263188D01*
X107620838Y-43179781D01*
X107643871Y-43116499D01*
X107646779Y-43010059D01*
X107526031Y-42751114D01*
X107442624Y-42684923D01*
X107379342Y-42661891D01*
X108648592Y-40651401D02*
X108671625Y-40588119D01*
X108654408Y-40438521D01*
X108614159Y-40352206D01*
X108510627Y-40242858D01*
X108384063Y-40196793D01*
X108277623Y-40193885D01*
X108084868Y-40231226D01*
X107955396Y-40291600D01*
X107802890Y-40415256D01*
X107736700Y-40498663D01*
X107690634Y-40625227D01*
X107707851Y-40774825D01*
X107748100Y-40861140D01*
X107851632Y-40970488D01*
X107914914Y-40993520D01*
X109137400Y-41474302D02*
X108895904Y-40956412D01*
X109016652Y-41215357D02*
X108110344Y-41637975D01*
X108199568Y-41491286D01*
X108245633Y-41364721D01*
X108248541Y-41258282D01*
X108895439Y-42532882D02*
X109499645Y-42251137D01*
X108449556Y-42478092D02*
X108996295Y-41960435D01*
X109257916Y-42521482D01*
X110461207Y-39806165D02*
X110484240Y-39742883D01*
X110467023Y-39593285D01*
X110426774Y-39506970D01*
X110323242Y-39397622D01*
X110196678Y-39351557D01*
X110090238Y-39348649D01*
X109897483Y-39385990D01*
X109768011Y-39446364D01*
X109615505Y-39570020D01*
X109549315Y-39653427D01*
X109503249Y-39779991D01*
X109520466Y-39929589D01*
X109560715Y-40015904D01*
X109664247Y-40125252D01*
X109727529Y-40148284D01*
X110950015Y-40629066D02*
X110708519Y-40111176D01*
X110829267Y-40370121D02*
X109922959Y-40792739D01*
X110012183Y-40646050D01*
X110058248Y-40519485D01*
X110061156Y-40413046D01*
X110426076Y-41871677D02*
X110224830Y-41440102D01*
X110636280Y-41195697D01*
X110613247Y-41258979D01*
X110610339Y-41365419D01*
X110710962Y-41581207D01*
X110794369Y-41647397D01*
X110857652Y-41670430D01*
X110964091Y-41673338D01*
X111179879Y-41572715D01*
X111246069Y-41489308D01*
X111269102Y-41426026D01*
X111272010Y-41319586D01*
X111171387Y-41103798D01*
X111087980Y-41037608D01*
X111024698Y-41014575D01*
X110617557Y-46088813D02*
X110680840Y-46111846D01*
X110830437Y-46094630D01*
X110916752Y-46054380D01*
X111026100Y-45950849D01*
X111072165Y-45824284D01*
X111075074Y-45717845D01*
X111037732Y-45525090D01*
X110977358Y-45395617D01*
X110853702Y-45243112D01*
X110770295Y-45176922D01*
X110643731Y-45130856D01*
X110494134Y-45148072D01*
X110407819Y-45188322D01*
X110298471Y-45291853D01*
X110275438Y-45355136D01*
X110191799Y-46077181D02*
X109760223Y-46278427D01*
X110398862Y-46295876D02*
X109674141Y-45530441D01*
X109794656Y-46577622D01*
X109492554Y-46718495D02*
X109069936Y-45812187D01*
X108724676Y-45973184D01*
X108658485Y-46056591D01*
X108635452Y-46119873D01*
X108632544Y-46226313D01*
X108692918Y-46355786D01*
X108776325Y-46421976D01*
X108839607Y-46445009D01*
X108946047Y-46447917D01*
X109291307Y-46286919D01*
X107916083Y-46718030D02*
X108197828Y-47322235D01*
X107970873Y-46272146D02*
X108488531Y-46818886D01*
X107927483Y-47080506D01*
D11*
X155829000Y-60960000D02*
X153670000Y-60960000D01*
X155829000Y-63500000D02*
X153670000Y-63500000D01*
X155829000Y-66040000D02*
X153670000Y-66040000D01*
X155829000Y-68580000D02*
X153670000Y-68580000D01*
X155829000Y-71120000D02*
X153670000Y-71120000D01*
X155829000Y-73660000D02*
X153670000Y-73660000D01*
X155829000Y-76200000D02*
X153670000Y-76200000D01*
X158369000Y-59436000D02*
X158369000Y-50038000D01*
X162995000Y-55506000D02*
X162995000Y-59436000D01*
X160655000Y-59436000D02*
X160655000Y-55506000D01*
D10*
X158964380Y-55957547D02*
X159964380Y-56290880D01*
X158964380Y-56624214D01*
X159440571Y-57290880D02*
X159488190Y-57433738D01*
X159535809Y-57481357D01*
X159631047Y-57528976D01*
X159773904Y-57528976D01*
X159869142Y-57481357D01*
X159916761Y-57433738D01*
X159964380Y-57338500D01*
X159964380Y-56957547D01*
X158964380Y-56957547D01*
X158964380Y-57290880D01*
X159012000Y-57386119D01*
X159059619Y-57433738D01*
X159154857Y-57481357D01*
X159250095Y-57481357D01*
X159345333Y-57433738D01*
X159392952Y-57386119D01*
X159440571Y-57290880D01*
X159440571Y-56957547D01*
X159678666Y-57909928D02*
X159678666Y-58386119D01*
X159964380Y-57814690D02*
X158964380Y-58148023D01*
X159964380Y-58481357D01*
X158964380Y-58671833D02*
X158964380Y-59243261D01*
X159964380Y-58957547D02*
X158964380Y-58957547D01*
X161456000Y-57052785D02*
X161408380Y-56957547D01*
X161408380Y-56814690D01*
X161456000Y-56671833D01*
X161551238Y-56576595D01*
X161646476Y-56528976D01*
X161836952Y-56481357D01*
X161979809Y-56481357D01*
X162170285Y-56528976D01*
X162265523Y-56576595D01*
X162360761Y-56671833D01*
X162408380Y-56814690D01*
X162408380Y-56909928D01*
X162360761Y-57052785D01*
X162313142Y-57100404D01*
X161979809Y-57100404D01*
X161979809Y-56909928D01*
X162408380Y-57528976D02*
X161408380Y-57528976D01*
X162408380Y-58100404D01*
X161408380Y-58100404D01*
X162408380Y-58576595D02*
X161408380Y-58576595D01*
X161408380Y-58814690D01*
X161456000Y-58957547D01*
X161551238Y-59052785D01*
X161646476Y-59100404D01*
X161836952Y-59148023D01*
X161979809Y-59148023D01*
X162170285Y-59100404D01*
X162265523Y-59052785D01*
X162360761Y-58957547D01*
X162408380Y-58814690D01*
X162408380Y-58576595D01*
D11*
X116475000Y-78260000D02*
X116475000Y-74810000D01*
X124275000Y-74810000D02*
X124275000Y-78260000D01*
X120375000Y-78260000D02*
X120375000Y-74810000D01*
X118425000Y-78260000D02*
X118425000Y-74810000D01*
X122325000Y-78260000D02*
X122325000Y-74810000D01*
X122325000Y-70640000D02*
X122325000Y-67190000D01*
X118425000Y-70640000D02*
X118425000Y-67190000D01*
X120375000Y-70640000D02*
X120375000Y-67190000D01*
X116475000Y-70640000D02*
X116475000Y-67190000D01*
X124275000Y-67190000D02*
X124275000Y-70640000D01*
X124275000Y-51950000D02*
X124275000Y-55400000D01*
X116475000Y-55400000D02*
X116475000Y-51950000D01*
X120375000Y-55400000D02*
X120375000Y-51950000D01*
X118425000Y-55400000D02*
X118425000Y-51950000D01*
X122325000Y-55400000D02*
X122325000Y-51950000D01*
X122325000Y-47780000D02*
X122325000Y-44330000D01*
X120375000Y-47780000D02*
X120375000Y-44330000D01*
X118425000Y-47780000D02*
X118425000Y-44330000D01*
X124275000Y-44330000D02*
X124275000Y-47780000D01*
X116475000Y-47780000D02*
X116475000Y-44330000D01*
D10*
X120927380Y-75170357D02*
X120927380Y-75789404D01*
X121308333Y-75456071D01*
X121308333Y-75598928D01*
X121355952Y-75694166D01*
X121403571Y-75741785D01*
X121498809Y-75789404D01*
X121736904Y-75789404D01*
X121832142Y-75741785D01*
X121879761Y-75694166D01*
X121927380Y-75598928D01*
X121927380Y-75313214D01*
X121879761Y-75217976D01*
X121832142Y-75170357D01*
X121832142Y-76217976D02*
X121879761Y-76265595D01*
X121927380Y-76217976D01*
X121879761Y-76170357D01*
X121832142Y-76217976D01*
X121927380Y-76217976D01*
X120927380Y-76598928D02*
X120927380Y-77217976D01*
X121308333Y-76884642D01*
X121308333Y-77027500D01*
X121355952Y-77122738D01*
X121403571Y-77170357D01*
X121498809Y-77217976D01*
X121736904Y-77217976D01*
X121832142Y-77170357D01*
X121879761Y-77122738D01*
X121927380Y-77027500D01*
X121927380Y-76741785D01*
X121879761Y-76646547D01*
X121832142Y-76598928D01*
X120927380Y-77503690D02*
X121927380Y-77837023D01*
X120927380Y-78170357D01*
X118927380Y-75170357D02*
X118927380Y-75789404D01*
X119308333Y-75456071D01*
X119308333Y-75598928D01*
X119355952Y-75694166D01*
X119403571Y-75741785D01*
X119498809Y-75789404D01*
X119736904Y-75789404D01*
X119832142Y-75741785D01*
X119879761Y-75694166D01*
X119927380Y-75598928D01*
X119927380Y-75313214D01*
X119879761Y-75217976D01*
X119832142Y-75170357D01*
X118927380Y-76122738D02*
X118927380Y-76741785D01*
X119308333Y-76408452D01*
X119308333Y-76551309D01*
X119355952Y-76646547D01*
X119403571Y-76694166D01*
X119498809Y-76741785D01*
X119736904Y-76741785D01*
X119832142Y-76694166D01*
X119879761Y-76646547D01*
X119927380Y-76551309D01*
X119927380Y-76265595D01*
X119879761Y-76170357D01*
X119832142Y-76122738D01*
X122975000Y-75789404D02*
X122927380Y-75694166D01*
X122927380Y-75551309D01*
X122975000Y-75408452D01*
X123070238Y-75313214D01*
X123165476Y-75265595D01*
X123355952Y-75217976D01*
X123498809Y-75217976D01*
X123689285Y-75265595D01*
X123784523Y-75313214D01*
X123879761Y-75408452D01*
X123927380Y-75551309D01*
X123927380Y-75646547D01*
X123879761Y-75789404D01*
X123832142Y-75837023D01*
X123498809Y-75837023D01*
X123498809Y-75646547D01*
X123927380Y-76265595D02*
X122927380Y-76265595D01*
X123927380Y-76837023D01*
X122927380Y-76837023D01*
X123927380Y-77313214D02*
X122927380Y-77313214D01*
X122927380Y-77551309D01*
X122975000Y-77694166D01*
X123070238Y-77789404D01*
X123165476Y-77837023D01*
X123355952Y-77884642D01*
X123498809Y-77884642D01*
X123689285Y-77837023D01*
X123784523Y-77789404D01*
X123879761Y-77694166D01*
X123927380Y-77551309D01*
X123927380Y-77313214D01*
X116927380Y-75170357D02*
X116927380Y-75789404D01*
X117308333Y-75456071D01*
X117308333Y-75598928D01*
X117355952Y-75694166D01*
X117403571Y-75741785D01*
X117498809Y-75789404D01*
X117736904Y-75789404D01*
X117832142Y-75741785D01*
X117879761Y-75694166D01*
X117927380Y-75598928D01*
X117927380Y-75313214D01*
X117879761Y-75217976D01*
X117832142Y-75170357D01*
X117022619Y-76170357D02*
X116975000Y-76217976D01*
X116927380Y-76313214D01*
X116927380Y-76551309D01*
X116975000Y-76646547D01*
X117022619Y-76694166D01*
X117117857Y-76741785D01*
X117213095Y-76741785D01*
X117355952Y-76694166D01*
X117927380Y-76122738D01*
X117927380Y-76741785D01*
X122975000Y-68169404D02*
X122927380Y-68074166D01*
X122927380Y-67931309D01*
X122975000Y-67788452D01*
X123070238Y-67693214D01*
X123165476Y-67645595D01*
X123355952Y-67597976D01*
X123498809Y-67597976D01*
X123689285Y-67645595D01*
X123784523Y-67693214D01*
X123879761Y-67788452D01*
X123927380Y-67931309D01*
X123927380Y-68026547D01*
X123879761Y-68169404D01*
X123832142Y-68217023D01*
X123498809Y-68217023D01*
X123498809Y-68026547D01*
X123927380Y-68645595D02*
X122927380Y-68645595D01*
X123927380Y-69217023D01*
X122927380Y-69217023D01*
X123927380Y-69693214D02*
X122927380Y-69693214D01*
X122927380Y-69931309D01*
X122975000Y-70074166D01*
X123070238Y-70169404D01*
X123165476Y-70217023D01*
X123355952Y-70264642D01*
X123498809Y-70264642D01*
X123689285Y-70217023D01*
X123784523Y-70169404D01*
X123879761Y-70074166D01*
X123927380Y-69931309D01*
X123927380Y-69693214D01*
X120927380Y-67550357D02*
X120927380Y-68169404D01*
X121308333Y-67836071D01*
X121308333Y-67978928D01*
X121355952Y-68074166D01*
X121403571Y-68121785D01*
X121498809Y-68169404D01*
X121736904Y-68169404D01*
X121832142Y-68121785D01*
X121879761Y-68074166D01*
X121927380Y-67978928D01*
X121927380Y-67693214D01*
X121879761Y-67597976D01*
X121832142Y-67550357D01*
X121832142Y-68597976D02*
X121879761Y-68645595D01*
X121927380Y-68597976D01*
X121879761Y-68550357D01*
X121832142Y-68597976D01*
X121927380Y-68597976D01*
X120927380Y-68978928D02*
X120927380Y-69597976D01*
X121308333Y-69264642D01*
X121308333Y-69407500D01*
X121355952Y-69502738D01*
X121403571Y-69550357D01*
X121498809Y-69597976D01*
X121736904Y-69597976D01*
X121832142Y-69550357D01*
X121879761Y-69502738D01*
X121927380Y-69407500D01*
X121927380Y-69121785D01*
X121879761Y-69026547D01*
X121832142Y-68978928D01*
X120927380Y-69883690D02*
X121927380Y-70217023D01*
X120927380Y-70550357D01*
X118927380Y-67550357D02*
X118927380Y-68169404D01*
X119308333Y-67836071D01*
X119308333Y-67978928D01*
X119355952Y-68074166D01*
X119403571Y-68121785D01*
X119498809Y-68169404D01*
X119736904Y-68169404D01*
X119832142Y-68121785D01*
X119879761Y-68074166D01*
X119927380Y-67978928D01*
X119927380Y-67693214D01*
X119879761Y-67597976D01*
X119832142Y-67550357D01*
X118927380Y-69074166D02*
X118927380Y-68597976D01*
X119403571Y-68550357D01*
X119355952Y-68597976D01*
X119308333Y-68693214D01*
X119308333Y-68931309D01*
X119355952Y-69026547D01*
X119403571Y-69074166D01*
X119498809Y-69121785D01*
X119736904Y-69121785D01*
X119832142Y-69074166D01*
X119879761Y-69026547D01*
X119927380Y-68931309D01*
X119927380Y-68693214D01*
X119879761Y-68597976D01*
X119832142Y-68550357D01*
X116927380Y-67550357D02*
X116927380Y-68169404D01*
X117308333Y-67836071D01*
X117308333Y-67978928D01*
X117355952Y-68074166D01*
X117403571Y-68121785D01*
X117498809Y-68169404D01*
X117736904Y-68169404D01*
X117832142Y-68121785D01*
X117879761Y-68074166D01*
X117927380Y-67978928D01*
X117927380Y-67693214D01*
X117879761Y-67597976D01*
X117832142Y-67550357D01*
X117260714Y-69026547D02*
X117927380Y-69026547D01*
X116879761Y-68788452D02*
X117594047Y-68550357D01*
X117594047Y-69169404D01*
X122975000Y-45109404D02*
X122927380Y-45014166D01*
X122927380Y-44871309D01*
X122975000Y-44728452D01*
X123070238Y-44633214D01*
X123165476Y-44585595D01*
X123355952Y-44537976D01*
X123498809Y-44537976D01*
X123689285Y-44585595D01*
X123784523Y-44633214D01*
X123879761Y-44728452D01*
X123927380Y-44871309D01*
X123927380Y-44966547D01*
X123879761Y-45109404D01*
X123832142Y-45157023D01*
X123498809Y-45157023D01*
X123498809Y-44966547D01*
X123927380Y-45585595D02*
X122927380Y-45585595D01*
X123927380Y-46157023D01*
X122927380Y-46157023D01*
X123927380Y-46633214D02*
X122927380Y-46633214D01*
X122927380Y-46871309D01*
X122975000Y-47014166D01*
X123070238Y-47109404D01*
X123165476Y-47157023D01*
X123355952Y-47204642D01*
X123498809Y-47204642D01*
X123689285Y-47157023D01*
X123784523Y-47109404D01*
X123879761Y-47014166D01*
X123927380Y-46871309D01*
X123927380Y-46633214D01*
X119879761Y-44537976D02*
X119927380Y-44680833D01*
X119927380Y-44918928D01*
X119879761Y-45014166D01*
X119832142Y-45061785D01*
X119736904Y-45109404D01*
X119641666Y-45109404D01*
X119546428Y-45061785D01*
X119498809Y-45014166D01*
X119451190Y-44918928D01*
X119403571Y-44728452D01*
X119355952Y-44633214D01*
X119308333Y-44585595D01*
X119213095Y-44537976D01*
X119117857Y-44537976D01*
X119022619Y-44585595D01*
X118975000Y-44633214D01*
X118927380Y-44728452D01*
X118927380Y-44966547D01*
X118975000Y-45109404D01*
X119927380Y-45537976D02*
X118927380Y-45537976D01*
X118927380Y-45776071D01*
X118975000Y-45918928D01*
X119070238Y-46014166D01*
X119165476Y-46061785D01*
X119355952Y-46109404D01*
X119498809Y-46109404D01*
X119689285Y-46061785D01*
X119784523Y-46014166D01*
X119879761Y-45918928D01*
X119927380Y-45776071D01*
X119927380Y-45537976D01*
X119641666Y-46490357D02*
X119641666Y-46966547D01*
X119927380Y-46395119D02*
X118927380Y-46728452D01*
X119927380Y-47061785D01*
X120927380Y-44490357D02*
X120927380Y-45109404D01*
X121308333Y-44776071D01*
X121308333Y-44918928D01*
X121355952Y-45014166D01*
X121403571Y-45061785D01*
X121498809Y-45109404D01*
X121736904Y-45109404D01*
X121832142Y-45061785D01*
X121879761Y-45014166D01*
X121927380Y-44918928D01*
X121927380Y-44633214D01*
X121879761Y-44537976D01*
X121832142Y-44490357D01*
X121832142Y-45537976D02*
X121879761Y-45585595D01*
X121927380Y-45537976D01*
X121879761Y-45490357D01*
X121832142Y-45537976D01*
X121927380Y-45537976D01*
X120927380Y-45918928D02*
X120927380Y-46537976D01*
X121308333Y-46204642D01*
X121308333Y-46347500D01*
X121355952Y-46442738D01*
X121403571Y-46490357D01*
X121498809Y-46537976D01*
X121736904Y-46537976D01*
X121832142Y-46490357D01*
X121879761Y-46442738D01*
X121927380Y-46347500D01*
X121927380Y-46061785D01*
X121879761Y-45966547D01*
X121832142Y-45918928D01*
X120927380Y-46823690D02*
X121927380Y-47157023D01*
X120927380Y-47490357D01*
X117879761Y-44537976D02*
X117927380Y-44680833D01*
X117927380Y-44918928D01*
X117879761Y-45014166D01*
X117832142Y-45061785D01*
X117736904Y-45109404D01*
X117641666Y-45109404D01*
X117546428Y-45061785D01*
X117498809Y-45014166D01*
X117451190Y-44918928D01*
X117403571Y-44728452D01*
X117355952Y-44633214D01*
X117308333Y-44585595D01*
X117213095Y-44537976D01*
X117117857Y-44537976D01*
X117022619Y-44585595D01*
X116975000Y-44633214D01*
X116927380Y-44728452D01*
X116927380Y-44966547D01*
X116975000Y-45109404D01*
X117832142Y-46109404D02*
X117879761Y-46061785D01*
X117927380Y-45918928D01*
X117927380Y-45823690D01*
X117879761Y-45680833D01*
X117784523Y-45585595D01*
X117689285Y-45537976D01*
X117498809Y-45490357D01*
X117355952Y-45490357D01*
X117165476Y-45537976D01*
X117070238Y-45585595D01*
X116975000Y-45680833D01*
X116927380Y-45823690D01*
X116927380Y-45918928D01*
X116975000Y-46061785D01*
X117022619Y-46109404D01*
X117927380Y-47014166D02*
X117927380Y-46537976D01*
X116927380Y-46537976D01*
X122975000Y-52929404D02*
X122927380Y-52834166D01*
X122927380Y-52691309D01*
X122975000Y-52548452D01*
X123070238Y-52453214D01*
X123165476Y-52405595D01*
X123355952Y-52357976D01*
X123498809Y-52357976D01*
X123689285Y-52405595D01*
X123784523Y-52453214D01*
X123879761Y-52548452D01*
X123927380Y-52691309D01*
X123927380Y-52786547D01*
X123879761Y-52929404D01*
X123832142Y-52977023D01*
X123498809Y-52977023D01*
X123498809Y-52786547D01*
X123927380Y-53405595D02*
X122927380Y-53405595D01*
X123927380Y-53977023D01*
X122927380Y-53977023D01*
X123927380Y-54453214D02*
X122927380Y-54453214D01*
X122927380Y-54691309D01*
X122975000Y-54834166D01*
X123070238Y-54929404D01*
X123165476Y-54977023D01*
X123355952Y-55024642D01*
X123498809Y-55024642D01*
X123689285Y-54977023D01*
X123784523Y-54929404D01*
X123879761Y-54834166D01*
X123927380Y-54691309D01*
X123927380Y-54453214D01*
X120927380Y-52310357D02*
X120927380Y-52929404D01*
X121308333Y-52596071D01*
X121308333Y-52738928D01*
X121355952Y-52834166D01*
X121403571Y-52881785D01*
X121498809Y-52929404D01*
X121736904Y-52929404D01*
X121832142Y-52881785D01*
X121879761Y-52834166D01*
X121927380Y-52738928D01*
X121927380Y-52453214D01*
X121879761Y-52357976D01*
X121832142Y-52310357D01*
X121832142Y-53357976D02*
X121879761Y-53405595D01*
X121927380Y-53357976D01*
X121879761Y-53310357D01*
X121832142Y-53357976D01*
X121927380Y-53357976D01*
X120927380Y-53738928D02*
X120927380Y-54357976D01*
X121308333Y-54024642D01*
X121308333Y-54167500D01*
X121355952Y-54262738D01*
X121403571Y-54310357D01*
X121498809Y-54357976D01*
X121736904Y-54357976D01*
X121832142Y-54310357D01*
X121879761Y-54262738D01*
X121927380Y-54167500D01*
X121927380Y-53881785D01*
X121879761Y-53786547D01*
X121832142Y-53738928D01*
X120927380Y-54643690D02*
X121927380Y-54977023D01*
X120927380Y-55310357D01*
X119927380Y-52929404D02*
X119927380Y-52357976D01*
X119927380Y-52643690D02*
X118927380Y-52643690D01*
X119070238Y-52548452D01*
X119165476Y-52453214D01*
X119213095Y-52357976D01*
X118927380Y-53262738D02*
X118927380Y-53929404D01*
X119927380Y-53500833D01*
X117927380Y-52929404D02*
X117927380Y-52357976D01*
X117927380Y-52643690D02*
X116927380Y-52643690D01*
X117070238Y-52548452D01*
X117165476Y-52453214D01*
X117213095Y-52357976D01*
X116927380Y-53786547D02*
X116927380Y-53596071D01*
X116975000Y-53500833D01*
X117022619Y-53453214D01*
X117165476Y-53357976D01*
X117355952Y-53310357D01*
X117736904Y-53310357D01*
X117832142Y-53357976D01*
X117879761Y-53405595D01*
X117927380Y-53500833D01*
X117927380Y-53691309D01*
X117879761Y-53786547D01*
X117832142Y-53834166D01*
X117736904Y-53881785D01*
X117498809Y-53881785D01*
X117403571Y-53834166D01*
X117355952Y-53786547D01*
X117308333Y-53691309D01*
X117308333Y-53500833D01*
X117355952Y-53405595D01*
X117403571Y-53357976D01*
X117498809Y-53310357D01*
D11*
X140970000Y-78105000D02*
X140970000Y-79375000D01*
X140970000Y-75565000D02*
X140970000Y-76835000D01*
X140970000Y-73025000D02*
X140970000Y-74295000D01*
X140970000Y-70485000D02*
X140970000Y-71755000D01*
X140970000Y-67945000D02*
X140970000Y-69215000D01*
X140970000Y-65405000D02*
X140970000Y-66675000D01*
X140970000Y-62865000D02*
X140970000Y-64135000D01*
X140970000Y-60325000D02*
X140970000Y-61595000D01*
X140970000Y-57785000D02*
X140970000Y-59055000D01*
X140970000Y-55245000D02*
X140970000Y-56515000D01*
X140970000Y-52705000D02*
X140970000Y-53975000D01*
X140970000Y-50165000D02*
X140970000Y-51435000D01*
X140970000Y-47625000D02*
X140970000Y-48895000D01*
X140970000Y-42545000D02*
X140970000Y-43815000D01*
X140970000Y-40005000D02*
X140970000Y-41275000D01*
X151130000Y-80010000D02*
X130810000Y-80010000D01*
X151130000Y-77470000D02*
X130810000Y-77470000D01*
X151130000Y-74930000D02*
X130810000Y-74930000D01*
X151130000Y-72390000D02*
X130810000Y-72390000D01*
X151130000Y-69850000D02*
X130810000Y-69850000D01*
X151130000Y-67310000D02*
X130810000Y-67310000D01*
X151130000Y-64770000D02*
X130810000Y-64770000D01*
X151130000Y-62230000D02*
X130810000Y-62230000D01*
X151130000Y-59690000D02*
X130810000Y-59690000D01*
X151130000Y-57150000D02*
X130810000Y-57150000D01*
X151130000Y-54610000D02*
X130810000Y-54610000D01*
X151130000Y-52070000D02*
X130810000Y-52070000D01*
X151130000Y-49530000D02*
X130810000Y-49530000D01*
X151130000Y-46990000D02*
X130810000Y-46990000D01*
X151130000Y-44450000D02*
X130810000Y-44450000D01*
X151130000Y-41910000D02*
X130810000Y-41910000D01*
X151130000Y-39370000D02*
X130810000Y-39370000D01*
D10*
X133193214Y-40140000D02*
X133288452Y-40092380D01*
X133431309Y-40092380D01*
X133574166Y-40140000D01*
X133669404Y-40235238D01*
X133717023Y-40330476D01*
X133764642Y-40520952D01*
X133764642Y-40663809D01*
X133717023Y-40854285D01*
X133669404Y-40949523D01*
X133574166Y-41044761D01*
X133431309Y-41092380D01*
X133336071Y-41092380D01*
X133193214Y-41044761D01*
X133145595Y-40997142D01*
X133145595Y-40663809D01*
X133336071Y-40663809D01*
X132717023Y-41092380D02*
X132717023Y-40092380D01*
X132145595Y-41092380D01*
X132145595Y-40092380D01*
X131669404Y-41092380D02*
X131669404Y-40092380D01*
X131431309Y-40092380D01*
X131288452Y-40140000D01*
X131193214Y-40235238D01*
X131145595Y-40330476D01*
X131097976Y-40520952D01*
X131097976Y-40663809D01*
X131145595Y-40854285D01*
X131193214Y-40949523D01*
X131288452Y-41044761D01*
X131431309Y-41092380D01*
X131669404Y-41092380D01*
X138764642Y-47760000D02*
X138859880Y-47712380D01*
X139002738Y-47712380D01*
X139145595Y-47760000D01*
X139240833Y-47855238D01*
X139288452Y-47950476D01*
X139336071Y-48140952D01*
X139336071Y-48283809D01*
X139288452Y-48474285D01*
X139240833Y-48569523D01*
X139145595Y-48664761D01*
X139002738Y-48712380D01*
X138907500Y-48712380D01*
X138764642Y-48664761D01*
X138717023Y-48617142D01*
X138717023Y-48283809D01*
X138907500Y-48283809D01*
X137717023Y-48712380D02*
X138050357Y-48236190D01*
X138288452Y-48712380D02*
X138288452Y-47712380D01*
X137907500Y-47712380D01*
X137812261Y-47760000D01*
X137764642Y-47807619D01*
X137717023Y-47902857D01*
X137717023Y-48045714D01*
X137764642Y-48140952D01*
X137812261Y-48188571D01*
X137907500Y-48236190D01*
X138288452Y-48236190D01*
X137097976Y-47712380D02*
X136907500Y-47712380D01*
X136812261Y-47760000D01*
X136717023Y-47855238D01*
X136669404Y-48045714D01*
X136669404Y-48379047D01*
X136717023Y-48569523D01*
X136812261Y-48664761D01*
X136907500Y-48712380D01*
X137097976Y-48712380D01*
X137193214Y-48664761D01*
X137288452Y-48569523D01*
X137336071Y-48379047D01*
X137336071Y-48045714D01*
X137288452Y-47855238D01*
X137193214Y-47760000D01*
X137097976Y-47712380D01*
X136383690Y-47712380D02*
X136050357Y-48712380D01*
X135717023Y-47712380D01*
X135383690Y-48188571D02*
X135050357Y-48188571D01*
X134907500Y-48712380D02*
X135383690Y-48712380D01*
X135383690Y-47712380D01*
X134907500Y-47712380D01*
X134526547Y-47807619D02*
X134478928Y-47760000D01*
X134383690Y-47712380D01*
X134145595Y-47712380D01*
X134050357Y-47760000D01*
X134002738Y-47807619D01*
X133955119Y-47902857D01*
X133955119Y-47998095D01*
X134002738Y-48140952D01*
X134574166Y-48712380D01*
X133955119Y-48712380D01*
X133288452Y-49045714D02*
X133288452Y-47617142D01*
X132669404Y-47712380D02*
X132050357Y-47712380D01*
X132383690Y-48093333D01*
X132240833Y-48093333D01*
X132145595Y-48140952D01*
X132097976Y-48188571D01*
X132050357Y-48283809D01*
X132050357Y-48521904D01*
X132097976Y-48617142D01*
X132145595Y-48664761D01*
X132240833Y-48712380D01*
X132526547Y-48712380D01*
X132621785Y-48664761D01*
X132669404Y-48617142D01*
X131193214Y-48045714D02*
X131193214Y-48712380D01*
X131431309Y-47664761D02*
X131669404Y-48379047D01*
X131050357Y-48379047D01*
X139859880Y-43108571D02*
X139717023Y-43156190D01*
X139669404Y-43203809D01*
X139621785Y-43299047D01*
X139621785Y-43441904D01*
X139669404Y-43537142D01*
X139717023Y-43584761D01*
X139812261Y-43632380D01*
X140193214Y-43632380D01*
X140193214Y-42632380D01*
X139859880Y-42632380D01*
X139764642Y-42680000D01*
X139717023Y-42727619D01*
X139669404Y-42822857D01*
X139669404Y-42918095D01*
X139717023Y-43013333D01*
X139764642Y-43060952D01*
X139859880Y-43108571D01*
X140193214Y-43108571D01*
X139240833Y-43346666D02*
X138764642Y-43346666D01*
X139336071Y-43632380D02*
X139002738Y-42632380D01*
X138669404Y-43632380D01*
X138478928Y-42632380D02*
X137907500Y-42632380D01*
X138193214Y-43632380D02*
X138193214Y-42632380D01*
X137812261Y-43727619D02*
X137050357Y-43727619D01*
X136859880Y-43584761D02*
X136717023Y-43632380D01*
X136478928Y-43632380D01*
X136383690Y-43584761D01*
X136336071Y-43537142D01*
X136288452Y-43441904D01*
X136288452Y-43346666D01*
X136336071Y-43251428D01*
X136383690Y-43203809D01*
X136478928Y-43156190D01*
X136669404Y-43108571D01*
X136764642Y-43060952D01*
X136812261Y-43013333D01*
X136859880Y-42918095D01*
X136859880Y-42822857D01*
X136812261Y-42727619D01*
X136764642Y-42680000D01*
X136669404Y-42632380D01*
X136431309Y-42632380D01*
X136288452Y-42680000D01*
X136002738Y-42632380D02*
X135431309Y-42632380D01*
X135717023Y-43632380D02*
X135717023Y-42632380D01*
X135145595Y-43346666D02*
X134669404Y-43346666D01*
X135240833Y-43632380D02*
X134907500Y-42632380D01*
X134574166Y-43632380D01*
X134383690Y-42632380D02*
X133812261Y-42632380D01*
X134097976Y-43632380D02*
X134097976Y-42632380D01*
X133240833Y-43965714D02*
X133240833Y-42537142D01*
X132669404Y-42632380D02*
X132336071Y-43632380D01*
X132002738Y-42632380D01*
X131669404Y-43632380D02*
X131669404Y-42632380D01*
X131288452Y-42632380D01*
X131193214Y-42680000D01*
X131145595Y-42727619D01*
X131097976Y-42822857D01*
X131097976Y-42965714D01*
X131145595Y-43060952D01*
X131193214Y-43108571D01*
X131288452Y-43156190D01*
X131669404Y-43156190D01*
X132050357Y-69032380D02*
X132621785Y-69032380D01*
X132336071Y-69032380D02*
X132336071Y-68032380D01*
X132431309Y-68175238D01*
X132526547Y-68270476D01*
X132621785Y-68318095D01*
X131669404Y-68127619D02*
X131621785Y-68080000D01*
X131526547Y-68032380D01*
X131288452Y-68032380D01*
X131193214Y-68080000D01*
X131145595Y-68127619D01*
X131097976Y-68222857D01*
X131097976Y-68318095D01*
X131145595Y-68460952D01*
X131717023Y-69032380D01*
X131097976Y-69032380D01*
X134288452Y-75652380D02*
X133955119Y-76652380D01*
X133621785Y-75652380D01*
X132955119Y-76128571D02*
X132812261Y-76176190D01*
X132764642Y-76223809D01*
X132717023Y-76319047D01*
X132717023Y-76461904D01*
X132764642Y-76557142D01*
X132812261Y-76604761D01*
X132907500Y-76652380D01*
X133288452Y-76652380D01*
X133288452Y-75652380D01*
X132955119Y-75652380D01*
X132859880Y-75700000D01*
X132812261Y-75747619D01*
X132764642Y-75842857D01*
X132764642Y-75938095D01*
X132812261Y-76033333D01*
X132859880Y-76080952D01*
X132955119Y-76128571D01*
X133288452Y-76128571D01*
X132336071Y-76366666D02*
X131859880Y-76366666D01*
X132431309Y-76652380D02*
X132097976Y-75652380D01*
X131764642Y-76652380D01*
X131574166Y-75652380D02*
X131002738Y-75652380D01*
X131288452Y-76652380D02*
X131288452Y-75652380D01*
X134002738Y-78192380D02*
X133383690Y-78192380D01*
X133717023Y-78573333D01*
X133574166Y-78573333D01*
X133478928Y-78620952D01*
X133431309Y-78668571D01*
X133383690Y-78763809D01*
X133383690Y-79001904D01*
X133431309Y-79097142D01*
X133478928Y-79144761D01*
X133574166Y-79192380D01*
X133859880Y-79192380D01*
X133955119Y-79144761D01*
X134002738Y-79097142D01*
X132955119Y-79097142D02*
X132907500Y-79144761D01*
X132955119Y-79192380D01*
X133002738Y-79144761D01*
X132955119Y-79097142D01*
X132955119Y-79192380D01*
X132574166Y-78192380D02*
X131955119Y-78192380D01*
X132288452Y-78573333D01*
X132145595Y-78573333D01*
X132050357Y-78620952D01*
X132002738Y-78668571D01*
X131955119Y-78763809D01*
X131955119Y-79001904D01*
X132002738Y-79097142D01*
X132050357Y-79144761D01*
X132145595Y-79192380D01*
X132431309Y-79192380D01*
X132526547Y-79144761D01*
X132574166Y-79097142D01*
X131669404Y-78192380D02*
X131336071Y-79192380D01*
X131002738Y-78192380D01*
X133193214Y-73160000D02*
X133288452Y-73112380D01*
X133431309Y-73112380D01*
X133574166Y-73160000D01*
X133669404Y-73255238D01*
X133717023Y-73350476D01*
X133764642Y-73540952D01*
X133764642Y-73683809D01*
X133717023Y-73874285D01*
X133669404Y-73969523D01*
X133574166Y-74064761D01*
X133431309Y-74112380D01*
X133336071Y-74112380D01*
X133193214Y-74064761D01*
X133145595Y-74017142D01*
X133145595Y-73683809D01*
X133336071Y-73683809D01*
X132717023Y-74112380D02*
X132717023Y-73112380D01*
X132145595Y-74112380D01*
X132145595Y-73112380D01*
X131669404Y-74112380D02*
X131669404Y-73112380D01*
X131431309Y-73112380D01*
X131288452Y-73160000D01*
X131193214Y-73255238D01*
X131145595Y-73350476D01*
X131097976Y-73540952D01*
X131097976Y-73683809D01*
X131145595Y-73874285D01*
X131193214Y-73969523D01*
X131288452Y-74064761D01*
X131431309Y-74112380D01*
X131669404Y-74112380D01*
X132050357Y-71572380D02*
X132621785Y-71572380D01*
X132336071Y-71572380D02*
X132336071Y-70572380D01*
X132431309Y-70715238D01*
X132526547Y-70810476D01*
X132621785Y-70858095D01*
X131717023Y-70572380D02*
X131097976Y-70572380D01*
X131431309Y-70953333D01*
X131288452Y-70953333D01*
X131193214Y-71000952D01*
X131145595Y-71048571D01*
X131097976Y-71143809D01*
X131097976Y-71381904D01*
X131145595Y-71477142D01*
X131193214Y-71524761D01*
X131288452Y-71572380D01*
X131574166Y-71572380D01*
X131669404Y-71524761D01*
X131717023Y-71477142D01*
X140859880Y-45648571D02*
X140717023Y-45696190D01*
X140669404Y-45743809D01*
X140621785Y-45839047D01*
X140621785Y-45981904D01*
X140669404Y-46077142D01*
X140717023Y-46124761D01*
X140812261Y-46172380D01*
X141193214Y-46172380D01*
X141193214Y-45172380D01*
X140859880Y-45172380D01*
X140764642Y-45220000D01*
X140717023Y-45267619D01*
X140669404Y-45362857D01*
X140669404Y-45458095D01*
X140717023Y-45553333D01*
X140764642Y-45600952D01*
X140859880Y-45648571D01*
X141193214Y-45648571D01*
X140240833Y-45886666D02*
X139764642Y-45886666D01*
X140336071Y-46172380D02*
X140002738Y-45172380D01*
X139669404Y-46172380D01*
X139478928Y-45172380D02*
X138907500Y-45172380D01*
X139193214Y-46172380D02*
X139193214Y-45172380D01*
X138812261Y-46267619D02*
X138050357Y-46267619D01*
X137336071Y-46172380D02*
X137812261Y-46172380D01*
X137812261Y-45172380D01*
X137002738Y-45648571D02*
X136669404Y-45648571D01*
X136526547Y-46172380D02*
X137002738Y-46172380D01*
X137002738Y-45172380D01*
X136526547Y-45172380D01*
X136240833Y-45172380D02*
X135907500Y-46172380D01*
X135574166Y-45172380D01*
X135240833Y-45648571D02*
X134907500Y-45648571D01*
X134764642Y-46172380D02*
X135240833Y-46172380D01*
X135240833Y-45172380D01*
X134764642Y-45172380D01*
X133859880Y-46172380D02*
X134336071Y-46172380D01*
X134336071Y-45172380D01*
X133288452Y-46505714D02*
X133288452Y-45077142D01*
X132717023Y-45172380D02*
X132383690Y-46172380D01*
X132050357Y-45172380D01*
X131717023Y-46172380D02*
X131717023Y-45172380D01*
X131145595Y-46172380D01*
X131145595Y-45172380D01*
X138764642Y-50300000D02*
X138859880Y-50252380D01*
X139002738Y-50252380D01*
X139145595Y-50300000D01*
X139240833Y-50395238D01*
X139288452Y-50490476D01*
X139336071Y-50680952D01*
X139336071Y-50823809D01*
X139288452Y-51014285D01*
X139240833Y-51109523D01*
X139145595Y-51204761D01*
X139002738Y-51252380D01*
X138907500Y-51252380D01*
X138764642Y-51204761D01*
X138717023Y-51157142D01*
X138717023Y-50823809D01*
X138907500Y-50823809D01*
X137717023Y-51252380D02*
X138050357Y-50776190D01*
X138288452Y-51252380D02*
X138288452Y-50252380D01*
X137907500Y-50252380D01*
X137812261Y-50300000D01*
X137764642Y-50347619D01*
X137717023Y-50442857D01*
X137717023Y-50585714D01*
X137764642Y-50680952D01*
X137812261Y-50728571D01*
X137907500Y-50776190D01*
X138288452Y-50776190D01*
X137097976Y-50252380D02*
X136907500Y-50252380D01*
X136812261Y-50300000D01*
X136717023Y-50395238D01*
X136669404Y-50585714D01*
X136669404Y-50919047D01*
X136717023Y-51109523D01*
X136812261Y-51204761D01*
X136907500Y-51252380D01*
X137097976Y-51252380D01*
X137193214Y-51204761D01*
X137288452Y-51109523D01*
X137336071Y-50919047D01*
X137336071Y-50585714D01*
X137288452Y-50395238D01*
X137193214Y-50300000D01*
X137097976Y-50252380D01*
X136383690Y-50252380D02*
X136050357Y-51252380D01*
X135717023Y-50252380D01*
X135383690Y-50728571D02*
X135050357Y-50728571D01*
X134907500Y-51252380D02*
X135383690Y-51252380D01*
X135383690Y-50252380D01*
X134907500Y-50252380D01*
X134526547Y-50347619D02*
X134478928Y-50300000D01*
X134383690Y-50252380D01*
X134145595Y-50252380D01*
X134050357Y-50300000D01*
X134002738Y-50347619D01*
X133955119Y-50442857D01*
X133955119Y-50538095D01*
X134002738Y-50680952D01*
X134574166Y-51252380D01*
X133955119Y-51252380D01*
X133288452Y-51585714D02*
X133288452Y-50157142D01*
X132669404Y-50252380D02*
X132050357Y-50252380D01*
X132383690Y-50633333D01*
X132240833Y-50633333D01*
X132145595Y-50680952D01*
X132097976Y-50728571D01*
X132050357Y-50823809D01*
X132050357Y-51061904D01*
X132097976Y-51157142D01*
X132145595Y-51204761D01*
X132240833Y-51252380D01*
X132526547Y-51252380D01*
X132621785Y-51204761D01*
X132669404Y-51157142D01*
X131145595Y-50252380D02*
X131621785Y-50252380D01*
X131669404Y-50728571D01*
X131621785Y-50680952D01*
X131526547Y-50633333D01*
X131288452Y-50633333D01*
X131193214Y-50680952D01*
X131145595Y-50728571D01*
X131097976Y-50823809D01*
X131097976Y-51061904D01*
X131145595Y-51157142D01*
X131193214Y-51204761D01*
X131288452Y-51252380D01*
X131526547Y-51252380D01*
X131621785Y-51204761D01*
X131669404Y-51157142D01*
X132050357Y-66492380D02*
X132621785Y-66492380D01*
X132336071Y-66492380D02*
X132336071Y-65492380D01*
X132431309Y-65635238D01*
X132526547Y-65730476D01*
X132621785Y-65778095D01*
X131193214Y-65825714D02*
X131193214Y-66492380D01*
X131431309Y-65444761D02*
X131669404Y-66159047D01*
X131050357Y-66159047D01*
X132621785Y-60507619D02*
X132574166Y-60460000D01*
X132478928Y-60412380D01*
X132240833Y-60412380D01*
X132145595Y-60460000D01*
X132097976Y-60507619D01*
X132050357Y-60602857D01*
X132050357Y-60698095D01*
X132097976Y-60840952D01*
X132669404Y-61412380D01*
X132050357Y-61412380D01*
X131193214Y-60412380D02*
X131383690Y-60412380D01*
X131478928Y-60460000D01*
X131526547Y-60507619D01*
X131621785Y-60650476D01*
X131669404Y-60840952D01*
X131669404Y-61221904D01*
X131621785Y-61317142D01*
X131574166Y-61364761D01*
X131478928Y-61412380D01*
X131288452Y-61412380D01*
X131193214Y-61364761D01*
X131145595Y-61317142D01*
X131097976Y-61221904D01*
X131097976Y-60983809D01*
X131145595Y-60888571D01*
X131193214Y-60840952D01*
X131288452Y-60793333D01*
X131478928Y-60793333D01*
X131574166Y-60840952D01*
X131621785Y-60888571D01*
X131669404Y-60983809D01*
X138764642Y-55380000D02*
X138859880Y-55332380D01*
X139002738Y-55332380D01*
X139145595Y-55380000D01*
X139240833Y-55475238D01*
X139288452Y-55570476D01*
X139336071Y-55760952D01*
X139336071Y-55903809D01*
X139288452Y-56094285D01*
X139240833Y-56189523D01*
X139145595Y-56284761D01*
X139002738Y-56332380D01*
X138907500Y-56332380D01*
X138764642Y-56284761D01*
X138717023Y-56237142D01*
X138717023Y-55903809D01*
X138907500Y-55903809D01*
X137717023Y-56332380D02*
X138050357Y-55856190D01*
X138288452Y-56332380D02*
X138288452Y-55332380D01*
X137907500Y-55332380D01*
X137812261Y-55380000D01*
X137764642Y-55427619D01*
X137717023Y-55522857D01*
X137717023Y-55665714D01*
X137764642Y-55760952D01*
X137812261Y-55808571D01*
X137907500Y-55856190D01*
X138288452Y-55856190D01*
X137097976Y-55332380D02*
X136907500Y-55332380D01*
X136812261Y-55380000D01*
X136717023Y-55475238D01*
X136669404Y-55665714D01*
X136669404Y-55999047D01*
X136717023Y-56189523D01*
X136812261Y-56284761D01*
X136907500Y-56332380D01*
X137097976Y-56332380D01*
X137193214Y-56284761D01*
X137288452Y-56189523D01*
X137336071Y-55999047D01*
X137336071Y-55665714D01*
X137288452Y-55475238D01*
X137193214Y-55380000D01*
X137097976Y-55332380D01*
X136383690Y-55332380D02*
X136050357Y-56332380D01*
X135717023Y-55332380D01*
X135383690Y-55808571D02*
X135050357Y-55808571D01*
X134907500Y-56332380D02*
X135383690Y-56332380D01*
X135383690Y-55332380D01*
X134907500Y-55332380D01*
X133955119Y-56332380D02*
X134526547Y-56332380D01*
X134240833Y-56332380D02*
X134240833Y-55332380D01*
X134336071Y-55475238D01*
X134431309Y-55570476D01*
X134526547Y-55618095D01*
X133288452Y-56665714D02*
X133288452Y-55237142D01*
X132669404Y-55332380D02*
X132050357Y-55332380D01*
X132383690Y-55713333D01*
X132240833Y-55713333D01*
X132145595Y-55760952D01*
X132097976Y-55808571D01*
X132050357Y-55903809D01*
X132050357Y-56141904D01*
X132097976Y-56237142D01*
X132145595Y-56284761D01*
X132240833Y-56332380D01*
X132526547Y-56332380D01*
X132621785Y-56284761D01*
X132669404Y-56237142D01*
X131717023Y-55332380D02*
X131097976Y-55332380D01*
X131431309Y-55713333D01*
X131288452Y-55713333D01*
X131193214Y-55760952D01*
X131145595Y-55808571D01*
X131097976Y-55903809D01*
X131097976Y-56141904D01*
X131145595Y-56237142D01*
X131193214Y-56284761D01*
X131288452Y-56332380D01*
X131574166Y-56332380D01*
X131669404Y-56284761D01*
X131717023Y-56237142D01*
X138764642Y-52840000D02*
X138859880Y-52792380D01*
X139002738Y-52792380D01*
X139145595Y-52840000D01*
X139240833Y-52935238D01*
X139288452Y-53030476D01*
X139336071Y-53220952D01*
X139336071Y-53363809D01*
X139288452Y-53554285D01*
X139240833Y-53649523D01*
X139145595Y-53744761D01*
X139002738Y-53792380D01*
X138907500Y-53792380D01*
X138764642Y-53744761D01*
X138717023Y-53697142D01*
X138717023Y-53363809D01*
X138907500Y-53363809D01*
X137717023Y-53792380D02*
X138050357Y-53316190D01*
X138288452Y-53792380D02*
X138288452Y-52792380D01*
X137907500Y-52792380D01*
X137812261Y-52840000D01*
X137764642Y-52887619D01*
X137717023Y-52982857D01*
X137717023Y-53125714D01*
X137764642Y-53220952D01*
X137812261Y-53268571D01*
X137907500Y-53316190D01*
X138288452Y-53316190D01*
X137097976Y-52792380D02*
X136907500Y-52792380D01*
X136812261Y-52840000D01*
X136717023Y-52935238D01*
X136669404Y-53125714D01*
X136669404Y-53459047D01*
X136717023Y-53649523D01*
X136812261Y-53744761D01*
X136907500Y-53792380D01*
X137097976Y-53792380D01*
X137193214Y-53744761D01*
X137288452Y-53649523D01*
X137336071Y-53459047D01*
X137336071Y-53125714D01*
X137288452Y-52935238D01*
X137193214Y-52840000D01*
X137097976Y-52792380D01*
X136383690Y-52792380D02*
X136050357Y-53792380D01*
X135717023Y-52792380D01*
X135383690Y-53268571D02*
X135050357Y-53268571D01*
X134907500Y-53792380D02*
X135383690Y-53792380D01*
X135383690Y-52792380D01*
X134907500Y-52792380D01*
X133955119Y-53792380D02*
X134526547Y-53792380D01*
X134240833Y-53792380D02*
X134240833Y-52792380D01*
X134336071Y-52935238D01*
X134431309Y-53030476D01*
X134526547Y-53078095D01*
X133288452Y-54125714D02*
X133288452Y-52697142D01*
X132669404Y-52792380D02*
X132050357Y-52792380D01*
X132383690Y-53173333D01*
X132240833Y-53173333D01*
X132145595Y-53220952D01*
X132097976Y-53268571D01*
X132050357Y-53363809D01*
X132050357Y-53601904D01*
X132097976Y-53697142D01*
X132145595Y-53744761D01*
X132240833Y-53792380D01*
X132526547Y-53792380D01*
X132621785Y-53744761D01*
X132669404Y-53697142D01*
X131669404Y-52887619D02*
X131621785Y-52840000D01*
X131526547Y-52792380D01*
X131288452Y-52792380D01*
X131193214Y-52840000D01*
X131145595Y-52887619D01*
X131097976Y-52982857D01*
X131097976Y-53078095D01*
X131145595Y-53220952D01*
X131717023Y-53792380D01*
X131097976Y-53792380D01*
X139288452Y-63666666D02*
X138812261Y-63666666D01*
X139383690Y-63952380D02*
X139050357Y-62952380D01*
X138717023Y-63952380D01*
X138383690Y-63952380D02*
X138383690Y-62952380D01*
X138050357Y-63666666D01*
X137717023Y-62952380D01*
X137717023Y-63952380D01*
X137240833Y-63952380D02*
X137240833Y-62952380D01*
X136859880Y-62952380D01*
X136764642Y-63000000D01*
X136717023Y-63047619D01*
X136669404Y-63142857D01*
X136669404Y-63285714D01*
X136717023Y-63380952D01*
X136764642Y-63428571D01*
X136859880Y-63476190D01*
X137240833Y-63476190D01*
X136478928Y-64047619D02*
X135717023Y-64047619D01*
X135478928Y-63428571D02*
X135145595Y-63428571D01*
X135002738Y-63952380D02*
X135478928Y-63952380D01*
X135478928Y-62952380D01*
X135002738Y-62952380D01*
X134574166Y-63952380D02*
X134574166Y-62952380D01*
X134002738Y-63952380D01*
X134002738Y-62952380D01*
X133288452Y-64285714D02*
X133288452Y-62857142D01*
X132621785Y-63047619D02*
X132574166Y-63000000D01*
X132478928Y-62952380D01*
X132240833Y-62952380D01*
X132145595Y-63000000D01*
X132097976Y-63047619D01*
X132050357Y-63142857D01*
X132050357Y-63238095D01*
X132097976Y-63380952D01*
X132669404Y-63952380D01*
X132050357Y-63952380D01*
X131717023Y-62952380D02*
X131050357Y-62952380D01*
X131478928Y-63952380D01*
X138859880Y-58586666D02*
X138383690Y-58586666D01*
X138955119Y-58872380D02*
X138621785Y-57872380D01*
X138288452Y-58872380D01*
X137955119Y-58872380D02*
X137955119Y-57872380D01*
X137621785Y-58586666D01*
X137288452Y-57872380D01*
X137288452Y-58872380D01*
X136812261Y-58872380D02*
X136812261Y-57872380D01*
X136431309Y-57872380D01*
X136336071Y-57920000D01*
X136288452Y-57967619D01*
X136240833Y-58062857D01*
X136240833Y-58205714D01*
X136288452Y-58300952D01*
X136336071Y-58348571D01*
X136431309Y-58396190D01*
X136812261Y-58396190D01*
X136050357Y-58967619D02*
X135288452Y-58967619D01*
X135050357Y-58872380D02*
X135050357Y-57872380D01*
X134574166Y-58872380D02*
X134574166Y-57872380D01*
X134002738Y-58872380D01*
X134002738Y-57872380D01*
X133288452Y-59205714D02*
X133288452Y-57777142D01*
X132621785Y-57967619D02*
X132574166Y-57920000D01*
X132478928Y-57872380D01*
X132240833Y-57872380D01*
X132145595Y-57920000D01*
X132097976Y-57967619D01*
X132050357Y-58062857D01*
X132050357Y-58158095D01*
X132097976Y-58300952D01*
X132669404Y-58872380D01*
X132050357Y-58872380D01*
X131145595Y-57872380D02*
X131621785Y-57872380D01*
X131669404Y-58348571D01*
X131621785Y-58300952D01*
X131526547Y-58253333D01*
X131288452Y-58253333D01*
X131193214Y-58300952D01*
X131145595Y-58348571D01*
X131097976Y-58443809D01*
X131097976Y-58681904D01*
X131145595Y-58777142D01*
X131193214Y-58824761D01*
X131288452Y-58872380D01*
X131526547Y-58872380D01*
X131621785Y-58824761D01*
X131669404Y-58777142D01*
X150270595Y-78240000D02*
X150365833Y-78192380D01*
X150508690Y-78192380D01*
X150651547Y-78240000D01*
X150746785Y-78335238D01*
X150794404Y-78430476D01*
X150842023Y-78620952D01*
X150842023Y-78763809D01*
X150794404Y-78954285D01*
X150746785Y-79049523D01*
X150651547Y-79144761D01*
X150508690Y-79192380D01*
X150413452Y-79192380D01*
X150270595Y-79144761D01*
X150222976Y-79097142D01*
X150222976Y-78763809D01*
X150413452Y-78763809D01*
X149794404Y-79192380D02*
X149794404Y-78192380D01*
X149222976Y-79192380D01*
X149222976Y-78192380D01*
X148746785Y-79192380D02*
X148746785Y-78192380D01*
X148508690Y-78192380D01*
X148365833Y-78240000D01*
X148270595Y-78335238D01*
X148222976Y-78430476D01*
X148175357Y-78620952D01*
X148175357Y-78763809D01*
X148222976Y-78954285D01*
X148270595Y-79049523D01*
X148365833Y-79144761D01*
X148508690Y-79192380D01*
X148746785Y-79192380D01*
X150270595Y-76652380D02*
X150842023Y-76652380D01*
X150556309Y-76652380D02*
X150556309Y-75652380D01*
X150651547Y-75795238D01*
X150746785Y-75890476D01*
X150842023Y-75938095D01*
X149365833Y-75652380D02*
X149842023Y-75652380D01*
X149889642Y-76128571D01*
X149842023Y-76080952D01*
X149746785Y-76033333D01*
X149508690Y-76033333D01*
X149413452Y-76080952D01*
X149365833Y-76128571D01*
X149318214Y-76223809D01*
X149318214Y-76461904D01*
X149365833Y-76557142D01*
X149413452Y-76604761D01*
X149508690Y-76652380D01*
X149746785Y-76652380D01*
X149842023Y-76604761D01*
X149889642Y-76557142D01*
X150842023Y-73207619D02*
X150794404Y-73160000D01*
X150699166Y-73112380D01*
X150461071Y-73112380D01*
X150365833Y-73160000D01*
X150318214Y-73207619D01*
X150270595Y-73302857D01*
X150270595Y-73398095D01*
X150318214Y-73540952D01*
X150889642Y-74112380D01*
X150270595Y-74112380D01*
X150603928Y-70572380D02*
X150508690Y-70572380D01*
X150413452Y-70620000D01*
X150365833Y-70667619D01*
X150318214Y-70762857D01*
X150270595Y-70953333D01*
X150270595Y-71191428D01*
X150318214Y-71381904D01*
X150365833Y-71477142D01*
X150413452Y-71524761D01*
X150508690Y-71572380D01*
X150603928Y-71572380D01*
X150699166Y-71524761D01*
X150746785Y-71477142D01*
X150794404Y-71381904D01*
X150842023Y-71191428D01*
X150842023Y-70953333D01*
X150794404Y-70762857D01*
X150746785Y-70667619D01*
X150699166Y-70620000D01*
X150603928Y-70572380D01*
X150365833Y-68365714D02*
X150365833Y-69032380D01*
X150603928Y-67984761D02*
X150842023Y-68699047D01*
X150222976Y-68699047D01*
X150270595Y-66492380D02*
X150842023Y-66492380D01*
X150556309Y-66492380D02*
X150556309Y-65492380D01*
X150651547Y-65635238D01*
X150746785Y-65730476D01*
X150842023Y-65778095D01*
X149413452Y-65492380D02*
X149603928Y-65492380D01*
X149699166Y-65540000D01*
X149746785Y-65587619D01*
X149842023Y-65730476D01*
X149889642Y-65920952D01*
X149889642Y-66301904D01*
X149842023Y-66397142D01*
X149794404Y-66444761D01*
X149699166Y-66492380D01*
X149508690Y-66492380D01*
X149413452Y-66444761D01*
X149365833Y-66397142D01*
X149318214Y-66301904D01*
X149318214Y-66063809D01*
X149365833Y-65968571D01*
X149413452Y-65920952D01*
X149508690Y-65873333D01*
X149699166Y-65873333D01*
X149794404Y-65920952D01*
X149842023Y-65968571D01*
X149889642Y-66063809D01*
X148651547Y-66825714D02*
X148651547Y-65397142D01*
X147365833Y-66492380D02*
X147699166Y-66016190D01*
X147937261Y-66492380D02*
X147937261Y-65492380D01*
X147556309Y-65492380D01*
X147461071Y-65540000D01*
X147413452Y-65587619D01*
X147365833Y-65682857D01*
X147365833Y-65825714D01*
X147413452Y-65920952D01*
X147461071Y-65968571D01*
X147556309Y-66016190D01*
X147937261Y-66016190D01*
X147032500Y-65492380D02*
X146365833Y-66492380D01*
X146365833Y-65492380D02*
X147032500Y-66492380D01*
X145984880Y-66492380D02*
X145984880Y-65492380D01*
X145746785Y-65492380D01*
X145603928Y-65540000D01*
X145508690Y-65635238D01*
X145461071Y-65730476D01*
X145413452Y-65920952D01*
X145413452Y-66063809D01*
X145461071Y-66254285D01*
X145508690Y-66349523D01*
X145603928Y-66444761D01*
X145746785Y-66492380D01*
X145984880Y-66492380D01*
X145032500Y-65587619D02*
X144984880Y-65540000D01*
X144889642Y-65492380D01*
X144651547Y-65492380D01*
X144556309Y-65540000D01*
X144508690Y-65587619D01*
X144461071Y-65682857D01*
X144461071Y-65778095D01*
X144508690Y-65920952D01*
X145080119Y-66492380D01*
X144461071Y-66492380D01*
X150270595Y-63952380D02*
X150842023Y-63952380D01*
X150556309Y-63952380D02*
X150556309Y-62952380D01*
X150651547Y-63095238D01*
X150746785Y-63190476D01*
X150842023Y-63238095D01*
X149937261Y-62952380D02*
X149270595Y-62952380D01*
X149699166Y-63952380D01*
X148651547Y-64285714D02*
X148651547Y-62857142D01*
X148080119Y-62952380D02*
X147508690Y-62952380D01*
X147794404Y-63952380D02*
X147794404Y-62952380D01*
X147270595Y-62952380D02*
X146603928Y-63952380D01*
X146603928Y-62952380D02*
X147270595Y-63952380D01*
X146222976Y-63952380D02*
X146222976Y-62952380D01*
X145984880Y-62952380D01*
X145842023Y-63000000D01*
X145746785Y-63095238D01*
X145699166Y-63190476D01*
X145651547Y-63380952D01*
X145651547Y-63523809D01*
X145699166Y-63714285D01*
X145746785Y-63809523D01*
X145842023Y-63904761D01*
X145984880Y-63952380D01*
X146222976Y-63952380D01*
X145270595Y-63047619D02*
X145222976Y-63000000D01*
X145127738Y-62952380D01*
X144889642Y-62952380D01*
X144794404Y-63000000D01*
X144746785Y-63047619D01*
X144699166Y-63142857D01*
X144699166Y-63238095D01*
X144746785Y-63380952D01*
X145318214Y-63952380D01*
X144699166Y-63952380D01*
X150318214Y-60412380D02*
X150794404Y-60412380D01*
X150842023Y-60888571D01*
X150794404Y-60840952D01*
X150699166Y-60793333D01*
X150461071Y-60793333D01*
X150365833Y-60840952D01*
X150318214Y-60888571D01*
X150270595Y-60983809D01*
X150270595Y-61221904D01*
X150318214Y-61317142D01*
X150365833Y-61364761D01*
X150461071Y-61412380D01*
X150699166Y-61412380D01*
X150794404Y-61364761D01*
X150842023Y-61317142D01*
X150270595Y-58872380D02*
X150842023Y-58872380D01*
X150556309Y-58872380D02*
X150556309Y-57872380D01*
X150651547Y-58015238D01*
X150746785Y-58110476D01*
X150842023Y-58158095D01*
X149699166Y-58300952D02*
X149794404Y-58253333D01*
X149842023Y-58205714D01*
X149889642Y-58110476D01*
X149889642Y-58062857D01*
X149842023Y-57967619D01*
X149794404Y-57920000D01*
X149699166Y-57872380D01*
X149508690Y-57872380D01*
X149413452Y-57920000D01*
X149365833Y-57967619D01*
X149318214Y-58062857D01*
X149318214Y-58110476D01*
X149365833Y-58205714D01*
X149413452Y-58253333D01*
X149508690Y-58300952D01*
X149699166Y-58300952D01*
X149794404Y-58348571D01*
X149842023Y-58396190D01*
X149889642Y-58491428D01*
X149889642Y-58681904D01*
X149842023Y-58777142D01*
X149794404Y-58824761D01*
X149699166Y-58872380D01*
X149508690Y-58872380D01*
X149413452Y-58824761D01*
X149365833Y-58777142D01*
X149318214Y-58681904D01*
X149318214Y-58491428D01*
X149365833Y-58396190D01*
X149413452Y-58348571D01*
X149508690Y-58300952D01*
X148651547Y-59205714D02*
X148651547Y-57777142D01*
X147937261Y-58872380D02*
X147937261Y-57872380D01*
X147461071Y-58872380D02*
X147461071Y-57872380D01*
X147127738Y-58586666D01*
X146794404Y-57872380D01*
X146794404Y-58872380D01*
X146318214Y-57872380D02*
X146318214Y-58681904D01*
X146270595Y-58777142D01*
X146222976Y-58824761D01*
X146127738Y-58872380D01*
X145937261Y-58872380D01*
X145842023Y-58824761D01*
X145794404Y-58777142D01*
X145746785Y-58681904D01*
X145746785Y-57872380D01*
X145508690Y-58967619D02*
X144746785Y-58967619D01*
X144508690Y-58872380D02*
X144508690Y-57872380D01*
X144032500Y-58872380D02*
X144032500Y-57872380D01*
X143461071Y-58872380D01*
X143461071Y-57872380D01*
X143127738Y-57872380D02*
X142556309Y-57872380D01*
X142842023Y-58872380D02*
X142842023Y-57872380D01*
X141699166Y-58872380D02*
X142270595Y-58872380D01*
X141984880Y-58872380D02*
X141984880Y-57872380D01*
X142080119Y-58015238D01*
X142175357Y-58110476D01*
X142270595Y-58158095D01*
X150270595Y-56332380D02*
X150842023Y-56332380D01*
X150556309Y-56332380D02*
X150556309Y-55332380D01*
X150651547Y-55475238D01*
X150746785Y-55570476D01*
X150842023Y-55618095D01*
X149794404Y-56332380D02*
X149603928Y-56332380D01*
X149508690Y-56284761D01*
X149461071Y-56237142D01*
X149365833Y-56094285D01*
X149318214Y-55903809D01*
X149318214Y-55522857D01*
X149365833Y-55427619D01*
X149413452Y-55380000D01*
X149508690Y-55332380D01*
X149699166Y-55332380D01*
X149794404Y-55380000D01*
X149842023Y-55427619D01*
X149889642Y-55522857D01*
X149889642Y-55760952D01*
X149842023Y-55856190D01*
X149794404Y-55903809D01*
X149699166Y-55951428D01*
X149508690Y-55951428D01*
X149413452Y-55903809D01*
X149365833Y-55856190D01*
X149318214Y-55760952D01*
X148651547Y-56665714D02*
X148651547Y-55237142D01*
X147937261Y-56332380D02*
X147937261Y-55332380D01*
X147461071Y-56332380D02*
X147461071Y-55332380D01*
X147127738Y-56046666D01*
X146794404Y-55332380D01*
X146794404Y-56332380D01*
X146318214Y-55332380D02*
X146318214Y-56141904D01*
X146270595Y-56237142D01*
X146222976Y-56284761D01*
X146127738Y-56332380D01*
X145937261Y-56332380D01*
X145842023Y-56284761D01*
X145794404Y-56237142D01*
X145746785Y-56141904D01*
X145746785Y-55332380D01*
X145508690Y-56427619D02*
X144746785Y-56427619D01*
X144508690Y-56332380D02*
X144508690Y-55332380D01*
X144032500Y-56332380D02*
X144032500Y-55332380D01*
X143461071Y-56332380D01*
X143461071Y-55332380D01*
X143127738Y-55332380D02*
X142556309Y-55332380D01*
X142842023Y-56332380D02*
X142842023Y-55332380D01*
X142270595Y-55427619D02*
X142222976Y-55380000D01*
X142127738Y-55332380D01*
X141889642Y-55332380D01*
X141794404Y-55380000D01*
X141746785Y-55427619D01*
X141699166Y-55522857D01*
X141699166Y-55618095D01*
X141746785Y-55760952D01*
X142318214Y-56332380D01*
X141699166Y-56332380D01*
X150842023Y-52887619D02*
X150794404Y-52840000D01*
X150699166Y-52792380D01*
X150461071Y-52792380D01*
X150365833Y-52840000D01*
X150318214Y-52887619D01*
X150270595Y-52982857D01*
X150270595Y-53078095D01*
X150318214Y-53220952D01*
X150889642Y-53792380D01*
X150270595Y-53792380D01*
X149318214Y-53792380D02*
X149889642Y-53792380D01*
X149603928Y-53792380D02*
X149603928Y-52792380D01*
X149699166Y-52935238D01*
X149794404Y-53030476D01*
X149889642Y-53078095D01*
X148651547Y-54125714D02*
X148651547Y-52697142D01*
X147984880Y-53744761D02*
X147842023Y-53792380D01*
X147603928Y-53792380D01*
X147508690Y-53744761D01*
X147461071Y-53697142D01*
X147413452Y-53601904D01*
X147413452Y-53506666D01*
X147461071Y-53411428D01*
X147508690Y-53363809D01*
X147603928Y-53316190D01*
X147794404Y-53268571D01*
X147889642Y-53220952D01*
X147937261Y-53173333D01*
X147984880Y-53078095D01*
X147984880Y-52982857D01*
X147937261Y-52887619D01*
X147889642Y-52840000D01*
X147794404Y-52792380D01*
X147556309Y-52792380D01*
X147413452Y-52840000D01*
X146984880Y-53792380D02*
X146984880Y-52792380D01*
X146746785Y-52792380D01*
X146603928Y-52840000D01*
X146508690Y-52935238D01*
X146461071Y-53030476D01*
X146413452Y-53220952D01*
X146413452Y-53363809D01*
X146461071Y-53554285D01*
X146508690Y-53649523D01*
X146603928Y-53744761D01*
X146746785Y-53792380D01*
X146984880Y-53792380D01*
X146032500Y-53506666D02*
X145556309Y-53506666D01*
X146127738Y-53792380D02*
X145794404Y-52792380D01*
X145461071Y-53792380D01*
X150222976Y-51252380D02*
X150556309Y-50776190D01*
X150794404Y-51252380D02*
X150794404Y-50252380D01*
X150413452Y-50252380D01*
X150318214Y-50300000D01*
X150270595Y-50347619D01*
X150222976Y-50442857D01*
X150222976Y-50585714D01*
X150270595Y-50680952D01*
X150318214Y-50728571D01*
X150413452Y-50776190D01*
X150794404Y-50776190D01*
X149889642Y-50252380D02*
X149222976Y-51252380D01*
X149222976Y-50252380D02*
X149889642Y-51252380D01*
X148842023Y-51252380D02*
X148842023Y-50252380D01*
X148603928Y-50252380D01*
X148461071Y-50300000D01*
X148365833Y-50395238D01*
X148318214Y-50490476D01*
X148270595Y-50680952D01*
X148270595Y-50823809D01*
X148318214Y-51014285D01*
X148365833Y-51109523D01*
X148461071Y-51204761D01*
X148603928Y-51252380D01*
X148842023Y-51252380D01*
X150937261Y-47712380D02*
X150365833Y-47712380D01*
X150651547Y-48712380D02*
X150651547Y-47712380D01*
X150127738Y-47712380D02*
X149461071Y-48712380D01*
X149461071Y-47712380D02*
X150127738Y-48712380D01*
X149080119Y-48712380D02*
X149080119Y-47712380D01*
X148842023Y-47712380D01*
X148699166Y-47760000D01*
X148603928Y-47855238D01*
X148556309Y-47950476D01*
X148508690Y-48140952D01*
X148508690Y-48283809D01*
X148556309Y-48474285D01*
X148603928Y-48569523D01*
X148699166Y-48664761D01*
X148842023Y-48712380D01*
X149080119Y-48712380D01*
X150842023Y-45267619D02*
X150794404Y-45220000D01*
X150699166Y-45172380D01*
X150461071Y-45172380D01*
X150365833Y-45220000D01*
X150318214Y-45267619D01*
X150270595Y-45362857D01*
X150270595Y-45458095D01*
X150318214Y-45600952D01*
X150889642Y-46172380D01*
X150270595Y-46172380D01*
X149889642Y-45267619D02*
X149842023Y-45220000D01*
X149746785Y-45172380D01*
X149508690Y-45172380D01*
X149413452Y-45220000D01*
X149365833Y-45267619D01*
X149318214Y-45362857D01*
X149318214Y-45458095D01*
X149365833Y-45600952D01*
X149937261Y-46172380D01*
X149318214Y-46172380D01*
X148651547Y-46505714D02*
X148651547Y-45077142D01*
X147984880Y-46124761D02*
X147842023Y-46172380D01*
X147603928Y-46172380D01*
X147508690Y-46124761D01*
X147461071Y-46077142D01*
X147413452Y-45981904D01*
X147413452Y-45886666D01*
X147461071Y-45791428D01*
X147508690Y-45743809D01*
X147603928Y-45696190D01*
X147794404Y-45648571D01*
X147889642Y-45600952D01*
X147937261Y-45553333D01*
X147984880Y-45458095D01*
X147984880Y-45362857D01*
X147937261Y-45267619D01*
X147889642Y-45220000D01*
X147794404Y-45172380D01*
X147556309Y-45172380D01*
X147413452Y-45220000D01*
X146413452Y-46077142D02*
X146461071Y-46124761D01*
X146603928Y-46172380D01*
X146699166Y-46172380D01*
X146842023Y-46124761D01*
X146937261Y-46029523D01*
X146984880Y-45934285D01*
X147032500Y-45743809D01*
X147032500Y-45600952D01*
X146984880Y-45410476D01*
X146937261Y-45315238D01*
X146842023Y-45220000D01*
X146699166Y-45172380D01*
X146603928Y-45172380D01*
X146461071Y-45220000D01*
X146413452Y-45267619D01*
X145508690Y-46172380D02*
X145984880Y-46172380D01*
X145984880Y-45172380D01*
X150842023Y-42727619D02*
X150794404Y-42680000D01*
X150699166Y-42632380D01*
X150461071Y-42632380D01*
X150365833Y-42680000D01*
X150318214Y-42727619D01*
X150270595Y-42822857D01*
X150270595Y-42918095D01*
X150318214Y-43060952D01*
X150889642Y-43632380D01*
X150270595Y-43632380D01*
X149937261Y-42632380D02*
X149318214Y-42632380D01*
X149651547Y-43013333D01*
X149508690Y-43013333D01*
X149413452Y-43060952D01*
X149365833Y-43108571D01*
X149318214Y-43203809D01*
X149318214Y-43441904D01*
X149365833Y-43537142D01*
X149413452Y-43584761D01*
X149508690Y-43632380D01*
X149794404Y-43632380D01*
X149889642Y-43584761D01*
X149937261Y-43537142D01*
X150889642Y-40092380D02*
X150270595Y-40092380D01*
X150603928Y-40473333D01*
X150461071Y-40473333D01*
X150365833Y-40520952D01*
X150318214Y-40568571D01*
X150270595Y-40663809D01*
X150270595Y-40901904D01*
X150318214Y-40997142D01*
X150365833Y-41044761D01*
X150461071Y-41092380D01*
X150746785Y-41092380D01*
X150842023Y-41044761D01*
X150889642Y-40997142D01*
X149842023Y-40997142D02*
X149794404Y-41044761D01*
X149842023Y-41092380D01*
X149889642Y-41044761D01*
X149842023Y-40997142D01*
X149842023Y-41092380D01*
X149461071Y-40092380D02*
X148842023Y-40092380D01*
X149175357Y-40473333D01*
X149032500Y-40473333D01*
X148937261Y-40520952D01*
X148889642Y-40568571D01*
X148842023Y-40663809D01*
X148842023Y-40901904D01*
X148889642Y-40997142D01*
X148937261Y-41044761D01*
X149032500Y-41092380D01*
X149318214Y-41092380D01*
X149413452Y-41044761D01*
X149461071Y-40997142D01*
X148556309Y-40092380D02*
X148222976Y-41092380D01*
X147889642Y-40092380D01*
M02*
