G04 #@! TF.GenerationSoftware,KiCad,Pcbnew,(5.1.2-1)-1*
G04 #@! TF.CreationDate,2019-08-23T12:39:33+12:00*
G04 #@! TF.ProjectId,ccb,6363622e-6b69-4636-9164-5f7063625858,rev?*
G04 #@! TF.SameCoordinates,Original*
G04 #@! TF.FileFunction,Soldermask,Bot*
G04 #@! TF.FilePolarity,Negative*
%FSLAX46Y46*%
G04 Gerber Fmt 4.6, Leading zero omitted, Abs format (unit mm)*
G04 Created by KiCad (PCBNEW (5.1.2-1)-1) date 2019-08-23 12:39:33*
%MOMM*%
%LPD*%
G04 APERTURE LIST*
%ADD10C,0.100000*%
G04 APERTURE END LIST*
D10*
G36*
X142081617Y-81125420D02*
G01*
X142162399Y-81149925D01*
X142204335Y-81162646D01*
X142317424Y-81223094D01*
X142416554Y-81304447D01*
X142497906Y-81403575D01*
X142558354Y-81516664D01*
X142564827Y-81538003D01*
X142595580Y-81639382D01*
X142605000Y-81735027D01*
X142605000Y-82348973D01*
X142595580Y-82444618D01*
X142568040Y-82535404D01*
X142558354Y-82567336D01*
X142497906Y-82680425D01*
X142416554Y-82779554D01*
X142317425Y-82860906D01*
X142204336Y-82921354D01*
X142172404Y-82931040D01*
X142081618Y-82958580D01*
X141954000Y-82971149D01*
X141826383Y-82958580D01*
X141735597Y-82931040D01*
X141703665Y-82921354D01*
X141590576Y-82860906D01*
X141491447Y-82779554D01*
X141410096Y-82680427D01*
X141410095Y-82680425D01*
X141349647Y-82567336D01*
X141349645Y-82567333D01*
X141337237Y-82526427D01*
X141312420Y-82444618D01*
X141303000Y-82348973D01*
X141303000Y-81735028D01*
X141312420Y-81639383D01*
X141349645Y-81516669D01*
X141349646Y-81516665D01*
X141410094Y-81403576D01*
X141491447Y-81304446D01*
X141590575Y-81223094D01*
X141703664Y-81162646D01*
X141745600Y-81149925D01*
X141826382Y-81125420D01*
X141954000Y-81112851D01*
X142081617Y-81125420D01*
X142081617Y-81125420D01*
G37*
G36*
X140445242Y-81120404D02*
G01*
X140482337Y-81131657D01*
X140516515Y-81149925D01*
X140546481Y-81174519D01*
X140571075Y-81204485D01*
X140589343Y-81238663D01*
X140600596Y-81275758D01*
X140605000Y-81320474D01*
X140605000Y-82763526D01*
X140600596Y-82808242D01*
X140589343Y-82845337D01*
X140571075Y-82879515D01*
X140546481Y-82909481D01*
X140516515Y-82934075D01*
X140482337Y-82952343D01*
X140445242Y-82963596D01*
X140400526Y-82968000D01*
X139507474Y-82968000D01*
X139462758Y-82963596D01*
X139425663Y-82952343D01*
X139391485Y-82934075D01*
X139361519Y-82909481D01*
X139336925Y-82879515D01*
X139318657Y-82845337D01*
X139307404Y-82808242D01*
X139303000Y-82763526D01*
X139303000Y-81320474D01*
X139307404Y-81275758D01*
X139318657Y-81238663D01*
X139336925Y-81204485D01*
X139361519Y-81174519D01*
X139391485Y-81149925D01*
X139425663Y-81131657D01*
X139462758Y-81120404D01*
X139507474Y-81116000D01*
X140400526Y-81116000D01*
X140445242Y-81120404D01*
X140445242Y-81120404D01*
G37*
G36*
X122319560Y-79389116D02*
G01*
X122430745Y-79411232D01*
X122640214Y-79497997D01*
X122828731Y-79623960D01*
X122989051Y-79784280D01*
X123115014Y-79972797D01*
X123201779Y-80182266D01*
X123246011Y-80404636D01*
X123246011Y-80631364D01*
X123201779Y-80853734D01*
X123115014Y-81063203D01*
X122989051Y-81251720D01*
X122828731Y-81412040D01*
X122640214Y-81538003D01*
X122430745Y-81624768D01*
X122357275Y-81639382D01*
X122208376Y-81669000D01*
X121981646Y-81669000D01*
X121832747Y-81639382D01*
X121759277Y-81624768D01*
X121549808Y-81538003D01*
X121361291Y-81412040D01*
X121200971Y-81251720D01*
X121075008Y-81063203D01*
X120988243Y-80853734D01*
X120944011Y-80631364D01*
X120944011Y-80404636D01*
X120988243Y-80182266D01*
X121075008Y-79972797D01*
X121200971Y-79784280D01*
X121361291Y-79623960D01*
X121549808Y-79497997D01*
X121759277Y-79411232D01*
X121870462Y-79389116D01*
X121981646Y-79367000D01*
X122208376Y-79367000D01*
X122319560Y-79389116D01*
X122319560Y-79389116D01*
G37*
G36*
X153301000Y-79641000D02*
G01*
X151499000Y-79641000D01*
X151499000Y-77839000D01*
X153301000Y-77839000D01*
X153301000Y-79641000D01*
X153301000Y-79641000D01*
G37*
G36*
X130128578Y-77847048D02*
G01*
X130201249Y-77869093D01*
X130268225Y-77904892D01*
X130326930Y-77953070D01*
X130375108Y-78011775D01*
X130410907Y-78078751D01*
X130432952Y-78151422D01*
X130441000Y-78233140D01*
X130441000Y-79246860D01*
X130432952Y-79328578D01*
X130410907Y-79401249D01*
X130375108Y-79468225D01*
X130326930Y-79526930D01*
X130268225Y-79575108D01*
X130201249Y-79610907D01*
X130128578Y-79632952D01*
X130046860Y-79641000D01*
X129033140Y-79641000D01*
X128951422Y-79632952D01*
X128878751Y-79610907D01*
X128811775Y-79575108D01*
X128753070Y-79526930D01*
X128704892Y-79468225D01*
X128669093Y-79401249D01*
X128647048Y-79328578D01*
X128639000Y-79246860D01*
X128639000Y-78233140D01*
X128647048Y-78151422D01*
X128669093Y-78078751D01*
X128704892Y-78011775D01*
X128753070Y-77953070D01*
X128811775Y-77904892D01*
X128878751Y-77869093D01*
X128951422Y-77847048D01*
X129033140Y-77839000D01*
X130046860Y-77839000D01*
X130128578Y-77847048D01*
X130128578Y-77847048D01*
G37*
G36*
X157209442Y-75305518D02*
G01*
X157275627Y-75312037D01*
X157445466Y-75363557D01*
X157601991Y-75447222D01*
X157631909Y-75471775D01*
X157739186Y-75559814D01*
X157822448Y-75661271D01*
X157851778Y-75697009D01*
X157935443Y-75853534D01*
X157986963Y-76023373D01*
X158004359Y-76200000D01*
X157986963Y-76376627D01*
X157935443Y-76546466D01*
X157851778Y-76702991D01*
X157822728Y-76738388D01*
X157739186Y-76840186D01*
X157637729Y-76923448D01*
X157601991Y-76952778D01*
X157445466Y-77036443D01*
X157275627Y-77087963D01*
X157231145Y-77092344D01*
X157143260Y-77101000D01*
X157054740Y-77101000D01*
X156966855Y-77092344D01*
X156922373Y-77087963D01*
X156752534Y-77036443D01*
X156596009Y-76952778D01*
X156560271Y-76923448D01*
X156458814Y-76840186D01*
X156375272Y-76738388D01*
X156346222Y-76702991D01*
X156262557Y-76546466D01*
X156211037Y-76376627D01*
X156193641Y-76200000D01*
X156211037Y-76023373D01*
X156262557Y-75853534D01*
X156346222Y-75697009D01*
X156375552Y-75661271D01*
X156458814Y-75559814D01*
X156566091Y-75471775D01*
X156596009Y-75447222D01*
X156752534Y-75363557D01*
X156922373Y-75312037D01*
X156988558Y-75305518D01*
X157054740Y-75299000D01*
X157143260Y-75299000D01*
X157209442Y-75305518D01*
X157209442Y-75305518D01*
G37*
G36*
X159749442Y-75305518D02*
G01*
X159815627Y-75312037D01*
X159985466Y-75363557D01*
X160141991Y-75447222D01*
X160171909Y-75471775D01*
X160279186Y-75559814D01*
X160362448Y-75661271D01*
X160391778Y-75697009D01*
X160475443Y-75853534D01*
X160526963Y-76023373D01*
X160544359Y-76200000D01*
X160526963Y-76376627D01*
X160475443Y-76546466D01*
X160391778Y-76702991D01*
X160362728Y-76738388D01*
X160279186Y-76840186D01*
X160177729Y-76923448D01*
X160141991Y-76952778D01*
X159985466Y-77036443D01*
X159815627Y-77087963D01*
X159771145Y-77092344D01*
X159683260Y-77101000D01*
X159594740Y-77101000D01*
X159506855Y-77092344D01*
X159462373Y-77087963D01*
X159292534Y-77036443D01*
X159136009Y-76952778D01*
X159100271Y-76923448D01*
X158998814Y-76840186D01*
X158915272Y-76738388D01*
X158886222Y-76702991D01*
X158802557Y-76546466D01*
X158751037Y-76376627D01*
X158733641Y-76200000D01*
X158751037Y-76023373D01*
X158802557Y-75853534D01*
X158886222Y-75697009D01*
X158915552Y-75661271D01*
X158998814Y-75559814D01*
X159106091Y-75471775D01*
X159136009Y-75447222D01*
X159292534Y-75363557D01*
X159462373Y-75312037D01*
X159528558Y-75305518D01*
X159594740Y-75299000D01*
X159683260Y-75299000D01*
X159749442Y-75305518D01*
X159749442Y-75305518D01*
G37*
G36*
X163080000Y-77101000D02*
G01*
X161278000Y-77101000D01*
X161278000Y-75299000D01*
X163080000Y-75299000D01*
X163080000Y-77101000D01*
X163080000Y-77101000D01*
G37*
G36*
X152510442Y-75305518D02*
G01*
X152576627Y-75312037D01*
X152746466Y-75363557D01*
X152902991Y-75447222D01*
X152932909Y-75471775D01*
X153040186Y-75559814D01*
X153123448Y-75661271D01*
X153152778Y-75697009D01*
X153236443Y-75853534D01*
X153287963Y-76023373D01*
X153305359Y-76200000D01*
X153287963Y-76376627D01*
X153236443Y-76546466D01*
X153152778Y-76702991D01*
X153123728Y-76738388D01*
X153040186Y-76840186D01*
X152938729Y-76923448D01*
X152902991Y-76952778D01*
X152746466Y-77036443D01*
X152576627Y-77087963D01*
X152532145Y-77092344D01*
X152444260Y-77101000D01*
X152355740Y-77101000D01*
X152267855Y-77092344D01*
X152223373Y-77087963D01*
X152053534Y-77036443D01*
X151897009Y-76952778D01*
X151861271Y-76923448D01*
X151759814Y-76840186D01*
X151676272Y-76738388D01*
X151647222Y-76702991D01*
X151563557Y-76546466D01*
X151512037Y-76376627D01*
X151494641Y-76200000D01*
X151512037Y-76023373D01*
X151563557Y-75853534D01*
X151647222Y-75697009D01*
X151676552Y-75661271D01*
X151759814Y-75559814D01*
X151867091Y-75471775D01*
X151897009Y-75447222D01*
X152053534Y-75363557D01*
X152223373Y-75312037D01*
X152289558Y-75305518D01*
X152355740Y-75299000D01*
X152444260Y-75299000D01*
X152510442Y-75305518D01*
X152510442Y-75305518D01*
G37*
G36*
X130128578Y-75307048D02*
G01*
X130201249Y-75329093D01*
X130268225Y-75364892D01*
X130326930Y-75413070D01*
X130375108Y-75471775D01*
X130410907Y-75538751D01*
X130432952Y-75611422D01*
X130441000Y-75693140D01*
X130441000Y-76706860D01*
X130432952Y-76788578D01*
X130410907Y-76861249D01*
X130375108Y-76928225D01*
X130326930Y-76986930D01*
X130268225Y-77035108D01*
X130201249Y-77070907D01*
X130128578Y-77092952D01*
X130046860Y-77101000D01*
X129033140Y-77101000D01*
X128951422Y-77092952D01*
X128878751Y-77070907D01*
X128811775Y-77035108D01*
X128753070Y-76986930D01*
X128704892Y-76928225D01*
X128669093Y-76861249D01*
X128647048Y-76788578D01*
X128639000Y-76706860D01*
X128639000Y-75693140D01*
X128647048Y-75611422D01*
X128669093Y-75538751D01*
X128704892Y-75471775D01*
X128753070Y-75413070D01*
X128811775Y-75364892D01*
X128878751Y-75329093D01*
X128951422Y-75307048D01*
X129033140Y-75299000D01*
X130046860Y-75299000D01*
X130128578Y-75307048D01*
X130128578Y-75307048D01*
G37*
G36*
X111813194Y-73523314D02*
G01*
X111881548Y-73533072D01*
X111971048Y-73564547D01*
X112002523Y-73575615D01*
X112112870Y-73640939D01*
X112208355Y-73726536D01*
X112285308Y-73829122D01*
X112340767Y-73944743D01*
X112372603Y-74068961D01*
X112379594Y-74197008D01*
X112370080Y-74263645D01*
X112361469Y-74323957D01*
X112329586Y-74414622D01*
X112070121Y-74971046D01*
X112021162Y-75053749D01*
X111935564Y-75149234D01*
X111832983Y-75226184D01*
X111717356Y-75281645D01*
X111593140Y-75313481D01*
X111465095Y-75320472D01*
X111356271Y-75304935D01*
X111338146Y-75302347D01*
X111306673Y-75291279D01*
X111217173Y-75259806D01*
X111160379Y-75226184D01*
X111106823Y-75194480D01*
X111011338Y-75108882D01*
X110934388Y-75006301D01*
X110878927Y-74890674D01*
X110847091Y-74766458D01*
X110840100Y-74638413D01*
X110858225Y-74511465D01*
X110863508Y-74496443D01*
X110890109Y-74420799D01*
X111149573Y-73864374D01*
X111198532Y-73781671D01*
X111284131Y-73686186D01*
X111284132Y-73686186D01*
X111284133Y-73686184D01*
X111359032Y-73629999D01*
X111386712Y-73609235D01*
X111456915Y-73575562D01*
X111502337Y-73553775D01*
X111626554Y-73521939D01*
X111754599Y-73514948D01*
X111813194Y-73523314D01*
X111813194Y-73523314D01*
G37*
G36*
X163080000Y-74561000D02*
G01*
X161278000Y-74561000D01*
X161278000Y-72759000D01*
X163080000Y-72759000D01*
X163080000Y-74561000D01*
X163080000Y-74561000D01*
G37*
G36*
X159734015Y-72763999D02*
G01*
X159815627Y-72772037D01*
X159985466Y-72823557D01*
X160141991Y-72907222D01*
X160170155Y-72930336D01*
X160279186Y-73019814D01*
X160362448Y-73121271D01*
X160391778Y-73157009D01*
X160475443Y-73313534D01*
X160526963Y-73483373D01*
X160544359Y-73660000D01*
X160526963Y-73836627D01*
X160475443Y-74006466D01*
X160391778Y-74162991D01*
X160379251Y-74178255D01*
X160279186Y-74300186D01*
X160181357Y-74380471D01*
X160141991Y-74412778D01*
X159985466Y-74496443D01*
X159815627Y-74547963D01*
X159749442Y-74554482D01*
X159683260Y-74561000D01*
X159594740Y-74561000D01*
X159528558Y-74554482D01*
X159462373Y-74547963D01*
X159292534Y-74496443D01*
X159136009Y-74412778D01*
X159096643Y-74380471D01*
X158998814Y-74300186D01*
X158898749Y-74178255D01*
X158886222Y-74162991D01*
X158802557Y-74006466D01*
X158751037Y-73836627D01*
X158733641Y-73660000D01*
X158751037Y-73483373D01*
X158802557Y-73313534D01*
X158886222Y-73157009D01*
X158915552Y-73121271D01*
X158998814Y-73019814D01*
X159107845Y-72930336D01*
X159136009Y-72907222D01*
X159292534Y-72823557D01*
X159462373Y-72772037D01*
X159543985Y-72763999D01*
X159594740Y-72759000D01*
X159683260Y-72759000D01*
X159734015Y-72763999D01*
X159734015Y-72763999D01*
G37*
G36*
X157194015Y-72763999D02*
G01*
X157275627Y-72772037D01*
X157445466Y-72823557D01*
X157601991Y-72907222D01*
X157630155Y-72930336D01*
X157739186Y-73019814D01*
X157822448Y-73121271D01*
X157851778Y-73157009D01*
X157935443Y-73313534D01*
X157986963Y-73483373D01*
X158004359Y-73660000D01*
X157986963Y-73836627D01*
X157935443Y-74006466D01*
X157851778Y-74162991D01*
X157839251Y-74178255D01*
X157739186Y-74300186D01*
X157641357Y-74380471D01*
X157601991Y-74412778D01*
X157445466Y-74496443D01*
X157275627Y-74547963D01*
X157209442Y-74554482D01*
X157143260Y-74561000D01*
X157054740Y-74561000D01*
X156988558Y-74554482D01*
X156922373Y-74547963D01*
X156752534Y-74496443D01*
X156596009Y-74412778D01*
X156556643Y-74380471D01*
X156458814Y-74300186D01*
X156358749Y-74178255D01*
X156346222Y-74162991D01*
X156262557Y-74006466D01*
X156211037Y-73836627D01*
X156193641Y-73660000D01*
X156211037Y-73483373D01*
X156262557Y-73313534D01*
X156346222Y-73157009D01*
X156375552Y-73121271D01*
X156458814Y-73019814D01*
X156567845Y-72930336D01*
X156596009Y-72907222D01*
X156752534Y-72823557D01*
X156922373Y-72772037D01*
X157003985Y-72763999D01*
X157054740Y-72759000D01*
X157143260Y-72759000D01*
X157194015Y-72763999D01*
X157194015Y-72763999D01*
G37*
G36*
X152495015Y-72763999D02*
G01*
X152576627Y-72772037D01*
X152746466Y-72823557D01*
X152902991Y-72907222D01*
X152931155Y-72930336D01*
X153040186Y-73019814D01*
X153123448Y-73121271D01*
X153152778Y-73157009D01*
X153236443Y-73313534D01*
X153287963Y-73483373D01*
X153305359Y-73660000D01*
X153287963Y-73836627D01*
X153236443Y-74006466D01*
X153152778Y-74162991D01*
X153140251Y-74178255D01*
X153040186Y-74300186D01*
X152942357Y-74380471D01*
X152902991Y-74412778D01*
X152746466Y-74496443D01*
X152576627Y-74547963D01*
X152510442Y-74554482D01*
X152444260Y-74561000D01*
X152355740Y-74561000D01*
X152289558Y-74554482D01*
X152223373Y-74547963D01*
X152053534Y-74496443D01*
X151897009Y-74412778D01*
X151857643Y-74380471D01*
X151759814Y-74300186D01*
X151659749Y-74178255D01*
X151647222Y-74162991D01*
X151563557Y-74006466D01*
X151512037Y-73836627D01*
X151494641Y-73660000D01*
X151512037Y-73483373D01*
X151563557Y-73313534D01*
X151647222Y-73157009D01*
X151676552Y-73121271D01*
X151759814Y-73019814D01*
X151868845Y-72930336D01*
X151897009Y-72907222D01*
X152053534Y-72823557D01*
X152223373Y-72772037D01*
X152304985Y-72763999D01*
X152355740Y-72759000D01*
X152444260Y-72759000D01*
X152495015Y-72763999D01*
X152495015Y-72763999D01*
G37*
G36*
X130441000Y-74561000D02*
G01*
X128639000Y-74561000D01*
X128639000Y-72759000D01*
X130441000Y-72759000D01*
X130441000Y-74561000D01*
X130441000Y-74561000D01*
G37*
G36*
X110000578Y-72678077D02*
G01*
X110068932Y-72687835D01*
X110158432Y-72719310D01*
X110189907Y-72730378D01*
X110300254Y-72795702D01*
X110395739Y-72881299D01*
X110472692Y-72983885D01*
X110528151Y-73099506D01*
X110559987Y-73223724D01*
X110566978Y-73351771D01*
X110551117Y-73462859D01*
X110548853Y-73478720D01*
X110516970Y-73569385D01*
X110257505Y-74125809D01*
X110208546Y-74208512D01*
X110134152Y-74291499D01*
X110122948Y-74303997D01*
X110020367Y-74380947D01*
X109904740Y-74436408D01*
X109780524Y-74468244D01*
X109652479Y-74475235D01*
X109543655Y-74459698D01*
X109525530Y-74457110D01*
X109494057Y-74446042D01*
X109404557Y-74414569D01*
X109346959Y-74380471D01*
X109294207Y-74349243D01*
X109198722Y-74263645D01*
X109121772Y-74161064D01*
X109066311Y-74045437D01*
X109034475Y-73921221D01*
X109027484Y-73793176D01*
X109045609Y-73666228D01*
X109072004Y-73591172D01*
X109077493Y-73575562D01*
X109336957Y-73019137D01*
X109385916Y-72936434D01*
X109471515Y-72840949D01*
X109471516Y-72840949D01*
X109471517Y-72840947D01*
X109539902Y-72789648D01*
X109574096Y-72763998D01*
X109657175Y-72724149D01*
X109689721Y-72708538D01*
X109813938Y-72676702D01*
X109941983Y-72669711D01*
X110000578Y-72678077D01*
X110000578Y-72678077D01*
G37*
G36*
X118288000Y-74473000D02*
G01*
X116662000Y-74473000D01*
X116662000Y-72847000D01*
X118288000Y-72847000D01*
X118288000Y-74473000D01*
X118288000Y-74473000D01*
G37*
G36*
X123712142Y-72878242D02*
G01*
X123860101Y-72939529D01*
X123993255Y-73028499D01*
X124106501Y-73141745D01*
X124195471Y-73274899D01*
X124256758Y-73422858D01*
X124288000Y-73579925D01*
X124288000Y-73740075D01*
X124256758Y-73897142D01*
X124195471Y-74045101D01*
X124106501Y-74178255D01*
X123993255Y-74291501D01*
X123860101Y-74380471D01*
X123712142Y-74441758D01*
X123555075Y-74473000D01*
X123394925Y-74473000D01*
X123237858Y-74441758D01*
X123089899Y-74380471D01*
X122956745Y-74291501D01*
X122843499Y-74178255D01*
X122754529Y-74045101D01*
X122693242Y-73897142D01*
X122662000Y-73740075D01*
X122662000Y-73579925D01*
X122693242Y-73422858D01*
X122754529Y-73274899D01*
X122843499Y-73141745D01*
X122956745Y-73028499D01*
X123089899Y-72939529D01*
X123237858Y-72878242D01*
X123394925Y-72847000D01*
X123555075Y-72847000D01*
X123712142Y-72878242D01*
X123712142Y-72878242D01*
G37*
G36*
X121712142Y-72878242D02*
G01*
X121860101Y-72939529D01*
X121993255Y-73028499D01*
X122106501Y-73141745D01*
X122195471Y-73274899D01*
X122256758Y-73422858D01*
X122288000Y-73579925D01*
X122288000Y-73740075D01*
X122256758Y-73897142D01*
X122195471Y-74045101D01*
X122106501Y-74178255D01*
X121993255Y-74291501D01*
X121860101Y-74380471D01*
X121712142Y-74441758D01*
X121555075Y-74473000D01*
X121394925Y-74473000D01*
X121237858Y-74441758D01*
X121089899Y-74380471D01*
X120956745Y-74291501D01*
X120843499Y-74178255D01*
X120754529Y-74045101D01*
X120693242Y-73897142D01*
X120662000Y-73740075D01*
X120662000Y-73579925D01*
X120693242Y-73422858D01*
X120754529Y-73274899D01*
X120843499Y-73141745D01*
X120956745Y-73028499D01*
X121089899Y-72939529D01*
X121237858Y-72878242D01*
X121394925Y-72847000D01*
X121555075Y-72847000D01*
X121712142Y-72878242D01*
X121712142Y-72878242D01*
G37*
G36*
X119712142Y-72878242D02*
G01*
X119860101Y-72939529D01*
X119993255Y-73028499D01*
X120106501Y-73141745D01*
X120195471Y-73274899D01*
X120256758Y-73422858D01*
X120288000Y-73579925D01*
X120288000Y-73740075D01*
X120256758Y-73897142D01*
X120195471Y-74045101D01*
X120106501Y-74178255D01*
X119993255Y-74291501D01*
X119860101Y-74380471D01*
X119712142Y-74441758D01*
X119555075Y-74473000D01*
X119394925Y-74473000D01*
X119237858Y-74441758D01*
X119089899Y-74380471D01*
X118956745Y-74291501D01*
X118843499Y-74178255D01*
X118754529Y-74045101D01*
X118693242Y-73897142D01*
X118662000Y-73740075D01*
X118662000Y-73579925D01*
X118693242Y-73422858D01*
X118754529Y-73274899D01*
X118843499Y-73141745D01*
X118956745Y-73028499D01*
X119089899Y-72939529D01*
X119237858Y-72878242D01*
X119394925Y-72847000D01*
X119555075Y-72847000D01*
X119712142Y-72878242D01*
X119712142Y-72878242D01*
G37*
G36*
X108187963Y-71832841D02*
G01*
X108256317Y-71842599D01*
X108342133Y-71872778D01*
X108377292Y-71885142D01*
X108487639Y-71950466D01*
X108583124Y-72036063D01*
X108660077Y-72138649D01*
X108715536Y-72254270D01*
X108747372Y-72378488D01*
X108754363Y-72506535D01*
X108746622Y-72560751D01*
X108736238Y-72633484D01*
X108704355Y-72724149D01*
X108444890Y-73280573D01*
X108395931Y-73363276D01*
X108342519Y-73422857D01*
X108310333Y-73458761D01*
X108207752Y-73535711D01*
X108092125Y-73591172D01*
X107967909Y-73623008D01*
X107839864Y-73629999D01*
X107731040Y-73614462D01*
X107712915Y-73611874D01*
X107681442Y-73600806D01*
X107591942Y-73569333D01*
X107530692Y-73533073D01*
X107481592Y-73504007D01*
X107386107Y-73418409D01*
X107309157Y-73315828D01*
X107253696Y-73200201D01*
X107221860Y-73075985D01*
X107214869Y-72947940D01*
X107232994Y-72820992D01*
X107241682Y-72796288D01*
X107264878Y-72730326D01*
X107524342Y-72173901D01*
X107573301Y-72091198D01*
X107658900Y-71995713D01*
X107658901Y-71995713D01*
X107658902Y-71995711D01*
X107761480Y-71918763D01*
X107761479Y-71918763D01*
X107761481Y-71918762D01*
X107831574Y-71885142D01*
X107877106Y-71863302D01*
X108001323Y-71831466D01*
X108129368Y-71824475D01*
X108187963Y-71832841D01*
X108187963Y-71832841D01*
G37*
G36*
X106116264Y-70839142D02*
G01*
X106158652Y-70854048D01*
X106219169Y-70882268D01*
X106219173Y-70882269D01*
X106728988Y-71120000D01*
X106968038Y-71231471D01*
X107006701Y-71254360D01*
X107035560Y-71280230D01*
X107058822Y-71311241D01*
X107075584Y-71346185D01*
X107085208Y-71383739D01*
X107087321Y-71422441D01*
X107081843Y-71460810D01*
X107066937Y-71503197D01*
X107038719Y-71563712D01*
X107038716Y-71563719D01*
X106485297Y-72750531D01*
X106485292Y-72750540D01*
X106457074Y-72811053D01*
X106434185Y-72849716D01*
X106408315Y-72878575D01*
X106377304Y-72901837D01*
X106342360Y-72918599D01*
X106304806Y-72928223D01*
X106266104Y-72930336D01*
X106227736Y-72924858D01*
X106185348Y-72909952D01*
X106124831Y-72881732D01*
X106124827Y-72881731D01*
X105436484Y-72560751D01*
X105436483Y-72560750D01*
X105375962Y-72532529D01*
X105337299Y-72509640D01*
X105308440Y-72483770D01*
X105285178Y-72452759D01*
X105268416Y-72417815D01*
X105258792Y-72380261D01*
X105256679Y-72341559D01*
X105262157Y-72303190D01*
X105277063Y-72260803D01*
X105305281Y-72200288D01*
X105305284Y-72200281D01*
X105858703Y-71013469D01*
X105858708Y-71013460D01*
X105886926Y-70952947D01*
X105909815Y-70914284D01*
X105935685Y-70885425D01*
X105966696Y-70862163D01*
X106001640Y-70845401D01*
X106039194Y-70835777D01*
X106077896Y-70833664D01*
X106116264Y-70839142D01*
X106116264Y-70839142D01*
G37*
G36*
X129650442Y-70225518D02*
G01*
X129716627Y-70232037D01*
X129886466Y-70283557D01*
X130042991Y-70367222D01*
X130078729Y-70396552D01*
X130180186Y-70479814D01*
X130247758Y-70562152D01*
X130292778Y-70617009D01*
X130376443Y-70773534D01*
X130427963Y-70943373D01*
X130445359Y-71120000D01*
X130427963Y-71296627D01*
X130376443Y-71466466D01*
X130292778Y-71622991D01*
X130269200Y-71651721D01*
X130180186Y-71760186D01*
X130079764Y-71842599D01*
X130042991Y-71872778D01*
X129886466Y-71956443D01*
X129716627Y-72007963D01*
X129650443Y-72014481D01*
X129584260Y-72021000D01*
X129495740Y-72021000D01*
X129429557Y-72014481D01*
X129363373Y-72007963D01*
X129193534Y-71956443D01*
X129037009Y-71872778D01*
X129000236Y-71842599D01*
X128899814Y-71760186D01*
X128810800Y-71651721D01*
X128787222Y-71622991D01*
X128703557Y-71466466D01*
X128652037Y-71296627D01*
X128634641Y-71120000D01*
X128652037Y-70943373D01*
X128703557Y-70773534D01*
X128787222Y-70617009D01*
X128832242Y-70562152D01*
X128899814Y-70479814D01*
X129001271Y-70396552D01*
X129037009Y-70367222D01*
X129193534Y-70283557D01*
X129363373Y-70232037D01*
X129429558Y-70225518D01*
X129495740Y-70219000D01*
X129584260Y-70219000D01*
X129650442Y-70225518D01*
X129650442Y-70225518D01*
G37*
G36*
X157209442Y-70225518D02*
G01*
X157275627Y-70232037D01*
X157445466Y-70283557D01*
X157601991Y-70367222D01*
X157637729Y-70396552D01*
X157739186Y-70479814D01*
X157806758Y-70562152D01*
X157851778Y-70617009D01*
X157935443Y-70773534D01*
X157986963Y-70943373D01*
X158004359Y-71120000D01*
X157986963Y-71296627D01*
X157935443Y-71466466D01*
X157851778Y-71622991D01*
X157828200Y-71651721D01*
X157739186Y-71760186D01*
X157638764Y-71842599D01*
X157601991Y-71872778D01*
X157445466Y-71956443D01*
X157275627Y-72007963D01*
X157209443Y-72014481D01*
X157143260Y-72021000D01*
X157054740Y-72021000D01*
X156988557Y-72014481D01*
X156922373Y-72007963D01*
X156752534Y-71956443D01*
X156596009Y-71872778D01*
X156559236Y-71842599D01*
X156458814Y-71760186D01*
X156369800Y-71651721D01*
X156346222Y-71622991D01*
X156262557Y-71466466D01*
X156211037Y-71296627D01*
X156193641Y-71120000D01*
X156211037Y-70943373D01*
X156262557Y-70773534D01*
X156346222Y-70617009D01*
X156391242Y-70562152D01*
X156458814Y-70479814D01*
X156560271Y-70396552D01*
X156596009Y-70367222D01*
X156752534Y-70283557D01*
X156922373Y-70232037D01*
X156988558Y-70225518D01*
X157054740Y-70219000D01*
X157143260Y-70219000D01*
X157209442Y-70225518D01*
X157209442Y-70225518D01*
G37*
G36*
X159749442Y-70225518D02*
G01*
X159815627Y-70232037D01*
X159985466Y-70283557D01*
X160141991Y-70367222D01*
X160177729Y-70396552D01*
X160279186Y-70479814D01*
X160346758Y-70562152D01*
X160391778Y-70617009D01*
X160475443Y-70773534D01*
X160526963Y-70943373D01*
X160544359Y-71120000D01*
X160526963Y-71296627D01*
X160475443Y-71466466D01*
X160391778Y-71622991D01*
X160368200Y-71651721D01*
X160279186Y-71760186D01*
X160178764Y-71842599D01*
X160141991Y-71872778D01*
X159985466Y-71956443D01*
X159815627Y-72007963D01*
X159749443Y-72014481D01*
X159683260Y-72021000D01*
X159594740Y-72021000D01*
X159528557Y-72014481D01*
X159462373Y-72007963D01*
X159292534Y-71956443D01*
X159136009Y-71872778D01*
X159099236Y-71842599D01*
X158998814Y-71760186D01*
X158909800Y-71651721D01*
X158886222Y-71622991D01*
X158802557Y-71466466D01*
X158751037Y-71296627D01*
X158733641Y-71120000D01*
X158751037Y-70943373D01*
X158802557Y-70773534D01*
X158886222Y-70617009D01*
X158931242Y-70562152D01*
X158998814Y-70479814D01*
X159100271Y-70396552D01*
X159136009Y-70367222D01*
X159292534Y-70283557D01*
X159462373Y-70232037D01*
X159528558Y-70225518D01*
X159594740Y-70219000D01*
X159683260Y-70219000D01*
X159749442Y-70225518D01*
X159749442Y-70225518D01*
G37*
G36*
X163080000Y-72021000D02*
G01*
X161278000Y-72021000D01*
X161278000Y-70219000D01*
X163080000Y-70219000D01*
X163080000Y-72021000D01*
X163080000Y-72021000D01*
G37*
G36*
X152510442Y-70225518D02*
G01*
X152576627Y-70232037D01*
X152746466Y-70283557D01*
X152902991Y-70367222D01*
X152938729Y-70396552D01*
X153040186Y-70479814D01*
X153107758Y-70562152D01*
X153152778Y-70617009D01*
X153236443Y-70773534D01*
X153287963Y-70943373D01*
X153305359Y-71120000D01*
X153287963Y-71296627D01*
X153236443Y-71466466D01*
X153152778Y-71622991D01*
X153129200Y-71651721D01*
X153040186Y-71760186D01*
X152939764Y-71842599D01*
X152902991Y-71872778D01*
X152746466Y-71956443D01*
X152576627Y-72007963D01*
X152510443Y-72014481D01*
X152444260Y-72021000D01*
X152355740Y-72021000D01*
X152289557Y-72014481D01*
X152223373Y-72007963D01*
X152053534Y-71956443D01*
X151897009Y-71872778D01*
X151860236Y-71842599D01*
X151759814Y-71760186D01*
X151670800Y-71651721D01*
X151647222Y-71622991D01*
X151563557Y-71466466D01*
X151512037Y-71296627D01*
X151494641Y-71120000D01*
X151512037Y-70943373D01*
X151563557Y-70773534D01*
X151647222Y-70617009D01*
X151692242Y-70562152D01*
X151759814Y-70479814D01*
X151861271Y-70396552D01*
X151897009Y-70367222D01*
X152053534Y-70283557D01*
X152223373Y-70232037D01*
X152289558Y-70225518D01*
X152355740Y-70219000D01*
X152444260Y-70219000D01*
X152510442Y-70225518D01*
X152510442Y-70225518D01*
G37*
G36*
X173611962Y-69787108D02*
G01*
X173649715Y-69795911D01*
X173690644Y-69814456D01*
X174940357Y-70535977D01*
X174976884Y-70562152D01*
X175003378Y-70590440D01*
X175023851Y-70623362D01*
X175037504Y-70659636D01*
X175043817Y-70697878D01*
X175042549Y-70736619D01*
X175033746Y-70774372D01*
X175015201Y-70815301D01*
X174568679Y-71588702D01*
X174542505Y-71625226D01*
X174514216Y-71651721D01*
X174481295Y-71672194D01*
X174445021Y-71685847D01*
X174406779Y-71692160D01*
X174368038Y-71690892D01*
X174330285Y-71682089D01*
X174289356Y-71663544D01*
X173039643Y-70942023D01*
X173003116Y-70915848D01*
X172976622Y-70887560D01*
X172956149Y-70854638D01*
X172942496Y-70818364D01*
X172936183Y-70780122D01*
X172937451Y-70741381D01*
X172946254Y-70703628D01*
X172964799Y-70662699D01*
X173411321Y-69889298D01*
X173437495Y-69852774D01*
X173465784Y-69826279D01*
X173498705Y-69805806D01*
X173534979Y-69792153D01*
X173573221Y-69785840D01*
X173611962Y-69787108D01*
X173611962Y-69787108D01*
G37*
G36*
X101872251Y-68146804D02*
G01*
X101997743Y-68173192D01*
X102115673Y-68223555D01*
X102221511Y-68295956D01*
X102221513Y-68295958D01*
X102311195Y-68387618D01*
X102338866Y-68430024D01*
X102381272Y-68495013D01*
X102429050Y-68614016D01*
X102452694Y-68740051D01*
X102451294Y-68868282D01*
X102424906Y-68993774D01*
X102387016Y-69082496D01*
X102374543Y-69111704D01*
X102320280Y-69191027D01*
X101925642Y-69661336D01*
X101856946Y-69728549D01*
X101802798Y-69763881D01*
X101749550Y-69798626D01*
X101630549Y-69846404D01*
X101504513Y-69870048D01*
X101440753Y-69869352D01*
X101376284Y-69868649D01*
X101294399Y-69851430D01*
X101250791Y-69842260D01*
X101132861Y-69791897D01*
X101027023Y-69719496D01*
X101027021Y-69719494D01*
X100937339Y-69627834D01*
X100867263Y-69520439D01*
X100867262Y-69520438D01*
X100819484Y-69401437D01*
X100795840Y-69275401D01*
X100797113Y-69158771D01*
X100797239Y-69147172D01*
X100820037Y-69038757D01*
X100823628Y-69021679D01*
X100873991Y-68903749D01*
X100928250Y-68824431D01*
X100962120Y-68784066D01*
X101322892Y-68354116D01*
X101391588Y-68286903D01*
X101498982Y-68216827D01*
X101617985Y-68169048D01*
X101633115Y-68166210D01*
X101744020Y-68145404D01*
X101872251Y-68146804D01*
X101872251Y-68146804D01*
G37*
G36*
X174837223Y-68220896D02*
G01*
X174882214Y-68231387D01*
X174962112Y-68250016D01*
X175049653Y-68289680D01*
X175306793Y-68438140D01*
X175581343Y-68596651D01*
X175659466Y-68652633D01*
X175747129Y-68746230D01*
X175814845Y-68855127D01*
X175860016Y-68975140D01*
X175860016Y-68975142D01*
X175877822Y-69082989D01*
X175880905Y-69101667D01*
X175876710Y-69229829D01*
X175876709Y-69229832D01*
X175847590Y-69354718D01*
X175826422Y-69401436D01*
X175794666Y-69471523D01*
X175719973Y-69575758D01*
X175626376Y-69663421D01*
X175517479Y-69731137D01*
X175397465Y-69776308D01*
X175334201Y-69786753D01*
X175270940Y-69797197D01*
X175270938Y-69797197D01*
X175142776Y-69793002D01*
X175097785Y-69782511D01*
X175017887Y-69763882D01*
X174930346Y-69724218D01*
X174398654Y-69417245D01*
X174320533Y-69361264D01*
X174232872Y-69267669D01*
X174209342Y-69229829D01*
X174165155Y-69158771D01*
X174119984Y-69038757D01*
X174109481Y-68975140D01*
X174099095Y-68912232D01*
X174100534Y-68868281D01*
X174103290Y-68784069D01*
X174113781Y-68739078D01*
X174132410Y-68659180D01*
X174185334Y-68542375D01*
X174260028Y-68438139D01*
X174353623Y-68350478D01*
X174353624Y-68350477D01*
X174462521Y-68282761D01*
X174582535Y-68237590D01*
X174645798Y-68227146D01*
X174709060Y-68216701D01*
X174709062Y-68216701D01*
X174837223Y-68220896D01*
X174837223Y-68220896D01*
G37*
G36*
X129650443Y-67685519D02*
G01*
X129716627Y-67692037D01*
X129886466Y-67743557D01*
X130042991Y-67827222D01*
X130078729Y-67856552D01*
X130180186Y-67939814D01*
X130263448Y-68041271D01*
X130292778Y-68077009D01*
X130376443Y-68233534D01*
X130427963Y-68403373D01*
X130445359Y-68580000D01*
X130427963Y-68756627D01*
X130376443Y-68926466D01*
X130292778Y-69082991D01*
X130277451Y-69101667D01*
X130180186Y-69220186D01*
X130112905Y-69275401D01*
X130042991Y-69332778D01*
X129886466Y-69416443D01*
X129716627Y-69467963D01*
X129650442Y-69474482D01*
X129584260Y-69481000D01*
X129495740Y-69481000D01*
X129429558Y-69474482D01*
X129363373Y-69467963D01*
X129193534Y-69416443D01*
X129037009Y-69332778D01*
X128967095Y-69275401D01*
X128899814Y-69220186D01*
X128802549Y-69101667D01*
X128787222Y-69082991D01*
X128703557Y-68926466D01*
X128652037Y-68756627D01*
X128634641Y-68580000D01*
X128652037Y-68403373D01*
X128703557Y-68233534D01*
X128787222Y-68077009D01*
X128816552Y-68041271D01*
X128899814Y-67939814D01*
X129001271Y-67856552D01*
X129037009Y-67827222D01*
X129193534Y-67743557D01*
X129363373Y-67692037D01*
X129429557Y-67685519D01*
X129495740Y-67679000D01*
X129584260Y-67679000D01*
X129650443Y-67685519D01*
X129650443Y-67685519D01*
G37*
G36*
X157209443Y-67685519D02*
G01*
X157275627Y-67692037D01*
X157445466Y-67743557D01*
X157601991Y-67827222D01*
X157637729Y-67856552D01*
X157739186Y-67939814D01*
X157822448Y-68041271D01*
X157851778Y-68077009D01*
X157935443Y-68233534D01*
X157986963Y-68403373D01*
X158004359Y-68580000D01*
X157986963Y-68756627D01*
X157935443Y-68926466D01*
X157851778Y-69082991D01*
X157836451Y-69101667D01*
X157739186Y-69220186D01*
X157671905Y-69275401D01*
X157601991Y-69332778D01*
X157445466Y-69416443D01*
X157275627Y-69467963D01*
X157209442Y-69474482D01*
X157143260Y-69481000D01*
X157054740Y-69481000D01*
X156988558Y-69474482D01*
X156922373Y-69467963D01*
X156752534Y-69416443D01*
X156596009Y-69332778D01*
X156526095Y-69275401D01*
X156458814Y-69220186D01*
X156361549Y-69101667D01*
X156346222Y-69082991D01*
X156262557Y-68926466D01*
X156211037Y-68756627D01*
X156193641Y-68580000D01*
X156211037Y-68403373D01*
X156262557Y-68233534D01*
X156346222Y-68077009D01*
X156375552Y-68041271D01*
X156458814Y-67939814D01*
X156560271Y-67856552D01*
X156596009Y-67827222D01*
X156752534Y-67743557D01*
X156922373Y-67692037D01*
X156988557Y-67685519D01*
X157054740Y-67679000D01*
X157143260Y-67679000D01*
X157209443Y-67685519D01*
X157209443Y-67685519D01*
G37*
G36*
X159749443Y-67685519D02*
G01*
X159815627Y-67692037D01*
X159985466Y-67743557D01*
X160141991Y-67827222D01*
X160177729Y-67856552D01*
X160279186Y-67939814D01*
X160362448Y-68041271D01*
X160391778Y-68077009D01*
X160475443Y-68233534D01*
X160526963Y-68403373D01*
X160544359Y-68580000D01*
X160526963Y-68756627D01*
X160475443Y-68926466D01*
X160391778Y-69082991D01*
X160376451Y-69101667D01*
X160279186Y-69220186D01*
X160211905Y-69275401D01*
X160141991Y-69332778D01*
X159985466Y-69416443D01*
X159815627Y-69467963D01*
X159749442Y-69474482D01*
X159683260Y-69481000D01*
X159594740Y-69481000D01*
X159528558Y-69474482D01*
X159462373Y-69467963D01*
X159292534Y-69416443D01*
X159136009Y-69332778D01*
X159066095Y-69275401D01*
X158998814Y-69220186D01*
X158901549Y-69101667D01*
X158886222Y-69082991D01*
X158802557Y-68926466D01*
X158751037Y-68756627D01*
X158733641Y-68580000D01*
X158751037Y-68403373D01*
X158802557Y-68233534D01*
X158886222Y-68077009D01*
X158915552Y-68041271D01*
X158998814Y-67939814D01*
X159100271Y-67856552D01*
X159136009Y-67827222D01*
X159292534Y-67743557D01*
X159462373Y-67692037D01*
X159528557Y-67685519D01*
X159594740Y-67679000D01*
X159683260Y-67679000D01*
X159749443Y-67685519D01*
X159749443Y-67685519D01*
G37*
G36*
X163080000Y-69481000D02*
G01*
X161278000Y-69481000D01*
X161278000Y-67679000D01*
X163080000Y-67679000D01*
X163080000Y-69481000D01*
X163080000Y-69481000D01*
G37*
G36*
X152510443Y-67685519D02*
G01*
X152576627Y-67692037D01*
X152746466Y-67743557D01*
X152902991Y-67827222D01*
X152938729Y-67856552D01*
X153040186Y-67939814D01*
X153123448Y-68041271D01*
X153152778Y-68077009D01*
X153236443Y-68233534D01*
X153287963Y-68403373D01*
X153305359Y-68580000D01*
X153287963Y-68756627D01*
X153236443Y-68926466D01*
X153152778Y-69082991D01*
X153137451Y-69101667D01*
X153040186Y-69220186D01*
X152972905Y-69275401D01*
X152902991Y-69332778D01*
X152746466Y-69416443D01*
X152576627Y-69467963D01*
X152510442Y-69474482D01*
X152444260Y-69481000D01*
X152355740Y-69481000D01*
X152289558Y-69474482D01*
X152223373Y-69467963D01*
X152053534Y-69416443D01*
X151897009Y-69332778D01*
X151827095Y-69275401D01*
X151759814Y-69220186D01*
X151662549Y-69101667D01*
X151647222Y-69082991D01*
X151563557Y-68926466D01*
X151512037Y-68756627D01*
X151494641Y-68580000D01*
X151512037Y-68403373D01*
X151563557Y-68233534D01*
X151647222Y-68077009D01*
X151676552Y-68041271D01*
X151759814Y-67939814D01*
X151861271Y-67856552D01*
X151897009Y-67827222D01*
X152053534Y-67743557D01*
X152223373Y-67692037D01*
X152289557Y-67685519D01*
X152355740Y-67679000D01*
X152444260Y-67679000D01*
X152510443Y-67685519D01*
X152510443Y-67685519D01*
G37*
G36*
X100340162Y-66861228D02*
G01*
X100465654Y-66887616D01*
X100583584Y-66937979D01*
X100689422Y-67010380D01*
X100689424Y-67010382D01*
X100779106Y-67102042D01*
X100806777Y-67144448D01*
X100849183Y-67209437D01*
X100896961Y-67328440D01*
X100920605Y-67454475D01*
X100919205Y-67582706D01*
X100892817Y-67708198D01*
X100877716Y-67743558D01*
X100842454Y-67826128D01*
X100788191Y-67905451D01*
X100393553Y-68375760D01*
X100324857Y-68442973D01*
X100254780Y-68488699D01*
X100217461Y-68513050D01*
X100098460Y-68560828D01*
X99972424Y-68584472D01*
X99908664Y-68583776D01*
X99844195Y-68583073D01*
X99762310Y-68565854D01*
X99718702Y-68556684D01*
X99600772Y-68506321D01*
X99494934Y-68433920D01*
X99465048Y-68403375D01*
X99405250Y-68342258D01*
X99335174Y-68234863D01*
X99335173Y-68234862D01*
X99287395Y-68115861D01*
X99263751Y-67989825D01*
X99264672Y-67905450D01*
X99265150Y-67861596D01*
X99282369Y-67779711D01*
X99291539Y-67736103D01*
X99341902Y-67618173D01*
X99396161Y-67538855D01*
X99466963Y-67454477D01*
X99790803Y-67068540D01*
X99859499Y-67001327D01*
X99966893Y-66931251D01*
X100085896Y-66883472D01*
X100101026Y-66880634D01*
X100211931Y-66859828D01*
X100340162Y-66861228D01*
X100340162Y-66861228D01*
G37*
G36*
X98808073Y-65575653D02*
G01*
X98933565Y-65602041D01*
X99051495Y-65652404D01*
X99157333Y-65724805D01*
X99157335Y-65724807D01*
X99247017Y-65816467D01*
X99274688Y-65858873D01*
X99317094Y-65923862D01*
X99364872Y-66042865D01*
X99388516Y-66168900D01*
X99387116Y-66297131D01*
X99360728Y-66422623D01*
X99322838Y-66511345D01*
X99310365Y-66540553D01*
X99256102Y-66619876D01*
X98861464Y-67090185D01*
X98792768Y-67157398D01*
X98741271Y-67191000D01*
X98685372Y-67227475D01*
X98566371Y-67275253D01*
X98440335Y-67298897D01*
X98376575Y-67298201D01*
X98312106Y-67297498D01*
X98230221Y-67280279D01*
X98186613Y-67271109D01*
X98068683Y-67220746D01*
X97962845Y-67148345D01*
X97961302Y-67146768D01*
X97873161Y-67056683D01*
X97803085Y-66949288D01*
X97803084Y-66949287D01*
X97755306Y-66830286D01*
X97731662Y-66704250D01*
X97732583Y-66619875D01*
X97733061Y-66576021D01*
X97759450Y-66450530D01*
X97759450Y-66450528D01*
X97809813Y-66332598D01*
X97864072Y-66253280D01*
X97864076Y-66253275D01*
X98258714Y-65782965D01*
X98327410Y-65715752D01*
X98434804Y-65645676D01*
X98553807Y-65597897D01*
X98568937Y-65595059D01*
X98679842Y-65574253D01*
X98808073Y-65575653D01*
X98808073Y-65575653D01*
G37*
G36*
X179952192Y-64906070D02*
G01*
X180088745Y-64933232D01*
X180189816Y-64975097D01*
X180290325Y-65016729D01*
X180298214Y-65019997D01*
X180486731Y-65145960D01*
X180647051Y-65306280D01*
X180732853Y-65434692D01*
X180773015Y-65494799D01*
X180784176Y-65521745D01*
X180855334Y-65693534D01*
X180859779Y-65704267D01*
X180904011Y-65926635D01*
X180904011Y-66153365D01*
X180896878Y-66189223D01*
X180859779Y-66375734D01*
X180840357Y-66422623D01*
X180784176Y-66558257D01*
X180773014Y-66585203D01*
X180647051Y-66773720D01*
X180486731Y-66934040D01*
X180298214Y-67060003D01*
X180088745Y-67146768D01*
X180035304Y-67157398D01*
X179866376Y-67191000D01*
X179639646Y-67191000D01*
X179470718Y-67157398D01*
X179417277Y-67146768D01*
X179207808Y-67060003D01*
X179019291Y-66934040D01*
X178858971Y-66773720D01*
X178733008Y-66585203D01*
X178721847Y-66558257D01*
X178665665Y-66422623D01*
X178646243Y-66375734D01*
X178609144Y-66189223D01*
X178602011Y-66153365D01*
X178602011Y-65926635D01*
X178646243Y-65704267D01*
X178650689Y-65693534D01*
X178721846Y-65521745D01*
X178733007Y-65494799D01*
X178773169Y-65434692D01*
X178858971Y-65306280D01*
X179019291Y-65145960D01*
X179207808Y-65019997D01*
X179215698Y-65016729D01*
X179316206Y-64975097D01*
X179417277Y-64933232D01*
X179553830Y-64906070D01*
X179639646Y-64889000D01*
X179866376Y-64889000D01*
X179952192Y-64906070D01*
X179952192Y-64906070D01*
G37*
G36*
X152510442Y-65145518D02*
G01*
X152576627Y-65152037D01*
X152746466Y-65203557D01*
X152902991Y-65287222D01*
X152926213Y-65306280D01*
X153040186Y-65399814D01*
X153109580Y-65484372D01*
X153152778Y-65537009D01*
X153236443Y-65693534D01*
X153287963Y-65863373D01*
X153305359Y-66040000D01*
X153287963Y-66216627D01*
X153236443Y-66386466D01*
X153152778Y-66542991D01*
X153140251Y-66558255D01*
X153040186Y-66680186D01*
X152942357Y-66760471D01*
X152902991Y-66792778D01*
X152746466Y-66876443D01*
X152576627Y-66927963D01*
X152514925Y-66934040D01*
X152444260Y-66941000D01*
X152355740Y-66941000D01*
X152285075Y-66934040D01*
X152223373Y-66927963D01*
X152053534Y-66876443D01*
X151897009Y-66792778D01*
X151857643Y-66760471D01*
X151759814Y-66680186D01*
X151659749Y-66558255D01*
X151647222Y-66542991D01*
X151563557Y-66386466D01*
X151512037Y-66216627D01*
X151494641Y-66040000D01*
X151512037Y-65863373D01*
X151563557Y-65693534D01*
X151647222Y-65537009D01*
X151690420Y-65484372D01*
X151759814Y-65399814D01*
X151873787Y-65306280D01*
X151897009Y-65287222D01*
X152053534Y-65203557D01*
X152223373Y-65152037D01*
X152289558Y-65145518D01*
X152355740Y-65139000D01*
X152444260Y-65139000D01*
X152510442Y-65145518D01*
X152510442Y-65145518D01*
G37*
G36*
X163080000Y-66941000D02*
G01*
X161278000Y-66941000D01*
X161278000Y-65139000D01*
X163080000Y-65139000D01*
X163080000Y-66941000D01*
X163080000Y-66941000D01*
G37*
G36*
X129650442Y-65145518D02*
G01*
X129716627Y-65152037D01*
X129886466Y-65203557D01*
X130042991Y-65287222D01*
X130066213Y-65306280D01*
X130180186Y-65399814D01*
X130249580Y-65484372D01*
X130292778Y-65537009D01*
X130376443Y-65693534D01*
X130427963Y-65863373D01*
X130445359Y-66040000D01*
X130427963Y-66216627D01*
X130376443Y-66386466D01*
X130292778Y-66542991D01*
X130280251Y-66558255D01*
X130180186Y-66680186D01*
X130082357Y-66760471D01*
X130042991Y-66792778D01*
X129886466Y-66876443D01*
X129716627Y-66927963D01*
X129654925Y-66934040D01*
X129584260Y-66941000D01*
X129495740Y-66941000D01*
X129425075Y-66934040D01*
X129363373Y-66927963D01*
X129193534Y-66876443D01*
X129037009Y-66792778D01*
X128997643Y-66760471D01*
X128899814Y-66680186D01*
X128799749Y-66558255D01*
X128787222Y-66542991D01*
X128703557Y-66386466D01*
X128652037Y-66216627D01*
X128634641Y-66040000D01*
X128652037Y-65863373D01*
X128703557Y-65693534D01*
X128787222Y-65537009D01*
X128830420Y-65484372D01*
X128899814Y-65399814D01*
X129013787Y-65306280D01*
X129037009Y-65287222D01*
X129193534Y-65203557D01*
X129363373Y-65152037D01*
X129429558Y-65145518D01*
X129495740Y-65139000D01*
X129584260Y-65139000D01*
X129650442Y-65145518D01*
X129650442Y-65145518D01*
G37*
G36*
X159749442Y-65145518D02*
G01*
X159815627Y-65152037D01*
X159985466Y-65203557D01*
X160141991Y-65287222D01*
X160165213Y-65306280D01*
X160279186Y-65399814D01*
X160348580Y-65484372D01*
X160391778Y-65537009D01*
X160475443Y-65693534D01*
X160526963Y-65863373D01*
X160544359Y-66040000D01*
X160526963Y-66216627D01*
X160475443Y-66386466D01*
X160391778Y-66542991D01*
X160379251Y-66558255D01*
X160279186Y-66680186D01*
X160181357Y-66760471D01*
X160141991Y-66792778D01*
X159985466Y-66876443D01*
X159815627Y-66927963D01*
X159753925Y-66934040D01*
X159683260Y-66941000D01*
X159594740Y-66941000D01*
X159524075Y-66934040D01*
X159462373Y-66927963D01*
X159292534Y-66876443D01*
X159136009Y-66792778D01*
X159096643Y-66760471D01*
X158998814Y-66680186D01*
X158898749Y-66558255D01*
X158886222Y-66542991D01*
X158802557Y-66386466D01*
X158751037Y-66216627D01*
X158733641Y-66040000D01*
X158751037Y-65863373D01*
X158802557Y-65693534D01*
X158886222Y-65537009D01*
X158929420Y-65484372D01*
X158998814Y-65399814D01*
X159112787Y-65306280D01*
X159136009Y-65287222D01*
X159292534Y-65203557D01*
X159462373Y-65152037D01*
X159528558Y-65145518D01*
X159594740Y-65139000D01*
X159683260Y-65139000D01*
X159749442Y-65145518D01*
X159749442Y-65145518D01*
G37*
G36*
X157209442Y-65145518D02*
G01*
X157275627Y-65152037D01*
X157445466Y-65203557D01*
X157601991Y-65287222D01*
X157625213Y-65306280D01*
X157739186Y-65399814D01*
X157808580Y-65484372D01*
X157851778Y-65537009D01*
X157935443Y-65693534D01*
X157986963Y-65863373D01*
X158004359Y-66040000D01*
X157986963Y-66216627D01*
X157935443Y-66386466D01*
X157851778Y-66542991D01*
X157839251Y-66558255D01*
X157739186Y-66680186D01*
X157641357Y-66760471D01*
X157601991Y-66792778D01*
X157445466Y-66876443D01*
X157275627Y-66927963D01*
X157213925Y-66934040D01*
X157143260Y-66941000D01*
X157054740Y-66941000D01*
X156984075Y-66934040D01*
X156922373Y-66927963D01*
X156752534Y-66876443D01*
X156596009Y-66792778D01*
X156556643Y-66760471D01*
X156458814Y-66680186D01*
X156358749Y-66558255D01*
X156346222Y-66542991D01*
X156262557Y-66386466D01*
X156211037Y-66216627D01*
X156193641Y-66040000D01*
X156211037Y-65863373D01*
X156262557Y-65693534D01*
X156346222Y-65537009D01*
X156389420Y-65484372D01*
X156458814Y-65399814D01*
X156572787Y-65306280D01*
X156596009Y-65287222D01*
X156752534Y-65203557D01*
X156922373Y-65152037D01*
X156988558Y-65145518D01*
X157054740Y-65139000D01*
X157143260Y-65139000D01*
X157209442Y-65145518D01*
X157209442Y-65145518D01*
G37*
G36*
X121712142Y-65258242D02*
G01*
X121860101Y-65319529D01*
X121993255Y-65408499D01*
X122106501Y-65521745D01*
X122195471Y-65654899D01*
X122256758Y-65802858D01*
X122288000Y-65959925D01*
X122288000Y-66120075D01*
X122256758Y-66277142D01*
X122195471Y-66425101D01*
X122106501Y-66558255D01*
X121993255Y-66671501D01*
X121860101Y-66760471D01*
X121712142Y-66821758D01*
X121555075Y-66853000D01*
X121394925Y-66853000D01*
X121237858Y-66821758D01*
X121089899Y-66760471D01*
X120956745Y-66671501D01*
X120843499Y-66558255D01*
X120754529Y-66425101D01*
X120693242Y-66277142D01*
X120662000Y-66120075D01*
X120662000Y-65959925D01*
X120693242Y-65802858D01*
X120754529Y-65654899D01*
X120843499Y-65521745D01*
X120956745Y-65408499D01*
X121089899Y-65319529D01*
X121237858Y-65258242D01*
X121394925Y-65227000D01*
X121555075Y-65227000D01*
X121712142Y-65258242D01*
X121712142Y-65258242D01*
G37*
G36*
X123712142Y-65258242D02*
G01*
X123860101Y-65319529D01*
X123993255Y-65408499D01*
X124106501Y-65521745D01*
X124195471Y-65654899D01*
X124256758Y-65802858D01*
X124288000Y-65959925D01*
X124288000Y-66120075D01*
X124256758Y-66277142D01*
X124195471Y-66425101D01*
X124106501Y-66558255D01*
X123993255Y-66671501D01*
X123860101Y-66760471D01*
X123712142Y-66821758D01*
X123555075Y-66853000D01*
X123394925Y-66853000D01*
X123237858Y-66821758D01*
X123089899Y-66760471D01*
X122956745Y-66671501D01*
X122843499Y-66558255D01*
X122754529Y-66425101D01*
X122693242Y-66277142D01*
X122662000Y-66120075D01*
X122662000Y-65959925D01*
X122693242Y-65802858D01*
X122754529Y-65654899D01*
X122843499Y-65521745D01*
X122956745Y-65408499D01*
X123089899Y-65319529D01*
X123237858Y-65258242D01*
X123394925Y-65227000D01*
X123555075Y-65227000D01*
X123712142Y-65258242D01*
X123712142Y-65258242D01*
G37*
G36*
X118288000Y-66853000D02*
G01*
X116662000Y-66853000D01*
X116662000Y-65227000D01*
X118288000Y-65227000D01*
X118288000Y-66853000D01*
X118288000Y-66853000D01*
G37*
G36*
X119712142Y-65258242D02*
G01*
X119860101Y-65319529D01*
X119993255Y-65408499D01*
X120106501Y-65521745D01*
X120195471Y-65654899D01*
X120256758Y-65802858D01*
X120288000Y-65959925D01*
X120288000Y-66120075D01*
X120256758Y-66277142D01*
X120195471Y-66425101D01*
X120106501Y-66558255D01*
X119993255Y-66671501D01*
X119860101Y-66760471D01*
X119712142Y-66821758D01*
X119555075Y-66853000D01*
X119394925Y-66853000D01*
X119237858Y-66821758D01*
X119089899Y-66760471D01*
X118956745Y-66671501D01*
X118843499Y-66558255D01*
X118754529Y-66425101D01*
X118693242Y-66277142D01*
X118662000Y-66120075D01*
X118662000Y-65959925D01*
X118693242Y-65802858D01*
X118754529Y-65654899D01*
X118843499Y-65521745D01*
X118956745Y-65408499D01*
X119089899Y-65319529D01*
X119237858Y-65258242D01*
X119394925Y-65227000D01*
X119555075Y-65227000D01*
X119712142Y-65258242D01*
X119712142Y-65258242D01*
G37*
G36*
X97170499Y-64106054D02*
G01*
X97208430Y-64114030D01*
X97244080Y-64129254D01*
X97281158Y-64154618D01*
X97332306Y-64197536D01*
X97332316Y-64197543D01*
X97804409Y-64593676D01*
X97965281Y-64728664D01*
X97996703Y-64760780D01*
X98017885Y-64793242D01*
X98032327Y-64829213D01*
X98039474Y-64867308D01*
X98039050Y-64906070D01*
X98031074Y-64944001D01*
X98015850Y-64979651D01*
X97990486Y-65016729D01*
X97947568Y-65067877D01*
X97947561Y-65067887D01*
X97199052Y-65959925D01*
X97062907Y-66122176D01*
X97030792Y-66153597D01*
X96998327Y-66174782D01*
X96962358Y-66189223D01*
X96924263Y-66196370D01*
X96885501Y-66195946D01*
X96847570Y-66187970D01*
X96811920Y-66172746D01*
X96774842Y-66147382D01*
X96723694Y-66104464D01*
X96723684Y-66104457D01*
X96233963Y-65693532D01*
X96090719Y-65573336D01*
X96059297Y-65541220D01*
X96038115Y-65508758D01*
X96023673Y-65472787D01*
X96016526Y-65434692D01*
X96016950Y-65395930D01*
X96024926Y-65357999D01*
X96040150Y-65322349D01*
X96065514Y-65285271D01*
X96108432Y-65234123D01*
X96108439Y-65234113D01*
X96950171Y-64230976D01*
X96950173Y-64230974D01*
X96993093Y-64179824D01*
X97025208Y-64148403D01*
X97057673Y-64127218D01*
X97093642Y-64112777D01*
X97131737Y-64105630D01*
X97170499Y-64106054D01*
X97170499Y-64106054D01*
G37*
G36*
X163080000Y-64401000D02*
G01*
X161278000Y-64401000D01*
X161278000Y-62599000D01*
X163080000Y-62599000D01*
X163080000Y-64401000D01*
X163080000Y-64401000D01*
G37*
G36*
X159749442Y-62605518D02*
G01*
X159815627Y-62612037D01*
X159985466Y-62663557D01*
X160141991Y-62747222D01*
X160177729Y-62776552D01*
X160279186Y-62859814D01*
X160362448Y-62961271D01*
X160391778Y-62997009D01*
X160475443Y-63153534D01*
X160526963Y-63323373D01*
X160544359Y-63500000D01*
X160526963Y-63676627D01*
X160475443Y-63846466D01*
X160391778Y-64002991D01*
X160362448Y-64038729D01*
X160279186Y-64140186D01*
X160209295Y-64197543D01*
X160141991Y-64252778D01*
X159985466Y-64336443D01*
X159815627Y-64387963D01*
X159749442Y-64394482D01*
X159683260Y-64401000D01*
X159594740Y-64401000D01*
X159528558Y-64394482D01*
X159462373Y-64387963D01*
X159292534Y-64336443D01*
X159136009Y-64252778D01*
X159068705Y-64197543D01*
X158998814Y-64140186D01*
X158915552Y-64038729D01*
X158886222Y-64002991D01*
X158802557Y-63846466D01*
X158751037Y-63676627D01*
X158733641Y-63500000D01*
X158751037Y-63323373D01*
X158802557Y-63153534D01*
X158886222Y-62997009D01*
X158915552Y-62961271D01*
X158998814Y-62859814D01*
X159100271Y-62776552D01*
X159136009Y-62747222D01*
X159292534Y-62663557D01*
X159462373Y-62612037D01*
X159528558Y-62605518D01*
X159594740Y-62599000D01*
X159683260Y-62599000D01*
X159749442Y-62605518D01*
X159749442Y-62605518D01*
G37*
G36*
X157209442Y-62605518D02*
G01*
X157275627Y-62612037D01*
X157445466Y-62663557D01*
X157601991Y-62747222D01*
X157637729Y-62776552D01*
X157739186Y-62859814D01*
X157822448Y-62961271D01*
X157851778Y-62997009D01*
X157935443Y-63153534D01*
X157986963Y-63323373D01*
X158004359Y-63500000D01*
X157986963Y-63676627D01*
X157935443Y-63846466D01*
X157851778Y-64002991D01*
X157822448Y-64038729D01*
X157739186Y-64140186D01*
X157669295Y-64197543D01*
X157601991Y-64252778D01*
X157445466Y-64336443D01*
X157275627Y-64387963D01*
X157209442Y-64394482D01*
X157143260Y-64401000D01*
X157054740Y-64401000D01*
X156988558Y-64394482D01*
X156922373Y-64387963D01*
X156752534Y-64336443D01*
X156596009Y-64252778D01*
X156528705Y-64197543D01*
X156458814Y-64140186D01*
X156375552Y-64038729D01*
X156346222Y-64002991D01*
X156262557Y-63846466D01*
X156211037Y-63676627D01*
X156193641Y-63500000D01*
X156211037Y-63323373D01*
X156262557Y-63153534D01*
X156346222Y-62997009D01*
X156375552Y-62961271D01*
X156458814Y-62859814D01*
X156560271Y-62776552D01*
X156596009Y-62747222D01*
X156752534Y-62663557D01*
X156922373Y-62612037D01*
X156988558Y-62605518D01*
X157054740Y-62599000D01*
X157143260Y-62599000D01*
X157209442Y-62605518D01*
X157209442Y-62605518D01*
G37*
G36*
X152510442Y-62605518D02*
G01*
X152576627Y-62612037D01*
X152746466Y-62663557D01*
X152902991Y-62747222D01*
X152938729Y-62776552D01*
X153040186Y-62859814D01*
X153123448Y-62961271D01*
X153152778Y-62997009D01*
X153236443Y-63153534D01*
X153287963Y-63323373D01*
X153305359Y-63500000D01*
X153287963Y-63676627D01*
X153236443Y-63846466D01*
X153152778Y-64002991D01*
X153123448Y-64038729D01*
X153040186Y-64140186D01*
X152970295Y-64197543D01*
X152902991Y-64252778D01*
X152746466Y-64336443D01*
X152576627Y-64387963D01*
X152510442Y-64394482D01*
X152444260Y-64401000D01*
X152355740Y-64401000D01*
X152289558Y-64394482D01*
X152223373Y-64387963D01*
X152053534Y-64336443D01*
X151897009Y-64252778D01*
X151829705Y-64197543D01*
X151759814Y-64140186D01*
X151676552Y-64038729D01*
X151647222Y-64002991D01*
X151563557Y-63846466D01*
X151512037Y-63676627D01*
X151494641Y-63500000D01*
X151512037Y-63323373D01*
X151563557Y-63153534D01*
X151647222Y-62997009D01*
X151676552Y-62961271D01*
X151759814Y-62859814D01*
X151861271Y-62776552D01*
X151897009Y-62747222D01*
X152053534Y-62663557D01*
X152223373Y-62612037D01*
X152289558Y-62605518D01*
X152355740Y-62599000D01*
X152444260Y-62599000D01*
X152510442Y-62605518D01*
X152510442Y-62605518D01*
G37*
G36*
X129650442Y-62605518D02*
G01*
X129716627Y-62612037D01*
X129886466Y-62663557D01*
X130042991Y-62747222D01*
X130078729Y-62776552D01*
X130180186Y-62859814D01*
X130263448Y-62961271D01*
X130292778Y-62997009D01*
X130376443Y-63153534D01*
X130427963Y-63323373D01*
X130445359Y-63500000D01*
X130427963Y-63676627D01*
X130376443Y-63846466D01*
X130292778Y-64002991D01*
X130263448Y-64038729D01*
X130180186Y-64140186D01*
X130110295Y-64197543D01*
X130042991Y-64252778D01*
X129886466Y-64336443D01*
X129716627Y-64387963D01*
X129650442Y-64394482D01*
X129584260Y-64401000D01*
X129495740Y-64401000D01*
X129429558Y-64394482D01*
X129363373Y-64387963D01*
X129193534Y-64336443D01*
X129037009Y-64252778D01*
X128969705Y-64197543D01*
X128899814Y-64140186D01*
X128816552Y-64038729D01*
X128787222Y-64002991D01*
X128703557Y-63846466D01*
X128652037Y-63676627D01*
X128634641Y-63500000D01*
X128652037Y-63323373D01*
X128703557Y-63153534D01*
X128787222Y-62997009D01*
X128816552Y-62961271D01*
X128899814Y-62859814D01*
X129001271Y-62776552D01*
X129037009Y-62747222D01*
X129193534Y-62663557D01*
X129363373Y-62612037D01*
X129429558Y-62605518D01*
X129495740Y-62599000D01*
X129584260Y-62599000D01*
X129650442Y-62605518D01*
X129650442Y-62605518D01*
G37*
G36*
X182741224Y-61734249D02*
G01*
X182835663Y-61762897D01*
X182922698Y-61809418D01*
X182998986Y-61872025D01*
X183061593Y-61948313D01*
X183108114Y-62035348D01*
X183136762Y-62129787D01*
X183146435Y-62228000D01*
X183136762Y-62326213D01*
X183108114Y-62420652D01*
X183061593Y-62507687D01*
X182998986Y-62583975D01*
X182922698Y-62646582D01*
X182835663Y-62693103D01*
X182741224Y-62721751D01*
X182667623Y-62729000D01*
X181918399Y-62729000D01*
X181844798Y-62721751D01*
X181750359Y-62693103D01*
X181663324Y-62646582D01*
X181587036Y-62583975D01*
X181524429Y-62507687D01*
X181477908Y-62420652D01*
X181449260Y-62326213D01*
X181439587Y-62228000D01*
X181449260Y-62129787D01*
X181477908Y-62035348D01*
X181524429Y-61948313D01*
X181587036Y-61872025D01*
X181663324Y-61809418D01*
X181750359Y-61762897D01*
X181844798Y-61734249D01*
X181918399Y-61727000D01*
X182667623Y-61727000D01*
X182741224Y-61734249D01*
X182741224Y-61734249D01*
G37*
G36*
X157209442Y-60065518D02*
G01*
X157275627Y-60072037D01*
X157445466Y-60123557D01*
X157601991Y-60207222D01*
X157637729Y-60236552D01*
X157739186Y-60319814D01*
X157822448Y-60421271D01*
X157851778Y-60457009D01*
X157935443Y-60613534D01*
X157986963Y-60783373D01*
X158004359Y-60960000D01*
X157986963Y-61136627D01*
X157935443Y-61306466D01*
X157851778Y-61462991D01*
X157822448Y-61498729D01*
X157739186Y-61600186D01*
X157637729Y-61683448D01*
X157601991Y-61712778D01*
X157445466Y-61796443D01*
X157275627Y-61847963D01*
X157209443Y-61854481D01*
X157143260Y-61861000D01*
X157054740Y-61861000D01*
X156988557Y-61854481D01*
X156922373Y-61847963D01*
X156752534Y-61796443D01*
X156596009Y-61712778D01*
X156560271Y-61683448D01*
X156458814Y-61600186D01*
X156375552Y-61498729D01*
X156346222Y-61462991D01*
X156262557Y-61306466D01*
X156211037Y-61136627D01*
X156193641Y-60960000D01*
X156211037Y-60783373D01*
X156262557Y-60613534D01*
X156346222Y-60457009D01*
X156375552Y-60421271D01*
X156458814Y-60319814D01*
X156560271Y-60236552D01*
X156596009Y-60207222D01*
X156752534Y-60123557D01*
X156922373Y-60072037D01*
X156988558Y-60065518D01*
X157054740Y-60059000D01*
X157143260Y-60059000D01*
X157209442Y-60065518D01*
X157209442Y-60065518D01*
G37*
G36*
X129650442Y-60065518D02*
G01*
X129716627Y-60072037D01*
X129886466Y-60123557D01*
X130042991Y-60207222D01*
X130078729Y-60236552D01*
X130180186Y-60319814D01*
X130263448Y-60421271D01*
X130292778Y-60457009D01*
X130376443Y-60613534D01*
X130427963Y-60783373D01*
X130445359Y-60960000D01*
X130427963Y-61136627D01*
X130376443Y-61306466D01*
X130292778Y-61462991D01*
X130263448Y-61498729D01*
X130180186Y-61600186D01*
X130078729Y-61683448D01*
X130042991Y-61712778D01*
X129886466Y-61796443D01*
X129716627Y-61847963D01*
X129650443Y-61854481D01*
X129584260Y-61861000D01*
X129495740Y-61861000D01*
X129429557Y-61854481D01*
X129363373Y-61847963D01*
X129193534Y-61796443D01*
X129037009Y-61712778D01*
X129001271Y-61683448D01*
X128899814Y-61600186D01*
X128816552Y-61498729D01*
X128787222Y-61462991D01*
X128703557Y-61306466D01*
X128652037Y-61136627D01*
X128634641Y-60960000D01*
X128652037Y-60783373D01*
X128703557Y-60613534D01*
X128787222Y-60457009D01*
X128816552Y-60421271D01*
X128899814Y-60319814D01*
X129001271Y-60236552D01*
X129037009Y-60207222D01*
X129193534Y-60123557D01*
X129363373Y-60072037D01*
X129429558Y-60065518D01*
X129495740Y-60059000D01*
X129584260Y-60059000D01*
X129650442Y-60065518D01*
X129650442Y-60065518D01*
G37*
G36*
X152510442Y-60065518D02*
G01*
X152576627Y-60072037D01*
X152746466Y-60123557D01*
X152902991Y-60207222D01*
X152938729Y-60236552D01*
X153040186Y-60319814D01*
X153123448Y-60421271D01*
X153152778Y-60457009D01*
X153236443Y-60613534D01*
X153287963Y-60783373D01*
X153305359Y-60960000D01*
X153287963Y-61136627D01*
X153236443Y-61306466D01*
X153152778Y-61462991D01*
X153123448Y-61498729D01*
X153040186Y-61600186D01*
X152938729Y-61683448D01*
X152902991Y-61712778D01*
X152746466Y-61796443D01*
X152576627Y-61847963D01*
X152510443Y-61854481D01*
X152444260Y-61861000D01*
X152355740Y-61861000D01*
X152289557Y-61854481D01*
X152223373Y-61847963D01*
X152053534Y-61796443D01*
X151897009Y-61712778D01*
X151861271Y-61683448D01*
X151759814Y-61600186D01*
X151676552Y-61498729D01*
X151647222Y-61462991D01*
X151563557Y-61306466D01*
X151512037Y-61136627D01*
X151494641Y-60960000D01*
X151512037Y-60783373D01*
X151563557Y-60613534D01*
X151647222Y-60457009D01*
X151676552Y-60421271D01*
X151759814Y-60319814D01*
X151861271Y-60236552D01*
X151897009Y-60207222D01*
X152053534Y-60123557D01*
X152223373Y-60072037D01*
X152289558Y-60065518D01*
X152355740Y-60059000D01*
X152444260Y-60059000D01*
X152510442Y-60065518D01*
X152510442Y-60065518D01*
G37*
G36*
X159749442Y-60065518D02*
G01*
X159815627Y-60072037D01*
X159985466Y-60123557D01*
X160141991Y-60207222D01*
X160177729Y-60236552D01*
X160279186Y-60319814D01*
X160362448Y-60421271D01*
X160391778Y-60457009D01*
X160475443Y-60613534D01*
X160526963Y-60783373D01*
X160544359Y-60960000D01*
X160526963Y-61136627D01*
X160475443Y-61306466D01*
X160391778Y-61462991D01*
X160362448Y-61498729D01*
X160279186Y-61600186D01*
X160177729Y-61683448D01*
X160141991Y-61712778D01*
X159985466Y-61796443D01*
X159815627Y-61847963D01*
X159749443Y-61854481D01*
X159683260Y-61861000D01*
X159594740Y-61861000D01*
X159528557Y-61854481D01*
X159462373Y-61847963D01*
X159292534Y-61796443D01*
X159136009Y-61712778D01*
X159100271Y-61683448D01*
X158998814Y-61600186D01*
X158915552Y-61498729D01*
X158886222Y-61462991D01*
X158802557Y-61306466D01*
X158751037Y-61136627D01*
X158733641Y-60960000D01*
X158751037Y-60783373D01*
X158802557Y-60613534D01*
X158886222Y-60457009D01*
X158915552Y-60421271D01*
X158998814Y-60319814D01*
X159100271Y-60236552D01*
X159136009Y-60207222D01*
X159292534Y-60123557D01*
X159462373Y-60072037D01*
X159528558Y-60065518D01*
X159594740Y-60059000D01*
X159683260Y-60059000D01*
X159749442Y-60065518D01*
X159749442Y-60065518D01*
G37*
G36*
X163080000Y-61861000D02*
G01*
X161278000Y-61861000D01*
X161278000Y-60059000D01*
X163080000Y-60059000D01*
X163080000Y-61861000D01*
X163080000Y-61861000D01*
G37*
G36*
X95649560Y-57799116D02*
G01*
X95760745Y-57821232D01*
X95970214Y-57907997D01*
X96158731Y-58033960D01*
X96319051Y-58194280D01*
X96351855Y-58243375D01*
X96445015Y-58382799D01*
X96531779Y-58592267D01*
X96566430Y-58766466D01*
X96576011Y-58814636D01*
X96576011Y-59041364D01*
X96531779Y-59263734D01*
X96445014Y-59473203D01*
X96319051Y-59661720D01*
X96158731Y-59822040D01*
X95970214Y-59948003D01*
X95760745Y-60034768D01*
X95649560Y-60056884D01*
X95538376Y-60079000D01*
X95311646Y-60079000D01*
X95200462Y-60056884D01*
X95089277Y-60034768D01*
X94879808Y-59948003D01*
X94691291Y-59822040D01*
X94530971Y-59661720D01*
X94405008Y-59473203D01*
X94318243Y-59263734D01*
X94274011Y-59041364D01*
X94274011Y-58814636D01*
X94283593Y-58766466D01*
X94318243Y-58592267D01*
X94405007Y-58382799D01*
X94498167Y-58243375D01*
X94530971Y-58194280D01*
X94691291Y-58033960D01*
X94879808Y-57907997D01*
X95089277Y-57821232D01*
X95200462Y-57799116D01*
X95311646Y-57777000D01*
X95538376Y-57777000D01*
X95649560Y-57799116D01*
X95649560Y-57799116D01*
G37*
G36*
X129650443Y-57525519D02*
G01*
X129716627Y-57532037D01*
X129886466Y-57583557D01*
X130042991Y-57667222D01*
X130078729Y-57696552D01*
X130180186Y-57779814D01*
X130263448Y-57881271D01*
X130292778Y-57917009D01*
X130376443Y-58073534D01*
X130427963Y-58243373D01*
X130445359Y-58420000D01*
X130427963Y-58596627D01*
X130376443Y-58766466D01*
X130292778Y-58922991D01*
X130263448Y-58958729D01*
X130180186Y-59060186D01*
X130078729Y-59143448D01*
X130042991Y-59172778D01*
X129886466Y-59256443D01*
X129716627Y-59307963D01*
X129650442Y-59314482D01*
X129584260Y-59321000D01*
X129495740Y-59321000D01*
X129429558Y-59314482D01*
X129363373Y-59307963D01*
X129193534Y-59256443D01*
X129037009Y-59172778D01*
X129001271Y-59143448D01*
X128899814Y-59060186D01*
X128816552Y-58958729D01*
X128787222Y-58922991D01*
X128703557Y-58766466D01*
X128652037Y-58596627D01*
X128634641Y-58420000D01*
X128652037Y-58243373D01*
X128703557Y-58073534D01*
X128787222Y-57917009D01*
X128816552Y-57881271D01*
X128899814Y-57779814D01*
X129001271Y-57696552D01*
X129037009Y-57667222D01*
X129193534Y-57583557D01*
X129363373Y-57532037D01*
X129429557Y-57525519D01*
X129495740Y-57519000D01*
X129584260Y-57519000D01*
X129650443Y-57525519D01*
X129650443Y-57525519D01*
G37*
G36*
X152510443Y-57525519D02*
G01*
X152576627Y-57532037D01*
X152746466Y-57583557D01*
X152902991Y-57667222D01*
X152938729Y-57696552D01*
X153040186Y-57779814D01*
X153123448Y-57881271D01*
X153152778Y-57917009D01*
X153236443Y-58073534D01*
X153287963Y-58243373D01*
X153305359Y-58420000D01*
X153287963Y-58596627D01*
X153236443Y-58766466D01*
X153152778Y-58922991D01*
X153123448Y-58958729D01*
X153040186Y-59060186D01*
X152938729Y-59143448D01*
X152902991Y-59172778D01*
X152746466Y-59256443D01*
X152576627Y-59307963D01*
X152510442Y-59314482D01*
X152444260Y-59321000D01*
X152355740Y-59321000D01*
X152289558Y-59314482D01*
X152223373Y-59307963D01*
X152053534Y-59256443D01*
X151897009Y-59172778D01*
X151861271Y-59143448D01*
X151759814Y-59060186D01*
X151676552Y-58958729D01*
X151647222Y-58922991D01*
X151563557Y-58766466D01*
X151512037Y-58596627D01*
X151494641Y-58420000D01*
X151512037Y-58243373D01*
X151563557Y-58073534D01*
X151647222Y-57917009D01*
X151676552Y-57881271D01*
X151759814Y-57779814D01*
X151861271Y-57696552D01*
X151897009Y-57667222D01*
X152053534Y-57583557D01*
X152223373Y-57532037D01*
X152289557Y-57525519D01*
X152355740Y-57519000D01*
X152444260Y-57519000D01*
X152510443Y-57525519D01*
X152510443Y-57525519D01*
G37*
G36*
X129650443Y-54985519D02*
G01*
X129716627Y-54992037D01*
X129886466Y-55043557D01*
X130042991Y-55127222D01*
X130078729Y-55156552D01*
X130180186Y-55239814D01*
X130263448Y-55341271D01*
X130292778Y-55377009D01*
X130376443Y-55533534D01*
X130427963Y-55703373D01*
X130445359Y-55880000D01*
X130427963Y-56056627D01*
X130376443Y-56226466D01*
X130292778Y-56382991D01*
X130263448Y-56418729D01*
X130180186Y-56520186D01*
X130078729Y-56603448D01*
X130042991Y-56632778D01*
X129886466Y-56716443D01*
X129716627Y-56767963D01*
X129650443Y-56774481D01*
X129584260Y-56781000D01*
X129495740Y-56781000D01*
X129429557Y-56774481D01*
X129363373Y-56767963D01*
X129193534Y-56716443D01*
X129037009Y-56632778D01*
X129001271Y-56603448D01*
X128899814Y-56520186D01*
X128816552Y-56418729D01*
X128787222Y-56382991D01*
X128703557Y-56226466D01*
X128652037Y-56056627D01*
X128634641Y-55880000D01*
X128652037Y-55703373D01*
X128703557Y-55533534D01*
X128787222Y-55377009D01*
X128816552Y-55341271D01*
X128899814Y-55239814D01*
X129001271Y-55156552D01*
X129037009Y-55127222D01*
X129193534Y-55043557D01*
X129363373Y-54992037D01*
X129429557Y-54985519D01*
X129495740Y-54979000D01*
X129584260Y-54979000D01*
X129650443Y-54985519D01*
X129650443Y-54985519D01*
G37*
G36*
X152510443Y-54985519D02*
G01*
X152576627Y-54992037D01*
X152746466Y-55043557D01*
X152902991Y-55127222D01*
X152938729Y-55156552D01*
X153040186Y-55239814D01*
X153123448Y-55341271D01*
X153152778Y-55377009D01*
X153236443Y-55533534D01*
X153287963Y-55703373D01*
X153305359Y-55880000D01*
X153287963Y-56056627D01*
X153236443Y-56226466D01*
X153152778Y-56382991D01*
X153123448Y-56418729D01*
X153040186Y-56520186D01*
X152938729Y-56603448D01*
X152902991Y-56632778D01*
X152746466Y-56716443D01*
X152576627Y-56767963D01*
X152510443Y-56774481D01*
X152444260Y-56781000D01*
X152355740Y-56781000D01*
X152289557Y-56774481D01*
X152223373Y-56767963D01*
X152053534Y-56716443D01*
X151897009Y-56632778D01*
X151861271Y-56603448D01*
X151759814Y-56520186D01*
X151676552Y-56418729D01*
X151647222Y-56382991D01*
X151563557Y-56226466D01*
X151512037Y-56056627D01*
X151494641Y-55880000D01*
X151512037Y-55703373D01*
X151563557Y-55533534D01*
X151647222Y-55377009D01*
X151676552Y-55341271D01*
X151759814Y-55239814D01*
X151861271Y-55156552D01*
X151897009Y-55127222D01*
X152053534Y-55043557D01*
X152223373Y-54992037D01*
X152289557Y-54985519D01*
X152355740Y-54979000D01*
X152444260Y-54979000D01*
X152510443Y-54985519D01*
X152510443Y-54985519D01*
G37*
G36*
X182741224Y-55134249D02*
G01*
X182835663Y-55162897D01*
X182922698Y-55209418D01*
X182998986Y-55272025D01*
X183061593Y-55348313D01*
X183108114Y-55435348D01*
X183136762Y-55529787D01*
X183146435Y-55628000D01*
X183136762Y-55726213D01*
X183108114Y-55820652D01*
X183061593Y-55907687D01*
X182998986Y-55983975D01*
X182922698Y-56046582D01*
X182835663Y-56093103D01*
X182741224Y-56121751D01*
X182667623Y-56129000D01*
X181918399Y-56129000D01*
X181844798Y-56121751D01*
X181750359Y-56093103D01*
X181663324Y-56046582D01*
X181587036Y-55983975D01*
X181524429Y-55907687D01*
X181477908Y-55820652D01*
X181449260Y-55726213D01*
X181439587Y-55628000D01*
X181449260Y-55529787D01*
X181477908Y-55435348D01*
X181524429Y-55348313D01*
X181587036Y-55272025D01*
X181663324Y-55209418D01*
X181750359Y-55162897D01*
X181844798Y-55134249D01*
X181918399Y-55127000D01*
X182667623Y-55127000D01*
X182741224Y-55134249D01*
X182741224Y-55134249D01*
G37*
G36*
X129650443Y-52445519D02*
G01*
X129716627Y-52452037D01*
X129886466Y-52503557D01*
X130042991Y-52587222D01*
X130078729Y-52616552D01*
X130180186Y-52699814D01*
X130263448Y-52801271D01*
X130292778Y-52837009D01*
X130292779Y-52837011D01*
X130338618Y-52922768D01*
X130376443Y-52993534D01*
X130427963Y-53163373D01*
X130445359Y-53340000D01*
X130427963Y-53516627D01*
X130376443Y-53686466D01*
X130292778Y-53842991D01*
X130263448Y-53878729D01*
X130180186Y-53980186D01*
X130078729Y-54063448D01*
X130042991Y-54092778D01*
X129886466Y-54176443D01*
X129716627Y-54227963D01*
X129650442Y-54234482D01*
X129584260Y-54241000D01*
X129495740Y-54241000D01*
X129429558Y-54234482D01*
X129363373Y-54227963D01*
X129193534Y-54176443D01*
X129037009Y-54092778D01*
X129001271Y-54063448D01*
X128899814Y-53980186D01*
X128816552Y-53878729D01*
X128787222Y-53842991D01*
X128703557Y-53686466D01*
X128652037Y-53516627D01*
X128634641Y-53340000D01*
X128652037Y-53163373D01*
X128703557Y-52993534D01*
X128741383Y-52922768D01*
X128787221Y-52837011D01*
X128787222Y-52837009D01*
X128816552Y-52801271D01*
X128899814Y-52699814D01*
X129001271Y-52616552D01*
X129037009Y-52587222D01*
X129193534Y-52503557D01*
X129363373Y-52452037D01*
X129429558Y-52445518D01*
X129495740Y-52439000D01*
X129584260Y-52439000D01*
X129650443Y-52445519D01*
X129650443Y-52445519D01*
G37*
G36*
X152510443Y-52445519D02*
G01*
X152576627Y-52452037D01*
X152746466Y-52503557D01*
X152902991Y-52587222D01*
X152938729Y-52616552D01*
X153040186Y-52699814D01*
X153123448Y-52801271D01*
X153152778Y-52837009D01*
X153152779Y-52837011D01*
X153198618Y-52922768D01*
X153236443Y-52993534D01*
X153287963Y-53163373D01*
X153305359Y-53340000D01*
X153287963Y-53516627D01*
X153236443Y-53686466D01*
X153152778Y-53842991D01*
X153123448Y-53878729D01*
X153040186Y-53980186D01*
X152938729Y-54063448D01*
X152902991Y-54092778D01*
X152746466Y-54176443D01*
X152576627Y-54227963D01*
X152510442Y-54234482D01*
X152444260Y-54241000D01*
X152355740Y-54241000D01*
X152289558Y-54234482D01*
X152223373Y-54227963D01*
X152053534Y-54176443D01*
X151897009Y-54092778D01*
X151861271Y-54063448D01*
X151759814Y-53980186D01*
X151676552Y-53878729D01*
X151647222Y-53842991D01*
X151563557Y-53686466D01*
X151512037Y-53516627D01*
X151494641Y-53340000D01*
X151512037Y-53163373D01*
X151563557Y-52993534D01*
X151601383Y-52922768D01*
X151647221Y-52837011D01*
X151647222Y-52837009D01*
X151676552Y-52801271D01*
X151759814Y-52699814D01*
X151861271Y-52616552D01*
X151897009Y-52587222D01*
X152053534Y-52503557D01*
X152223373Y-52452037D01*
X152289558Y-52445518D01*
X152355740Y-52439000D01*
X152444260Y-52439000D01*
X152510443Y-52445519D01*
X152510443Y-52445519D01*
G37*
G36*
X96883015Y-51532048D02*
G01*
X97002016Y-51579826D01*
X97012328Y-51586555D01*
X97109412Y-51649903D01*
X97178108Y-51717116D01*
X97572746Y-52187425D01*
X97627009Y-52266748D01*
X97627010Y-52266751D01*
X97677372Y-52384678D01*
X97703760Y-52510170D01*
X97705160Y-52638401D01*
X97681516Y-52764436D01*
X97633738Y-52883439D01*
X97608075Y-52922768D01*
X97563661Y-52990834D01*
X97473979Y-53082494D01*
X97473977Y-53082496D01*
X97368139Y-53154897D01*
X97250209Y-53205260D01*
X97124717Y-53231648D01*
X96996486Y-53233048D01*
X96885581Y-53212242D01*
X96870451Y-53209404D01*
X96751448Y-53161625D01*
X96644054Y-53091549D01*
X96575358Y-53024336D01*
X96180720Y-52554026D01*
X96180719Y-52554025D01*
X96180716Y-52554021D01*
X96126457Y-52474703D01*
X96076094Y-52356773D01*
X96066924Y-52313165D01*
X96049705Y-52231280D01*
X96048838Y-52151733D01*
X96048306Y-52103051D01*
X96071950Y-51977015D01*
X96119728Y-51858014D01*
X96144079Y-51820695D01*
X96189805Y-51750618D01*
X96279487Y-51658958D01*
X96279489Y-51658956D01*
X96385327Y-51586555D01*
X96503257Y-51536192D01*
X96546865Y-51527022D01*
X96628750Y-51509803D01*
X96693219Y-51509100D01*
X96756979Y-51508404D01*
X96883015Y-51532048D01*
X96883015Y-51532048D01*
G37*
G36*
X179977560Y-50687116D02*
G01*
X180088745Y-50709232D01*
X180298214Y-50795997D01*
X180486731Y-50921960D01*
X180647051Y-51082280D01*
X180773014Y-51270797D01*
X180859197Y-51478860D01*
X180859779Y-51480267D01*
X180904011Y-51702635D01*
X180904011Y-51929365D01*
X180881895Y-52040549D01*
X180859779Y-52151734D01*
X180773014Y-52361203D01*
X180647051Y-52549720D01*
X180486731Y-52710040D01*
X180298214Y-52836003D01*
X180298213Y-52836004D01*
X180298212Y-52836004D01*
X180236861Y-52861416D01*
X180088745Y-52922768D01*
X179977560Y-52944884D01*
X179866376Y-52967000D01*
X179639646Y-52967000D01*
X179528462Y-52944884D01*
X179417277Y-52922768D01*
X179269161Y-52861416D01*
X179207810Y-52836004D01*
X179207809Y-52836004D01*
X179207808Y-52836003D01*
X179019291Y-52710040D01*
X178858971Y-52549720D01*
X178733008Y-52361203D01*
X178646243Y-52151734D01*
X178624127Y-52040549D01*
X178602011Y-51929365D01*
X178602011Y-51702635D01*
X178646243Y-51480267D01*
X178646826Y-51478860D01*
X178733008Y-51270797D01*
X178858971Y-51082280D01*
X179019291Y-50921960D01*
X179207808Y-50795997D01*
X179417277Y-50709232D01*
X179528462Y-50687116D01*
X179639646Y-50665000D01*
X179866376Y-50665000D01*
X179977560Y-50687116D01*
X179977560Y-50687116D01*
G37*
G36*
X98415104Y-50246472D02*
G01*
X98534105Y-50294250D01*
X98538333Y-50297009D01*
X98641501Y-50364327D01*
X98710197Y-50431540D01*
X99104835Y-50901849D01*
X99159098Y-50981172D01*
X99159099Y-50981175D01*
X99209461Y-51099102D01*
X99235849Y-51224594D01*
X99237249Y-51352825D01*
X99213605Y-51478860D01*
X99165827Y-51597863D01*
X99131870Y-51649903D01*
X99095750Y-51705258D01*
X99006068Y-51796918D01*
X99006066Y-51796920D01*
X98900228Y-51869321D01*
X98782298Y-51919684D01*
X98656806Y-51946072D01*
X98528575Y-51947472D01*
X98417670Y-51926666D01*
X98402540Y-51923828D01*
X98283537Y-51876049D01*
X98176143Y-51805973D01*
X98107447Y-51738760D01*
X97712809Y-51268450D01*
X97712808Y-51268449D01*
X97712805Y-51268445D01*
X97658546Y-51189127D01*
X97608183Y-51071197D01*
X97599013Y-51027589D01*
X97581794Y-50945704D01*
X97581078Y-50880074D01*
X97580395Y-50817475D01*
X97604039Y-50691439D01*
X97651817Y-50572438D01*
X97691682Y-50511343D01*
X97721894Y-50465042D01*
X97811576Y-50373382D01*
X97811578Y-50373380D01*
X97917416Y-50300979D01*
X98035346Y-50250616D01*
X98078954Y-50241446D01*
X98160839Y-50224227D01*
X98225308Y-50223524D01*
X98289068Y-50222828D01*
X98415104Y-50246472D01*
X98415104Y-50246472D01*
G37*
G36*
X129650442Y-49905518D02*
G01*
X129716627Y-49912037D01*
X129886466Y-49963557D01*
X130042991Y-50047222D01*
X130067395Y-50067250D01*
X130180186Y-50159814D01*
X130233048Y-50224228D01*
X130292778Y-50297009D01*
X130292779Y-50297011D01*
X130376257Y-50453185D01*
X130376443Y-50453534D01*
X130427963Y-50623373D01*
X130445359Y-50800000D01*
X130427963Y-50976627D01*
X130376443Y-51146466D01*
X130292778Y-51302991D01*
X130280251Y-51318255D01*
X130180186Y-51440186D01*
X130095356Y-51509803D01*
X130042991Y-51552778D01*
X129886466Y-51636443D01*
X129716627Y-51687963D01*
X129650442Y-51694482D01*
X129584260Y-51701000D01*
X129495740Y-51701000D01*
X129429558Y-51694482D01*
X129363373Y-51687963D01*
X129193534Y-51636443D01*
X129037009Y-51552778D01*
X128984644Y-51509803D01*
X128899814Y-51440186D01*
X128799749Y-51318255D01*
X128787222Y-51302991D01*
X128703557Y-51146466D01*
X128652037Y-50976627D01*
X128634641Y-50800000D01*
X128652037Y-50623373D01*
X128703557Y-50453534D01*
X128703744Y-50453185D01*
X128787221Y-50297011D01*
X128787222Y-50297009D01*
X128846952Y-50224228D01*
X128899814Y-50159814D01*
X129012605Y-50067250D01*
X129037009Y-50047222D01*
X129193534Y-49963557D01*
X129363373Y-49912037D01*
X129429557Y-49905519D01*
X129495740Y-49899000D01*
X129584260Y-49899000D01*
X129650442Y-49905518D01*
X129650442Y-49905518D01*
G37*
G36*
X152510442Y-49905518D02*
G01*
X152576627Y-49912037D01*
X152746466Y-49963557D01*
X152902991Y-50047222D01*
X152927395Y-50067250D01*
X153040186Y-50159814D01*
X153093048Y-50224228D01*
X153152778Y-50297009D01*
X153152779Y-50297011D01*
X153236257Y-50453185D01*
X153236443Y-50453534D01*
X153287963Y-50623373D01*
X153305359Y-50800000D01*
X153287963Y-50976627D01*
X153236443Y-51146466D01*
X153152778Y-51302991D01*
X153140251Y-51318255D01*
X153040186Y-51440186D01*
X152955356Y-51509803D01*
X152902991Y-51552778D01*
X152746466Y-51636443D01*
X152576627Y-51687963D01*
X152510442Y-51694482D01*
X152444260Y-51701000D01*
X152355740Y-51701000D01*
X152289558Y-51694482D01*
X152223373Y-51687963D01*
X152053534Y-51636443D01*
X151897009Y-51552778D01*
X151844644Y-51509803D01*
X151759814Y-51440186D01*
X151659749Y-51318255D01*
X151647222Y-51302991D01*
X151563557Y-51146466D01*
X151512037Y-50976627D01*
X151494641Y-50800000D01*
X151512037Y-50623373D01*
X151563557Y-50453534D01*
X151563744Y-50453185D01*
X151647221Y-50297011D01*
X151647222Y-50297009D01*
X151706952Y-50224228D01*
X151759814Y-50159814D01*
X151872605Y-50067250D01*
X151897009Y-50047222D01*
X152053534Y-49963557D01*
X152223373Y-49912037D01*
X152289557Y-49905519D01*
X152355740Y-49899000D01*
X152444260Y-49899000D01*
X152510442Y-49905518D01*
X152510442Y-49905518D01*
G37*
G36*
X123712142Y-50018242D02*
G01*
X123860101Y-50079529D01*
X123993255Y-50168499D01*
X124106501Y-50281745D01*
X124195471Y-50414899D01*
X124256758Y-50562858D01*
X124288000Y-50719925D01*
X124288000Y-50880075D01*
X124256758Y-51037142D01*
X124195471Y-51185101D01*
X124106501Y-51318255D01*
X123993255Y-51431501D01*
X123860101Y-51520471D01*
X123712142Y-51581758D01*
X123555075Y-51613000D01*
X123394925Y-51613000D01*
X123237858Y-51581758D01*
X123089899Y-51520471D01*
X122956745Y-51431501D01*
X122843499Y-51318255D01*
X122754529Y-51185101D01*
X122693242Y-51037142D01*
X122662000Y-50880075D01*
X122662000Y-50719925D01*
X122693242Y-50562858D01*
X122754529Y-50414899D01*
X122843499Y-50281745D01*
X122956745Y-50168499D01*
X123089899Y-50079529D01*
X123237858Y-50018242D01*
X123394925Y-49987000D01*
X123555075Y-49987000D01*
X123712142Y-50018242D01*
X123712142Y-50018242D01*
G37*
G36*
X121712142Y-50018242D02*
G01*
X121860101Y-50079529D01*
X121993255Y-50168499D01*
X122106501Y-50281745D01*
X122195471Y-50414899D01*
X122256758Y-50562858D01*
X122288000Y-50719925D01*
X122288000Y-50880075D01*
X122256758Y-51037142D01*
X122195471Y-51185101D01*
X122106501Y-51318255D01*
X121993255Y-51431501D01*
X121860101Y-51520471D01*
X121712142Y-51581758D01*
X121555075Y-51613000D01*
X121394925Y-51613000D01*
X121237858Y-51581758D01*
X121089899Y-51520471D01*
X120956745Y-51431501D01*
X120843499Y-51318255D01*
X120754529Y-51185101D01*
X120693242Y-51037142D01*
X120662000Y-50880075D01*
X120662000Y-50719925D01*
X120693242Y-50562858D01*
X120754529Y-50414899D01*
X120843499Y-50281745D01*
X120956745Y-50168499D01*
X121089899Y-50079529D01*
X121237858Y-50018242D01*
X121394925Y-49987000D01*
X121555075Y-49987000D01*
X121712142Y-50018242D01*
X121712142Y-50018242D01*
G37*
G36*
X119712142Y-50018242D02*
G01*
X119860101Y-50079529D01*
X119993255Y-50168499D01*
X120106501Y-50281745D01*
X120195471Y-50414899D01*
X120256758Y-50562858D01*
X120288000Y-50719925D01*
X120288000Y-50880075D01*
X120256758Y-51037142D01*
X120195471Y-51185101D01*
X120106501Y-51318255D01*
X119993255Y-51431501D01*
X119860101Y-51520471D01*
X119712142Y-51581758D01*
X119555075Y-51613000D01*
X119394925Y-51613000D01*
X119237858Y-51581758D01*
X119089899Y-51520471D01*
X118956745Y-51431501D01*
X118843499Y-51318255D01*
X118754529Y-51185101D01*
X118693242Y-51037142D01*
X118662000Y-50880075D01*
X118662000Y-50719925D01*
X118693242Y-50562858D01*
X118754529Y-50414899D01*
X118843499Y-50281745D01*
X118956745Y-50168499D01*
X119089899Y-50079529D01*
X119237858Y-50018242D01*
X119394925Y-49987000D01*
X119555075Y-49987000D01*
X119712142Y-50018242D01*
X119712142Y-50018242D01*
G37*
G36*
X118288000Y-51613000D02*
G01*
X116662000Y-51613000D01*
X116662000Y-49987000D01*
X118288000Y-49987000D01*
X118288000Y-51613000D01*
X118288000Y-51613000D01*
G37*
G36*
X99947193Y-48960897D02*
G01*
X100066194Y-49008675D01*
X100072482Y-49012778D01*
X100173590Y-49078752D01*
X100242286Y-49145965D01*
X100636924Y-49616274D01*
X100691187Y-49695597D01*
X100691188Y-49695600D01*
X100741550Y-49813527D01*
X100767938Y-49939019D01*
X100769338Y-50067250D01*
X100745694Y-50193285D01*
X100697916Y-50312288D01*
X100663959Y-50364327D01*
X100627839Y-50419683D01*
X100538157Y-50511343D01*
X100538155Y-50511345D01*
X100432317Y-50583746D01*
X100314387Y-50634109D01*
X100188895Y-50660497D01*
X100060664Y-50661897D01*
X99949759Y-50641091D01*
X99934629Y-50638253D01*
X99815626Y-50590474D01*
X99708232Y-50520398D01*
X99639536Y-50453185D01*
X99244898Y-49982875D01*
X99244897Y-49982874D01*
X99244894Y-49982870D01*
X99190635Y-49903552D01*
X99140272Y-49785622D01*
X99126717Y-49721160D01*
X99113883Y-49660129D01*
X99113180Y-49595660D01*
X99112484Y-49531900D01*
X99136128Y-49405864D01*
X99183906Y-49286863D01*
X99208257Y-49249544D01*
X99253983Y-49179467D01*
X99343665Y-49087807D01*
X99343667Y-49087805D01*
X99449505Y-49015404D01*
X99567435Y-48965041D01*
X99611043Y-48955871D01*
X99692928Y-48938652D01*
X99757397Y-48937949D01*
X99821157Y-48937253D01*
X99947193Y-48960897D01*
X99947193Y-48960897D01*
G37*
G36*
X175588021Y-47821153D02*
G01*
X175624295Y-47834806D01*
X175657217Y-47855279D01*
X175685505Y-47881773D01*
X175711680Y-47918300D01*
X176158201Y-48691699D01*
X176176746Y-48732628D01*
X176185549Y-48770381D01*
X176186817Y-48809122D01*
X176180504Y-48847364D01*
X176166851Y-48883638D01*
X176146378Y-48916559D01*
X176119883Y-48944848D01*
X176083359Y-48971022D01*
X174833644Y-49692544D01*
X174792715Y-49711089D01*
X174754962Y-49719892D01*
X174716221Y-49721160D01*
X174677979Y-49714847D01*
X174641705Y-49701194D01*
X174608783Y-49680721D01*
X174580495Y-49654227D01*
X174554320Y-49617700D01*
X174107799Y-48844301D01*
X174089254Y-48803372D01*
X174080451Y-48765619D01*
X174079183Y-48726878D01*
X174085496Y-48688636D01*
X174099149Y-48652362D01*
X174119622Y-48619441D01*
X174146117Y-48591152D01*
X174182641Y-48564978D01*
X175432356Y-47843456D01*
X175473285Y-47824911D01*
X175511038Y-47816108D01*
X175549779Y-47814840D01*
X175588021Y-47821153D01*
X175588021Y-47821153D01*
G37*
G36*
X101407358Y-47475777D02*
G01*
X101443329Y-47490219D01*
X101475791Y-47511401D01*
X101507907Y-47542823D01*
X101633434Y-47692421D01*
X102392561Y-48597113D01*
X102392568Y-48597123D01*
X102435486Y-48648271D01*
X102460850Y-48685349D01*
X102476074Y-48720999D01*
X102484050Y-48758930D01*
X102484474Y-48797692D01*
X102477327Y-48835787D01*
X102462886Y-48871756D01*
X102441701Y-48904221D01*
X102410280Y-48936336D01*
X102359130Y-48979256D01*
X102359128Y-48979258D01*
X101777316Y-49467457D01*
X101777306Y-49467464D01*
X101726158Y-49510382D01*
X101689080Y-49535746D01*
X101653430Y-49550970D01*
X101615499Y-49558946D01*
X101576737Y-49559370D01*
X101538642Y-49552223D01*
X101502671Y-49537781D01*
X101470209Y-49516599D01*
X101438093Y-49485177D01*
X101111906Y-49096442D01*
X100553439Y-48430887D01*
X100553432Y-48430877D01*
X100510514Y-48379729D01*
X100485150Y-48342651D01*
X100469926Y-48307001D01*
X100461950Y-48269070D01*
X100461526Y-48230308D01*
X100468673Y-48192213D01*
X100483114Y-48156244D01*
X100504299Y-48123779D01*
X100535720Y-48091664D01*
X100586872Y-48048742D01*
X101168684Y-47560543D01*
X101168694Y-47560536D01*
X101219842Y-47517618D01*
X101256920Y-47492254D01*
X101292570Y-47477030D01*
X101330501Y-47469054D01*
X101369263Y-47468630D01*
X101407358Y-47475777D01*
X101407358Y-47475777D01*
G37*
G36*
X129650443Y-47365519D02*
G01*
X129716627Y-47372037D01*
X129886466Y-47423557D01*
X130042991Y-47507222D01*
X130055658Y-47517618D01*
X130180186Y-47619814D01*
X130239771Y-47692420D01*
X130292778Y-47757009D01*
X130376443Y-47913534D01*
X130427963Y-48083373D01*
X130445359Y-48260000D01*
X130427963Y-48436627D01*
X130399155Y-48531593D01*
X130376442Y-48606468D01*
X130357984Y-48641001D01*
X130292778Y-48762991D01*
X130290621Y-48765619D01*
X130180186Y-48900186D01*
X130083835Y-48979258D01*
X130042991Y-49012778D01*
X130042989Y-49012779D01*
X129902627Y-49087805D01*
X129886466Y-49096443D01*
X129716627Y-49147963D01*
X129650443Y-49154481D01*
X129584260Y-49161000D01*
X129495740Y-49161000D01*
X129429557Y-49154481D01*
X129363373Y-49147963D01*
X129193534Y-49096443D01*
X129177374Y-49087805D01*
X129037011Y-49012779D01*
X129037009Y-49012778D01*
X128996165Y-48979258D01*
X128899814Y-48900186D01*
X128789379Y-48765619D01*
X128787222Y-48762991D01*
X128722016Y-48641001D01*
X128703558Y-48606468D01*
X128680845Y-48531593D01*
X128652037Y-48436627D01*
X128634641Y-48260000D01*
X128652037Y-48083373D01*
X128703557Y-47913534D01*
X128787222Y-47757009D01*
X128840229Y-47692420D01*
X128899814Y-47619814D01*
X129024342Y-47517618D01*
X129037009Y-47507222D01*
X129193534Y-47423557D01*
X129363373Y-47372037D01*
X129429557Y-47365519D01*
X129495740Y-47359000D01*
X129584260Y-47359000D01*
X129650443Y-47365519D01*
X129650443Y-47365519D01*
G37*
G36*
X152510443Y-47365519D02*
G01*
X152576627Y-47372037D01*
X152746466Y-47423557D01*
X152902991Y-47507222D01*
X152915658Y-47517618D01*
X153040186Y-47619814D01*
X153099771Y-47692420D01*
X153152778Y-47757009D01*
X153236443Y-47913534D01*
X153287963Y-48083373D01*
X153305359Y-48260000D01*
X153287963Y-48436627D01*
X153259155Y-48531593D01*
X153236442Y-48606468D01*
X153217984Y-48641001D01*
X153152778Y-48762991D01*
X153150621Y-48765619D01*
X153040186Y-48900186D01*
X152943835Y-48979258D01*
X152902991Y-49012778D01*
X152902989Y-49012779D01*
X152762627Y-49087805D01*
X152746466Y-49096443D01*
X152576627Y-49147963D01*
X152510443Y-49154481D01*
X152444260Y-49161000D01*
X152355740Y-49161000D01*
X152289557Y-49154481D01*
X152223373Y-49147963D01*
X152053534Y-49096443D01*
X152037374Y-49087805D01*
X151897011Y-49012779D01*
X151897009Y-49012778D01*
X151856165Y-48979258D01*
X151759814Y-48900186D01*
X151649379Y-48765619D01*
X151647222Y-48762991D01*
X151582016Y-48641001D01*
X151563558Y-48606468D01*
X151540845Y-48531593D01*
X151512037Y-48436627D01*
X151494641Y-48260000D01*
X151512037Y-48083373D01*
X151563557Y-47913534D01*
X151647222Y-47757009D01*
X151700229Y-47692420D01*
X151759814Y-47619814D01*
X151884342Y-47517618D01*
X151897009Y-47507222D01*
X152053534Y-47423557D01*
X152223373Y-47372037D01*
X152289557Y-47365519D01*
X152355740Y-47359000D01*
X152444260Y-47359000D01*
X152510443Y-47365519D01*
X152510443Y-47365519D01*
G37*
G36*
X174477202Y-46256146D02*
G01*
X174540465Y-46266590D01*
X174660479Y-46311761D01*
X174769376Y-46379477D01*
X174862973Y-46467140D01*
X174875399Y-46484481D01*
X174937666Y-46571375D01*
X174990590Y-46688180D01*
X175009219Y-46768078D01*
X175019710Y-46813069D01*
X175023905Y-46941231D01*
X175003016Y-47067758D01*
X174957845Y-47187771D01*
X174890129Y-47296668D01*
X174802466Y-47390265D01*
X174724343Y-47446247D01*
X174600724Y-47517618D01*
X174192653Y-47753218D01*
X174105112Y-47792882D01*
X174025214Y-47811511D01*
X173980223Y-47822002D01*
X173852062Y-47826197D01*
X173852060Y-47826197D01*
X173788799Y-47815753D01*
X173725535Y-47805308D01*
X173605521Y-47760137D01*
X173496624Y-47692421D01*
X173403027Y-47604758D01*
X173328334Y-47500523D01*
X173317122Y-47475777D01*
X173275410Y-47383718D01*
X173246291Y-47258832D01*
X173246290Y-47258829D01*
X173242095Y-47130668D01*
X173262984Y-47004141D01*
X173308155Y-46884127D01*
X173375871Y-46775230D01*
X173463534Y-46681633D01*
X173541653Y-46625654D01*
X173541654Y-46625653D01*
X174073346Y-46318680D01*
X174160887Y-46279016D01*
X174240785Y-46260387D01*
X174285776Y-46249896D01*
X174413938Y-46245701D01*
X174413940Y-46245701D01*
X174477202Y-46256146D01*
X174477202Y-46256146D01*
G37*
G36*
X129650442Y-44825518D02*
G01*
X129716627Y-44832037D01*
X129886466Y-44883557D01*
X130042991Y-44967222D01*
X130078729Y-44996552D01*
X130180186Y-45079814D01*
X130263448Y-45181271D01*
X130292778Y-45217009D01*
X130376443Y-45373534D01*
X130427963Y-45543373D01*
X130445359Y-45720000D01*
X130427963Y-45896627D01*
X130376443Y-46066466D01*
X130292778Y-46222991D01*
X130291335Y-46224749D01*
X130180186Y-46360186D01*
X130094135Y-46430805D01*
X130042991Y-46472778D01*
X129886466Y-46556443D01*
X129716627Y-46607963D01*
X129650443Y-46614481D01*
X129584260Y-46621000D01*
X129495740Y-46621000D01*
X129429558Y-46614482D01*
X129363373Y-46607963D01*
X129193534Y-46556443D01*
X129037009Y-46472778D01*
X128985865Y-46430805D01*
X128899814Y-46360186D01*
X128788665Y-46224749D01*
X128787222Y-46222991D01*
X128703557Y-46066466D01*
X128652037Y-45896627D01*
X128634641Y-45720000D01*
X128652037Y-45543373D01*
X128703557Y-45373534D01*
X128787222Y-45217009D01*
X128816552Y-45181271D01*
X128899814Y-45079814D01*
X129001271Y-44996552D01*
X129037009Y-44967222D01*
X129193534Y-44883557D01*
X129363373Y-44832037D01*
X129429558Y-44825518D01*
X129495740Y-44819000D01*
X129584260Y-44819000D01*
X129650442Y-44825518D01*
X129650442Y-44825518D01*
G37*
G36*
X152510442Y-44825518D02*
G01*
X152576627Y-44832037D01*
X152746466Y-44883557D01*
X152902991Y-44967222D01*
X152938729Y-44996552D01*
X153040186Y-45079814D01*
X153123448Y-45181271D01*
X153152778Y-45217009D01*
X153236443Y-45373534D01*
X153287963Y-45543373D01*
X153305359Y-45720000D01*
X153287963Y-45896627D01*
X153236443Y-46066466D01*
X153152778Y-46222991D01*
X153151335Y-46224749D01*
X153040186Y-46360186D01*
X152954135Y-46430805D01*
X152902991Y-46472778D01*
X152746466Y-46556443D01*
X152576627Y-46607963D01*
X152510443Y-46614481D01*
X152444260Y-46621000D01*
X152355740Y-46621000D01*
X152289558Y-46614482D01*
X152223373Y-46607963D01*
X152053534Y-46556443D01*
X151897009Y-46472778D01*
X151845865Y-46430805D01*
X151759814Y-46360186D01*
X151648665Y-46224749D01*
X151647222Y-46222991D01*
X151563557Y-46066466D01*
X151512037Y-45896627D01*
X151494641Y-45720000D01*
X151512037Y-45543373D01*
X151563557Y-45373534D01*
X151647222Y-45217009D01*
X151676552Y-45181271D01*
X151759814Y-45079814D01*
X151861271Y-44996552D01*
X151897009Y-44967222D01*
X152053534Y-44883557D01*
X152223373Y-44832037D01*
X152289558Y-44825518D01*
X152355740Y-44819000D01*
X152444260Y-44819000D01*
X152510442Y-44825518D01*
X152510442Y-44825518D01*
G37*
G36*
X106178446Y-44692939D02*
G01*
X106302662Y-44724775D01*
X106418289Y-44780236D01*
X106494263Y-44837227D01*
X106520870Y-44857186D01*
X106606468Y-44952671D01*
X106655427Y-45035374D01*
X106914892Y-45591798D01*
X106934035Y-45646235D01*
X106946775Y-45682464D01*
X106964900Y-45809412D01*
X106957909Y-45937459D01*
X106926073Y-46061677D01*
X106870614Y-46177298D01*
X106793661Y-46279884D01*
X106698176Y-46365481D01*
X106587829Y-46430805D01*
X106556354Y-46441873D01*
X106466854Y-46473348D01*
X106398500Y-46483106D01*
X106339905Y-46491472D01*
X106211860Y-46484481D01*
X106087643Y-46452645D01*
X106027654Y-46423871D01*
X105972018Y-46397185D01*
X105922694Y-46360185D01*
X105869439Y-46320236D01*
X105868044Y-46318680D01*
X105783838Y-46224749D01*
X105734879Y-46142046D01*
X105475415Y-45585621D01*
X105443531Y-45494956D01*
X105440682Y-45474999D01*
X105425406Y-45368007D01*
X105432397Y-45239962D01*
X105464233Y-45115746D01*
X105519694Y-45000119D01*
X105596644Y-44897538D01*
X105641657Y-44857186D01*
X105692129Y-44811940D01*
X105776199Y-44762172D01*
X105802479Y-44746614D01*
X105915951Y-44706711D01*
X105923452Y-44704073D01*
X105941577Y-44701485D01*
X106050401Y-44685948D01*
X106178446Y-44692939D01*
X106178446Y-44692939D01*
G37*
G36*
X107991062Y-43847702D02*
G01*
X108115278Y-43879538D01*
X108230905Y-43934999D01*
X108293632Y-43982053D01*
X108333486Y-44011949D01*
X108419084Y-44107434D01*
X108468043Y-44190137D01*
X108727508Y-44746561D01*
X108757566Y-44832037D01*
X108759391Y-44837227D01*
X108777516Y-44964175D01*
X108770525Y-45092222D01*
X108738689Y-45216440D01*
X108683230Y-45332061D01*
X108606277Y-45434647D01*
X108510792Y-45520244D01*
X108400445Y-45585568D01*
X108368970Y-45596636D01*
X108279470Y-45628111D01*
X108211116Y-45637869D01*
X108152521Y-45646235D01*
X108024476Y-45639244D01*
X107900259Y-45607408D01*
X107840270Y-45578634D01*
X107784634Y-45551948D01*
X107742369Y-45520243D01*
X107682055Y-45474999D01*
X107645879Y-45434645D01*
X107596454Y-45379512D01*
X107547495Y-45296809D01*
X107288031Y-44740384D01*
X107256147Y-44649719D01*
X107247537Y-44589411D01*
X107238022Y-44522770D01*
X107245013Y-44394725D01*
X107276849Y-44270509D01*
X107332310Y-44154882D01*
X107409260Y-44052301D01*
X107424332Y-44038790D01*
X107504745Y-43966703D01*
X107569269Y-43928506D01*
X107615095Y-43901377D01*
X107704595Y-43869904D01*
X107736068Y-43858836D01*
X107754193Y-43856248D01*
X107863017Y-43840711D01*
X107991062Y-43847702D01*
X107991062Y-43847702D01*
G37*
G36*
X109803677Y-43002466D02*
G01*
X109927893Y-43034302D01*
X110043520Y-43089763D01*
X110146101Y-43166713D01*
X110231699Y-43262198D01*
X110280658Y-43344901D01*
X110540123Y-43901325D01*
X110572006Y-43991990D01*
X110572006Y-43991991D01*
X110590131Y-44118939D01*
X110583140Y-44246986D01*
X110551304Y-44371204D01*
X110495845Y-44486825D01*
X110418892Y-44589411D01*
X110323407Y-44675008D01*
X110213060Y-44740332D01*
X110195196Y-44746614D01*
X110092085Y-44782875D01*
X110023731Y-44792633D01*
X109965136Y-44800999D01*
X109837091Y-44794008D01*
X109712874Y-44762172D01*
X109634908Y-44724775D01*
X109597249Y-44706712D01*
X109521272Y-44649718D01*
X109494670Y-44629763D01*
X109458494Y-44589409D01*
X109409069Y-44534276D01*
X109360110Y-44451573D01*
X109100646Y-43895148D01*
X109068762Y-43804483D01*
X109058378Y-43731751D01*
X109050637Y-43677534D01*
X109057628Y-43549489D01*
X109089464Y-43425273D01*
X109144925Y-43309646D01*
X109221875Y-43207065D01*
X109317360Y-43121467D01*
X109381884Y-43083270D01*
X109427710Y-43056141D01*
X109517210Y-43024668D01*
X109548683Y-43013600D01*
X109566808Y-43011012D01*
X109675632Y-42995475D01*
X109803677Y-43002466D01*
X109803677Y-43002466D01*
G37*
G36*
X111765806Y-42006777D02*
G01*
X111803360Y-42016401D01*
X111838304Y-42033163D01*
X111869315Y-42056425D01*
X111895185Y-42085284D01*
X111918074Y-42123947D01*
X111946292Y-42184460D01*
X111946297Y-42184469D01*
X112499716Y-43371281D01*
X112499719Y-43371288D01*
X112527937Y-43431803D01*
X112542843Y-43474191D01*
X112548321Y-43512559D01*
X112546208Y-43551261D01*
X112536584Y-43588815D01*
X112519822Y-43623759D01*
X112496560Y-43654770D01*
X112467701Y-43680640D01*
X112429038Y-43703529D01*
X112368517Y-43731750D01*
X112368516Y-43731751D01*
X111680173Y-44052731D01*
X111680169Y-44052732D01*
X111619652Y-44080952D01*
X111577265Y-44095858D01*
X111538896Y-44101336D01*
X111500194Y-44099223D01*
X111462640Y-44089599D01*
X111427696Y-44072837D01*
X111396685Y-44049575D01*
X111370815Y-44020716D01*
X111347926Y-43982053D01*
X111319708Y-43921540D01*
X111319703Y-43921531D01*
X110766284Y-42734719D01*
X110766281Y-42734712D01*
X110738063Y-42674197D01*
X110723157Y-42631809D01*
X110717679Y-42593441D01*
X110719792Y-42554739D01*
X110729416Y-42517185D01*
X110746178Y-42482241D01*
X110769440Y-42451230D01*
X110798299Y-42425360D01*
X110836962Y-42402471D01*
X111101746Y-42279000D01*
X111585827Y-42053269D01*
X111585831Y-42053268D01*
X111646348Y-42025048D01*
X111688735Y-42010142D01*
X111727104Y-42004664D01*
X111765806Y-42006777D01*
X111765806Y-42006777D01*
G37*
G36*
X129650442Y-42285518D02*
G01*
X129716627Y-42292037D01*
X129886466Y-42343557D01*
X130042991Y-42427222D01*
X130078729Y-42456552D01*
X130180186Y-42539814D01*
X130255683Y-42631809D01*
X130292778Y-42677009D01*
X130376443Y-42833534D01*
X130427963Y-43003373D01*
X130445359Y-43180000D01*
X130427963Y-43356627D01*
X130376443Y-43526466D01*
X130292778Y-43682991D01*
X130280251Y-43698255D01*
X130180186Y-43820186D01*
X130088850Y-43895142D01*
X130042991Y-43932778D01*
X129886466Y-44016443D01*
X129716627Y-44067963D01*
X129650443Y-44074481D01*
X129584260Y-44081000D01*
X129495740Y-44081000D01*
X129429557Y-44074481D01*
X129363373Y-44067963D01*
X129193534Y-44016443D01*
X129037009Y-43932778D01*
X128991150Y-43895142D01*
X128899814Y-43820186D01*
X128799749Y-43698255D01*
X128787222Y-43682991D01*
X128703557Y-43526466D01*
X128652037Y-43356627D01*
X128634641Y-43180000D01*
X128652037Y-43003373D01*
X128703557Y-42833534D01*
X128787222Y-42677009D01*
X128824317Y-42631809D01*
X128899814Y-42539814D01*
X129001271Y-42456552D01*
X129037009Y-42427222D01*
X129193534Y-42343557D01*
X129363373Y-42292037D01*
X129429557Y-42285519D01*
X129495740Y-42279000D01*
X129584260Y-42279000D01*
X129650442Y-42285518D01*
X129650442Y-42285518D01*
G37*
G36*
X152510442Y-42285518D02*
G01*
X152576627Y-42292037D01*
X152746466Y-42343557D01*
X152902991Y-42427222D01*
X152938729Y-42456552D01*
X153040186Y-42539814D01*
X153115683Y-42631809D01*
X153152778Y-42677009D01*
X153236443Y-42833534D01*
X153287963Y-43003373D01*
X153305359Y-43180000D01*
X153287963Y-43356627D01*
X153236443Y-43526466D01*
X153152778Y-43682991D01*
X153140251Y-43698255D01*
X153040186Y-43820186D01*
X152948850Y-43895142D01*
X152902991Y-43932778D01*
X152746466Y-44016443D01*
X152576627Y-44067963D01*
X152510443Y-44074481D01*
X152444260Y-44081000D01*
X152355740Y-44081000D01*
X152289557Y-44074481D01*
X152223373Y-44067963D01*
X152053534Y-44016443D01*
X151897009Y-43932778D01*
X151851150Y-43895142D01*
X151759814Y-43820186D01*
X151659749Y-43698255D01*
X151647222Y-43682991D01*
X151563557Y-43526466D01*
X151512037Y-43356627D01*
X151494641Y-43180000D01*
X151512037Y-43003373D01*
X151563557Y-42833534D01*
X151647222Y-42677009D01*
X151684317Y-42631809D01*
X151759814Y-42539814D01*
X151861271Y-42456552D01*
X151897009Y-42427222D01*
X152053534Y-42343557D01*
X152223373Y-42292037D01*
X152289557Y-42285519D01*
X152355740Y-42279000D01*
X152444260Y-42279000D01*
X152510442Y-42285518D01*
X152510442Y-42285518D01*
G37*
G36*
X121712142Y-42398242D02*
G01*
X121860101Y-42459529D01*
X121993255Y-42548499D01*
X122106501Y-42661745D01*
X122195471Y-42794899D01*
X122256758Y-42942858D01*
X122288000Y-43099925D01*
X122288000Y-43260075D01*
X122256758Y-43417142D01*
X122195471Y-43565101D01*
X122106501Y-43698255D01*
X121993255Y-43811501D01*
X121860101Y-43900471D01*
X121712142Y-43961758D01*
X121555075Y-43993000D01*
X121394925Y-43993000D01*
X121237858Y-43961758D01*
X121089899Y-43900471D01*
X120956745Y-43811501D01*
X120843499Y-43698255D01*
X120754529Y-43565101D01*
X120693242Y-43417142D01*
X120662000Y-43260075D01*
X120662000Y-43099925D01*
X120693242Y-42942858D01*
X120754529Y-42794899D01*
X120843499Y-42661745D01*
X120956745Y-42548499D01*
X121089899Y-42459529D01*
X121237858Y-42398242D01*
X121394925Y-42367000D01*
X121555075Y-42367000D01*
X121712142Y-42398242D01*
X121712142Y-42398242D01*
G37*
G36*
X123712142Y-42398242D02*
G01*
X123860101Y-42459529D01*
X123993255Y-42548499D01*
X124106501Y-42661745D01*
X124195471Y-42794899D01*
X124256758Y-42942858D01*
X124288000Y-43099925D01*
X124288000Y-43260075D01*
X124256758Y-43417142D01*
X124195471Y-43565101D01*
X124106501Y-43698255D01*
X123993255Y-43811501D01*
X123860101Y-43900471D01*
X123712142Y-43961758D01*
X123555075Y-43993000D01*
X123394925Y-43993000D01*
X123237858Y-43961758D01*
X123089899Y-43900471D01*
X122956745Y-43811501D01*
X122843499Y-43698255D01*
X122754529Y-43565101D01*
X122693242Y-43417142D01*
X122662000Y-43260075D01*
X122662000Y-43099925D01*
X122693242Y-42942858D01*
X122754529Y-42794899D01*
X122843499Y-42661745D01*
X122956745Y-42548499D01*
X123089899Y-42459529D01*
X123237858Y-42398242D01*
X123394925Y-42367000D01*
X123555075Y-42367000D01*
X123712142Y-42398242D01*
X123712142Y-42398242D01*
G37*
G36*
X119712142Y-42398242D02*
G01*
X119860101Y-42459529D01*
X119993255Y-42548499D01*
X120106501Y-42661745D01*
X120195471Y-42794899D01*
X120256758Y-42942858D01*
X120288000Y-43099925D01*
X120288000Y-43260075D01*
X120256758Y-43417142D01*
X120195471Y-43565101D01*
X120106501Y-43698255D01*
X119993255Y-43811501D01*
X119860101Y-43900471D01*
X119712142Y-43961758D01*
X119555075Y-43993000D01*
X119394925Y-43993000D01*
X119237858Y-43961758D01*
X119089899Y-43900471D01*
X118956745Y-43811501D01*
X118843499Y-43698255D01*
X118754529Y-43565101D01*
X118693242Y-43417142D01*
X118662000Y-43260075D01*
X118662000Y-43099925D01*
X118693242Y-42942858D01*
X118754529Y-42794899D01*
X118843499Y-42661745D01*
X118956745Y-42548499D01*
X119089899Y-42459529D01*
X119237858Y-42398242D01*
X119394925Y-42367000D01*
X119555075Y-42367000D01*
X119712142Y-42398242D01*
X119712142Y-42398242D01*
G37*
G36*
X118288000Y-43993000D02*
G01*
X116662000Y-43993000D01*
X116662000Y-42367000D01*
X118288000Y-42367000D01*
X118288000Y-43993000D01*
X118288000Y-43993000D01*
G37*
G36*
X152988578Y-39747048D02*
G01*
X153061249Y-39769093D01*
X153128225Y-39804892D01*
X153186930Y-39853070D01*
X153235108Y-39911775D01*
X153270907Y-39978751D01*
X153292952Y-40051422D01*
X153301000Y-40133140D01*
X153301000Y-41146860D01*
X153292952Y-41228578D01*
X153270907Y-41301249D01*
X153235108Y-41368225D01*
X153186930Y-41426930D01*
X153128225Y-41475108D01*
X153061249Y-41510907D01*
X152988578Y-41532952D01*
X152906860Y-41541000D01*
X151893140Y-41541000D01*
X151811422Y-41532952D01*
X151738751Y-41510907D01*
X151671775Y-41475108D01*
X151613070Y-41426930D01*
X151564892Y-41368225D01*
X151529093Y-41301249D01*
X151507048Y-41228578D01*
X151499000Y-41146860D01*
X151499000Y-40133140D01*
X151507048Y-40051422D01*
X151529093Y-39978751D01*
X151564892Y-39911775D01*
X151613070Y-39853070D01*
X151671775Y-39804892D01*
X151738751Y-39769093D01*
X151811422Y-39747048D01*
X151893140Y-39739000D01*
X152906860Y-39739000D01*
X152988578Y-39747048D01*
X152988578Y-39747048D01*
G37*
G36*
X130441000Y-41541000D02*
G01*
X128639000Y-41541000D01*
X128639000Y-39739000D01*
X130441000Y-39739000D01*
X130441000Y-41541000D01*
X130441000Y-41541000D01*
G37*
G36*
X122319560Y-34939116D02*
G01*
X122430745Y-34961232D01*
X122640214Y-35047997D01*
X122828731Y-35173960D01*
X122989051Y-35334280D01*
X123115014Y-35522797D01*
X123201779Y-35732266D01*
X123246011Y-35954636D01*
X123246011Y-36181364D01*
X123201779Y-36403734D01*
X123115014Y-36613203D01*
X122989051Y-36801720D01*
X122828731Y-36962040D01*
X122640214Y-37088003D01*
X122430745Y-37174768D01*
X122319560Y-37196884D01*
X122208376Y-37219000D01*
X121981646Y-37219000D01*
X121870462Y-37196884D01*
X121759277Y-37174768D01*
X121549808Y-37088003D01*
X121361291Y-36962040D01*
X121200971Y-36801720D01*
X121075008Y-36613203D01*
X120988243Y-36403734D01*
X120944011Y-36181364D01*
X120944011Y-35954636D01*
X120988243Y-35732266D01*
X121075008Y-35522797D01*
X121200971Y-35334280D01*
X121361291Y-35173960D01*
X121549808Y-35047997D01*
X121759277Y-34961232D01*
X121870462Y-34939116D01*
X121981646Y-34917000D01*
X122208376Y-34917000D01*
X122319560Y-34939116D01*
X122319560Y-34939116D01*
G37*
M02*
