G04 #@! TF.GenerationSoftware,KiCad,Pcbnew,(5.1.2-1)-1*
G04 #@! TF.CreationDate,2019-08-23T12:39:33+12:00*
G04 #@! TF.ProjectId,ccb,6363622e-6b69-4636-9164-5f7063625858,rev?*
G04 #@! TF.SameCoordinates,Original*
G04 #@! TF.FileFunction,Legend,Top*
G04 #@! TF.FilePolarity,Positive*
%FSLAX46Y46*%
G04 Gerber Fmt 4.6, Leading zero omitted, Abs format (unit mm)*
G04 Created by KiCad (PCBNEW (5.1.2-1)-1) date 2019-08-23 12:39:33*
%MOMM*%
%LPD*%
G04 APERTURE LIST*
%ADD10C,0.120000*%
%ADD11C,0.100000*%
%ADD12C,0.127000*%
%ADD13C,0.203200*%
%ADD14C,0.150000*%
G04 APERTURE END LIST*
D10*
X155504011Y-53928000D02*
X155504011Y-57988000D01*
X157774011Y-53928000D02*
X155504011Y-53928000D01*
X157774011Y-57988000D02*
X157774011Y-53928000D01*
D11*
X143668500Y-67080000D02*
X143518500Y-67080000D01*
X143668500Y-66730000D02*
X143668500Y-67080000D01*
X143918500Y-66480000D02*
X143668500Y-66730000D01*
X144218500Y-66480000D02*
X143918500Y-66480000D01*
X146868500Y-66480000D02*
X146868500Y-67130000D01*
X146468500Y-66480000D02*
X146868500Y-66480000D01*
X146868500Y-69180000D02*
X146868500Y-68730000D01*
X146468500Y-69180000D02*
X146868500Y-69180000D01*
X143668500Y-69180000D02*
X143668500Y-68530000D01*
X144068500Y-69180000D02*
X143668500Y-69180000D01*
X184408011Y-55358000D02*
X185018011Y-54853000D01*
D12*
X181318011Y-62478000D02*
X180918291Y-62478000D01*
X184416891Y-62478000D02*
X183243011Y-62478000D01*
X183218011Y-55378000D02*
X184416891Y-55378000D01*
X180910311Y-55378000D02*
X181311631Y-55378000D01*
X179343011Y-57278000D02*
X179343011Y-56653000D01*
X179343011Y-60578000D02*
X179343011Y-61378000D01*
X185018011Y-62978000D02*
X185018011Y-54878000D01*
X184443011Y-62478000D02*
X184443011Y-55378000D01*
X184443011Y-62503000D02*
X185018011Y-62978000D01*
D10*
X135485000Y-69255000D02*
X136285000Y-70055000D01*
X136285000Y-70055000D02*
X136285000Y-74255000D01*
X136285000Y-74255000D02*
X132955000Y-74255000D01*
X132955000Y-74255000D02*
X132955000Y-69255000D01*
X132955000Y-69255000D02*
X135485000Y-69255000D01*
X131850000Y-38815000D02*
X131470000Y-38815000D01*
X131850000Y-32395000D02*
X131850000Y-38815000D01*
X150090000Y-32395000D02*
X150090000Y-38815000D01*
X131850000Y-32395000D02*
X150090000Y-32395000D01*
X150090000Y-58140000D02*
X149090000Y-58140000D01*
X150090000Y-57360000D02*
X150090000Y-58140000D01*
X131850000Y-58140000D02*
X132850000Y-58140000D01*
X131850000Y-57360000D02*
X131850000Y-58140000D01*
X128210000Y-41910000D02*
X130870000Y-41910000D01*
X128210000Y-41910000D02*
X128210000Y-80070000D01*
X128210000Y-80070000D02*
X130870000Y-80070000D01*
X130870000Y-41910000D02*
X130870000Y-80070000D01*
X130870000Y-39310000D02*
X130870000Y-40640000D01*
X129540000Y-39310000D02*
X130870000Y-39310000D01*
X160831000Y-52435000D02*
X160831000Y-52910000D01*
X165051000Y-48690000D02*
X164576000Y-48690000D01*
X165051000Y-49165000D02*
X165051000Y-48690000D01*
X165051000Y-52910000D02*
X164576000Y-52910000D01*
X165051000Y-52435000D02*
X165051000Y-52910000D01*
X160831000Y-48690000D02*
X161306000Y-48690000D01*
X160831000Y-49165000D02*
X160831000Y-48690000D01*
X167892000Y-62540000D02*
X166432000Y-62540000D01*
X167892000Y-59380000D02*
X165732000Y-59380000D01*
X167892000Y-59380000D02*
X167892000Y-60310000D01*
X167892000Y-62540000D02*
X167892000Y-61610000D01*
X112353258Y-42562665D02*
X112607024Y-42444332D01*
X112607024Y-42444332D02*
X113283214Y-43894425D01*
X113283214Y-43894425D02*
X114117017Y-43505616D01*
X114117017Y-43505616D02*
X110812142Y-36418289D01*
X110812142Y-36418289D02*
X101640307Y-40695186D01*
X101640307Y-40695186D02*
X104945182Y-47782513D01*
X104945182Y-47782513D02*
X105778985Y-47393704D01*
X105778985Y-47393704D02*
X105102796Y-45943611D01*
X105102796Y-45943611D02*
X105356562Y-45825278D01*
X108491994Y-37500192D02*
X110334610Y-41451694D01*
X110334610Y-41451694D02*
X105803071Y-43564785D01*
X105803071Y-43564785D02*
X103960455Y-39613283D01*
X113440827Y-42055523D02*
X112607024Y-42444332D01*
X104268993Y-46332420D02*
X105102796Y-45943611D01*
X111754654Y-40237827D02*
X111078465Y-38787734D01*
X111078465Y-38787734D02*
X110172157Y-39210353D01*
X110172157Y-39210353D02*
X110848347Y-40660445D01*
X110848347Y-40660445D02*
X111754654Y-40237827D01*
X103960408Y-43872344D02*
X103284218Y-42422251D01*
X103284218Y-42422251D02*
X104190526Y-41999633D01*
X104190526Y-41999633D02*
X104866715Y-43449726D01*
X104866715Y-43449726D02*
X103960408Y-43872344D01*
X110172157Y-39210353D02*
X109217040Y-37162097D01*
X110625311Y-38999043D02*
X109670194Y-36950788D01*
X112353258Y-42562665D02*
X112866739Y-43663829D01*
X114475000Y-63040000D02*
X117475000Y-63040000D01*
X114475000Y-66040000D02*
X114475000Y-63040000D01*
X122475000Y-69340000D02*
X123075000Y-69340000D01*
X117875000Y-69340000D02*
X118475000Y-69340000D01*
X114975000Y-63490000D02*
X126025000Y-63490000D01*
X114975000Y-69340000D02*
X114975000Y-63490000D01*
X118725000Y-69340000D02*
X122225000Y-69340000D01*
X126025000Y-69340000D02*
X126025000Y-63490000D01*
X114975000Y-69340000D02*
X117625000Y-69340000D01*
X123375000Y-69340000D02*
X126025000Y-69340000D01*
X114475000Y-70660000D02*
X117475000Y-70660000D01*
X114475000Y-73660000D02*
X114475000Y-70660000D01*
X122475000Y-76960000D02*
X123075000Y-76960000D01*
X117875000Y-76960000D02*
X118475000Y-76960000D01*
X114975000Y-71110000D02*
X126025000Y-71110000D01*
X114975000Y-76960000D02*
X114975000Y-71110000D01*
X118725000Y-76960000D02*
X122225000Y-76960000D01*
X126025000Y-76960000D02*
X126025000Y-71110000D01*
X114975000Y-76960000D02*
X117625000Y-76960000D01*
X123375000Y-76960000D02*
X126025000Y-76960000D01*
X114475000Y-47800000D02*
X117475000Y-47800000D01*
X114475000Y-50800000D02*
X114475000Y-47800000D01*
X122475000Y-54100000D02*
X123075000Y-54100000D01*
X117875000Y-54100000D02*
X118475000Y-54100000D01*
X114975000Y-48250000D02*
X126025000Y-48250000D01*
X114975000Y-54100000D02*
X114975000Y-48250000D01*
X118725000Y-54100000D02*
X122225000Y-54100000D01*
X126025000Y-54100000D02*
X126025000Y-48250000D01*
X114975000Y-54100000D02*
X117625000Y-54100000D01*
X123375000Y-54100000D02*
X126025000Y-54100000D01*
X114475000Y-40180000D02*
X117475000Y-40180000D01*
X114475000Y-43180000D02*
X114475000Y-40180000D01*
X122475000Y-46480000D02*
X123075000Y-46480000D01*
X117875000Y-46480000D02*
X118475000Y-46480000D01*
X114975000Y-40630000D02*
X126025000Y-40630000D01*
X114975000Y-46480000D02*
X114975000Y-40630000D01*
X118725000Y-46480000D02*
X122225000Y-46480000D01*
X126025000Y-46480000D02*
X126025000Y-40630000D01*
X114975000Y-46480000D02*
X117625000Y-46480000D01*
X123375000Y-46480000D02*
X126025000Y-46480000D01*
X163509000Y-59630000D02*
X163509000Y-60960000D01*
X162179000Y-59630000D02*
X163509000Y-59630000D01*
X160909000Y-59630000D02*
X160909000Y-62290000D01*
X160909000Y-62290000D02*
X155769000Y-62290000D01*
X160909000Y-59630000D02*
X155769000Y-59630000D01*
X155769000Y-59630000D02*
X155769000Y-62290000D01*
X163509000Y-62170000D02*
X163509000Y-63500000D01*
X162179000Y-62170000D02*
X163509000Y-62170000D01*
X160909000Y-62170000D02*
X160909000Y-64830000D01*
X160909000Y-64830000D02*
X155769000Y-64830000D01*
X160909000Y-62170000D02*
X155769000Y-62170000D01*
X155769000Y-62170000D02*
X155769000Y-64830000D01*
X163509000Y-64710000D02*
X163509000Y-66040000D01*
X162179000Y-64710000D02*
X163509000Y-64710000D01*
X160909000Y-64710000D02*
X160909000Y-67370000D01*
X160909000Y-67370000D02*
X155769000Y-67370000D01*
X160909000Y-64710000D02*
X155769000Y-64710000D01*
X155769000Y-64710000D02*
X155769000Y-67370000D01*
X163509000Y-74870000D02*
X163509000Y-76200000D01*
X162179000Y-74870000D02*
X163509000Y-74870000D01*
X160909000Y-74870000D02*
X160909000Y-77530000D01*
X160909000Y-77530000D02*
X155769000Y-77530000D01*
X160909000Y-74870000D02*
X155769000Y-74870000D01*
X155769000Y-74870000D02*
X155769000Y-77530000D01*
X163509000Y-72330000D02*
X163509000Y-73660000D01*
X162179000Y-72330000D02*
X163509000Y-72330000D01*
X160909000Y-72330000D02*
X160909000Y-74990000D01*
X160909000Y-74990000D02*
X155769000Y-74990000D01*
X160909000Y-72330000D02*
X155769000Y-72330000D01*
X155769000Y-72330000D02*
X155769000Y-74990000D01*
X163509000Y-69790000D02*
X163509000Y-71120000D01*
X162179000Y-69790000D02*
X163509000Y-69790000D01*
X160909000Y-69790000D02*
X160909000Y-72450000D01*
X160909000Y-72450000D02*
X155769000Y-72450000D01*
X160909000Y-69790000D02*
X155769000Y-69790000D01*
X155769000Y-69790000D02*
X155769000Y-72450000D01*
X163509000Y-67250000D02*
X163509000Y-68580000D01*
X162179000Y-67250000D02*
X163509000Y-67250000D01*
X160909000Y-67250000D02*
X160909000Y-69910000D01*
X160909000Y-69910000D02*
X155769000Y-69910000D01*
X160909000Y-67250000D02*
X155769000Y-67250000D01*
X155769000Y-67250000D02*
X155769000Y-69910000D01*
X139094000Y-82182000D02*
X139094000Y-80967000D01*
X139154000Y-86142000D02*
X139154000Y-88402000D01*
X139654000Y-86142000D02*
X139654000Y-88402000D01*
X142254000Y-84542000D02*
X143254000Y-84542000D01*
X142254000Y-86142000D02*
X142254000Y-84542000D01*
X143254000Y-86142000D02*
X142254000Y-86142000D01*
X143254000Y-84542000D02*
X143254000Y-86142000D01*
X139654000Y-84542000D02*
X138654000Y-84542000D01*
X139654000Y-86142000D02*
X139654000Y-84542000D01*
X138654000Y-86142000D02*
X139654000Y-86142000D01*
X138654000Y-84542000D02*
X138654000Y-86142000D01*
X144014000Y-82182000D02*
X143094000Y-82182000D01*
X137894000Y-82182000D02*
X138814000Y-82182000D01*
X141454000Y-84042000D02*
X141454000Y-88402000D01*
X140454000Y-84042000D02*
X141454000Y-84042000D01*
X140454000Y-88402000D02*
X140454000Y-84042000D01*
X143094000Y-82182000D02*
X142814000Y-82182000D01*
X143094000Y-80582000D02*
X143094000Y-82182000D01*
X144014000Y-80582000D02*
X143094000Y-80582000D01*
X144014000Y-88402000D02*
X144014000Y-80582000D01*
X137894000Y-88402000D02*
X144014000Y-88402000D01*
X137894000Y-80582000D02*
X137894000Y-88402000D01*
X138814000Y-80582000D02*
X137894000Y-80582000D01*
X138814000Y-82182000D02*
X138814000Y-80582000D01*
X139094000Y-82182000D02*
X138814000Y-82182000D01*
X105333409Y-71645431D02*
X105846890Y-70544267D01*
X103714219Y-75259767D02*
X102759102Y-77308023D01*
X104167373Y-75471076D02*
X103212256Y-77519332D01*
X110825193Y-76810265D02*
X111731501Y-77232883D01*
X110149004Y-78260357D02*
X110825193Y-76810265D01*
X111055312Y-78682975D02*
X110149004Y-78260357D01*
X111731501Y-77232883D02*
X111055312Y-78682975D01*
X104843562Y-74020984D02*
X103937254Y-73598366D01*
X104167373Y-75471076D02*
X104843562Y-74020984D01*
X103261065Y-75048458D02*
X104167373Y-75471076D01*
X103937254Y-73598366D02*
X103261065Y-75048458D01*
X113417674Y-75415186D02*
X112583871Y-75026377D01*
X104245839Y-71138289D02*
X105079643Y-71527098D01*
X110311456Y-76019016D02*
X108468841Y-79970518D01*
X105779917Y-73905925D02*
X110311456Y-76019016D01*
X103937302Y-77857427D02*
X105779917Y-73905925D01*
X112583871Y-75026377D02*
X112330105Y-74908044D01*
X113260060Y-73576285D02*
X112583871Y-75026377D01*
X114093863Y-73965094D02*
X113260060Y-73576285D01*
X110788989Y-81052421D02*
X114093863Y-73965094D01*
X101617154Y-76775524D02*
X110788989Y-81052421D01*
X104922029Y-69688197D02*
X101617154Y-76775524D01*
X105755832Y-70077006D02*
X104922029Y-69688197D01*
X105079643Y-71527098D02*
X105755832Y-70077006D01*
X105333409Y-71645431D02*
X105079643Y-71527098D01*
X96279212Y-64705449D02*
X97060198Y-63774705D01*
X93779735Y-67777552D02*
X92327035Y-69508813D01*
X94162757Y-68098946D02*
X92710057Y-69830206D01*
X100247111Y-71115673D02*
X101013155Y-71758461D01*
X99218651Y-72341344D02*
X100247111Y-71115673D01*
X99984695Y-72984132D02*
X99218651Y-72341344D01*
X101013155Y-71758461D02*
X99984695Y-72984132D01*
X95191218Y-66873275D02*
X94425173Y-66230487D01*
X94162757Y-68098946D02*
X95191218Y-66873275D01*
X93396713Y-67456158D02*
X94162757Y-68098946D01*
X94425173Y-66230487D02*
X93396713Y-67456158D01*
X103112328Y-70439114D02*
X102407567Y-69847750D01*
X95359958Y-63934104D02*
X96064719Y-64525468D01*
X99955669Y-70218421D02*
X97153115Y-73558375D01*
X96125447Y-67004483D02*
X99955669Y-70218421D01*
X93322893Y-70344436D02*
X96125447Y-67004483D01*
X102407567Y-69847750D02*
X102193075Y-69667769D01*
X103436027Y-68622079D02*
X102407567Y-69847750D01*
X104140788Y-69213443D02*
X103436027Y-68622079D01*
X99114189Y-75203911D02*
X104140788Y-69213443D01*
X91361819Y-68698900D02*
X99114189Y-75203911D01*
X96388418Y-62708433D02*
X91361819Y-68698900D01*
X97093179Y-63299797D02*
X96388418Y-62708433D01*
X96064719Y-64525468D02*
X97093179Y-63299797D01*
X96279212Y-64705449D02*
X96064719Y-64525468D01*
X102041808Y-47853956D02*
X102822795Y-48784700D01*
X99450406Y-44858988D02*
X97997706Y-43127727D01*
X99067384Y-45180382D02*
X97614684Y-43449121D01*
X95039951Y-50648451D02*
X94273907Y-51291238D01*
X94011491Y-49422780D02*
X95039951Y-50648451D01*
X93245446Y-50065567D02*
X94011491Y-49422780D01*
X94273907Y-51291238D02*
X93245446Y-50065567D01*
X100095844Y-46406053D02*
X100861889Y-45763265D01*
X99067384Y-45180382D02*
X100095844Y-46406053D01*
X99833429Y-44537594D02*
X99067384Y-45180382D01*
X100861889Y-45763265D02*
X99833429Y-44537594D01*
X95208692Y-53587622D02*
X95913452Y-52996257D01*
X102961061Y-47082611D02*
X102256300Y-47673976D01*
X95974180Y-50517243D02*
X93171626Y-47177289D01*
X99804403Y-47303305D02*
X95974180Y-50517243D01*
X97001849Y-43963351D02*
X99804403Y-47303305D01*
X95913452Y-52996257D02*
X96127945Y-52816277D01*
X96941913Y-54221928D02*
X95913452Y-52996257D01*
X96237152Y-54813293D02*
X96941913Y-54221928D01*
X91210553Y-48822825D02*
X96237152Y-54813293D01*
X98962922Y-42317815D02*
X91210553Y-48822825D01*
X103989521Y-48308282D02*
X98962922Y-42317815D01*
X103284761Y-48899647D02*
X103989521Y-48308282D01*
X102256300Y-47673976D02*
X103284761Y-48899647D01*
X102041808Y-47853956D02*
X102256300Y-47673976D01*
X173681244Y-71553782D02*
X172629023Y-70946282D01*
X177140704Y-73481820D02*
X179097922Y-74611820D01*
X177390704Y-73048808D02*
X179347922Y-74178808D01*
X177305064Y-69997142D02*
X177805064Y-69131116D01*
X178690704Y-70797142D02*
X177305064Y-69997142D01*
X179190704Y-69931116D02*
X178690704Y-70797142D01*
X177805064Y-69131116D02*
X179190704Y-69931116D01*
X176005064Y-72248808D02*
X175505064Y-73114833D01*
X177390704Y-73048808D02*
X176005064Y-72248808D01*
X176890704Y-73914833D02*
X177390704Y-73048808D01*
X175505064Y-73114833D02*
X176890704Y-73914833D01*
X176141244Y-67292937D02*
X175681244Y-68089680D01*
X173081244Y-72593012D02*
X173541244Y-71796269D01*
X176472051Y-70439962D02*
X180247922Y-72619962D01*
X175972051Y-71305987D02*
X176472051Y-70439962D01*
X179747922Y-73485987D02*
X175972051Y-71305987D01*
X175681244Y-68089680D02*
X175541244Y-68332167D01*
X174295603Y-67289680D02*
X175681244Y-68089680D01*
X174755603Y-66492937D02*
X174295603Y-67289680D01*
X181527922Y-70402937D02*
X174755603Y-66492937D01*
X178467922Y-75703012D02*
X181527922Y-70402937D01*
X171695603Y-71793012D02*
X178467922Y-75703012D01*
X172155603Y-70996269D02*
X171695603Y-71793012D01*
X173541244Y-71796269D02*
X172155603Y-70996269D01*
X173681244Y-71553782D02*
X173541244Y-71796269D01*
X175684244Y-49442782D02*
X174632023Y-50050282D01*
X179083704Y-47410820D02*
X181040922Y-46280820D01*
X178833704Y-46977808D02*
X180790922Y-45847808D01*
X176148064Y-45526142D02*
X175648064Y-44660116D01*
X177533704Y-44726142D02*
X176148064Y-45526142D01*
X177033704Y-43860116D02*
X177533704Y-44726142D01*
X175648064Y-44660116D02*
X177033704Y-43860116D01*
X177448064Y-47777808D02*
X177948064Y-48643833D01*
X178833704Y-46977808D02*
X177448064Y-47777808D01*
X179333704Y-47843833D02*
X178833704Y-46977808D01*
X177948064Y-48643833D02*
X179333704Y-47843833D01*
X173224244Y-45181937D02*
X173684244Y-45978680D01*
X176284244Y-50482012D02*
X175824244Y-49685269D01*
X176115051Y-46468962D02*
X179890922Y-44288962D01*
X176615051Y-47334987D02*
X176115051Y-46468962D01*
X180390922Y-45154987D02*
X176615051Y-47334987D01*
X173684244Y-45978680D02*
X173824244Y-46221167D01*
X172298603Y-46778680D02*
X173684244Y-45978680D01*
X171838603Y-45981937D02*
X172298603Y-46778680D01*
X178610922Y-42071937D02*
X171838603Y-45981937D01*
X181670922Y-47372012D02*
X178610922Y-42071937D01*
X174898603Y-51282012D02*
X181670922Y-47372012D01*
X174438603Y-50485269D02*
X174898603Y-51282012D01*
X175824244Y-49685269D02*
X174438603Y-50485269D01*
X175684244Y-49442782D02*
X175824244Y-49685269D01*
X167342078Y-78180000D02*
X166824922Y-78180000D01*
X167342078Y-76760000D02*
X166824922Y-76760000D01*
X166486000Y-66507000D02*
X168936000Y-66507000D01*
X168286000Y-63287000D02*
X166486000Y-63287000D01*
X169978000Y-65204078D02*
X169978000Y-64686922D01*
X171398000Y-65204078D02*
X171398000Y-64686922D01*
X167312078Y-70833333D02*
X166794922Y-70833333D01*
X167312078Y-72253333D02*
X166794922Y-72253333D01*
X166824922Y-67870000D02*
X167342078Y-67870000D01*
X166824922Y-69290000D02*
X167342078Y-69290000D01*
X166824922Y-73796666D02*
X167342078Y-73796666D01*
X166824922Y-75216666D02*
X167342078Y-75216666D01*
X155119000Y-42803578D02*
X155119000Y-42286422D01*
X156539000Y-42803578D02*
X156539000Y-42286422D01*
X157659000Y-46652922D02*
X157659000Y-47170078D01*
X159079000Y-46652922D02*
X159079000Y-47170078D01*
X159079000Y-42803578D02*
X159079000Y-42286422D01*
X157659000Y-42803578D02*
X157659000Y-42286422D01*
X159079000Y-51176422D02*
X159079000Y-51693578D01*
X157659000Y-51176422D02*
X157659000Y-51693578D01*
X155119000Y-51176422D02*
X155119000Y-51693578D01*
X156539000Y-51176422D02*
X156539000Y-51693578D01*
X167438000Y-45207422D02*
X167438000Y-45724578D01*
X168858000Y-45207422D02*
X168858000Y-45724578D01*
X145419578Y-71045000D02*
X144902422Y-71045000D01*
X145419578Y-72465000D02*
X144902422Y-72465000D01*
X145419578Y-75005000D02*
X144902422Y-75005000D01*
X145419578Y-73585000D02*
X144902422Y-73585000D01*
X116003000Y-56812922D02*
X116003000Y-57330078D01*
X117423000Y-56812922D02*
X117423000Y-57330078D01*
X117423000Y-60789078D02*
X117423000Y-60271922D01*
X116003000Y-60789078D02*
X116003000Y-60271922D01*
X173625839Y-42919834D02*
X173884417Y-42471964D01*
X172396083Y-42209834D02*
X172654661Y-41761964D01*
X117908000Y-60271922D02*
X117908000Y-60789078D01*
X119328000Y-60271922D02*
X119328000Y-60789078D01*
X119328000Y-56812922D02*
X119328000Y-57330078D01*
X117908000Y-56812922D02*
X117908000Y-57330078D01*
X164009000Y-45724578D02*
X164009000Y-45207422D01*
X165429000Y-45724578D02*
X165429000Y-45207422D01*
X155119000Y-47121578D02*
X155119000Y-46604422D01*
X156539000Y-47121578D02*
X156539000Y-46604422D01*
X166930000Y-51566578D02*
X166930000Y-51049422D01*
X168350000Y-51566578D02*
X168350000Y-51049422D01*
X144902422Y-64845000D02*
X145419578Y-64845000D01*
X144902422Y-63425000D02*
X145419578Y-63425000D01*
X107621000Y-63797922D02*
X107621000Y-64315078D01*
X109041000Y-63797922D02*
X109041000Y-64315078D01*
X166824922Y-56948000D02*
X167342078Y-56948000D01*
X166824922Y-58368000D02*
X167342078Y-58368000D01*
X109399000Y-63797922D02*
X109399000Y-64315078D01*
X110819000Y-63797922D02*
X110819000Y-64315078D01*
X106420037Y-68728956D02*
X106638596Y-68260254D01*
X107706994Y-69329074D02*
X107925553Y-68860372D01*
X108325037Y-69490956D02*
X108543596Y-69022254D01*
X109611994Y-70091074D02*
X109830553Y-69622372D01*
X111389994Y-70853074D02*
X111608553Y-70384372D01*
X110103037Y-70252956D02*
X110321596Y-69784254D01*
X112008037Y-71141956D02*
X112226596Y-70673254D01*
X113294994Y-71742074D02*
X113513553Y-71273372D01*
X104042068Y-67412628D02*
X104374489Y-67016464D01*
X102954285Y-66499870D02*
X103286706Y-66103706D01*
X102391068Y-66142628D02*
X102723489Y-65746464D01*
X101303285Y-65229870D02*
X101635706Y-64833706D01*
X99652285Y-63959870D02*
X99984706Y-63563706D01*
X100740068Y-64872628D02*
X101072489Y-64476464D01*
X99216068Y-63602628D02*
X99548489Y-63206464D01*
X98128285Y-62689870D02*
X98460706Y-62293706D01*
X99437681Y-54336539D02*
X99770102Y-54732703D01*
X98349898Y-55249297D02*
X98682319Y-55645461D01*
X99873898Y-53979297D02*
X100206319Y-54375461D01*
X100961681Y-53066539D02*
X101294102Y-53462703D01*
X102612681Y-51796539D02*
X102945102Y-52192703D01*
X101524898Y-52709297D02*
X101857319Y-53105461D01*
X104104294Y-50482706D02*
X104436715Y-50878870D01*
X103016511Y-51395464D02*
X103348932Y-51791628D01*
X106196447Y-49175372D02*
X106415006Y-49644074D01*
X107483404Y-48575254D02*
X107701963Y-49043956D01*
X109373199Y-47852590D02*
X109591758Y-48321292D01*
X108086242Y-48452708D02*
X108304801Y-48921410D01*
X110006447Y-47651372D02*
X110225006Y-48120074D01*
X111293404Y-47051254D02*
X111511963Y-47519956D01*
X113198404Y-46289254D02*
X113416963Y-46757956D01*
X111911447Y-46889372D02*
X112130006Y-47358074D01*
D12*
X157406340Y-35407600D02*
X157632400Y-35407600D01*
X157373320Y-32410400D02*
X157373320Y-35407600D01*
X159872680Y-35407600D02*
X159872680Y-32410400D01*
X157424120Y-32410400D02*
X157624780Y-32410400D01*
X159821880Y-32410400D02*
X159621220Y-32410400D01*
X159821880Y-35407600D02*
X159621220Y-35407600D01*
D10*
X162328000Y-46816000D02*
X160798000Y-46816000D01*
X162328000Y-44116000D02*
X162328000Y-46816000D01*
X159998000Y-44116000D02*
X162328000Y-44116000D01*
X159998000Y-46016000D02*
X159998000Y-44116000D01*
X160798000Y-46816000D02*
X159998000Y-46016000D01*
X111856000Y-60926000D02*
X112331000Y-60926000D01*
X108111000Y-56706000D02*
X108111000Y-57181000D01*
X108586000Y-56706000D02*
X108111000Y-56706000D01*
X112331000Y-56706000D02*
X112331000Y-57181000D01*
X111856000Y-56706000D02*
X112331000Y-56706000D01*
X108111000Y-60926000D02*
X108111000Y-60451000D01*
X108586000Y-60926000D02*
X108111000Y-60926000D01*
D13*
X166821419Y-42305148D02*
X161630117Y-39307948D01*
X170098019Y-36629911D02*
X166821419Y-42305148D01*
X164906717Y-33632711D02*
X170098019Y-36629911D01*
D10*
X133677922Y-62178000D02*
X134195078Y-62178000D01*
X133677922Y-60758000D02*
X134195078Y-60758000D01*
X136704000Y-72062078D02*
X136704000Y-71544922D01*
X138124000Y-72062078D02*
X138124000Y-71544922D01*
X134878578Y-75236000D02*
X134361422Y-75236000D01*
X134878578Y-76656000D02*
X134361422Y-76656000D01*
X134878578Y-78815000D02*
X134361422Y-78815000D01*
X134878578Y-77395000D02*
X134361422Y-77395000D01*
X141245000Y-66007064D02*
X141245000Y-64802936D01*
X139425000Y-66007064D02*
X139425000Y-64802936D01*
X136250000Y-64802936D02*
X136250000Y-66007064D01*
X138070000Y-64802936D02*
X138070000Y-66007064D01*
X152400000Y-39310000D02*
X153730000Y-39310000D01*
X153730000Y-39310000D02*
X153730000Y-40640000D01*
X153730000Y-41910000D02*
X153730000Y-80070000D01*
X151070000Y-80070000D02*
X153730000Y-80070000D01*
X151070000Y-41910000D02*
X151070000Y-80070000D01*
X151070000Y-41910000D02*
X153730000Y-41910000D01*
X159790000Y-56300000D02*
X159790000Y-58000000D01*
X159790000Y-58000000D02*
X162340000Y-58000000D01*
X159790000Y-56300000D02*
X162340000Y-56300000D01*
X171474000Y-59348000D02*
X171474000Y-61048000D01*
X171474000Y-61048000D02*
X174024000Y-61048000D01*
X171474000Y-59348000D02*
X174024000Y-59348000D01*
X135076000Y-65781422D02*
X135076000Y-66298578D01*
X133656000Y-65781422D02*
X133656000Y-66298578D01*
D14*
X155313391Y-57126095D02*
X154313391Y-57126095D01*
X154313391Y-56888000D01*
X154361011Y-56745142D01*
X154456249Y-56649904D01*
X154551487Y-56602285D01*
X154741963Y-56554666D01*
X154884820Y-56554666D01*
X155075296Y-56602285D01*
X155170534Y-56649904D01*
X155265772Y-56745142D01*
X155313391Y-56888000D01*
X155313391Y-57126095D01*
X154313391Y-56221333D02*
X154313391Y-55602285D01*
X154694344Y-55935619D01*
X154694344Y-55792761D01*
X154741963Y-55697523D01*
X154789582Y-55649904D01*
X154884820Y-55602285D01*
X155122915Y-55602285D01*
X155218153Y-55649904D01*
X155265772Y-55697523D01*
X155313391Y-55792761D01*
X155313391Y-56078476D01*
X155265772Y-56173714D01*
X155218153Y-56221333D01*
X177427391Y-60664095D02*
X178236915Y-60664095D01*
X178332153Y-60616476D01*
X178379772Y-60568857D01*
X178427391Y-60473619D01*
X178427391Y-60283142D01*
X178379772Y-60187904D01*
X178332153Y-60140285D01*
X178236915Y-60092666D01*
X177427391Y-60092666D01*
X178379772Y-59664095D02*
X178427391Y-59521238D01*
X178427391Y-59283142D01*
X178379772Y-59187904D01*
X178332153Y-59140285D01*
X178236915Y-59092666D01*
X178141677Y-59092666D01*
X178046439Y-59140285D01*
X177998820Y-59187904D01*
X177951201Y-59283142D01*
X177903582Y-59473619D01*
X177855963Y-59568857D01*
X177808344Y-59616476D01*
X177713106Y-59664095D01*
X177617868Y-59664095D01*
X177522630Y-59616476D01*
X177475011Y-59568857D01*
X177427391Y-59473619D01*
X177427391Y-59235523D01*
X177475011Y-59092666D01*
X177903582Y-58330761D02*
X177951201Y-58187904D01*
X177998820Y-58140285D01*
X178094058Y-58092666D01*
X178236915Y-58092666D01*
X178332153Y-58140285D01*
X178379772Y-58187904D01*
X178427391Y-58283142D01*
X178427391Y-58664095D01*
X177427391Y-58664095D01*
X177427391Y-58330761D01*
X177475011Y-58235523D01*
X177522630Y-58187904D01*
X177617868Y-58140285D01*
X177713106Y-58140285D01*
X177808344Y-58187904D01*
X177855963Y-58235523D01*
X177903582Y-58330761D01*
X177903582Y-58664095D01*
X178427391Y-57140285D02*
X178427391Y-57711714D01*
X178427391Y-57426000D02*
X177427391Y-57426000D01*
X177570249Y-57521238D01*
X177665487Y-57616476D01*
X177713106Y-57711714D01*
X113806487Y-39301108D02*
X113869769Y-39324141D01*
X113973301Y-39433489D01*
X114013550Y-39519804D01*
X114030767Y-39669401D01*
X113984701Y-39795966D01*
X113918511Y-39879373D01*
X113766005Y-40003029D01*
X113636533Y-40063403D01*
X113443778Y-40100744D01*
X113337338Y-40097836D01*
X113210774Y-40051770D01*
X113107242Y-39942422D01*
X113066993Y-39856107D01*
X113049777Y-39706510D01*
X113072809Y-39643228D01*
X113530558Y-38484024D02*
X113055825Y-38705395D01*
X112989635Y-38788802D01*
X112986727Y-38895242D01*
X113067225Y-39067872D01*
X113150632Y-39134062D01*
X113487400Y-38504149D02*
X113570807Y-38570339D01*
X113671431Y-38786126D01*
X113668523Y-38892566D01*
X113602332Y-38975973D01*
X113516017Y-39016222D01*
X113409577Y-39013314D01*
X113326171Y-38947124D01*
X113225547Y-38731336D01*
X113142140Y-38665146D01*
X112725106Y-38334194D02*
X113631414Y-37911576D01*
X112768263Y-38314070D02*
X112684857Y-38247879D01*
X112604358Y-38075249D01*
X112607266Y-37968809D01*
X112630299Y-37905527D01*
X112696489Y-37822120D01*
X112955434Y-37701372D01*
X113061874Y-37704280D01*
X113125156Y-37727313D01*
X113208563Y-37793504D01*
X113289062Y-37966134D01*
X113286154Y-38072573D01*
X112161615Y-37125784D02*
X112765820Y-36844038D01*
X111916978Y-37502569D02*
X112664964Y-37416486D01*
X112403343Y-36855439D01*
X126536000Y-68207714D02*
X126488380Y-68302952D01*
X126488380Y-68445809D01*
X126536000Y-68588666D01*
X126631238Y-68683904D01*
X126726476Y-68731523D01*
X126916952Y-68779142D01*
X127059809Y-68779142D01*
X127250285Y-68731523D01*
X127345523Y-68683904D01*
X127440761Y-68588666D01*
X127488380Y-68445809D01*
X127488380Y-68350571D01*
X127440761Y-68207714D01*
X127393142Y-68160095D01*
X127059809Y-68160095D01*
X127059809Y-68350571D01*
X127488380Y-67731523D02*
X126821714Y-67731523D01*
X127012190Y-67731523D02*
X126916952Y-67683904D01*
X126869333Y-67636285D01*
X126821714Y-67541047D01*
X126821714Y-67445809D01*
X127488380Y-66969619D02*
X127440761Y-67064857D01*
X127393142Y-67112476D01*
X127297904Y-67160095D01*
X127012190Y-67160095D01*
X126916952Y-67112476D01*
X126869333Y-67064857D01*
X126821714Y-66969619D01*
X126821714Y-66826761D01*
X126869333Y-66731523D01*
X126916952Y-66683904D01*
X127012190Y-66636285D01*
X127297904Y-66636285D01*
X127393142Y-66683904D01*
X127440761Y-66731523D01*
X127488380Y-66826761D01*
X127488380Y-66969619D01*
X126821714Y-66302952D02*
X127488380Y-66064857D01*
X126821714Y-65826761D01*
X127440761Y-65064857D02*
X127488380Y-65160095D01*
X127488380Y-65350571D01*
X127440761Y-65445809D01*
X127345523Y-65493428D01*
X126964571Y-65493428D01*
X126869333Y-65445809D01*
X126821714Y-65350571D01*
X126821714Y-65160095D01*
X126869333Y-65064857D01*
X126964571Y-65017238D01*
X127059809Y-65017238D01*
X127155047Y-65493428D01*
X126583619Y-64636285D02*
X126536000Y-64588666D01*
X126488380Y-64493428D01*
X126488380Y-64255333D01*
X126536000Y-64160095D01*
X126583619Y-64112476D01*
X126678857Y-64064857D01*
X126774095Y-64064857D01*
X126916952Y-64112476D01*
X127488380Y-64683904D01*
X127488380Y-64064857D01*
X126536000Y-75827714D02*
X126488380Y-75922952D01*
X126488380Y-76065809D01*
X126536000Y-76208666D01*
X126631238Y-76303904D01*
X126726476Y-76351523D01*
X126916952Y-76399142D01*
X127059809Y-76399142D01*
X127250285Y-76351523D01*
X127345523Y-76303904D01*
X127440761Y-76208666D01*
X127488380Y-76065809D01*
X127488380Y-75970571D01*
X127440761Y-75827714D01*
X127393142Y-75780095D01*
X127059809Y-75780095D01*
X127059809Y-75970571D01*
X127488380Y-75351523D02*
X126821714Y-75351523D01*
X127012190Y-75351523D02*
X126916952Y-75303904D01*
X126869333Y-75256285D01*
X126821714Y-75161047D01*
X126821714Y-75065809D01*
X127488380Y-74589619D02*
X127440761Y-74684857D01*
X127393142Y-74732476D01*
X127297904Y-74780095D01*
X127012190Y-74780095D01*
X126916952Y-74732476D01*
X126869333Y-74684857D01*
X126821714Y-74589619D01*
X126821714Y-74446761D01*
X126869333Y-74351523D01*
X126916952Y-74303904D01*
X127012190Y-74256285D01*
X127297904Y-74256285D01*
X127393142Y-74303904D01*
X127440761Y-74351523D01*
X127488380Y-74446761D01*
X127488380Y-74589619D01*
X126821714Y-73922952D02*
X127488380Y-73684857D01*
X126821714Y-73446761D01*
X127440761Y-72684857D02*
X127488380Y-72780095D01*
X127488380Y-72970571D01*
X127440761Y-73065809D01*
X127345523Y-73113428D01*
X126964571Y-73113428D01*
X126869333Y-73065809D01*
X126821714Y-72970571D01*
X126821714Y-72780095D01*
X126869333Y-72684857D01*
X126964571Y-72637238D01*
X127059809Y-72637238D01*
X127155047Y-73113428D01*
X127488380Y-71684857D02*
X127488380Y-72256285D01*
X127488380Y-71970571D02*
X126488380Y-71970571D01*
X126631238Y-72065809D01*
X126726476Y-72161047D01*
X126774095Y-72256285D01*
X126488380Y-52777238D02*
X127297904Y-52777238D01*
X127393142Y-52729619D01*
X127440761Y-52682000D01*
X127488380Y-52586761D01*
X127488380Y-52396285D01*
X127440761Y-52301047D01*
X127393142Y-52253428D01*
X127297904Y-52205809D01*
X126488380Y-52205809D01*
X127202666Y-51777238D02*
X127202666Y-51301047D01*
X127488380Y-51872476D02*
X126488380Y-51539142D01*
X127488380Y-51205809D01*
X127488380Y-50301047D02*
X127012190Y-50634380D01*
X127488380Y-50872476D02*
X126488380Y-50872476D01*
X126488380Y-50491523D01*
X126536000Y-50396285D01*
X126583619Y-50348666D01*
X126678857Y-50301047D01*
X126821714Y-50301047D01*
X126916952Y-50348666D01*
X126964571Y-50396285D01*
X127012190Y-50491523D01*
X127012190Y-50872476D01*
X126488380Y-50015333D02*
X126488380Y-49443904D01*
X127488380Y-49729619D02*
X126488380Y-49729619D01*
X127452380Y-44156190D02*
X126452380Y-44156190D01*
X126547619Y-43727619D02*
X126500000Y-43680000D01*
X126452380Y-43584761D01*
X126452380Y-43346666D01*
X126500000Y-43251428D01*
X126547619Y-43203809D01*
X126642857Y-43156190D01*
X126738095Y-43156190D01*
X126880952Y-43203809D01*
X127452380Y-43775238D01*
X127452380Y-43156190D01*
X127357142Y-42156190D02*
X127404761Y-42203809D01*
X127452380Y-42346666D01*
X127452380Y-42441904D01*
X127404761Y-42584761D01*
X127309523Y-42680000D01*
X127214285Y-42727619D01*
X127023809Y-42775238D01*
X126880952Y-42775238D01*
X126690476Y-42727619D01*
X126595238Y-42680000D01*
X126500000Y-42584761D01*
X126452380Y-42441904D01*
X126452380Y-42346666D01*
X126500000Y-42203809D01*
X126547619Y-42156190D01*
X155007095Y-60412380D02*
X154530904Y-60412380D01*
X154483285Y-60888571D01*
X154530904Y-60840952D01*
X154626142Y-60793333D01*
X154864238Y-60793333D01*
X154959476Y-60840952D01*
X155007095Y-60888571D01*
X155054714Y-60983809D01*
X155054714Y-61221904D01*
X155007095Y-61317142D01*
X154959476Y-61364761D01*
X154864238Y-61412380D01*
X154626142Y-61412380D01*
X154530904Y-61364761D01*
X154483285Y-61317142D01*
X154578523Y-63952380D02*
X154007095Y-63952380D01*
X154292809Y-63952380D02*
X154292809Y-62952380D01*
X154197571Y-63095238D01*
X154102333Y-63190476D01*
X154007095Y-63238095D01*
X154911857Y-62952380D02*
X155578523Y-62952380D01*
X155149952Y-63952380D01*
X154578523Y-66492380D02*
X154007095Y-66492380D01*
X154292809Y-66492380D02*
X154292809Y-65492380D01*
X154197571Y-65635238D01*
X154102333Y-65730476D01*
X154007095Y-65778095D01*
X155435666Y-65492380D02*
X155245190Y-65492380D01*
X155149952Y-65540000D01*
X155102333Y-65587619D01*
X155007095Y-65730476D01*
X154959476Y-65920952D01*
X154959476Y-66301904D01*
X155007095Y-66397142D01*
X155054714Y-66444761D01*
X155149952Y-66492380D01*
X155340428Y-66492380D01*
X155435666Y-66444761D01*
X155483285Y-66397142D01*
X155530904Y-66301904D01*
X155530904Y-66063809D01*
X155483285Y-65968571D01*
X155435666Y-65920952D01*
X155340428Y-65873333D01*
X155149952Y-65873333D01*
X155054714Y-65920952D01*
X155007095Y-65968571D01*
X154959476Y-66063809D01*
X154578523Y-76652380D02*
X154007095Y-76652380D01*
X154292809Y-76652380D02*
X154292809Y-75652380D01*
X154197571Y-75795238D01*
X154102333Y-75890476D01*
X154007095Y-75938095D01*
X155483285Y-75652380D02*
X155007095Y-75652380D01*
X154959476Y-76128571D01*
X155007095Y-76080952D01*
X155102333Y-76033333D01*
X155340428Y-76033333D01*
X155435666Y-76080952D01*
X155483285Y-76128571D01*
X155530904Y-76223809D01*
X155530904Y-76461904D01*
X155483285Y-76557142D01*
X155435666Y-76604761D01*
X155340428Y-76652380D01*
X155102333Y-76652380D01*
X155007095Y-76604761D01*
X154959476Y-76557142D01*
X154483285Y-73207619D02*
X154530904Y-73160000D01*
X154626142Y-73112380D01*
X154864238Y-73112380D01*
X154959476Y-73160000D01*
X155007095Y-73207619D01*
X155054714Y-73302857D01*
X155054714Y-73398095D01*
X155007095Y-73540952D01*
X154435666Y-74112380D01*
X155054714Y-74112380D01*
X154721380Y-70572380D02*
X154816619Y-70572380D01*
X154911857Y-70620000D01*
X154959476Y-70667619D01*
X155007095Y-70762857D01*
X155054714Y-70953333D01*
X155054714Y-71191428D01*
X155007095Y-71381904D01*
X154959476Y-71477142D01*
X154911857Y-71524761D01*
X154816619Y-71572380D01*
X154721380Y-71572380D01*
X154626142Y-71524761D01*
X154578523Y-71477142D01*
X154530904Y-71381904D01*
X154483285Y-71191428D01*
X154483285Y-70953333D01*
X154530904Y-70762857D01*
X154578523Y-70667619D01*
X154626142Y-70620000D01*
X154721380Y-70572380D01*
X154959476Y-68365714D02*
X154959476Y-69032380D01*
X154721380Y-67984761D02*
X154483285Y-68699047D01*
X155102333Y-68699047D01*
X137056761Y-86939047D02*
X137104380Y-86796190D01*
X137104380Y-86558095D01*
X137056761Y-86462857D01*
X137009142Y-86415238D01*
X136913904Y-86367619D01*
X136818666Y-86367619D01*
X136723428Y-86415238D01*
X136675809Y-86462857D01*
X136628190Y-86558095D01*
X136580571Y-86748571D01*
X136532952Y-86843809D01*
X136485333Y-86891428D01*
X136390095Y-86939047D01*
X136294857Y-86939047D01*
X136199619Y-86891428D01*
X136152000Y-86843809D01*
X136104380Y-86748571D01*
X136104380Y-86510476D01*
X136152000Y-86367619D01*
X137104380Y-85939047D02*
X136104380Y-85939047D01*
X136104380Y-85558095D01*
X136152000Y-85462857D01*
X136199619Y-85415238D01*
X136294857Y-85367619D01*
X136437714Y-85367619D01*
X136532952Y-85415238D01*
X136580571Y-85462857D01*
X136628190Y-85558095D01*
X136628190Y-85939047D01*
X136580571Y-84939047D02*
X136580571Y-84605714D01*
X137104380Y-84462857D02*
X137104380Y-84939047D01*
X136104380Y-84939047D01*
X136104380Y-84462857D01*
X136818666Y-84081904D02*
X136818666Y-83605714D01*
X137104380Y-84177142D02*
X136104380Y-83843809D01*
X137104380Y-83510476D01*
X137104380Y-83177142D02*
X136104380Y-83177142D01*
X137104380Y-82605714D02*
X136532952Y-83034285D01*
X136104380Y-82605714D02*
X136675809Y-83177142D01*
X136580571Y-82177142D02*
X136580571Y-81843809D01*
X137104380Y-81700952D02*
X137104380Y-82177142D01*
X136104380Y-82177142D01*
X136104380Y-81700952D01*
X137104380Y-80700952D02*
X136628190Y-81034285D01*
X137104380Y-81272380D02*
X136104380Y-81272380D01*
X136104380Y-80891428D01*
X136152000Y-80796190D01*
X136199619Y-80748571D01*
X136294857Y-80700952D01*
X136437714Y-80700952D01*
X136532952Y-80748571D01*
X136580571Y-80796190D01*
X136628190Y-80891428D01*
X136628190Y-81272380D01*
X113027876Y-79226979D02*
X113050908Y-79290261D01*
X113033692Y-79439858D01*
X112993443Y-79526173D01*
X112889911Y-79635521D01*
X112763347Y-79681587D01*
X112656907Y-79684495D01*
X112464152Y-79647154D01*
X112334680Y-79586780D01*
X112182174Y-79463123D01*
X112115984Y-79379716D01*
X112069918Y-79253152D01*
X112087135Y-79103555D01*
X112127384Y-79017240D01*
X112230916Y-78907892D01*
X112294198Y-78884859D01*
X113476435Y-78490393D02*
X113001702Y-78269021D01*
X112895262Y-78271929D01*
X112811856Y-78338120D01*
X112731357Y-78510750D01*
X112734265Y-78617190D01*
X113433277Y-78470268D02*
X113436185Y-78576708D01*
X113335562Y-78792495D01*
X113252155Y-78858686D01*
X113145715Y-78861594D01*
X113059400Y-78821345D01*
X112993210Y-78737938D01*
X112990302Y-78631498D01*
X113090925Y-78415710D01*
X113088017Y-78309271D01*
X113073476Y-77777072D02*
X113979784Y-78199690D01*
X113116634Y-77797197D02*
X113113726Y-77690757D01*
X113194224Y-77518127D01*
X113277631Y-77451937D01*
X113340914Y-77428904D01*
X113447353Y-77425996D01*
X113706298Y-77546744D01*
X113772489Y-77630151D01*
X113795522Y-77693433D01*
X113798430Y-77799873D01*
X113717931Y-77972503D01*
X113634524Y-78038693D01*
X114281422Y-76764092D02*
X114039926Y-77281982D01*
X114160674Y-77023037D02*
X113254366Y-76600419D01*
X113343589Y-76747108D01*
X113389655Y-76873672D01*
X113392563Y-76980112D01*
X93056886Y-65439328D02*
X93062755Y-65506416D01*
X93007407Y-65646460D01*
X92946189Y-65719416D01*
X92817884Y-65798242D01*
X92683709Y-65809981D01*
X92580144Y-65785241D01*
X92403622Y-65699284D01*
X92294187Y-65607457D01*
X92178882Y-65448543D01*
X92136535Y-65350847D01*
X92124796Y-65216672D01*
X92180144Y-65076629D01*
X92241362Y-65003672D01*
X92369667Y-64924846D01*
X92436755Y-64918977D01*
X93680803Y-64843937D02*
X93279542Y-64507238D01*
X93175976Y-64482499D01*
X93078280Y-64524847D01*
X92955844Y-64670760D01*
X92931105Y-64774325D01*
X93644325Y-64813328D02*
X93619585Y-64916893D01*
X93466541Y-65099285D01*
X93368845Y-65141633D01*
X93265279Y-65116893D01*
X93192322Y-65055675D01*
X93149975Y-64957979D01*
X93174714Y-64854413D01*
X93327759Y-64672022D01*
X93352498Y-64568456D01*
X93476196Y-64050629D02*
X94242241Y-64693416D01*
X93512675Y-64081238D02*
X93537414Y-63977672D01*
X93659850Y-63831759D01*
X93757546Y-63789411D01*
X93824633Y-63783542D01*
X93928199Y-63808281D01*
X94147069Y-63991935D01*
X94189416Y-64089631D01*
X94195286Y-64156718D01*
X94170546Y-64260284D01*
X94048110Y-64406197D01*
X93950414Y-64448545D01*
X93844766Y-63240974D02*
X93838896Y-63173887D01*
X93863636Y-63070322D01*
X94016680Y-62887930D01*
X94114377Y-62845582D01*
X94181464Y-62839713D01*
X94285029Y-62864453D01*
X94357986Y-62925670D01*
X94436812Y-63053976D01*
X94507244Y-63859022D01*
X94905161Y-63384804D01*
X93926288Y-53169194D02*
X93993375Y-53175064D01*
X94121680Y-53253890D01*
X94182898Y-53326846D01*
X94238247Y-53466890D01*
X94226508Y-53601065D01*
X94184160Y-53698761D01*
X94068856Y-53857675D01*
X93959421Y-53949502D01*
X93782899Y-54035459D01*
X93679333Y-54060199D01*
X93545159Y-54048460D01*
X93416854Y-53969634D01*
X93355636Y-53896677D01*
X93300287Y-53756634D01*
X93306157Y-53689546D01*
X93448284Y-52451367D02*
X93047022Y-52788065D01*
X93004675Y-52885761D01*
X93029414Y-52989327D01*
X93151850Y-53135240D01*
X93249546Y-53177588D01*
X93411805Y-52481976D02*
X93509501Y-52524324D01*
X93662546Y-52706715D01*
X93687286Y-52810281D01*
X93644938Y-52907977D01*
X93571981Y-52969195D01*
X93468416Y-52993934D01*
X93370720Y-52951587D01*
X93217675Y-52769195D01*
X93119979Y-52726847D01*
X92631498Y-52515109D02*
X93397542Y-51872321D01*
X92667976Y-52484500D02*
X92570280Y-52442152D01*
X92447844Y-52296239D01*
X92423105Y-52192674D01*
X92428974Y-52125586D01*
X92471322Y-52027890D01*
X92690192Y-51844237D01*
X92793757Y-51819497D01*
X92860845Y-51825366D01*
X92958541Y-51867714D01*
X93080976Y-52013627D01*
X93105716Y-52117193D01*
X91855798Y-52109240D02*
X91457882Y-51635022D01*
X91963971Y-51645499D01*
X91872144Y-51536064D01*
X91847404Y-51432499D01*
X91853274Y-51365411D01*
X91895622Y-51267715D01*
X92078013Y-51114670D01*
X92181579Y-51089931D01*
X92248666Y-51095800D01*
X92346362Y-51138148D01*
X92530016Y-51357018D01*
X92554755Y-51460583D01*
X92548886Y-51527671D01*
X172035093Y-68929494D02*
X172147761Y-68829586D01*
X172212810Y-68812156D01*
X172319098Y-68818536D01*
X172442816Y-68889965D01*
X172501485Y-68978823D01*
X172518915Y-69043872D01*
X172512535Y-69150160D01*
X172322059Y-69480074D01*
X171456033Y-68980074D01*
X171622700Y-68691399D01*
X171711558Y-68632730D01*
X171776607Y-68615300D01*
X171882895Y-68621680D01*
X171965374Y-68669299D01*
X172024043Y-68758157D01*
X172041473Y-68823206D01*
X172035093Y-68929494D01*
X171868426Y-69218170D01*
X172550813Y-68512431D02*
X172788908Y-68100038D01*
X172750630Y-68737767D02*
X172051271Y-67949092D01*
X173083963Y-68160417D01*
X172313176Y-67495459D02*
X172598890Y-67000588D01*
X173322059Y-67748024D02*
X172456033Y-67248024D01*
X172285367Y-50244313D02*
X172984725Y-49455638D01*
X171952033Y-49666963D01*
X172651392Y-48878288D02*
X171785367Y-49378288D01*
X172413297Y-48465895D02*
X171547271Y-48965895D01*
X172127582Y-47971023D01*
X171261557Y-48471023D01*
X157043380Y-35361380D02*
X156567190Y-35694714D01*
X157043380Y-35932809D02*
X156043380Y-35932809D01*
X156043380Y-35551857D01*
X156091000Y-35456619D01*
X156138619Y-35409000D01*
X156233857Y-35361380D01*
X156376714Y-35361380D01*
X156471952Y-35409000D01*
X156519571Y-35456619D01*
X156567190Y-35551857D01*
X156567190Y-35932809D01*
X156519571Y-34932809D02*
X156519571Y-34599476D01*
X157043380Y-34456619D02*
X157043380Y-34932809D01*
X156043380Y-34932809D01*
X156043380Y-34456619D01*
X156995761Y-34075666D02*
X157043380Y-33932809D01*
X157043380Y-33694714D01*
X156995761Y-33599476D01*
X156948142Y-33551857D01*
X156852904Y-33504238D01*
X156757666Y-33504238D01*
X156662428Y-33551857D01*
X156614809Y-33599476D01*
X156567190Y-33694714D01*
X156519571Y-33885190D01*
X156471952Y-33980428D01*
X156424333Y-34028047D01*
X156329095Y-34075666D01*
X156233857Y-34075666D01*
X156138619Y-34028047D01*
X156091000Y-33980428D01*
X156043380Y-33885190D01*
X156043380Y-33647095D01*
X156091000Y-33504238D01*
X156519571Y-33075666D02*
X156519571Y-32742333D01*
X157043380Y-32599476D02*
X157043380Y-33075666D01*
X156043380Y-33075666D01*
X156043380Y-32599476D01*
X156043380Y-32313761D02*
X156043380Y-31742333D01*
X157043380Y-32028047D02*
X156043380Y-32028047D01*
X109459095Y-58126380D02*
X109459095Y-58935904D01*
X109506714Y-59031142D01*
X109554333Y-59078761D01*
X109649571Y-59126380D01*
X109840047Y-59126380D01*
X109935285Y-59078761D01*
X109982904Y-59031142D01*
X110030523Y-58935904D01*
X110030523Y-58126380D01*
X110935285Y-58126380D02*
X110744809Y-58126380D01*
X110649571Y-58174000D01*
X110601952Y-58221619D01*
X110506714Y-58364476D01*
X110459095Y-58554952D01*
X110459095Y-58935904D01*
X110506714Y-59031142D01*
X110554333Y-59078761D01*
X110649571Y-59126380D01*
X110840047Y-59126380D01*
X110935285Y-59078761D01*
X110982904Y-59031142D01*
X111030523Y-58935904D01*
X111030523Y-58697809D01*
X110982904Y-58602571D01*
X110935285Y-58554952D01*
X110840047Y-58507333D01*
X110649571Y-58507333D01*
X110554333Y-58554952D01*
X110506714Y-58602571D01*
X110459095Y-58697809D01*
X139692142Y-62809380D02*
X139358809Y-62333190D01*
X139120714Y-62809380D02*
X139120714Y-61809380D01*
X139501666Y-61809380D01*
X139596904Y-61857000D01*
X139644523Y-61904619D01*
X139692142Y-61999857D01*
X139692142Y-62142714D01*
X139644523Y-62237952D01*
X139596904Y-62285571D01*
X139501666Y-62333190D01*
X139120714Y-62333190D01*
X140073095Y-61904619D02*
X140120714Y-61857000D01*
X140215952Y-61809380D01*
X140454047Y-61809380D01*
X140549285Y-61857000D01*
X140596904Y-61904619D01*
X140644523Y-61999857D01*
X140644523Y-62095095D01*
X140596904Y-62237952D01*
X140025476Y-62809380D01*
X140644523Y-62809380D01*
X140977857Y-61809380D02*
X141644523Y-61809380D01*
X141215952Y-62809380D01*
X136517142Y-62809380D02*
X136183809Y-62333190D01*
X135945714Y-62809380D02*
X135945714Y-61809380D01*
X136326666Y-61809380D01*
X136421904Y-61857000D01*
X136469523Y-61904619D01*
X136517142Y-61999857D01*
X136517142Y-62142714D01*
X136469523Y-62237952D01*
X136421904Y-62285571D01*
X136326666Y-62333190D01*
X135945714Y-62333190D01*
X136898095Y-61904619D02*
X136945714Y-61857000D01*
X137040952Y-61809380D01*
X137279047Y-61809380D01*
X137374285Y-61857000D01*
X137421904Y-61904619D01*
X137469523Y-61999857D01*
X137469523Y-62095095D01*
X137421904Y-62237952D01*
X136850476Y-62809380D01*
X137469523Y-62809380D01*
X138040952Y-62237952D02*
X137945714Y-62190333D01*
X137898095Y-62142714D01*
X137850476Y-62047476D01*
X137850476Y-61999857D01*
X137898095Y-61904619D01*
X137945714Y-61857000D01*
X138040952Y-61809380D01*
X138231428Y-61809380D01*
X138326666Y-61857000D01*
X138374285Y-61904619D01*
X138421904Y-61999857D01*
X138421904Y-62047476D01*
X138374285Y-62142714D01*
X138326666Y-62190333D01*
X138231428Y-62237952D01*
X138040952Y-62237952D01*
X137945714Y-62285571D01*
X137898095Y-62333190D01*
X137850476Y-62428428D01*
X137850476Y-62618904D01*
X137898095Y-62714142D01*
X137945714Y-62761761D01*
X138040952Y-62809380D01*
X138231428Y-62809380D01*
X138326666Y-62761761D01*
X138374285Y-62714142D01*
X138421904Y-62618904D01*
X138421904Y-62428428D01*
X138374285Y-62333190D01*
X138326666Y-62285571D01*
X138231428Y-62237952D01*
M02*
