G04 #@! TF.GenerationSoftware,KiCad,Pcbnew,(5.1.2-1)-1*
G04 #@! TF.CreationDate,2019-08-23T12:39:33+12:00*
G04 #@! TF.ProjectId,ccb,6363622e-6b69-4636-9164-5f7063625858,rev?*
G04 #@! TF.SameCoordinates,Original*
G04 #@! TF.FileFunction,Profile,NP*
%FSLAX46Y46*%
G04 Gerber Fmt 4.6, Leading zero omitted, Abs format (unit mm)*
G04 Created by KiCad (PCBNEW (5.1.2-1)-1) date 2019-08-23 12:39:33*
%MOMM*%
%LPD*%
G04 APERTURE LIST*
%ADD10C,0.200000*%
G04 APERTURE END LIST*
D10*
X90081959Y-63218197D02*
X90150823Y-63349562D01*
X90150823Y-63349562D02*
X90230258Y-63470768D01*
X90230258Y-63470768D02*
X90319633Y-63582075D01*
X90319633Y-63582075D02*
X90418920Y-63683990D01*
X90418920Y-63683990D02*
X90527416Y-63775931D01*
X90527416Y-63775931D02*
X90646849Y-63858858D01*
X90646849Y-63858858D02*
X90776818Y-63931407D01*
X90776818Y-63931407D02*
X90916764Y-63992127D01*
X90916764Y-63992127D02*
X91069318Y-64040350D01*
X91069318Y-64040350D02*
X91236113Y-64073653D01*
X91236113Y-64073653D02*
X91421464Y-64088310D01*
X91421464Y-64088310D02*
X91619209Y-64078546D01*
X91619209Y-64078546D02*
X91789357Y-64048664D01*
X91789357Y-64048664D02*
X91945453Y-64002661D01*
X91945453Y-64002661D02*
X92088144Y-63943593D01*
X92088144Y-63943593D02*
X92141253Y-63917081D01*
X89075011Y-58928000D02*
X89077248Y-59126232D01*
X89077248Y-59126232D02*
X89083854Y-59322521D01*
X89083854Y-59322521D02*
X89094509Y-59514628D01*
X89094509Y-59514628D02*
X89108879Y-59702143D01*
X89108879Y-59702143D02*
X89126610Y-59884680D01*
X89126610Y-59884680D02*
X89147829Y-60065836D01*
X89147829Y-60065836D02*
X89172416Y-60245424D01*
X89172416Y-60245424D02*
X89200227Y-60423263D01*
X89200227Y-60423263D02*
X89230351Y-60595058D01*
X89230351Y-60595058D02*
X89264912Y-60772985D01*
X89264912Y-60772985D02*
X89300532Y-60940335D01*
X89300532Y-60940335D02*
X89338558Y-61105182D01*
X89338558Y-61105182D02*
X89378815Y-61267384D01*
X89378815Y-61267384D02*
X89421119Y-61426799D01*
X89421119Y-61426799D02*
X89465284Y-61583297D01*
X89465284Y-61583297D02*
X89512473Y-61741152D01*
X89512473Y-61741152D02*
X89561307Y-61895909D01*
X89561307Y-61895909D02*
X89611588Y-62047447D01*
X89611588Y-62047447D02*
X89664718Y-62200157D01*
X89664718Y-62200157D02*
X89719062Y-62349487D01*
X89719062Y-62349487D02*
X89776184Y-62499900D01*
X89776184Y-62499900D02*
X89834277Y-62646780D01*
X89834277Y-62646780D02*
X89895064Y-62794658D01*
X89895064Y-62794658D02*
X89956567Y-62938858D01*
X89956567Y-62938858D02*
X90018570Y-63079280D01*
X90018570Y-63079280D02*
X90081959Y-63218197D01*
X92785217Y-55915399D02*
X92843286Y-55770202D01*
X92843286Y-55770202D02*
X92888352Y-55613181D01*
X92888352Y-55613181D02*
X92918165Y-55441020D01*
X92918165Y-55441020D02*
X92928412Y-55250395D01*
X92928412Y-55250395D02*
X92915449Y-55062948D01*
X92915449Y-55062948D02*
X92883737Y-54894617D01*
X92883737Y-54894617D02*
X92836826Y-54740479D01*
X92836826Y-54740479D02*
X92776563Y-54598014D01*
X92776563Y-54598014D02*
X92705367Y-54468171D01*
X92705367Y-54468171D02*
X92623347Y-54348445D01*
X92623347Y-54348445D02*
X92529774Y-54237235D01*
X92529774Y-54237235D02*
X92426814Y-54136879D01*
X92426814Y-54136879D02*
X92313097Y-54046043D01*
X92313097Y-54046043D02*
X92190958Y-53966759D01*
X92190958Y-53966759D02*
X92131613Y-53933972D01*
X92131613Y-53933972D02*
X92128786Y-53932491D01*
X92144375Y-63915446D02*
X92272393Y-63840177D01*
X92272393Y-63840177D02*
X92389406Y-63754947D01*
X92389406Y-63754947D02*
X92495951Y-63660230D01*
X92495951Y-63660230D02*
X92592670Y-63555843D01*
X92592670Y-63555843D02*
X92679445Y-63441771D01*
X92679445Y-63441771D02*
X92755996Y-63317654D01*
X92755996Y-63317654D02*
X92822039Y-63182018D01*
X92822039Y-63182018D02*
X92875910Y-63034788D01*
X92875910Y-63034788D02*
X92916104Y-62873355D01*
X92916104Y-62873355D02*
X92939383Y-62696228D01*
X92939383Y-62696228D02*
X92940742Y-62496183D01*
X92940742Y-62496183D02*
X92919323Y-62315267D01*
X92919323Y-62315267D02*
X92881187Y-62153124D01*
X92881187Y-62153124D02*
X92828364Y-62001928D01*
X92828364Y-62001928D02*
X92800726Y-61938192D01*
X92141253Y-63917081D02*
X92144375Y-63915446D01*
X92800726Y-61938192D02*
X92737396Y-61797583D01*
X92737396Y-61797583D02*
X92676819Y-61657063D01*
X92676819Y-61657063D02*
X92618344Y-61514990D01*
X92618344Y-61514990D02*
X92560854Y-61368143D01*
X92560854Y-61368143D02*
X92505989Y-61220190D01*
X92505989Y-61220190D02*
X92453903Y-61071315D01*
X92453903Y-61071315D02*
X92403716Y-60918482D01*
X92403716Y-60918482D02*
X92355839Y-60762073D01*
X92355839Y-60762073D02*
X92311502Y-60605584D01*
X92311502Y-60605584D02*
X92270053Y-60446210D01*
X92270053Y-60446210D02*
X92231846Y-60284389D01*
X92231846Y-60284389D02*
X92196632Y-60117695D01*
X92196632Y-60117695D02*
X92164982Y-59946855D01*
X92164982Y-59946855D02*
X92137420Y-59772643D01*
X92137420Y-59772643D02*
X92114120Y-59593263D01*
X92114120Y-59593263D02*
X92095647Y-59408623D01*
X92095647Y-59408623D02*
X92082723Y-59220164D01*
X92082723Y-59220164D02*
X92075877Y-59025977D01*
X92075877Y-59025977D02*
X92075000Y-58928000D01*
X90059550Y-54654981D02*
X89996788Y-54793579D01*
X89996788Y-54793579D02*
X89932444Y-54940666D01*
X89932444Y-54940666D02*
X89868130Y-55093301D01*
X89868130Y-55093301D02*
X89807703Y-55242454D01*
X89807703Y-55242454D02*
X89750819Y-55388579D01*
X89750819Y-55388579D02*
X89694936Y-55538252D01*
X89694936Y-55538252D02*
X89641460Y-55687932D01*
X89641460Y-55687932D02*
X89586813Y-55848352D01*
X89586813Y-55848352D02*
X89537669Y-56000105D01*
X89537669Y-56000105D02*
X89488383Y-56160616D01*
X89488383Y-56160616D02*
X89440981Y-56324278D01*
X89440981Y-56324278D02*
X89396582Y-56487486D01*
X89396582Y-56487486D02*
X89355293Y-56649699D01*
X89355293Y-56649699D02*
X89316709Y-56812472D01*
X89316709Y-56812472D02*
X89279974Y-56979994D01*
X89279974Y-56979994D02*
X89245343Y-57152307D01*
X89245343Y-57152307D02*
X89212527Y-57332625D01*
X89212527Y-57332625D02*
X89184331Y-57505646D01*
X89184331Y-57505646D02*
X89159000Y-57681395D01*
X89159000Y-57681395D02*
X89136619Y-57860423D01*
X89136619Y-57860423D02*
X89117326Y-58043288D01*
X89117326Y-58043288D02*
X89101475Y-58228410D01*
X89101475Y-58228410D02*
X89089019Y-58419040D01*
X89089019Y-58419040D02*
X89080374Y-58613063D01*
X89080374Y-58613063D02*
X89075674Y-58817019D01*
X89075674Y-58817019D02*
X89075011Y-58928000D01*
X92128786Y-53932491D02*
X91990923Y-53868813D01*
X91990923Y-53868813D02*
X91841668Y-53817747D01*
X91841668Y-53817747D02*
X91677574Y-53781134D01*
X91677574Y-53781134D02*
X91495583Y-53762829D01*
X91495583Y-53762829D02*
X91300535Y-53768269D01*
X91300535Y-53768269D02*
X91126648Y-53795023D01*
X91126648Y-53795023D02*
X90969025Y-53837918D01*
X90969025Y-53837918D02*
X90823764Y-53894468D01*
X90823764Y-53894468D02*
X90686720Y-53964633D01*
X90686720Y-53964633D02*
X90564050Y-54043530D01*
X90564050Y-54043530D02*
X90451676Y-54131864D01*
X90451676Y-54131864D02*
X90348458Y-54229893D01*
X90348458Y-54229893D02*
X90254214Y-54337831D01*
X90254214Y-54337831D02*
X90169868Y-54454953D01*
X90169868Y-54454953D02*
X90095804Y-54581301D01*
X90095804Y-54581301D02*
X90059550Y-54654981D01*
X92075000Y-58928000D02*
X92078466Y-58723812D01*
X92078466Y-58723812D02*
X92088281Y-58527510D01*
X92088281Y-58527510D02*
X92103438Y-58340659D01*
X92103438Y-58340659D02*
X92123723Y-58157557D01*
X92123723Y-58157557D02*
X92148284Y-57981179D01*
X92148284Y-57981179D02*
X92177279Y-57807214D01*
X92177279Y-57807214D02*
X92210147Y-57637164D01*
X92210147Y-57637164D02*
X92246524Y-57471081D01*
X92246524Y-57471081D02*
X92286810Y-57306053D01*
X92286810Y-57306053D02*
X92330052Y-57145065D01*
X92330052Y-57145065D02*
X92376361Y-56986676D01*
X92376361Y-56986676D02*
X92427455Y-56824972D01*
X92427455Y-56824972D02*
X92480928Y-56667383D01*
X92480928Y-56667383D02*
X92537007Y-56512459D01*
X92537007Y-56512459D02*
X92593119Y-56366199D01*
X92593119Y-56366199D02*
X92651155Y-56222675D01*
X92651155Y-56222675D02*
X92710917Y-56081908D01*
X92710917Y-56081908D02*
X92772893Y-55942418D01*
X92772893Y-55942418D02*
X92785217Y-55915399D01*
X87197129Y-58721828D02*
X87198759Y-58520356D01*
X87198759Y-58520356D02*
X87203559Y-58322092D01*
X87203559Y-58322092D02*
X87211514Y-58124343D01*
X87211514Y-58124343D02*
X87222602Y-57927107D01*
X87222602Y-57927107D02*
X87236381Y-57735701D01*
X87236381Y-57735701D02*
X87253601Y-57539488D01*
X87253601Y-57539488D02*
X87272729Y-57354363D01*
X87272729Y-57354363D02*
X87293934Y-57174969D01*
X87293934Y-57174969D02*
X87318454Y-56990762D01*
X87318454Y-56990762D02*
X87344874Y-56812267D01*
X87344874Y-56812267D02*
X87372953Y-56639445D01*
X87372953Y-56639445D02*
X87403420Y-56467040D01*
X87403420Y-56467040D02*
X87436262Y-56295057D01*
X87436262Y-56295057D02*
X87470368Y-56128688D01*
X87470368Y-56128688D02*
X87506683Y-55962712D01*
X87506683Y-55962712D02*
X87545198Y-55797134D01*
X87545198Y-55797134D02*
X87585901Y-55631953D01*
X87585901Y-55631953D02*
X87632914Y-55451746D01*
X87632914Y-55451746D02*
X87676716Y-55292532D01*
X87676716Y-55292532D02*
X87728599Y-55113225D01*
X87728599Y-55113225D02*
X87776693Y-54954811D01*
X87776693Y-54954811D02*
X87825139Y-54801869D01*
X87825139Y-54801869D02*
X87875449Y-54649280D01*
X87875449Y-54649280D02*
X87927614Y-54497046D01*
X87927614Y-54497046D02*
X87981623Y-54345167D01*
X87981623Y-54345167D02*
X88037468Y-54193646D01*
X88037468Y-54193646D02*
X88093188Y-54047516D01*
X88093188Y-54047516D02*
X88150605Y-53901717D01*
X88150605Y-53901717D02*
X88209712Y-53756256D01*
X88209712Y-53756256D02*
X88270501Y-53611129D01*
X88270501Y-53611129D02*
X88330782Y-53471325D01*
X88330782Y-53471325D02*
X88394852Y-53326860D01*
X88394852Y-53326860D02*
X88458283Y-53187697D01*
X88458283Y-53187697D02*
X88523251Y-53048848D01*
X88523251Y-53048848D02*
X88594557Y-52900433D01*
X88594557Y-52900433D02*
X88662687Y-52762242D01*
X88662687Y-52762242D02*
X88732329Y-52624365D01*
X88732329Y-52624365D02*
X88806046Y-52481900D01*
X88806046Y-52481900D02*
X88876125Y-52349567D01*
X88876125Y-52349567D02*
X88947589Y-52217531D01*
X88947589Y-52217531D02*
X89020433Y-52085791D01*
X89020433Y-52085791D02*
X89094650Y-51954349D01*
X89094650Y-51954349D02*
X89170233Y-51823205D01*
X89170233Y-51823205D02*
X89244302Y-51697198D01*
X89244302Y-51697198D02*
X89328397Y-51556983D01*
X89328397Y-51556983D02*
X89408087Y-51426747D01*
X89408087Y-51426747D02*
X89486093Y-51301618D01*
X89486093Y-51301618D02*
X89571478Y-51167176D01*
X89571478Y-51167176D02*
X89655167Y-51037842D01*
X89655167Y-51037842D02*
X89737003Y-50913585D01*
X89737003Y-50913585D02*
X89823269Y-50784841D01*
X89823269Y-50784841D02*
X89914113Y-50651650D01*
X89914113Y-50651650D02*
X89996404Y-50533007D01*
X89996404Y-50533007D02*
X90079800Y-50414622D01*
X90079800Y-50414622D02*
X90167704Y-50291781D01*
X90167704Y-50291781D02*
X90260243Y-50164513D01*
X90260243Y-50164513D02*
X90354055Y-50037549D01*
X90354055Y-50037549D02*
X90445587Y-49915577D01*
X90445587Y-49915577D02*
X90538289Y-49793888D01*
X90538289Y-49793888D02*
X90646695Y-49653836D01*
X90646695Y-49653836D02*
X90741892Y-49532759D01*
X90741892Y-49532759D02*
X90830784Y-49421252D01*
X90830784Y-49421252D02*
X90920650Y-49309986D01*
X90920650Y-49309986D02*
X91011488Y-49198967D01*
X91011488Y-49198967D02*
X91122534Y-49065144D01*
X91122534Y-49065144D02*
X91215494Y-48954662D01*
X91215494Y-48954662D02*
X91333035Y-48816908D01*
X91333035Y-48816908D02*
X91428133Y-48706978D01*
X91428133Y-48706978D02*
X91528198Y-48592731D01*
X91528198Y-48592731D02*
X91629281Y-48478752D01*
X91629281Y-48478752D02*
X91731378Y-48365039D01*
X91731378Y-48365039D02*
X91830337Y-48256126D01*
X91830337Y-48256126D02*
X91946956Y-48129374D01*
X91946956Y-48129374D02*
X92043687Y-48025509D01*
X92043687Y-48025509D02*
X92141256Y-47921873D01*
X92141256Y-47921873D02*
X92282704Y-47773574D01*
X92282704Y-47773574D02*
X92382299Y-47670495D01*
X92382299Y-47670495D02*
X92495878Y-47554244D01*
X92495878Y-47554244D02*
X92597226Y-47451653D01*
X92597226Y-47451653D02*
X92699390Y-47349291D01*
X92699390Y-47349291D02*
X92851898Y-47198392D01*
X92851898Y-47198392D02*
X92960613Y-47092181D01*
X92960613Y-47092181D02*
X93065613Y-46990629D01*
X93065613Y-46990629D02*
X93180652Y-46880510D01*
X93180652Y-46880510D02*
X93287313Y-46779442D01*
X93287313Y-46779442D02*
X93394762Y-46678605D01*
X93394762Y-46678605D02*
X93517172Y-46564896D01*
X93517172Y-46564896D02*
X93626286Y-46464555D01*
X93626286Y-46464555D02*
X93731383Y-46368795D01*
X93731383Y-46368795D02*
X93837185Y-46273249D01*
X93837185Y-46273249D02*
X93943689Y-46177914D01*
X93943689Y-46177914D02*
X94055779Y-46078475D01*
X94055779Y-46078475D02*
X94163705Y-45983580D01*
X94163705Y-45983580D02*
X94282231Y-45880299D01*
X94282231Y-45880299D02*
X94391601Y-45785852D01*
X94391601Y-45785852D02*
X94501652Y-45691621D01*
X94501652Y-45691621D02*
X94612381Y-45597602D01*
X94612381Y-45597602D02*
X94723787Y-45503801D01*
X94723787Y-45503801D02*
X94835865Y-45410217D01*
X94835865Y-45410217D02*
X94948612Y-45316848D01*
X94948612Y-45316848D02*
X95062026Y-45223696D01*
X95062026Y-45223696D02*
X95181298Y-45126541D01*
X95181298Y-45126541D02*
X95296058Y-45033831D01*
X95296058Y-45033831D02*
X95411470Y-44941339D01*
X95411470Y-44941339D02*
X95540764Y-44838592D01*
X95540764Y-44838592D02*
X95654887Y-44748651D01*
X95654887Y-44748651D02*
X95772298Y-44656831D01*
X95772298Y-44656831D02*
X95884966Y-44569391D01*
X95884966Y-44569391D02*
X96003622Y-44478000D01*
X96003622Y-44478000D02*
X96128348Y-44382689D01*
X96128348Y-44382689D02*
X96261962Y-44281426D01*
X96261962Y-44281426D02*
X96382600Y-44190727D01*
X96382600Y-44190727D02*
X96506623Y-44098196D01*
X96506623Y-44098196D02*
X96634065Y-44003844D01*
X96634065Y-44003844D02*
X96767763Y-43905648D01*
X96767763Y-43905648D02*
X96885344Y-43819942D01*
X96885344Y-43819942D02*
X97009114Y-43730370D01*
X97009114Y-43730370D02*
X97139153Y-43636965D01*
X97139153Y-43636965D02*
X97258456Y-43551892D01*
X97258456Y-43551892D02*
X97392601Y-43456933D01*
X97392601Y-43456933D02*
X97518794Y-43368264D01*
X97518794Y-43368264D02*
X97642686Y-43281823D01*
X97642686Y-43281823D02*
X97770037Y-43193595D01*
X97770037Y-43193595D02*
X97892139Y-43109585D01*
X97892139Y-43109585D02*
X98014764Y-43025778D01*
X98014764Y-43025778D02*
X98143789Y-42938199D01*
X98143789Y-42938199D02*
X98267478Y-42854810D01*
X98267478Y-42854810D02*
X98391684Y-42771623D01*
X98391684Y-42771623D02*
X98513425Y-42690616D01*
X98513425Y-42690616D02*
X98635652Y-42609804D01*
X98635652Y-42609804D02*
X98761358Y-42527223D01*
X98761358Y-42527223D02*
X98887566Y-42444847D01*
X98887566Y-42444847D02*
X99014274Y-42362675D01*
X99014274Y-42362675D02*
X99138443Y-42282662D01*
X99138443Y-42282662D02*
X99284409Y-42189233D01*
X99284409Y-42189233D02*
X99409596Y-42109646D01*
X99409596Y-42109646D02*
X99544455Y-42024452D01*
X99544455Y-42024452D02*
X99667514Y-41947198D01*
X99667514Y-41947198D02*
X99812666Y-41856667D01*
X99812666Y-41856667D02*
X99939773Y-41777904D01*
X99939773Y-41777904D02*
X100064215Y-41701252D01*
X100064215Y-41701252D02*
X100195339Y-41620970D01*
X100195339Y-41620970D02*
X100323792Y-41542802D01*
X100323792Y-41542802D02*
X100474735Y-41451539D01*
X100474735Y-41451539D02*
X100616790Y-41366226D01*
X100616790Y-41366226D02*
X100743502Y-41290594D01*
X100743502Y-41290594D02*
X100880177Y-41209502D01*
X100880177Y-41209502D02*
X101030105Y-41121117D01*
X101030105Y-41121117D02*
X101161351Y-41044229D01*
X101161351Y-41044229D02*
X101293018Y-40967541D01*
X101293018Y-40967541D02*
X101421881Y-40892916D01*
X101421881Y-40892916D02*
X101557613Y-40814764D01*
X101557613Y-40814764D02*
X101693778Y-40736822D01*
X101693778Y-40736822D02*
X101830377Y-40659093D01*
X101830377Y-40659093D02*
X101973939Y-40577888D01*
X101973939Y-40577888D02*
X102108131Y-40502428D01*
X102108131Y-40502428D02*
X102255877Y-40419837D01*
X102255877Y-40419837D02*
X102397507Y-40341145D01*
X102397507Y-40341145D02*
X102526337Y-40269964D01*
X102526337Y-40269964D02*
X102662156Y-40195331D01*
X102662156Y-40195331D02*
X102788390Y-40126342D01*
X184118638Y-58721828D02*
X184117914Y-58927269D01*
X184117914Y-58927269D02*
X184115750Y-59132233D01*
X184115750Y-59132233D02*
X184112309Y-59328864D01*
X184112309Y-59328864D02*
X184107542Y-59525055D01*
X184107542Y-59525055D02*
X184101498Y-59719242D01*
X184101498Y-59719242D02*
X184094087Y-59914556D01*
X184094087Y-59914556D02*
X184085502Y-60106320D01*
X184085502Y-60106320D02*
X184074867Y-60311647D01*
X184074867Y-60311647D02*
X184063531Y-60504084D01*
X184063531Y-60504084D02*
X184050902Y-60696094D01*
X184050902Y-60696094D02*
X184036976Y-60887679D01*
X184036976Y-60887679D02*
X184020990Y-61088076D01*
X184020990Y-61088076D02*
X184004834Y-61274178D01*
X184004834Y-61274178D02*
X183987452Y-61459880D01*
X183987452Y-61459880D02*
X183969002Y-61643646D01*
X183969002Y-61643646D02*
X183948335Y-61836177D01*
X183948335Y-61836177D02*
X183927775Y-62016088D01*
X183927775Y-62016088D02*
X183905678Y-62198660D01*
X183905678Y-62198660D02*
X183882978Y-62376287D01*
X183882978Y-62376287D02*
X183857888Y-62562623D01*
X183857888Y-62562623D02*
X183832856Y-62739488D01*
X183832856Y-62739488D02*
X183804400Y-62931051D01*
X183804400Y-62931051D02*
X183777241Y-63105642D01*
X183777241Y-63105642D02*
X183746980Y-63291871D01*
X183746980Y-63291871D02*
X183717008Y-63468707D01*
X183717008Y-63468707D02*
X183686957Y-63639191D01*
X183686957Y-63639191D02*
X183654171Y-63818272D01*
X183654171Y-63818272D02*
X183620776Y-63993994D01*
X183620776Y-63993994D02*
X183583260Y-64184188D01*
X183583260Y-64184188D02*
X183548717Y-64353212D01*
X183548717Y-64353212D02*
X183512475Y-64524846D01*
X183512475Y-64524846D02*
X183476442Y-64690226D01*
X183476442Y-64690226D02*
X183438041Y-64861160D01*
X183438041Y-64861160D02*
X183399925Y-65025866D01*
X183399925Y-65025866D02*
X183360786Y-65190239D01*
X183360786Y-65190239D02*
X183319175Y-65360137D01*
X183319175Y-65360137D02*
X183277217Y-65526763D01*
X183277217Y-65526763D02*
X183232678Y-65698875D01*
X183232678Y-65698875D02*
X183185444Y-65876438D01*
X183185444Y-65876438D02*
X183141823Y-66036208D01*
X183141823Y-66036208D02*
X183096408Y-66198557D01*
X183096408Y-66198557D02*
X183051658Y-66354802D01*
X183051658Y-66354802D02*
X183005115Y-66513630D01*
X183005115Y-66513630D02*
X182955851Y-66677902D01*
X182955851Y-66677902D02*
X182908219Y-66833222D01*
X182908219Y-66833222D02*
X182859649Y-66988240D01*
X182859649Y-66988240D02*
X182806446Y-67154409D01*
X182806446Y-67154409D02*
X182750272Y-67325945D01*
X182750272Y-67325945D02*
X182698735Y-67480014D01*
X182698735Y-67480014D02*
X182645288Y-67636629D01*
X182645288Y-67636629D02*
X182589880Y-67795778D01*
X182589880Y-67795778D02*
X182532458Y-67957441D01*
X182532458Y-67957441D02*
X182477107Y-68110293D01*
X182477107Y-68110293D02*
X182412940Y-68284015D01*
X182412940Y-68284015D02*
X182354007Y-68440460D01*
X182354007Y-68440460D02*
X182296818Y-68589571D01*
X182296818Y-68589571D02*
X182239848Y-68735593D01*
X182239848Y-68735593D02*
X182182023Y-68881343D01*
X182182023Y-68881343D02*
X182123349Y-69026828D01*
X182123349Y-69026828D02*
X182064975Y-69169252D01*
X182064975Y-69169252D02*
X182001110Y-69322556D01*
X182001110Y-69322556D02*
X181930353Y-69489452D01*
X181930353Y-69489452D02*
X181868121Y-69633810D01*
X181868121Y-69633810D02*
X181803820Y-69780665D01*
X181803820Y-69780665D02*
X181739882Y-69924483D01*
X181739882Y-69924483D02*
X181675100Y-70068036D01*
X181675100Y-70068036D02*
X181605660Y-70219578D01*
X181605660Y-70219578D02*
X181541717Y-70357090D01*
X181541717Y-70357090D02*
X181475697Y-70497098D01*
X181475697Y-70497098D02*
X181406232Y-70642330D01*
X181406232Y-70642330D02*
X181341239Y-70776359D01*
X149225000Y-89503655D02*
X149021479Y-89503217D01*
X149021479Y-89503217D02*
X148820645Y-89501944D01*
X148820645Y-89501944D02*
X148618201Y-89499839D01*
X148618201Y-89499839D02*
X148414162Y-89496901D01*
X148414162Y-89496901D02*
X148217514Y-89493314D01*
X148217514Y-89493314D02*
X148019437Y-89488967D01*
X148019437Y-89488967D02*
X147819940Y-89483858D01*
X147819940Y-89483858D02*
X147619041Y-89477993D01*
X147619041Y-89477993D02*
X147416752Y-89471372D01*
X147416752Y-89471372D02*
X147222375Y-89464347D01*
X147222375Y-89464347D02*
X147026755Y-89456631D01*
X147026755Y-89456631D02*
X146829907Y-89448230D01*
X146829907Y-89448230D02*
X146631842Y-89439143D01*
X146631842Y-89439143D02*
X146432571Y-89429372D01*
X146432571Y-89429372D02*
X146241679Y-89419429D01*
X146241679Y-89419429D02*
X146040088Y-89408321D01*
X146040088Y-89408321D02*
X145847012Y-89397108D01*
X145847012Y-89397108D02*
X145652886Y-89385276D01*
X145652886Y-89385276D02*
X145457718Y-89372827D01*
X145457718Y-89372827D02*
X145261520Y-89359759D01*
X145261520Y-89359759D02*
X145064307Y-89346080D01*
X145064307Y-89346080D02*
X144876015Y-89332510D01*
X144876015Y-89332510D02*
X144686825Y-89318386D01*
X144686825Y-89318386D02*
X144496743Y-89303710D01*
X144496743Y-89303710D02*
X144305777Y-89288478D01*
X144305777Y-89288478D02*
X144113936Y-89272695D01*
X144113936Y-89272695D02*
X143921229Y-89256357D01*
X143921229Y-89256357D02*
X143727666Y-89239468D01*
X143727666Y-89239468D02*
X143533255Y-89222030D01*
X143533255Y-89222030D02*
X143348303Y-89205001D01*
X143348303Y-89205001D02*
X143162607Y-89187482D01*
X143162607Y-89187482D02*
X142976170Y-89169465D01*
X142976170Y-89169465D02*
X142789008Y-89150959D01*
X142789008Y-89150959D02*
X142601120Y-89131958D01*
X142601120Y-89131958D02*
X142412520Y-89112470D01*
X142412520Y-89112470D02*
X142223211Y-89092487D01*
X142223211Y-89092487D02*
X142033205Y-89072019D01*
X142033205Y-89072019D02*
X141831892Y-89049879D01*
X141831892Y-89049879D02*
X141651122Y-89029610D01*
X141651122Y-89029610D02*
X141437680Y-89005204D01*
X141437680Y-89005204D02*
X141255604Y-88983986D01*
X141255604Y-88983986D02*
X141072942Y-88962332D01*
X141072942Y-88962332D02*
X140889695Y-88940244D01*
X140889695Y-88940244D02*
X140705872Y-88917725D01*
X140705872Y-88917725D02*
X140510615Y-88893408D01*
X140510615Y-88893408D02*
X140325625Y-88869996D01*
X140325625Y-88869996D02*
X140107275Y-88841899D01*
X140107275Y-88841899D02*
X139921078Y-88817547D01*
X139921078Y-88817547D02*
X139734343Y-88792761D01*
X139734343Y-88792761D02*
X139547068Y-88767546D01*
X139547068Y-88767546D02*
X139370325Y-88743422D01*
X139370325Y-88743422D02*
X139193119Y-88718916D01*
X139193119Y-88718916D02*
X139015454Y-88694032D01*
X139015454Y-88694032D02*
X138837332Y-88668764D01*
X138837332Y-88668764D02*
X138658764Y-88643119D01*
X138658764Y-88643119D02*
X138474152Y-88616272D01*
X138474152Y-88616272D02*
X138277843Y-88587361D01*
X138277843Y-88587361D02*
X138097907Y-88560529D01*
X138097907Y-88560529D02*
X137911903Y-88532465D01*
X137911903Y-88532465D02*
X137680183Y-88497034D01*
X137680183Y-88497034D02*
X137487510Y-88467186D01*
X137487510Y-88467186D02*
X137305749Y-88438704D01*
X137305749Y-88438704D02*
X137117888Y-88408938D01*
X137117888Y-88408938D02*
X136941025Y-88380610D01*
X136941025Y-88380610D02*
X136758071Y-88351000D01*
X136758071Y-88351000D02*
X136568996Y-88320071D01*
X136568996Y-88320071D02*
X136391011Y-88290654D01*
X136391011Y-88290654D02*
X136218431Y-88261852D01*
X136218431Y-88261852D02*
X136045523Y-88232720D01*
X136045523Y-88232720D02*
X135849172Y-88199305D01*
X135849172Y-88199305D02*
X135675585Y-88169471D01*
X135675585Y-88169471D02*
X135501684Y-88139310D01*
X135501684Y-88139310D02*
X135327476Y-88108824D01*
X135327476Y-88108824D02*
X135152963Y-88078007D01*
X135152963Y-88078007D02*
X134978153Y-88046866D01*
X134978153Y-88046866D02*
X134803047Y-88015397D01*
X134803047Y-88015397D02*
X134621801Y-87982537D01*
X134621801Y-87982537D02*
X134428522Y-87947172D01*
X134428522Y-87947172D02*
X134252521Y-87914681D01*
X134252521Y-87914681D02*
X134076243Y-87881866D01*
X134076243Y-87881866D02*
X133899692Y-87848726D01*
X133899692Y-87848726D02*
X133699279Y-87810774D01*
X133699279Y-87810774D02*
X133516256Y-87775807D01*
X133516256Y-87775807D02*
X133344788Y-87742783D01*
X133344788Y-87742783D02*
X133167162Y-87708303D01*
X133167162Y-87708303D02*
X132989284Y-87673497D01*
X132989284Y-87673497D02*
X132811160Y-87638370D01*
X132811160Y-87638370D02*
X132614947Y-87599358D01*
X132614947Y-87599358D02*
X132442281Y-87564752D01*
X132442281Y-87564752D02*
X132275364Y-87531054D01*
X132275364Y-87531054D02*
X132084358Y-87492198D01*
X132084358Y-87492198D02*
X131899081Y-87454208D01*
X131899081Y-87454208D02*
X131731533Y-87419599D01*
X131731533Y-87419599D02*
X131563799Y-87384713D01*
X131563799Y-87384713D02*
X131389880Y-87348284D01*
X131389880Y-87348284D02*
X131197747Y-87307739D01*
X131197747Y-87307739D02*
X131017414Y-87269397D01*
X131017414Y-87269397D02*
X130848926Y-87233324D01*
X130848926Y-87233324D02*
X130668217Y-87194366D01*
X130668217Y-87194366D02*
X130487321Y-87155089D01*
X130487321Y-87155089D02*
X130318319Y-87118144D01*
X130318319Y-87118144D02*
X130149159Y-87080920D01*
X130149159Y-87080920D02*
X129979848Y-87043420D01*
X129979848Y-87043420D02*
X129798276Y-87002932D01*
X129798276Y-87002932D02*
X129634718Y-86966225D01*
X129634718Y-86966225D02*
X129471027Y-86929258D01*
X129471027Y-86929258D02*
X129295070Y-86889269D01*
X129295070Y-86889269D02*
X129125041Y-86850377D01*
X129125041Y-86850377D02*
X128960961Y-86812613D01*
X128960961Y-86812613D02*
X128784595Y-86771766D01*
X128784595Y-86771766D02*
X128608096Y-86730624D01*
X128608096Y-86730624D02*
X128437560Y-86690623D01*
X128437560Y-86690623D02*
X128273004Y-86651789D01*
X128273004Y-86651789D02*
X128108341Y-86612700D01*
X128108341Y-86612700D02*
X127925264Y-86568968D01*
X127925264Y-86568968D02*
X127754283Y-86527871D01*
X127754283Y-86527871D02*
X127589310Y-86487982D01*
X127589310Y-86487982D02*
X127424244Y-86447838D01*
X127424244Y-86447838D02*
X127252973Y-86405939D01*
X127252973Y-86405939D02*
X127081609Y-86363768D01*
X127081609Y-86363768D02*
X126904033Y-86319805D01*
X126904033Y-86319805D02*
X126738618Y-86278608D01*
X126738618Y-86278608D02*
X126567000Y-86235619D01*
X126567000Y-86235619D02*
X126395302Y-86192359D01*
X126395302Y-86192359D02*
X126211259Y-86145708D01*
X126211259Y-86145708D02*
X126045552Y-86103456D01*
X126045552Y-86103456D02*
X125855217Y-86054633D01*
X125855217Y-86054633D02*
X125677094Y-86008661D01*
X125677094Y-86008661D02*
X125511196Y-85965598D01*
X125511196Y-85965598D02*
X125351397Y-85923895D01*
X125351397Y-85923895D02*
X125191549Y-85881955D01*
X125191549Y-85881955D02*
X125019359Y-85836531D01*
X125019359Y-85836531D02*
X124859427Y-85794111D01*
X124859427Y-85794111D02*
X124699460Y-85751457D01*
X124699460Y-85751457D02*
X124539459Y-85708575D01*
X124539459Y-85708575D02*
X124379428Y-85665457D01*
X124379428Y-85665457D02*
X124182429Y-85612075D01*
X124182429Y-85612075D02*
X124022339Y-85568442D01*
X124022339Y-85568442D02*
X123849913Y-85521196D01*
X123849913Y-85521196D02*
X123683623Y-85475383D01*
X123683623Y-85475383D02*
X123517315Y-85429320D01*
X123517315Y-85429320D02*
X123332516Y-85377850D01*
X123332516Y-85377850D02*
X123172347Y-85332995D01*
X123172347Y-85332995D02*
X122999849Y-85284432D01*
X122999849Y-85284432D02*
X122796544Y-85226855D01*
X122796544Y-85226855D02*
X122624044Y-85177711D01*
X122624044Y-85177711D02*
X122457708Y-85130072D01*
X122457708Y-85130072D02*
X122254418Y-85071510D01*
X122254418Y-85071510D02*
X122081943Y-85021533D01*
X122081943Y-85021533D02*
X121915642Y-84973089D01*
X121915642Y-84973089D02*
X121737043Y-84920783D01*
X121737043Y-84920783D02*
X121533838Y-84860916D01*
X121533838Y-84860916D02*
X121342985Y-84804345D01*
X121342985Y-84804345D02*
X121164477Y-84751130D01*
X121164477Y-84751130D02*
X120998315Y-84701332D01*
X120998315Y-84701332D02*
X120832186Y-84651287D01*
X120832186Y-84651287D02*
X120678399Y-84604733D01*
X120678399Y-84604733D02*
X120524646Y-84557967D01*
X120524646Y-84557967D02*
X120334048Y-84499687D01*
X120334048Y-84499687D02*
X120106641Y-84429706D01*
X120106641Y-84429706D02*
X119867051Y-84355450D01*
X119867051Y-84355450D02*
X119652134Y-84288375D01*
X119652134Y-84288375D02*
X119455729Y-84226693D01*
X119455729Y-84226693D02*
X119253283Y-84162728D01*
X119253283Y-84162728D02*
X119057071Y-84100354D01*
X119057071Y-84100354D02*
X118885467Y-84045496D01*
X118885467Y-84045496D02*
X118732319Y-83996297D01*
X118732319Y-83996297D02*
X118573118Y-83944909D01*
X118573118Y-83944909D02*
X118377284Y-83881356D01*
X118377284Y-83881356D02*
X118120436Y-83797430D01*
X118120436Y-83797430D02*
X117961544Y-83745182D01*
X117961544Y-83745182D02*
X117790527Y-83688667D01*
X117790527Y-83688667D02*
X117595210Y-83623762D01*
X117595210Y-83623762D02*
X117418327Y-83564650D01*
X117418327Y-83564650D02*
X117217191Y-83497047D01*
X117217191Y-83497047D02*
X117052747Y-83441470D01*
X117052747Y-83441470D02*
X116876246Y-83381509D01*
X116876246Y-83381509D02*
X116718118Y-83327518D01*
X116718118Y-83327518D02*
X116560099Y-83273302D01*
X116560099Y-83273302D02*
X116341490Y-83197872D01*
X116341490Y-83197872D02*
X116183743Y-83143129D01*
X116183743Y-83143129D02*
X116026120Y-83088168D01*
X116026120Y-83088168D02*
X115856505Y-83028731D01*
X115856505Y-83028731D02*
X115699136Y-82973310D01*
X115699136Y-82973310D02*
X115529809Y-82913381D01*
X115529809Y-82913381D02*
X115372709Y-82857501D01*
X115372709Y-82857501D02*
X115215746Y-82801406D01*
X115215746Y-82801406D02*
X115058919Y-82745089D01*
X115058919Y-82745089D02*
X114878141Y-82679836D01*
X114878141Y-82679836D02*
X114697553Y-82614290D01*
X114697553Y-82614290D02*
X114541200Y-82557248D01*
X114541200Y-82557248D02*
X114385000Y-82499990D01*
X114385000Y-82499990D02*
X114228948Y-82442508D01*
X114228948Y-82442508D02*
X114037100Y-82371466D01*
X114037100Y-82371466D02*
X113881400Y-82313500D01*
X113881400Y-82313500D02*
X113701948Y-82246346D01*
X113701948Y-82246346D02*
X113522715Y-82178902D01*
X113522715Y-82178902D02*
X113367560Y-82120216D01*
X113367560Y-82120216D02*
X113200663Y-82056774D01*
X113200663Y-82056774D02*
X113010171Y-81983960D01*
X113010171Y-81983960D02*
X112855597Y-81924559D01*
X112855597Y-81924559D02*
X112701198Y-81864938D01*
X112701198Y-81864938D02*
X112523278Y-81795878D01*
X112523278Y-81795878D02*
X112369281Y-81735793D01*
X112369281Y-81735793D02*
X112215474Y-81675493D01*
X112215474Y-81675493D02*
X112061861Y-81614976D01*
X112061861Y-81614976D02*
X111908442Y-81554245D01*
X111908442Y-81554245D02*
X111755221Y-81493298D01*
X111755221Y-81493298D02*
X111578679Y-81422708D01*
X111578679Y-81422708D02*
X111402408Y-81351832D01*
X111402408Y-81351832D02*
X111226414Y-81280670D01*
X111226414Y-81280670D02*
X111062406Y-81213995D01*
X111062406Y-81213995D02*
X110910336Y-81151860D01*
X110910336Y-81151860D02*
X110758483Y-81089510D01*
X110758483Y-81089510D02*
X110595196Y-81022127D01*
X110595196Y-81022127D02*
X110443801Y-80959333D01*
X110443801Y-80959333D02*
X110281015Y-80891472D01*
X110281015Y-80891472D02*
X110118495Y-80823364D01*
X110118495Y-80823364D02*
X109956245Y-80755010D01*
X109956245Y-80755010D02*
X109782708Y-80681500D01*
X109782708Y-80681500D02*
X109632564Y-80617562D01*
X109632564Y-80617562D02*
X109436588Y-80533630D01*
X109436588Y-80533630D02*
X109287008Y-80469204D01*
X109287008Y-80469204D02*
X109091776Y-80384635D01*
X109091776Y-80384635D02*
X108931320Y-80314716D01*
X108931320Y-80314716D02*
X108771160Y-80244554D01*
X108771160Y-80244554D02*
X108622706Y-80179183D01*
X108622706Y-80179183D02*
X108463126Y-80108551D01*
X108463126Y-80108551D02*
X108303852Y-80037673D01*
X108303852Y-80037673D02*
X108088188Y-79941091D01*
X108088188Y-79941091D02*
X107940963Y-79874750D01*
X107940963Y-79874750D02*
X107771429Y-79797942D01*
X107771429Y-79797942D02*
X107579735Y-79710556D01*
X107579735Y-79710556D02*
X107433471Y-79643491D01*
X107433471Y-79643491D02*
X107276273Y-79571034D01*
X107276273Y-79571034D02*
X107074651Y-79477516D01*
X107074651Y-79477516D02*
X106918220Y-79404505D01*
X106918220Y-79404505D02*
X106762128Y-79331252D01*
X106762128Y-79331252D02*
X106617494Y-79263014D01*
X106617494Y-79263014D02*
X106473161Y-79194569D01*
X106473161Y-79194569D02*
X106329130Y-79125916D01*
X106329130Y-79125916D02*
X106152283Y-79041136D01*
X106152283Y-79041136D02*
X105997925Y-78966697D01*
X105997925Y-78966697D02*
X105832945Y-78886672D01*
X105832945Y-78886672D02*
X105690303Y-78817097D01*
X105690303Y-78817097D02*
X105547977Y-78747314D01*
X105547977Y-78747314D02*
X105405973Y-78677325D01*
X105405973Y-78677325D02*
X105264293Y-78607129D01*
X105264293Y-78607129D02*
X105122941Y-78536726D01*
X105122941Y-78536726D02*
X104981919Y-78466118D01*
X104981919Y-78466118D02*
X104808810Y-78378936D01*
X104808810Y-78378936D02*
X104668534Y-78307869D01*
X104668534Y-78307869D02*
X104517847Y-78231107D01*
X104517847Y-78231107D02*
X104378280Y-78159617D01*
X104378280Y-78159617D02*
X104239057Y-78087920D01*
X104239057Y-78087920D02*
X104100184Y-78016021D01*
X104100184Y-78016021D02*
X103961661Y-77943916D01*
X103961661Y-77943916D02*
X103823491Y-77871607D01*
X103823491Y-77871607D02*
X103685676Y-77799094D01*
X103685676Y-77799094D02*
X103537665Y-77720777D01*
X103537665Y-77720777D02*
X103390075Y-77642223D01*
X103390075Y-77642223D02*
X103253405Y-77569068D01*
X103253405Y-77569068D02*
X103117107Y-77495713D01*
X103117107Y-77495713D02*
X102960299Y-77410817D01*
X102960299Y-77410817D02*
X102824804Y-77337025D01*
X102824804Y-77337025D02*
X102788390Y-77317125D01*
X102788390Y-40126342D02*
X102918540Y-40055573D01*
X102918540Y-40055573D02*
X103064729Y-39976533D01*
X103064729Y-39976533D02*
X103211350Y-39897726D01*
X103211350Y-39897726D02*
X103358401Y-39819149D01*
X103358401Y-39819149D02*
X103495332Y-39746393D01*
X103495332Y-39746393D02*
X103632627Y-39673838D01*
X103632627Y-39673838D02*
X103823325Y-39573706D01*
X103823325Y-39573706D02*
X103961480Y-39501629D01*
X103961480Y-39501629D02*
X104132006Y-39413195D01*
X104132006Y-39413195D02*
X104281650Y-39336062D01*
X104281650Y-39336062D02*
X104431700Y-39259166D01*
X104431700Y-39259166D02*
X104571392Y-39187970D01*
X104571392Y-39187970D02*
X104711426Y-39116977D01*
X104711426Y-39116977D02*
X104862614Y-39040750D01*
X104862614Y-39040750D02*
X105025032Y-38959336D01*
X105025032Y-38959336D02*
X105198767Y-38872794D01*
X105198767Y-38872794D02*
X105340297Y-38802705D01*
X105340297Y-38802705D02*
X105493080Y-38727450D01*
X105493080Y-38727450D02*
X105646234Y-38652431D01*
X105646234Y-38652431D02*
X105799764Y-38577648D01*
X105799764Y-38577648D02*
X105942657Y-38508419D01*
X105942657Y-38508419D02*
X106085864Y-38439394D01*
X106085864Y-38439394D02*
X106251492Y-38360004D01*
X106251492Y-38360004D02*
X106406448Y-38286152D01*
X106406448Y-38286152D02*
X106606197Y-38191547D01*
X106606197Y-38191547D02*
X106761959Y-38118239D01*
X106761959Y-38118239D02*
X106906904Y-38050380D01*
X106906904Y-38050380D02*
X107052144Y-37982726D01*
X107052144Y-37982726D02*
X107220092Y-37904919D01*
X107220092Y-37904919D02*
X107377191Y-37832548D01*
X107377191Y-37832548D02*
X107545881Y-37755271D01*
X107545881Y-37755271D02*
X107703666Y-37683395D01*
X107703666Y-37683395D02*
X107850470Y-37616867D01*
X107850470Y-37616867D02*
X107997550Y-37550548D01*
X107997550Y-37550548D02*
X108144906Y-37484434D01*
X108144906Y-37484434D02*
X108303900Y-37413467D01*
X108303900Y-37413467D02*
X108451815Y-37347783D01*
X108451815Y-37347783D02*
X108622814Y-37272254D01*
X108622814Y-37272254D02*
X108771296Y-37207019D01*
X108771296Y-37207019D02*
X108942944Y-37132007D01*
X108942944Y-37132007D02*
X109126410Y-37052301D01*
X109126410Y-37052301D02*
X109275757Y-36987772D01*
X109275757Y-36987772D02*
X109425353Y-36923453D01*
X109425353Y-36923453D02*
X109575198Y-36859343D01*
X109575198Y-36859343D02*
X109736840Y-36790535D01*
X109736840Y-36790535D02*
X109887186Y-36726861D01*
X109887186Y-36726861D02*
X110037769Y-36663395D01*
X110037769Y-36663395D02*
X110211810Y-36590428D01*
X110211810Y-36590428D02*
X110362893Y-36527415D01*
X110362893Y-36527415D02*
X110537507Y-36454972D01*
X110537507Y-36454972D02*
X110689080Y-36392414D01*
X110689080Y-36392414D02*
X110864248Y-36320494D01*
X110864248Y-36320494D02*
X111039706Y-36248855D01*
X111039706Y-36248855D02*
X111238909Y-36168007D01*
X111238909Y-36168007D02*
X111403229Y-36101698D01*
X111403229Y-36101698D02*
X111603085Y-36021508D01*
X111603085Y-36021508D02*
X111756153Y-35960433D01*
X111756153Y-35960433D02*
X111909424Y-35899571D01*
X111909424Y-35899571D02*
X112133791Y-35811001D01*
X112133791Y-35811001D02*
X112287545Y-35750662D01*
X112287545Y-35750662D02*
X112453343Y-35685922D01*
X112453343Y-35685922D02*
X112607493Y-35626027D01*
X112607493Y-35626027D02*
X112761829Y-35566348D01*
X112761829Y-35566348D02*
X112916350Y-35506882D01*
X112916350Y-35506882D02*
X113071049Y-35447629D01*
X113071049Y-35447629D02*
X113225928Y-35388593D01*
X113225928Y-35388593D02*
X113380978Y-35329770D01*
X113380978Y-35329770D02*
X113536202Y-35271162D01*
X113536202Y-35271162D02*
X113703556Y-35208288D01*
X113703556Y-35208288D02*
X113871100Y-35145662D01*
X113871100Y-35145662D02*
X114086792Y-35065513D01*
X114086792Y-35065513D02*
X114278774Y-34994616D01*
X114278774Y-34994616D02*
X114458969Y-34928448D01*
X114458969Y-34928448D02*
X114663434Y-34853805D01*
X114663434Y-34853805D02*
X114819961Y-34796975D01*
X114819961Y-34796975D02*
X115000749Y-34731673D01*
X115000749Y-34731673D02*
X115169655Y-34670986D01*
X115169655Y-34670986D02*
X115326640Y-34614858D01*
X115326640Y-34614858D02*
X115532134Y-34541790D01*
X115532134Y-34541790D02*
X115725745Y-34473361D01*
X115725745Y-34473361D02*
X115883197Y-34418005D01*
X115883197Y-34418005D02*
X116052901Y-34358635D01*
X116052901Y-34358635D02*
X116222747Y-34299519D01*
X116222747Y-34299519D02*
X116380585Y-34244853D01*
X116380585Y-34244853D02*
X116550696Y-34186228D01*
X116550696Y-34186228D02*
X116714857Y-34129939D01*
X116714857Y-34129939D02*
X116885222Y-34071813D01*
X116885222Y-34071813D02*
X117037437Y-34020131D01*
X117037437Y-34020131D02*
X117201942Y-33964544D01*
X117201942Y-33964544D02*
X117366554Y-33909195D01*
X117366554Y-33909195D02*
X117525170Y-33856122D01*
X117525170Y-33856122D02*
X117683881Y-33803267D01*
X117683881Y-33803267D02*
X117842685Y-33750633D01*
X117842685Y-33750633D02*
X118007691Y-33696209D01*
X118007691Y-33696209D02*
X118185026Y-33638021D01*
X118185026Y-33638021D02*
X118356343Y-33582102D01*
X118356343Y-33582102D02*
X118576745Y-33510582D01*
X118576745Y-33510582D02*
X118742144Y-33457224D01*
X118742144Y-33457224D02*
X118907622Y-33404103D01*
X118907622Y-33404103D02*
X119067044Y-33353179D01*
X119067044Y-33353179D02*
X119232668Y-33300532D01*
X119232668Y-33300532D02*
X119398363Y-33248125D01*
X119398363Y-33248125D02*
X119551841Y-33199815D01*
X119551841Y-33199815D02*
X119717661Y-33147871D01*
X119717661Y-33147871D02*
X119895830Y-33092351D01*
X119895830Y-33092351D02*
X120049477Y-33044712D01*
X120049477Y-33044712D02*
X120209319Y-32995388D01*
X120209319Y-32995388D02*
X120369207Y-32946288D01*
X120369207Y-32946288D02*
X120529141Y-32897413D01*
X120529141Y-32897413D02*
X120707576Y-32843165D01*
X120707576Y-32843165D02*
X120879903Y-32791051D01*
X120879903Y-32791051D02*
X121033801Y-32744744D01*
X121033801Y-32744744D02*
X121249307Y-32680263D01*
X121249307Y-32680263D02*
X121421752Y-32628974D01*
X121421752Y-32628974D02*
X121637344Y-32565230D01*
X121637344Y-32565230D02*
X121809848Y-32514532D01*
X121809848Y-32514532D02*
X121988536Y-32462300D01*
X121988536Y-32462300D02*
X122161078Y-32412137D01*
X122161078Y-32412137D02*
X122327470Y-32364015D01*
X122327470Y-32364015D02*
X122500037Y-32314369D01*
X122500037Y-32314369D02*
X122678774Y-32263230D01*
X122678774Y-32263230D02*
X122851351Y-32214123D01*
X122851351Y-32214123D02*
X123023926Y-32165281D01*
X123023926Y-32165281D02*
X123196498Y-32116704D01*
X123196498Y-32116704D02*
X123369063Y-32068394D01*
X123369063Y-32068394D02*
X123535452Y-32022057D01*
X123535452Y-32022057D02*
X123714152Y-31972567D01*
X123714152Y-31972567D02*
X123905152Y-31919975D01*
X123905152Y-31919975D02*
X124077647Y-31872756D01*
X124077647Y-31872756D02*
X124256275Y-31824132D01*
X124256275Y-31824132D02*
X124428712Y-31777455D01*
X124428712Y-31777455D02*
X124601115Y-31731047D01*
X124601115Y-31731047D02*
X124773483Y-31684906D01*
X124773483Y-31684906D02*
X124945809Y-31639032D01*
X124945809Y-31639032D02*
X125118090Y-31593426D01*
X125118090Y-31593426D02*
X125284173Y-31549703D01*
X125284173Y-31549703D02*
X125444062Y-31507837D01*
X125444062Y-31507837D02*
X125634633Y-31458221D01*
X125634633Y-31458221D02*
X125806702Y-31413691D01*
X125806702Y-31413691D02*
X125972566Y-31371005D01*
X125972566Y-31371005D02*
X126144510Y-31327006D01*
X126144510Y-31327006D02*
X126340930Y-31277049D01*
X126340930Y-31277049D02*
X126512718Y-31233626D01*
X126512718Y-31233626D02*
X126684430Y-31190475D01*
X126684430Y-31190475D02*
X126892832Y-31138443D01*
X126892832Y-31138443D02*
X127064361Y-31095889D01*
X127064361Y-31095889D02*
X127235799Y-31053609D01*
X127235799Y-31053609D02*
X127407149Y-31011601D01*
X127407149Y-31011601D02*
X127578401Y-30969863D01*
X127578401Y-30969863D02*
X127743444Y-30929878D01*
X127743444Y-30929878D02*
X127908390Y-30890144D01*
X127908390Y-30890144D02*
X128079340Y-30849205D01*
X128079340Y-30849205D02*
X128256282Y-30807093D01*
X128256282Y-30807093D02*
X128420908Y-30768149D01*
X128420908Y-30768149D02*
X128591519Y-30728031D01*
X128591519Y-30728031D02*
X128762009Y-30688186D01*
X128762009Y-30688186D02*
X128938456Y-30647210D01*
X128938456Y-30647210D02*
X129102610Y-30609322D01*
X129102610Y-30609322D02*
X129278790Y-30568916D01*
X129278790Y-30568916D02*
X129448754Y-30530179D01*
X129448754Y-30530179D02*
X129612518Y-30493088D01*
X129612518Y-30493088D02*
X129788265Y-30453536D01*
X129788265Y-30453536D02*
X129951752Y-30416978D01*
X129951752Y-30416978D02*
X130133239Y-30376657D01*
X130133239Y-30376657D02*
X130314549Y-30336652D01*
X130314549Y-30336652D02*
X130489645Y-30298284D01*
X130489645Y-30298284D02*
X130664568Y-30260215D01*
X130664568Y-30260215D02*
X130833293Y-30223740D01*
X130833293Y-30223740D02*
X131001848Y-30187542D01*
X131001848Y-30187542D02*
X131182252Y-30149066D01*
X131182252Y-30149066D02*
X131362453Y-30110910D01*
X131362453Y-30110910D02*
X131530458Y-30075587D01*
X131530458Y-30075587D02*
X131698277Y-30040542D01*
X131698277Y-30040542D02*
X131865910Y-30005777D01*
X131865910Y-30005777D02*
X132033352Y-29971291D01*
X132033352Y-29971291D02*
X132224478Y-29932219D01*
X132224478Y-29932219D02*
X132403423Y-29895923D01*
X132403423Y-29895923D02*
X132570228Y-29862336D01*
X132570228Y-29862336D02*
X132742776Y-29827848D01*
X132742776Y-29827848D02*
X132915097Y-29793659D01*
X132915097Y-29793659D02*
X133099051Y-29757446D01*
X133099051Y-29757446D02*
X133288658Y-29720424D01*
X133288658Y-29720424D02*
X133483889Y-29682632D01*
X133483889Y-29682632D02*
X133661098Y-29648615D01*
X133661098Y-29648615D02*
X133838047Y-29614922D01*
X133838047Y-29614922D02*
X134020611Y-29580447D01*
X134020611Y-29580447D02*
X134191134Y-29548510D01*
X134191134Y-29548510D02*
X134367266Y-29515791D01*
X134367266Y-29515791D02*
X134589962Y-29474818D01*
X134589962Y-29474818D02*
X134765450Y-29442836D01*
X134765450Y-29442836D02*
X134940647Y-29411183D01*
X134940647Y-29411183D02*
X135121374Y-29378817D01*
X135121374Y-29378817D02*
X135348286Y-29338595D01*
X135348286Y-29338595D02*
X135522481Y-29308029D01*
X135522481Y-29308029D02*
X135696367Y-29277793D01*
X135696367Y-29277793D02*
X135869937Y-29247884D01*
X135869937Y-29247884D02*
X136043189Y-29218306D01*
X136043189Y-29218306D02*
X136216119Y-29189052D01*
X136216119Y-29189052D02*
X136388718Y-29160130D01*
X136388718Y-29160130D02*
X136560985Y-29131538D01*
X136560985Y-29131538D02*
X136732916Y-29103274D01*
X136732916Y-29103274D02*
X136915936Y-29073489D01*
X136915936Y-29073489D02*
X137098559Y-29044082D01*
X137098559Y-29044082D02*
X137303535Y-29011447D01*
X137303535Y-29011447D02*
X137485306Y-28982840D01*
X137485306Y-28982840D02*
X137666665Y-28954609D01*
X137666665Y-28954609D02*
X137853259Y-28925891D01*
X137853259Y-28925891D02*
X138050669Y-28895871D01*
X138050669Y-28895871D02*
X138230712Y-28868823D01*
X138230712Y-28868823D02*
X138410323Y-28842154D01*
X138410323Y-28842154D02*
X138611862Y-28812604D01*
X138611862Y-28812604D02*
X138790536Y-28786740D01*
X138790536Y-28786740D02*
X139013248Y-28754947D01*
X139013248Y-28754947D02*
X139190903Y-28729938D01*
X139190903Y-28729938D02*
X139368098Y-28705312D01*
X139368098Y-28705312D02*
X139544824Y-28681066D01*
X139544824Y-28681066D02*
X139721080Y-28657204D01*
X139721080Y-28657204D02*
X139907826Y-28632267D01*
X139907826Y-28632267D02*
X140094029Y-28607765D01*
X140094029Y-28607765D02*
X140279680Y-28583693D01*
X140279680Y-28583693D02*
X140464773Y-28560057D01*
X140464773Y-28560057D02*
X140649299Y-28536852D01*
X140649299Y-28536852D02*
X140833256Y-28514082D01*
X140833256Y-28514082D02*
X141016636Y-28491746D01*
X141016636Y-28491746D02*
X141199431Y-28469846D01*
X141199431Y-28469846D02*
X141381634Y-28448381D01*
X141381634Y-28448381D02*
X141573906Y-28426129D01*
X141573906Y-28426129D02*
X141754876Y-28405563D01*
X141754876Y-28405563D02*
X141935231Y-28385434D01*
X141935231Y-28385434D02*
X142136079Y-28363455D01*
X142136079Y-28363455D02*
X142325634Y-28343137D01*
X142325634Y-28343137D02*
X142514485Y-28323311D01*
X142514485Y-28323311D02*
X142702618Y-28303977D01*
X142702618Y-28303977D02*
X142890031Y-28285139D01*
X142890031Y-28285139D02*
X143076714Y-28266792D01*
X143076714Y-28266792D02*
X143262658Y-28248940D01*
X143262658Y-28248940D02*
X143447858Y-28231582D01*
X143447858Y-28231582D02*
X143632304Y-28214720D01*
X143632304Y-28214720D02*
X143815989Y-28198353D01*
X143815989Y-28198353D02*
X144009045Y-28181616D01*
X144009045Y-28181616D02*
X144201237Y-28165432D01*
X144201237Y-28165432D02*
X144402600Y-28148999D01*
X144402600Y-28148999D02*
X144592987Y-28133953D01*
X144592987Y-28133953D02*
X144782482Y-28119465D01*
X144782482Y-28119465D02*
X144971075Y-28105533D01*
X144971075Y-28105533D02*
X145158758Y-28092161D01*
X145158758Y-28092161D02*
X145355326Y-28078685D01*
X145355326Y-28078685D02*
X145550864Y-28065830D01*
X145550864Y-28065830D02*
X145745362Y-28053595D01*
X145745362Y-28053595D02*
X145938809Y-28041979D01*
X145938809Y-28041979D02*
X146131196Y-28030987D01*
X146131196Y-28030987D02*
X146322514Y-28020618D01*
X146322514Y-28020618D02*
X146522229Y-28010398D01*
X146522229Y-28010398D02*
X146720741Y-28000869D01*
X146720741Y-28000869D02*
X146918039Y-27992029D01*
X146918039Y-27992029D02*
X147114102Y-27983875D01*
X147114102Y-27983875D02*
X147308927Y-27976414D01*
X147308927Y-27976414D02*
X147502500Y-27969648D01*
X147502500Y-27969648D02*
X147703929Y-27963298D01*
X147703929Y-27963298D02*
X147903958Y-27957712D01*
X147903958Y-27957712D02*
X148102571Y-27952890D01*
X148102571Y-27952890D02*
X148299749Y-27948828D01*
X148299749Y-27948828D02*
X148504348Y-27945399D01*
X148504348Y-27945399D02*
X148707352Y-27942809D01*
X148707352Y-27942809D02*
X148908743Y-27941056D01*
X148908743Y-27941056D02*
X149108507Y-27940142D01*
X149108507Y-27940142D02*
X149225000Y-27940000D01*
X181341239Y-70776359D02*
X181272333Y-70916542D01*
X181272333Y-70916542D02*
X181204660Y-71052389D01*
X181204660Y-71052389D02*
X181132216Y-71195862D01*
X181132216Y-71195862D02*
X181050776Y-71354841D01*
X181050776Y-71354841D02*
X180972484Y-71505438D01*
X180972484Y-71505438D02*
X180897487Y-71647719D01*
X180897487Y-71647719D02*
X180821691Y-71789620D01*
X180821691Y-71789620D02*
X180749370Y-71923282D01*
X180749370Y-71923282D02*
X180676338Y-72056599D01*
X180676338Y-72056599D02*
X180602598Y-72189570D01*
X180602598Y-72189570D02*
X180523753Y-72329983D01*
X180523753Y-72329983D02*
X180444118Y-72470001D01*
X180444118Y-72470001D02*
X180368186Y-72601879D01*
X180368186Y-72601879D02*
X180291556Y-72733402D01*
X180291556Y-72733402D02*
X180214225Y-72864567D01*
X180214225Y-72864567D02*
X180136201Y-72995373D01*
X180136201Y-72995373D02*
X180057485Y-73125818D01*
X180057485Y-73125818D02*
X179973387Y-73263542D01*
X179973387Y-73263542D02*
X179864802Y-73438925D01*
X179864802Y-73438925D02*
X179764568Y-73598471D01*
X179764568Y-73598471D02*
X179677823Y-73734776D01*
X179677823Y-73734776D02*
X179595197Y-73863123D01*
X179595197Y-73863123D02*
X179511894Y-73991098D01*
X179511894Y-73991098D02*
X179427913Y-74118696D01*
X179427913Y-74118696D02*
X179343261Y-74245918D01*
X179343261Y-74245918D02*
X179252895Y-74380206D01*
X179252895Y-74380206D02*
X179166861Y-74506642D01*
X179166861Y-74506642D02*
X179080161Y-74632694D01*
X179080161Y-74632694D02*
X178997954Y-74750977D01*
X178997954Y-74750977D02*
X178915157Y-74868917D01*
X178915157Y-74868917D02*
X178831776Y-74986512D01*
X178831776Y-74986512D02*
X178747812Y-75103760D01*
X178747812Y-75103760D02*
X178663266Y-75220660D01*
X178663266Y-75220660D02*
X178578140Y-75337208D01*
X178578140Y-75337208D02*
X178470923Y-75482401D01*
X178470923Y-75482401D02*
X178384499Y-75598156D01*
X178384499Y-75598156D02*
X178281127Y-75735151D01*
X178281127Y-75735151D02*
X178187951Y-75857302D01*
X178187951Y-75857302D02*
X178099670Y-75971895D01*
X178099670Y-75971895D02*
X178005249Y-76093256D01*
X178005249Y-76093256D02*
X177898961Y-76228409D01*
X177898961Y-76228409D02*
X177808840Y-76341824D01*
X177808840Y-76341824D02*
X177718157Y-76454872D01*
X177718157Y-76454872D02*
X177626915Y-76567554D01*
X177626915Y-76567554D02*
X177535111Y-76679863D01*
X177535111Y-76679863D02*
X177436960Y-76798786D01*
X177436960Y-76798786D02*
X177338182Y-76917289D01*
X177338182Y-76917289D02*
X177238783Y-77035367D01*
X177238783Y-77035367D02*
X177144661Y-77146113D01*
X177144661Y-77146113D02*
X177049992Y-77256480D01*
X177049992Y-77256480D02*
X176954774Y-77366466D01*
X176954774Y-77366466D02*
X176853008Y-77482910D01*
X176853008Y-77482910D02*
X176750628Y-77598921D01*
X176750628Y-77598921D02*
X176647635Y-77714496D01*
X176647635Y-77714496D02*
X176550146Y-77822876D01*
X176550146Y-77822876D02*
X176452119Y-77930870D01*
X176452119Y-77930870D02*
X176347377Y-78045182D01*
X176347377Y-78045182D02*
X176198482Y-78205811D01*
X176198482Y-78205811D02*
X176086026Y-78325705D01*
X176086026Y-78325705D02*
X175985501Y-78431853D01*
X175985501Y-78431853D02*
X175852760Y-78570568D01*
X175852760Y-78570568D02*
X175751017Y-78675796D01*
X175751017Y-78675796D02*
X175642344Y-78787159D01*
X175642344Y-78787159D02*
X175520188Y-78911085D01*
X175520188Y-78911085D02*
X175403786Y-79027963D01*
X175403786Y-79027963D02*
X175299769Y-79131422D01*
X175299769Y-79131422D02*
X175195235Y-79234469D01*
X175195235Y-79234469D02*
X175063847Y-79362706D01*
X175063847Y-79362706D02*
X174944913Y-79477566D01*
X174944913Y-79477566D02*
X174838653Y-79579225D01*
X174838653Y-79579225D02*
X174731886Y-79680467D01*
X174731886Y-79680467D02*
X174617892Y-79787579D01*
X174617892Y-79787579D02*
X174489815Y-79906734D01*
X174489815Y-79906734D02*
X174374620Y-80012842D01*
X174374620Y-80012842D02*
X174265685Y-80112270D01*
X174265685Y-80112270D02*
X174149398Y-80217450D01*
X174149398Y-80217450D02*
X174032549Y-80322149D01*
X174032549Y-80322149D02*
X173908218Y-80432477D01*
X173908218Y-80432477D02*
X173797181Y-80530090D01*
X173797181Y-80530090D02*
X173685653Y-80627274D01*
X173685653Y-80627274D02*
X173524478Y-80766215D01*
X173524478Y-80766215D02*
X173411761Y-80862339D01*
X173411761Y-80862339D02*
X173298563Y-80958025D01*
X173298563Y-80958025D02*
X173170638Y-81065148D01*
X173170638Y-81065148D02*
X173020626Y-81189419D01*
X173020626Y-81189419D02*
X172898583Y-81289461D01*
X172898583Y-81289461D02*
X172783229Y-81383160D01*
X172783229Y-81383160D02*
X172645633Y-81493848D01*
X172645633Y-81493848D02*
X172529244Y-81586568D01*
X172529244Y-81586568D02*
X172346446Y-81730540D01*
X172346446Y-81730540D02*
X172228858Y-81822104D01*
X172228858Y-81822104D02*
X172103409Y-81918893D01*
X172103409Y-81918893D02*
X171977439Y-82015167D01*
X171977439Y-82015167D02*
X171850949Y-82110924D01*
X171850949Y-82110924D02*
X171716450Y-82211750D01*
X171716450Y-82211750D02*
X171596411Y-82300882D01*
X171596411Y-82300882D02*
X171475914Y-82389551D01*
X171475914Y-82389551D02*
X171339816Y-82488749D01*
X171339816Y-82488749D02*
X171203145Y-82587358D01*
X171203145Y-82587358D02*
X171081181Y-82674510D01*
X171081181Y-82674510D02*
X170935769Y-82777396D01*
X170935769Y-82777396D02*
X170812828Y-82863521D01*
X170812828Y-82863521D02*
X170681717Y-82954509D01*
X170681717Y-82954509D02*
X170550106Y-83044960D01*
X170550106Y-83044960D02*
X170410213Y-83140144D01*
X170410213Y-83140144D02*
X170261946Y-83239959D01*
X170261946Y-83239959D02*
X170136614Y-83323489D01*
X170136614Y-83323489D02*
X170010847Y-83406536D01*
X170010847Y-83406536D02*
X169884648Y-83489100D01*
X169884648Y-83489100D02*
X169758018Y-83571179D01*
X169758018Y-83571179D02*
X169630960Y-83652769D01*
X169630960Y-83652769D02*
X169487508Y-83743971D01*
X169487508Y-83743971D02*
X169359544Y-83824520D01*
X169359544Y-83824520D02*
X169231158Y-83904578D01*
X169231158Y-83904578D02*
X169062014Y-84008903D01*
X169062014Y-84008903D02*
X168908354Y-84102554D01*
X168908354Y-84102554D02*
X168770373Y-84185753D01*
X168770373Y-84185753D02*
X168623765Y-84273230D01*
X168623765Y-84273230D02*
X168476633Y-84360071D01*
X168476633Y-84360071D02*
X168337198Y-84441502D01*
X168337198Y-84441502D02*
X168197303Y-84522364D01*
X168197303Y-84522364D02*
X168065217Y-84597945D01*
X168065217Y-84597945D02*
X167916135Y-84682367D01*
X167916135Y-84682367D02*
X167783191Y-84756864D01*
X167783191Y-84756864D02*
X167649847Y-84830851D01*
X167649847Y-84830851D02*
X167516102Y-84904324D01*
X167516102Y-84904324D02*
X167381960Y-84977279D01*
X167381960Y-84977279D02*
X167247422Y-85049718D01*
X167247422Y-85049718D02*
X167112490Y-85121639D01*
X167112490Y-85121639D02*
X166977166Y-85193038D01*
X166977166Y-85193038D02*
X166841452Y-85263916D01*
X166841452Y-85263916D02*
X166705351Y-85334269D01*
X166705351Y-85334269D02*
X166568864Y-85404098D01*
X166568864Y-85404098D02*
X166431989Y-85473398D01*
X166431989Y-85473398D02*
X166294733Y-85542170D01*
X166294733Y-85542170D02*
X166157094Y-85610410D01*
X166157094Y-85610410D02*
X166019080Y-85678121D01*
X166019080Y-85678121D02*
X165880684Y-85745296D01*
X165880684Y-85745296D02*
X165733229Y-85816084D01*
X165733229Y-85816084D02*
X165567927Y-85894482D01*
X165567927Y-85894482D02*
X165402101Y-85972120D01*
X165402101Y-85972120D02*
X165262053Y-86036907D01*
X165262053Y-86036907D02*
X165104060Y-86109143D01*
X165104060Y-86109143D02*
X164963234Y-86172776D01*
X164963234Y-86172776D02*
X164813208Y-86239787D01*
X164813208Y-86239787D02*
X164671633Y-86302291D01*
X164671633Y-86302291D02*
X164529700Y-86364245D01*
X164529700Y-86364245D02*
X164387406Y-86425649D01*
X164387406Y-86425649D02*
X164244757Y-86486501D01*
X164244757Y-86486501D02*
X164039078Y-86573000D01*
X164039078Y-86573000D02*
X163895567Y-86632495D01*
X163895567Y-86632495D02*
X163751707Y-86691434D01*
X163751707Y-86691434D02*
X163607499Y-86749810D01*
X163607499Y-86749810D02*
X163453896Y-86811219D01*
X163453896Y-86811219D02*
X163236386Y-86896831D01*
X163236386Y-86896831D02*
X163090949Y-86953200D01*
X163090949Y-86953200D02*
X162945174Y-87008999D01*
X162945174Y-87008999D02*
X162799061Y-87064230D01*
X162799061Y-87064230D02*
X162634283Y-87125684D01*
X162634283Y-87125684D02*
X162487457Y-87179700D01*
X162487457Y-87179700D02*
X162340298Y-87233142D01*
X162340298Y-87233142D02*
X162183579Y-87289291D01*
X162183579Y-87289291D02*
X162035741Y-87341543D01*
X162035741Y-87341543D02*
X161859756Y-87402837D01*
X161859756Y-87402837D02*
X161664717Y-87469632D01*
X161664717Y-87469632D02*
X161497096Y-87526082D01*
X161497096Y-87526082D02*
X161329070Y-87581793D01*
X161329070Y-87581793D02*
X161132531Y-87645848D01*
X161132531Y-87645848D02*
X160973028Y-87696959D01*
X160973028Y-87696959D02*
X160784927Y-87756237D01*
X160784927Y-87756237D02*
X160615217Y-87808793D01*
X160615217Y-87808793D02*
X160454576Y-87857737D01*
X160454576Y-87857737D02*
X160284106Y-87908825D01*
X160284106Y-87908825D02*
X160103747Y-87961931D01*
X160103747Y-87961931D02*
X159942010Y-88008728D01*
X159942010Y-88008728D02*
X159779932Y-88054846D01*
X159779932Y-88054846D02*
X159598386Y-88105582D01*
X159598386Y-88105582D02*
X159435593Y-88150251D01*
X159435593Y-88150251D02*
X159272467Y-88194236D01*
X159272467Y-88194236D02*
X159099384Y-88240058D01*
X159099384Y-88240058D02*
X158925932Y-88285104D01*
X158925932Y-88285104D02*
X158761778Y-88326935D01*
X158761778Y-88326935D02*
X158587614Y-88370471D01*
X158587614Y-88370471D02*
X158403384Y-88415580D01*
X158403384Y-88415580D02*
X158228481Y-88457507D01*
X158228481Y-88457507D02*
X158053221Y-88498649D01*
X158053221Y-88498649D02*
X157877606Y-88539003D01*
X157877606Y-88539003D02*
X157672280Y-88585085D01*
X157672280Y-88585085D02*
X157495909Y-88623725D01*
X157495909Y-88623725D02*
X157329019Y-88659486D01*
X157329019Y-88659486D02*
X157151979Y-88696577D01*
X157151979Y-88696577D02*
X156974598Y-88732866D01*
X156974598Y-88732866D02*
X156806761Y-88766404D01*
X156806761Y-88766404D02*
X156618824Y-88803037D01*
X156618824Y-88803037D02*
X156440438Y-88836915D01*
X156440438Y-88836915D02*
X156271656Y-88868165D01*
X156271656Y-88868165D02*
X156082675Y-88902236D01*
X156082675Y-88902236D02*
X155893329Y-88935401D01*
X155893329Y-88935401D02*
X155693631Y-88969327D01*
X155693631Y-88969327D02*
X155513566Y-88998996D01*
X155513566Y-88998996D02*
X155323153Y-89029423D01*
X155323153Y-89029423D02*
X155132391Y-89058932D01*
X155132391Y-89058932D02*
X154911074Y-89091948D01*
X154911074Y-89091948D02*
X154719567Y-89119466D01*
X154719567Y-89119466D02*
X154537826Y-89144683D01*
X154537826Y-89144683D02*
X154345657Y-89170394D01*
X154345657Y-89170394D02*
X154163294Y-89193891D01*
X154163294Y-89193891D02*
X153960321Y-89219016D01*
X153960321Y-89219016D02*
X153746807Y-89244278D01*
X153746807Y-89244278D02*
X153553286Y-89266144D01*
X153553286Y-89266144D02*
X153369653Y-89285991D01*
X153369653Y-89285991D02*
X153185733Y-89304988D01*
X153185733Y-89304988D02*
X153001529Y-89323132D01*
X153001529Y-89323132D02*
X152817044Y-89340423D01*
X152817044Y-89340423D02*
X152632281Y-89356859D01*
X152632281Y-89356859D02*
X152436954Y-89373276D01*
X152436954Y-89373276D02*
X152241322Y-89388735D01*
X152241322Y-89388735D02*
X152045389Y-89403231D01*
X152045389Y-89403231D02*
X151838821Y-89417448D01*
X151838821Y-89417448D02*
X151642277Y-89429959D01*
X151642277Y-89429959D02*
X151424705Y-89442660D01*
X151424705Y-89442660D02*
X151227553Y-89453128D01*
X151227553Y-89453128D02*
X151030111Y-89462618D01*
X151030111Y-89462618D02*
X150821973Y-89471551D01*
X150821973Y-89471551D02*
X150592666Y-89480120D01*
X150592666Y-89480120D02*
X150383881Y-89486765D01*
X150383881Y-89486765D02*
X150185257Y-89492061D01*
X150185257Y-89492061D02*
X149986362Y-89496368D01*
X149986362Y-89496368D02*
X149776712Y-89499829D01*
X149776712Y-89499829D02*
X149566769Y-89502186D01*
X149566769Y-89502186D02*
X149356537Y-89503436D01*
X149356537Y-89503436D02*
X149225000Y-89503655D01*
X181341239Y-46666825D02*
X181406357Y-46802569D01*
X181406357Y-46802569D02*
X181471400Y-46940008D01*
X181471400Y-46940008D02*
X181538245Y-47083245D01*
X181538245Y-47083245D02*
X181601793Y-47221367D01*
X181601793Y-47221367D02*
X181670167Y-47372176D01*
X181670167Y-47372176D02*
X181732781Y-47512364D01*
X181732781Y-47512364D02*
X181799462Y-47663923D01*
X181799462Y-47663923D02*
X181862289Y-47808956D01*
X181862289Y-47808956D02*
X181924895Y-47955722D01*
X181924895Y-47955722D02*
X181988993Y-48108403D01*
X181988993Y-48108403D02*
X182051059Y-48258675D01*
X182051059Y-48258675D02*
X182113390Y-48412105D01*
X182113390Y-48412105D02*
X182180365Y-48579910D01*
X182180365Y-48579910D02*
X182238636Y-48728506D01*
X182238636Y-48728506D02*
X182296609Y-48878851D01*
X182296609Y-48878851D02*
X182352665Y-49026725D01*
X182352665Y-49026725D02*
X182411548Y-49184821D01*
X182411548Y-49184821D02*
X182465383Y-49331964D01*
X182465383Y-49331964D02*
X182518400Y-49479427D01*
X182518400Y-49479427D02*
X182571096Y-49628630D01*
X182571096Y-49628630D02*
X182623938Y-49781011D01*
X182623938Y-49781011D02*
X182678314Y-49940868D01*
X182678314Y-49940868D02*
X182729369Y-50093929D01*
X182729369Y-50093929D02*
X182782337Y-50255932D01*
X182782337Y-50255932D02*
X182832045Y-50411106D01*
X182832045Y-50411106D02*
X182880408Y-50565168D01*
X182880408Y-50565168D02*
X182931400Y-50731111D01*
X182931400Y-50731111D02*
X182979219Y-50890185D01*
X182979219Y-50890185D02*
X183025251Y-51046690D01*
X183025251Y-51046690D02*
X183070377Y-51203519D01*
X183070377Y-51203519D02*
X183114593Y-51360667D01*
X183114593Y-51360667D02*
X183158686Y-51521050D01*
X183158686Y-51521050D02*
X183201441Y-51680296D01*
X183201441Y-51680296D02*
X183244775Y-51845722D01*
X183244775Y-51845722D02*
X183286731Y-52010020D01*
X183286731Y-52010020D02*
X183329138Y-52180533D01*
X183329138Y-52180533D02*
X183369068Y-52345499D01*
X183369068Y-52345499D02*
X183407311Y-52507837D01*
X183407311Y-52507837D02*
X183446924Y-52680845D01*
X183446924Y-52680845D02*
X183484142Y-52848270D01*
X183484142Y-52848270D02*
X183520014Y-53014532D01*
X183520014Y-53014532D02*
X183556103Y-53187065D01*
X183556103Y-53187065D02*
X183590806Y-53358440D01*
X183590806Y-53358440D02*
X183623859Y-53527154D01*
X183623859Y-53527154D02*
X183656430Y-53699171D01*
X183656430Y-53699171D02*
X183687383Y-53868514D01*
X183687383Y-53868514D02*
X183718070Y-54042668D01*
X183718070Y-54042668D02*
X183747652Y-54217143D01*
X183747652Y-54217143D02*
X183777089Y-54397971D01*
X183777089Y-54397971D02*
X183804414Y-54573089D01*
X183804414Y-54573089D02*
X183830623Y-54748519D01*
X183830623Y-54748519D02*
X183858246Y-54942457D01*
X183858246Y-54942457D02*
X183882903Y-55124611D01*
X183882903Y-55124611D02*
X183905975Y-55304047D01*
X183905975Y-55304047D02*
X183930042Y-55502088D01*
X183930042Y-55502088D02*
X183950655Y-55682170D01*
X183950655Y-55682170D02*
X183970413Y-55865619D01*
X183970413Y-55865619D02*
X183989249Y-56052442D01*
X183989249Y-56052442D02*
X184007104Y-56242656D01*
X184007104Y-56242656D02*
X184023133Y-56427041D01*
X184023133Y-56427041D02*
X184038407Y-56617892D01*
X184038407Y-56617892D02*
X184052364Y-56809059D01*
X184052364Y-56809059D02*
X184065386Y-57006725D01*
X184065386Y-57006725D02*
X184077250Y-57209368D01*
X184077250Y-57209368D02*
X184087114Y-57401497D01*
X184087114Y-57401497D02*
X184095708Y-57595485D01*
X184095708Y-57595485D02*
X184103101Y-57794446D01*
X184103101Y-57794446D02*
X184109632Y-58015539D01*
X184109632Y-58015539D02*
X184114031Y-58216721D01*
X184114031Y-58216721D02*
X184116938Y-58415092D01*
X184116938Y-58415092D02*
X184118432Y-58615328D01*
X184118432Y-58615328D02*
X184118638Y-58721828D01*
X102788390Y-77317125D02*
X102652827Y-77242772D01*
X102652827Y-77242772D02*
X102481441Y-77148178D01*
X102481441Y-77148178D02*
X102294281Y-77044106D01*
X102294281Y-77044106D02*
X102160119Y-76969001D01*
X102160119Y-76969001D02*
X102019827Y-76890007D01*
X102019827Y-76890007D02*
X101876719Y-76808944D01*
X101876719Y-76808944D02*
X101747017Y-76735045D01*
X101747017Y-76735045D02*
X101617692Y-76660948D01*
X101617692Y-76660948D02*
X101466223Y-76573636D01*
X101466223Y-76573636D02*
X101334527Y-76497252D01*
X101334527Y-76497252D02*
X101190449Y-76413177D01*
X101190449Y-76413177D02*
X101018212Y-76311967D01*
X101018212Y-76311967D02*
X100865714Y-76221702D01*
X100865714Y-76221702D02*
X100739071Y-76146269D01*
X100739071Y-76146269D02*
X100612830Y-76070643D01*
X100612830Y-76070643D02*
X100483851Y-75992924D01*
X100483851Y-75992924D02*
X100355300Y-75915005D01*
X100355300Y-75915005D02*
X100224060Y-75834974D01*
X100224060Y-75834974D02*
X100099492Y-75758557D01*
X100099492Y-75758557D02*
X99962949Y-75674277D01*
X99962949Y-75674277D02*
X99836171Y-75595534D01*
X99836171Y-75595534D02*
X99709837Y-75516589D01*
X99709837Y-75516589D02*
X99577819Y-75433579D01*
X99577819Y-75433579D02*
X99421881Y-75334839D01*
X99421881Y-75334839D02*
X99287907Y-75249401D01*
X99287907Y-75249401D02*
X99163542Y-75169581D01*
X99163542Y-75169581D02*
X99039636Y-75089561D01*
X99039636Y-75089561D02*
X98886155Y-74989748D01*
X98886155Y-74989748D02*
X98754322Y-74903387D01*
X98754322Y-74903387D02*
X98631959Y-74822705D01*
X98631959Y-74822705D02*
X98504139Y-74737878D01*
X98504139Y-74737878D02*
X98376841Y-74652833D01*
X98376841Y-74652833D02*
X98255954Y-74571538D01*
X98255954Y-74571538D02*
X98135550Y-74490049D01*
X98135550Y-74490049D02*
X97989374Y-74390405D01*
X97989374Y-74390405D02*
X97867144Y-74306475D01*
X97867144Y-74306475D02*
X97745433Y-74222339D01*
X97745433Y-74222339D02*
X97618484Y-74133979D01*
X97618484Y-74133979D02*
X97497838Y-74049421D01*
X97497838Y-74049421D02*
X97377721Y-73964660D01*
X97377721Y-73964660D02*
X97258135Y-73879696D01*
X97258135Y-73879696D02*
X97133421Y-73790462D01*
X97133421Y-73790462D02*
X97012113Y-73703040D01*
X97012113Y-73703040D02*
X96874568Y-73603162D01*
X96874568Y-73603162D02*
X96757261Y-73517329D01*
X96757261Y-73517329D02*
X96629408Y-73423090D01*
X96629408Y-73423090D02*
X96510490Y-73334777D01*
X96510490Y-73334777D02*
X96392152Y-73246250D01*
X96392152Y-73246250D02*
X96271666Y-73155445D01*
X96271666Y-73155445D02*
X96157232Y-73068560D01*
X96157232Y-73068560D02*
X96027140Y-72969016D01*
X96027140Y-72969016D02*
X95913917Y-72881700D01*
X95913917Y-72881700D02*
X95779873Y-72777489D01*
X95779873Y-72777489D02*
X95641329Y-72668807D01*
X95641329Y-72668807D02*
X95524796Y-72576608D01*
X95524796Y-72576608D02*
X95403646Y-72479983D01*
X95403646Y-72479983D02*
X95288422Y-72387335D01*
X95288422Y-72387335D02*
X95153083Y-72277560D01*
X95153083Y-72277560D02*
X95034116Y-72180196D01*
X95034116Y-72180196D02*
X94903057Y-72071970D01*
X94903057Y-72071970D02*
X94793245Y-71980496D01*
X94793245Y-71980496D02*
X94681532Y-71886677D01*
X94681532Y-71886677D02*
X94567972Y-71790502D01*
X94567972Y-71790502D02*
X94450114Y-71689812D01*
X94450114Y-71689812D02*
X94340477Y-71595325D01*
X94340477Y-71595325D02*
X94216711Y-71487693D01*
X94216711Y-71487693D02*
X94101176Y-71386264D01*
X94101176Y-71386264D02*
X93983992Y-71282424D01*
X93983992Y-71282424D02*
X93848319Y-71160955D01*
X93848319Y-71160955D02*
X93740109Y-71063092D01*
X93740109Y-71063092D02*
X93620735Y-70954096D01*
X93620735Y-70954096D02*
X93492834Y-70836070D01*
X93492834Y-70836070D02*
X93384723Y-70735278D01*
X93384723Y-70735278D02*
X93277393Y-70634254D01*
X93277393Y-70634254D02*
X93170841Y-70532996D01*
X93170841Y-70532996D02*
X93060498Y-70427089D01*
X93060498Y-70427089D02*
X92951017Y-70320932D01*
X92951017Y-70320932D02*
X92846913Y-70218961D01*
X92846913Y-70218961D02*
X92743610Y-70116762D01*
X92743610Y-70116762D02*
X92641112Y-70014333D01*
X92641112Y-70014333D02*
X92530617Y-69902736D01*
X92530617Y-69902736D02*
X92429813Y-69799826D01*
X92429813Y-69799826D02*
X92329826Y-69696689D01*
X92329826Y-69696689D02*
X92230662Y-69593326D01*
X92230662Y-69593326D02*
X92128070Y-69485225D01*
X92128070Y-69485225D02*
X92026379Y-69376875D01*
X92026379Y-69376875D02*
X91921423Y-69263749D01*
X91921423Y-69263749D02*
X91821598Y-69154896D01*
X91821598Y-69154896D02*
X91722695Y-69045798D01*
X91722695Y-69045798D02*
X91620655Y-68931894D01*
X91620655Y-68931894D02*
X91515601Y-68813148D01*
X91515601Y-68813148D02*
X91419603Y-68703283D01*
X91419603Y-68703283D02*
X91324548Y-68593174D01*
X91324548Y-68593174D02*
X91230436Y-68482821D01*
X91230436Y-68482821D02*
X91137275Y-68372227D01*
X91137275Y-68372227D02*
X91045069Y-68261388D01*
X91045069Y-68261388D02*
X90953823Y-68150308D01*
X90953823Y-68150308D02*
X90863543Y-68038987D01*
X90863543Y-68038987D02*
X90774232Y-67927423D01*
X90774232Y-67927423D02*
X90685895Y-67815619D01*
X90685895Y-67815619D02*
X90576854Y-67675526D01*
X90576854Y-67675526D02*
X90487163Y-67558495D01*
X90487163Y-67558495D02*
X90391504Y-67431812D01*
X90391504Y-67431812D02*
X90290163Y-67295407D01*
X90290163Y-67295407D02*
X90203975Y-67177535D01*
X90203975Y-67177535D02*
X90118879Y-67059408D01*
X90118879Y-67059408D02*
X90034882Y-66941025D01*
X90034882Y-66941025D02*
X89951992Y-66822384D01*
X89951992Y-66822384D02*
X89863715Y-66693961D01*
X89863715Y-66693961D02*
X89779938Y-66570014D01*
X89779938Y-66570014D02*
X89697374Y-66445793D01*
X89697374Y-66445793D02*
X89612923Y-66316499D01*
X89612923Y-66316499D02*
X89529796Y-66186910D01*
X89529796Y-66186910D02*
X89444994Y-66052209D01*
X89444994Y-66052209D02*
X89361629Y-65917192D01*
X89361629Y-65917192D02*
X89285510Y-65791535D01*
X89285510Y-65791535D02*
X89210644Y-65665605D01*
X89210644Y-65665605D02*
X89134230Y-65534546D01*
X89134230Y-65534546D02*
X89059181Y-65403192D01*
X89059181Y-65403192D02*
X88982801Y-65266666D01*
X88982801Y-65266666D02*
X88910549Y-65134719D01*
X88910549Y-65134719D02*
X88834488Y-64992675D01*
X88834488Y-64992675D02*
X88762574Y-64855214D01*
X88762574Y-64855214D02*
X88687196Y-64707585D01*
X88687196Y-64707585D02*
X88618409Y-64569481D01*
X88618409Y-64569481D02*
X88551145Y-64431064D01*
X88551145Y-64431064D02*
X88485409Y-64292341D01*
X88485409Y-64292341D02*
X88418946Y-64148339D01*
X88418946Y-64148339D02*
X88356349Y-64008991D01*
X88356349Y-64008991D02*
X88293150Y-63864343D01*
X88293150Y-63864343D02*
X88229534Y-63714359D01*
X88229534Y-63714359D02*
X88167719Y-63564028D01*
X88167719Y-63564028D02*
X88107716Y-63413347D01*
X88107716Y-63413347D02*
X88049535Y-63262319D01*
X88049535Y-63262319D02*
X87991334Y-63105892D01*
X87991334Y-63105892D02*
X87933317Y-62944031D01*
X87933317Y-62944031D02*
X87877407Y-62781777D01*
X87877407Y-62781777D02*
X87826912Y-62629309D01*
X87826912Y-62629309D02*
X87773528Y-62461198D01*
X87773528Y-62461198D02*
X87723934Y-62297783D01*
X87723934Y-62297783D02*
X87677943Y-62139107D01*
X87677943Y-62139107D02*
X87633979Y-61980068D01*
X87633979Y-61980068D02*
X87590737Y-61815518D01*
X87590737Y-61815518D02*
X87547187Y-61640261D01*
X87547187Y-61640261D02*
X87508466Y-61474919D01*
X87508466Y-61474919D02*
X87471952Y-61309192D01*
X87471952Y-61309192D02*
X87437660Y-61143083D01*
X87437660Y-61143083D02*
X87403671Y-60966179D01*
X87403671Y-60966179D02*
X87371330Y-60783622D01*
X87371330Y-60783622D02*
X87342497Y-60605848D01*
X87342497Y-60605848D02*
X87315495Y-60422402D01*
X87315495Y-60422402D02*
X87291877Y-60243764D01*
X87291877Y-60243764D02*
X87269120Y-60048886D01*
X87269120Y-60048886D02*
X87250432Y-59864081D01*
X87250432Y-59864081D02*
X87234522Y-59678830D01*
X87234522Y-59678830D02*
X87221069Y-59487826D01*
X87221069Y-59487826D02*
X87210338Y-59291027D01*
X87210338Y-59291027D02*
X87202602Y-59088398D01*
X87202602Y-59088398D02*
X87198214Y-58885250D01*
X87198214Y-58885250D02*
X87197129Y-58721828D01*
X149225000Y-27940000D02*
X149451922Y-27940634D01*
X149451922Y-27940634D02*
X149662707Y-27942369D01*
X149662707Y-27942369D02*
X149862678Y-27945035D01*
X149862678Y-27945035D02*
X150072876Y-27948906D01*
X150072876Y-27948906D02*
X150282768Y-27953869D01*
X150282768Y-27953869D02*
X150492352Y-27959923D01*
X150492352Y-27959923D02*
X150691164Y-27966677D01*
X150691164Y-27966677D02*
X150931449Y-27976161D01*
X150931449Y-27976161D02*
X151140049Y-27985567D01*
X151140049Y-27985567D02*
X151337918Y-27995501D01*
X151337918Y-27995501D02*
X151535492Y-28006403D01*
X151535492Y-28006403D02*
X151732768Y-28018271D01*
X151732768Y-28018271D02*
X151940100Y-28031804D01*
X151940100Y-28031804D02*
X152136751Y-28045644D01*
X152136751Y-28045644D02*
X152353746Y-28062056D01*
X152353746Y-28062056D02*
X152549748Y-28077909D01*
X152549748Y-28077909D02*
X152735143Y-28093807D01*
X152735143Y-28093807D02*
X152920253Y-28110556D01*
X152920253Y-28110556D02*
X153115336Y-28129158D01*
X153115336Y-28129158D02*
X153299854Y-28147653D01*
X153299854Y-28147653D02*
X153484079Y-28166992D01*
X153484079Y-28166992D02*
X153678220Y-28188322D01*
X153678220Y-28188322D02*
X153861837Y-28209393D01*
X153861837Y-28209393D02*
X154045154Y-28231301D01*
X154045154Y-28231301D02*
X154228168Y-28254044D01*
X154228168Y-28254044D02*
X154431158Y-28280294D01*
X154431158Y-28280294D02*
X154623646Y-28306182D01*
X154623646Y-28306182D02*
X154805683Y-28331559D01*
X154805683Y-28331559D02*
X154997495Y-28359243D01*
X154997495Y-28359243D02*
X155188955Y-28387846D01*
X155188955Y-28387846D02*
X155380058Y-28417363D01*
X155380058Y-28417363D02*
X155560774Y-28446169D01*
X155560774Y-28446169D02*
X155741167Y-28475795D01*
X155741167Y-28475795D02*
X155961201Y-28513108D01*
X155961201Y-28513108D02*
X156140864Y-28544541D01*
X156140864Y-28544541D02*
X156330146Y-28578598D01*
X156330146Y-28578598D02*
X156528989Y-28615420D01*
X156528989Y-28615420D02*
X156697677Y-28647500D01*
X156697677Y-28647500D02*
X156866062Y-28680297D01*
X156866062Y-28680297D02*
X157034143Y-28713809D01*
X157034143Y-28713809D02*
X157201914Y-28748032D01*
X157201914Y-28748032D02*
X157369376Y-28782967D01*
X157369376Y-28782967D02*
X157536525Y-28818610D01*
X157536525Y-28818610D02*
X157703362Y-28854960D01*
X157703362Y-28854960D02*
X157869881Y-28892015D01*
X157869881Y-28892015D02*
X158036080Y-28929772D01*
X158036080Y-28929772D02*
X158201961Y-28968231D01*
X158201961Y-28968231D02*
X158377246Y-29009716D01*
X158377246Y-29009716D02*
X158542459Y-29049610D01*
X158542459Y-29049610D02*
X158707345Y-29090202D01*
X158707345Y-29090202D02*
X158871901Y-29131488D01*
X158871901Y-29131488D02*
X159045777Y-29175955D01*
X159045777Y-29175955D02*
X159209648Y-29218661D01*
X159209648Y-29218661D02*
X159373184Y-29262056D01*
X159373184Y-29262056D02*
X159536382Y-29306137D01*
X159536382Y-29306137D02*
X159699239Y-29350901D01*
X159699239Y-29350901D02*
X159861754Y-29396346D01*
X159861754Y-29396346D02*
X160023923Y-29442471D01*
X160023923Y-29442471D02*
X160185748Y-29489276D01*
X160185748Y-29489276D02*
X160347221Y-29536755D01*
X160347221Y-29536755D02*
X160508344Y-29584909D01*
X160508344Y-29584909D02*
X160697448Y-29642421D01*
X160697448Y-29642421D02*
X160904893Y-29706756D01*
X160904893Y-29706756D02*
X161102352Y-29769211D01*
X161102352Y-29769211D02*
X161261793Y-29820512D01*
X161261793Y-29820512D02*
X161467592Y-29887887D01*
X161467592Y-29887887D02*
X161626198Y-29940708D01*
X161626198Y-29940708D02*
X161803027Y-30000524D01*
X161803027Y-30000524D02*
X161970123Y-30057949D01*
X161970123Y-30057949D02*
X162136800Y-30116107D01*
X162136800Y-30116107D02*
X162303057Y-30174996D01*
X162303057Y-30174996D02*
X162450485Y-30227956D01*
X162450485Y-30227956D02*
X162597578Y-30281491D01*
X162597578Y-30281491D02*
X162744332Y-30335599D01*
X162744332Y-30335599D02*
X162899886Y-30393716D01*
X162899886Y-30393716D02*
X163045937Y-30449002D01*
X163045937Y-30449002D02*
X163200742Y-30508367D01*
X163200742Y-30508367D02*
X163373294Y-30575472D01*
X163373294Y-30575472D02*
X163518225Y-30632601D01*
X163518225Y-30632601D02*
X163671829Y-30693918D01*
X163671829Y-30693918D02*
X163816035Y-30752207D01*
X163816035Y-30752207D02*
X164013741Y-30833268D01*
X164013741Y-30833268D02*
X164157108Y-30892885D01*
X164157108Y-30892885D02*
X164300117Y-30953060D01*
X164300117Y-30953060D02*
X164469471Y-31025235D01*
X164469471Y-31025235D02*
X164620566Y-31090474D01*
X164620566Y-31090474D02*
X164842023Y-31187543D01*
X164842023Y-31187543D02*
X164983285Y-31250372D01*
X164983285Y-31250372D02*
X165132975Y-31317728D01*
X165132975Y-31317728D02*
X165299781Y-31393737D01*
X165299781Y-31393737D02*
X165439844Y-31458339D01*
X165439844Y-31458339D02*
X165579531Y-31523481D01*
X165579531Y-31523481D02*
X165718843Y-31589167D01*
X165718843Y-31589167D02*
X165875119Y-31663706D01*
X165875119Y-31663706D02*
X166013629Y-31730533D01*
X166013629Y-31730533D02*
X166151757Y-31797895D01*
X166151757Y-31797895D02*
X166289503Y-31865793D01*
X166289503Y-31865793D02*
X166426864Y-31934222D01*
X166426864Y-31934222D02*
X166563840Y-32003184D01*
X166563840Y-32003184D02*
X166700426Y-32072671D01*
X166700426Y-32072671D02*
X166836623Y-32142689D01*
X166836623Y-32142689D02*
X166980901Y-32217659D01*
X166980901Y-32217659D02*
X167124738Y-32293220D01*
X167124738Y-32293220D02*
X167259703Y-32364875D01*
X167259703Y-32364875D02*
X167411066Y-32446111D01*
X167411066Y-32446111D02*
X167545187Y-32518873D01*
X167545187Y-32518873D02*
X167687250Y-32596750D01*
X167687250Y-32596750D02*
X167820541Y-32670576D01*
X167820541Y-32670576D02*
X167978298Y-32758915D01*
X167978298Y-32758915D02*
X168143738Y-32852684D01*
X168143738Y-32852684D02*
X168275630Y-32928274D01*
X168275630Y-32928274D02*
X168431720Y-33018699D01*
X168431720Y-33018699D02*
X168562709Y-33095400D01*
X168562709Y-33095400D02*
X168717722Y-33187139D01*
X168717722Y-33187139D02*
X168847800Y-33264942D01*
X168847800Y-33264942D02*
X169009812Y-33362903D01*
X169009812Y-33362903D02*
X169138947Y-33441836D01*
X169138947Y-33441836D02*
X169267660Y-33521267D01*
X169267660Y-33521267D02*
X169395948Y-33601195D01*
X169395948Y-33601195D02*
X169563678Y-33706852D01*
X169563678Y-33706852D02*
X169690977Y-33787924D01*
X169690977Y-33787924D02*
X169817844Y-33869484D01*
X169817844Y-33869484D02*
X169944280Y-33951537D01*
X169944280Y-33951537D02*
X170078142Y-34039255D01*
X170078142Y-34039255D02*
X170234999Y-34143156D01*
X170234999Y-34143156D02*
X170359988Y-34226820D01*
X170359988Y-34226820D02*
X170492309Y-34316245D01*
X170492309Y-34316245D02*
X170616389Y-34400905D01*
X170616389Y-34400905D02*
X170747740Y-34491383D01*
X170747740Y-34491383D02*
X170901622Y-34598517D01*
X170901622Y-34598517D02*
X171039521Y-34695575D01*
X171039521Y-34695575D02*
X171176848Y-34793234D01*
X171176848Y-34793234D02*
X171313603Y-34891491D01*
X171313603Y-34891491D02*
X171442233Y-34984838D01*
X171442233Y-34984838D02*
X171592904Y-35095337D01*
X171592904Y-35095337D02*
X171720412Y-35189834D01*
X171720412Y-35189834D02*
X171862305Y-35296070D01*
X171862305Y-35296070D02*
X171981289Y-35386039D01*
X171981289Y-35386039D02*
X172099809Y-35476471D01*
X172099809Y-35476471D02*
X172232588Y-35578759D01*
X172232588Y-35578759D02*
X172350115Y-35670167D01*
X172350115Y-35670167D02*
X172467174Y-35762034D01*
X172467174Y-35762034D02*
X172591032Y-35860141D01*
X172591032Y-35860141D02*
X172707116Y-35952946D01*
X172707116Y-35952946D02*
X172829933Y-36052046D01*
X172829933Y-36052046D02*
X172945034Y-36145781D01*
X172945034Y-36145781D02*
X173066806Y-36245868D01*
X173066806Y-36245868D02*
X173180918Y-36340529D01*
X173180918Y-36340529D02*
X173294547Y-36435635D01*
X173294547Y-36435635D02*
X173414749Y-36537173D01*
X173414749Y-36537173D02*
X173583508Y-36681372D01*
X173583508Y-36681372D02*
X173695405Y-36778053D01*
X173695405Y-36778053D02*
X173827643Y-36893433D01*
X173827643Y-36893433D02*
X173966090Y-37015550D01*
X173966090Y-37015550D02*
X174083163Y-37119886D01*
X174083163Y-37119886D02*
X174199675Y-37224711D01*
X174199675Y-37224711D02*
X174308819Y-37323812D01*
X174308819Y-37323812D02*
X174417463Y-37423346D01*
X174417463Y-37423346D02*
X174532342Y-37529568D01*
X174532342Y-37529568D02*
X174653364Y-37642566D01*
X174653364Y-37642566D02*
X174760397Y-37743457D01*
X174760397Y-37743457D02*
X174906738Y-37882874D01*
X174906738Y-37882874D02*
X175032348Y-38003920D01*
X175032348Y-38003920D02*
X175137566Y-38106313D01*
X175137566Y-38106313D02*
X175242267Y-38209125D01*
X175242267Y-38209125D02*
X175365928Y-38331752D01*
X175365928Y-38331752D02*
X175482406Y-38448465D01*
X175482406Y-38448465D02*
X175585390Y-38552647D01*
X175585390Y-38552647D02*
X175726140Y-38696569D01*
X175726140Y-38696569D02*
X175840560Y-38814897D01*
X175840560Y-38814897D02*
X175941708Y-38920510D01*
X175941708Y-38920510D02*
X176048598Y-39033169D01*
X176048598Y-39033169D02*
X176148653Y-39139618D01*
X176148653Y-39139618D02*
X176248175Y-39246467D01*
X176248175Y-39246467D02*
X176359500Y-39367150D01*
X176359500Y-39367150D02*
X176476274Y-39495087D01*
X176476274Y-39495087D02*
X176580111Y-39610030D01*
X176580111Y-39610030D02*
X176677284Y-39718620D01*
X176677284Y-39718620D02*
X176779935Y-39834427D01*
X176779935Y-39834427D02*
X176917841Y-39991813D01*
X176917841Y-39991813D02*
X177024977Y-40115543D01*
X177024977Y-40115543D02*
X177125526Y-40232852D01*
X177125526Y-40232852D02*
X177219592Y-40343660D01*
X177219592Y-40343660D02*
X177313105Y-40454849D01*
X177313105Y-40454849D02*
X177406065Y-40566423D01*
X177406065Y-40566423D02*
X177509981Y-40692400D01*
X177509981Y-40692400D02*
X177630325Y-40839982D01*
X177630325Y-40839982D02*
X177738373Y-40974063D01*
X177738373Y-40974063D02*
X177840004Y-41101581D01*
X177840004Y-41101581D02*
X177935332Y-41222447D01*
X177935332Y-41222447D02*
X178052210Y-41372330D01*
X178052210Y-41372330D02*
X178140602Y-41486957D01*
X178140602Y-41486957D02*
X178233893Y-41609150D01*
X178233893Y-41609150D02*
X178337396Y-41746211D01*
X178337396Y-41746211D02*
X178434704Y-41876532D01*
X178434704Y-41876532D02*
X178531282Y-42007311D01*
X178531282Y-42007311D02*
X178621822Y-42131245D01*
X178621822Y-42131245D02*
X178711708Y-42255588D01*
X178711708Y-42255588D02*
X178795706Y-42372982D01*
X178795706Y-42372982D02*
X178884314Y-42498106D01*
X178884314Y-42498106D02*
X178977412Y-42631027D01*
X178977412Y-42631027D02*
X179059542Y-42749552D01*
X179059542Y-42749552D02*
X179146159Y-42875872D01*
X179146159Y-42875872D02*
X179232107Y-43002585D01*
X179232107Y-43002585D02*
X179317386Y-43129692D01*
X179317386Y-43129692D02*
X179401991Y-43257189D01*
X179401991Y-43257189D02*
X179490838Y-43392610D01*
X179490838Y-43392610D02*
X179578927Y-43528465D01*
X179578927Y-43528465D02*
X179661426Y-43657171D01*
X179661426Y-43657171D02*
X179743239Y-43786257D01*
X179743239Y-43786257D02*
X179824372Y-43915726D01*
X179824372Y-43915726D02*
X179918942Y-44068524D01*
X179918942Y-44068524D02*
X180003244Y-44206493D01*
X180003244Y-44206493D02*
X180091387Y-44352580D01*
X180091387Y-44352580D02*
X180192370Y-44522320D01*
X180192370Y-44522320D02*
X180274125Y-44661657D01*
X180274125Y-44661657D02*
X180355096Y-44801407D01*
X180355096Y-44801407D02*
X180430848Y-44933769D01*
X180430848Y-44933769D02*
X180505900Y-45066499D01*
X180505900Y-45066499D02*
X180584598Y-45207430D01*
X180584598Y-45207430D02*
X180662504Y-45348764D01*
X180662504Y-45348764D02*
X180739616Y-45490503D01*
X180739616Y-45490503D02*
X180815931Y-45632642D01*
X180815931Y-45632642D02*
X180887271Y-45767248D01*
X180887271Y-45767248D02*
X180970283Y-45926059D01*
X180970283Y-45926059D02*
X181040062Y-46061429D01*
X181040062Y-46061429D02*
X181125268Y-46229134D01*
X181125268Y-46229134D02*
X181193434Y-46365281D01*
X181193434Y-46365281D02*
X181260876Y-46501774D01*
X181260876Y-46501774D02*
X181327592Y-46638610D01*
X181327592Y-46638610D02*
X181341239Y-46666825D01*
M02*
