M48
; DRILL file {KiCad (5.1.2-1)-1} date Friday, 23 August 2019 at 12:39:35 pm
; FORMAT={-:-/ absolute / metric / decimal}
; #@! TF.CreationDate,2019-08-23T12:39:35+12:00
; #@! TF.GenerationSoftware,Kicad,Pcbnew,(5.1.2-1)-1
FMAT,2
METRIC
T1C0.400
T2C0.500
T3C0.750
T4C0.762
T5C1.000
T6C2.200
%
G90
G05
T1
X108.817Y-66.725
X109.728Y-66.421
X111.506Y-61.976
X119.126Y-54.737
X133.858Y-57.912
X134.366Y-51.562
X134.366Y-52.832
X134.366Y-54.102
X134.366Y-55.372
X136.144Y-48.133
X136.398Y-59.69
X137.033Y-78.105
X137.287Y-40.005
X141.605Y-51.943
X142.418Y-67.742
X142.564Y-51.905
X142.621Y-65.278
X142.748Y-74.295
X143.383Y-62.484
X144.018Y-46.736
X145.034Y-41.148
X145.796Y-51.816
X145.923Y-45.593
X147.32Y-46.736
X147.32Y-48.26
X147.32Y-49.784
X147.32Y-51.308
X147.32Y-52.832
X147.32Y-54.356
X147.373Y-67.303
X154.813Y-53.975
X155.79Y-43.522
X156.972Y-39.497
X156.972Y-44.704
X157.226Y-49.53
X158.669Y-53.721
X158.75Y-56.769
X159.893Y-46.99
X160.029Y-49.886
X160.029Y-50.927
X160.029Y-53.721
X160.658Y-52.972
X161.798Y-54.864
X162.814Y-54.864
X164.846Y-62.357
X165.227Y-47.752
X165.608Y-53.467
X165.989Y-51.562
X167.259Y-53.721
X169.367Y-68.529
X169.418Y-76.149
X170.688Y-44.831
X170.688Y-47.625
X173.101Y-54.229
X174.752Y-56.134
X174.752Y-57.531
T3
X106.195Y-45.589
X108.008Y-44.743
X109.82Y-43.898
X111.633Y-43.053
X139.954Y-82.042
X141.954Y-82.042
X106.172Y-71.882
X107.985Y-72.727
X109.797Y-73.572
X111.61Y-74.418
X174.133Y-47.036
X175.133Y-48.768
X97.028Y-65.151
X98.56Y-66.437
X100.092Y-67.722
X101.624Y-69.008
X96.877Y-52.371
X98.409Y-51.085
X99.941Y-49.8
X101.473Y-48.514
X173.99Y-70.739
X174.99Y-69.007
T4
X117.475Y-73.66
X119.475Y-73.66
X121.475Y-73.66
X123.475Y-73.66
X117.475Y-43.18
X119.475Y-43.18
X121.475Y-43.18
X123.475Y-43.18
X117.475Y-66.04
X119.475Y-66.04
X121.475Y-66.04
X123.475Y-66.04
X117.475Y-50.8
X119.475Y-50.8
X121.475Y-50.8
X123.475Y-50.8
T5
X157.099Y-66.04
X159.639Y-66.04
X162.179Y-66.04
X157.099Y-63.5
X159.639Y-63.5
X162.179Y-63.5
X157.099Y-71.12
X159.639Y-71.12
X162.179Y-71.12
X157.099Y-73.66
X159.639Y-73.66
X162.179Y-73.66
X129.54Y-40.64
X129.54Y-43.18
X129.54Y-45.72
X129.54Y-48.26
X129.54Y-50.8
X129.54Y-53.34
X129.54Y-55.88
X129.54Y-58.42
X129.54Y-60.96
X129.54Y-63.5
X129.54Y-66.04
X129.54Y-68.58
X129.54Y-71.12
X129.54Y-73.66
X129.54Y-76.2
X129.54Y-78.74
X157.099Y-76.2
X159.639Y-76.2
X162.179Y-76.2
X157.099Y-60.96
X159.639Y-60.96
X162.179Y-60.96
X152.4Y-40.64
X152.4Y-43.18
X152.4Y-45.72
X152.4Y-48.26
X152.4Y-50.8
X152.4Y-53.34
X152.4Y-55.88
X152.4Y-58.42
X152.4Y-60.96
X152.4Y-63.5
X152.4Y-66.04
X152.4Y-68.58
X152.4Y-71.12
X152.4Y-73.66
X152.4Y-76.2
X152.4Y-78.74
X157.099Y-68.58
X159.639Y-68.58
X162.179Y-68.58
T6
X122.095Y-80.518
X179.753Y-66.04
X179.753Y-51.816
X95.425Y-58.928
X122.095Y-36.068
T2
G00X182.643Y-55.628
M15
G01X181.943Y-55.628
M16
G05
G00X182.643Y-62.228
M15
G01X181.943Y-62.228
M16
G05
T0
M30
