<?xml version="1.0" encoding="utf-8"?>
<!-- Generator: Adobe Illustrator 22.1.0, SVG Export Plug-In . SVG Version: 6.00 Build 0)  -->
<svg version="1.1" id="Layer_3" xmlns="http://www.w3.org/2000/svg" xmlns:xlink="http://www.w3.org/1999/xlink" x="0px" y="0px"
	 viewBox="0 0 338.5 216.1" style="enable-background:new 0 0 338.5 216.1;" xml:space="preserve">
<style type="text/css">
	.st0{fill:none;stroke:#000000;stroke-miterlimit:10;}
</style>
<path class="st0" d="M211.5,20.8c40.9,0,76,21.9,91,53.1c5.1,10.5,7.9,22,7.9,34.2c0,12.2-2.7,23.6-7.9,34.2
	c-15.2,31-50.3,53.1-91,53.1c-33.4,0-91.4-12.5-131.6-34.5c-25.6-14-44.2-32-44.2-52.7c0-20.8,18.4-38.7,44.2-52.7
	C120.1,33.4,178.2,20.8,211.5,20.8z"/>
<path class="st0" d="M52.7,108c0-2.8,0.7-5.6,2-8.5c1-2.1,0.2-4.6-1.9-5.6l0,0c-2.2-1.1-4.8-0.2-5.9,2c-1.8,3.9-2.8,7.9-2.8,12.1
	c0,3.5,0.7,7.6,2.9,12.2c1,2.2,3.7,3.1,5.8,2l0,0c2-1.1,2.8-3.5,1.9-5.6C53.1,113.1,52.7,110.2,52.7,108z"/>
</svg>
